<?xml version="1.0" encoding="utf-8"?> <!-- Generated by Layerhero SVG Exporter: http://www.layerhero.com/photoshop-svg-exporter --><!DOCTYPE svg PUBLIC "-//W3C//DTD SVG 1.1//EN" "http://www.w3.org/Graphics/SVG/1.1/DTD/svg11.dtd"><svg version="1.1" baseProfile="full" xmlns="http://www.w3.org/2000/svg" xmlns:xlink="http://www.w3.org/1999/xlink" xmlns:ev="http://www.w3.org/2001/xml-events" width="46" height="64" viewBox="0 0 46 64"><g transform="scale(NaN)" ><path fill-rule="evenodd"  fill="rgb( 234, 87, 91 )" d="M37.382,38.245 C34.725,40.564 32.973,41.991 32.973,44.351 C32.973,44.351 32.973,47.742 32.973,47.742 C32.973,47.829 32.958,47.914 32.947,48.000 C32.947,48.000 33.005,48.000 33.005,48.000 C33.005,48.000 33.005,53.789 33.005,53.789 C33.005,59.896 28.975,64.000 23.071,64.000 C16.954,64.000 13.005,59.896 13.005,53.789 C13.005,53.789 13.005,48.000 13.005,48.000 C13.005,48.000 13.050,48.000 13.050,48.000 C13.039,47.914 13.026,47.829 13.026,47.742 C13.026,47.742 13.026,44.351 13.026,44.351 C13.026,42.801 11.458,41.543 9.128,39.454 C5.509,36.212 0.929,31.771 0.929,22.446 C0.929,10.069 10.622,-0.000 22.999,-0.000 C35.376,-0.000 45.071,10.069 45.071,22.446 C45.071,31.202 40.975,35.107 37.382,38.245 ZM22.923,60.000 C26.802,60.000 29.005,57.736 29.005,53.789 C29.005,53.789 29.005,51.077 29.005,51.077 C27.553,51.586 25.589,52.000 23.000,52.000 C20.374,52.000 18.415,51.614 16.976,51.122 C16.976,51.122 17.005,53.789 17.005,53.789 C17.005,57.678 19.179,60.000 22.923,60.000 ZM22.999,4.000 C12.829,4.000 4.929,12.275 4.929,22.446 C4.929,29.985 8.401,33.434 11.796,36.475 C14.358,38.771 17.026,40.938 17.026,44.351 C17.026,44.351 17.026,46.947 17.026,46.947 C17.846,47.423 19.493,48.039 22.966,48.039 C26.274,48.039 28.024,47.409 28.973,46.879 C28.973,46.879 28.973,44.351 28.973,44.351 C28.973,40.058 32.034,37.605 34.751,35.232 C38.042,32.357 41.071,29.385 41.071,22.446 C41.071,12.275 33.171,4.000 22.999,4.000 Z"/></g></svg>