<?xml version="1.0" encoding="utf-8"?>
<!-- Generator: Adobe Illustrator 17.1.0, SVG Export Plug-In . SVG Version: 6.00 Build 0)  -->
<!DOCTYPE svg PUBLIC "-//W3C//DTD SVG 1.1//EN" "http://www.w3.org/Graphics/SVG/1.1/DTD/svg11.dtd">
<svg version="1.1" id="Layer_1" xmlns:ev="http://www.w3.org/2001/xml-events"
	 xmlns="http://www.w3.org/2000/svg" xmlns:xlink="http://www.w3.org/1999/xlink" x="0px" y="0px" viewBox="0 0 640 480"
	 enable-background="new 0 0 640 480" xml:space="preserve">
<g transform="scale(NaN)">
	<path fill="#FFCE00" d="M345.1,9.4c129.9,0,235.3,105.4,235.3,235.3S475,480,345.1,480S109.8,374.6,109.8,244.7
		S215.2,9.4,345.1,9.4z"/>
	<path fill="#FFFFFF" d="M345.1,0C475,0,580.4,105.4,580.4,235.3S475,470.6,345.1,470.6S109.8,365.2,109.8,235.3S215.2,0,345.1,0z"
		/>
	<path fill="#FFFFFF" d="M345.1,0C475,0,580.4,105.4,580.4,235.3S475,470.6,345.1,470.6S109.8,365.2,109.8,235.3S215.2,0,345.1,0z"
		/>
	<g>
		<defs>
			<path id="SVGID_1_" d="M345.1,0C475,0,580.4,105.4,580.4,235.3S475,470.6,345.1,470.6S109.8,365.2,109.8,235.3S215.2,0,345.1,0z"
				/>
		</defs>
		<clipPath id="SVGID_2_">
			<use xlink:href="#SVGID_1_"  overflow="visible"/>
		</clipPath>
		<path clip-path="url(#SVGID_2_)" d="M547.5,384.9l-0.9,0l0.3-2.8l2.5,0l0-6.3l-7.2,0l-9.4-1.6l1-7.8h6.5v-31.4l-31.7,0.3
			L491.9,352H357.6c0,0-11.3-18.2-13.2-21c-1.9-2.8-6.6-8.2-10-8.2c-3.1,0-16-0.3-19.5-0.3c-3.5,0-8.2,0-9.1-2.5
			c-0.9-2.5-13.2-39.5-14.7-44.2c-1.9-4.7-3.5-9.1-8.2-9.1s-29.8,0.3-36.1,0.3c-6.3,0-8.2,3.8-8.2,7.5c0,3.8,0,8.5,0,8.5H250v101.6
			h11.6c0,0,0-81.9,0-86.6c0-7.5,7.8-13.8,8.5-6.9c0.3,3.1,15.4,75.3,15.4,75.3h25.1v6l-14.7,2.5l0.3,9.4l0.1,0l-15.4,22l12.5-3.1
			l6.9,4.7l7.2-5l6.3,5.3l6-4.7l7.5,4.1l6-4.4l8.2,5.3l7.2-5.3l12.2,6.3l-10.8-24.2l0.2,0l0.9-8.5l-14.7-2.5l1-7.8H507v6l-14.7,2.5
			l0,1.2l-2.2,0l0.3,5.6l2.1,0l0.1,2.5l1.3,0l-15.4,21.9l12.5-3.1l6.9,4.7l7.2-5l6.3,5.3l6-4.7l7.5,4.1l6-4.4l8.2,5.3l7.2-5l12.2,6
			L547.5,384.9z"/>
		<path clip-path="url(#SVGID_2_)" fill="#FDDD3F" d="M543.1,397.8l-5.3,6.6l-7.2-6.3l-6.9,5.3l-6.3-4.4l-5,4.7l-6.6-4.7l-6.3,5.6
			l-5.3-5.3l-9.1,3.5l14.7-22.3l42.7,0.9l11,23.5L543.1,397.8z M340.7,404.4l-7.2-6.3l-7.2,5.3l-6.6-4.4l-5.3,4.7l-6.6-4.7l-6.6,5.6
			l-5.3-5.3l-9.1,3.5l15.1-22.3l43.3,0.9l11,23.5l-10-7.2L340.7,404.4z"/>
	</g>
	<path fill="#2B2B2D" d="M449.3,405c-4.4,0-8.2-4.4-8.2-9.7c0-5.3,3.8-9.7,8.2-9.7c4.4,0,8.2,4.4,8.2,9.7
		C457.4,400.6,454,405,449.3,405z M430.1,405c-4.4,0-8.2-4.4-8.2-9.7c0-5.3,3.8-9.7,8.2-9.7c4.4,0,8.2,4.4,8.2,9.7
		C438.3,400.6,434.5,405,430.1,405z M410,405c-4.4,0-8.2-4.4-8.2-9.7c0-5.3,3.8-9.7,8.2-9.7s8.2,4.4,8.2,9.7
		C418.2,400.6,414.4,405,410,405z M390.9,405c-4.4,0-8.2-4.4-8.2-9.7c0-5.3,3.8-9.7,8.2-9.7c4.4,0,8.2,4.4,8.2,9.7
		C399.1,400.6,395.3,405,390.9,405z"/>
	<path fill="#FFD500" d="M449.9,400.3c-2.2,0-4.1-2.2-4.1-5c0-2.8,1.9-5,4.1-5c2.2,0,4.1,2.2,4.1,5
		C454.3,398.1,452.4,400.3,449.9,400.3z M430.4,400.3c-2.2,0-4.1-2.2-4.1-5c0-2.8,1.9-5,4.1-5c2.2,0,4.1,2.2,4.1,5
		C434.5,398.1,432.6,400.3,430.4,400.3z M410.7,400.3c-2.2,0-4.1-2.2-4.1-5c0-2.8,1.9-5,4.1-5c2.2,0,4.1,2.2,4.1,5
		C414.7,398.1,412.9,400.3,410.7,400.3z M390.9,400.3c-2.2,0-4.1-2.2-4.1-5c0-2.8,1.9-5,4.1-5c2.2,0,4.1,2.2,4.1,5
		C395.3,398.1,393.4,400.3,390.9,400.3z"/>
	<path d="M380.9,393.4c0,0,0.9-7.2,2.8-11c1.9-4.1,6.9-4.4,6.9-4.4l0.3-16.3l3.5-0.9l5.6,11.9l10,0.6l2.5-11.9l2.8-0.3l2.8,11.3
		l10-0.6l2.8-9.7l3.1-0.3l2.5,11.6l10-0.9l4.1-11l3.5,0.3V379c0,0,5.6-0.3,7.2,3.5c1.9,3.8,0.9,11,0.9,11L380.9,393.4L380.9,393.4z"
		/>
	<polygon points="293.6,374.6 352.6,376.5 352.9,382.1 294,380.9 	"/>
	<path d="M381.2,391.8l82.5-0.6v-7.5h-81.9L381.2,391.8z"/>
	<path d="M568.2,244.1c-4.7,1.6-2.8-4.8,0.4-5.5C573,237.6,569.5,243.1,568.2,244.1z M568.8,247.8c-0.7-4.7,11.1-7.5,5.3-11.9
		c0.7,2.2-1,2.1-2.5,4.7c-1.7-9.3-14.3,2.2-4.1,3.8C565.5,246.6,567.8,246.1,568.8,247.8z M561.6,240.6c-0.3-2.1,8.5-10-0.6-9.1
		c0.3-2.9,0.3-0.1-0.9-3.5c0.5,2.6-2.3,6.2-5.3,5.3c0.5,1,1.5,2.4,2.8,3.5c-0.2-1.6,1.2-5,4.2-4.7c3.9,0.3-1.7,5.7-3.8,5.4
		C558.7,239,560.1,239.7,561.6,240.6z M553.4,230c-1.5,0.7-4.1-2.8,1.3-1.6C554.2,228.9,553.8,229.4,553.4,230z M554.7,233.1
		c-0.2-1.2-0.5-1.7,0.7-2.9c6.2-6.2-1.9-5.3-2.2-5.6c0.5,0.5,5.6-1.8,3.8,1.9c-1.5,2.8-2.9-0.3-4.8-0.7
		C546,224.6,553.6,232.2,554.7,233.1z M544.3,222.1c-0.4-1.1-4.7-0.2-1.3,0.6c0.3,1.4-0.2,2.8-0.9,3.8
		C543.9,225.9,545.1,224.1,544.3,222.1 M540.2,222.4c2.1-2.1-4.1,3-1.3,1.6c-0.5,0.3-5.2-5.6-0.6-6.6c0-0.3-0.1-0.7-0.3-0.9
		c-4.2-0.3-0.7,0.5-3.5-1.6c-0.9,1.2-1.6,2.8-1.9,4.4C532.8,219.3,541.9,229,540.2,222.4 M533,219.6c-1.5-2.9-3.1,0.7-3.1,2.2
		c-1.3-1.4-0.1-3.6-3.5-1.3c0,0.2,0,0.4,0,0.6c2.8,0.8,4.1,5,2.5,7.2c1.5-0.4,3.3-0.9,4.7-1.6c0-0.2,0-0.4,0-0.6
		c-2.6,0.2-4.6-5.4-1.9-6.3c0.2,0.6,0.4,1.3,0.6,1.9C532.6,221.1,532.8,220.3,533,219.6 M524.9,225.6c1.6,4.2-2.3,5.8-3.5,1.3
		C519.9,222.7,523.7,221,524.9,225.6 M526.7,224.6c-2.3-4.4-9.7-3.1-7.5,2.5C520.9,232.3,528.7,229.9,526.7,224.6 M516.1,228.4
		c1.3,3.9-2.4,5.6-3.8,1.7C511.1,226.7,514.7,224.1,516.1,228.4 M518,227.8c-0.8-2.7-6.6-4.9-6.6-0.3c-1.6-0.7-0.1-0.4-3.1-0.3
		c0,0.2,0,0.4,0,0.6c3.2,1.4,4.9,7.6,4.1,11c1.5-0.4,3.3-0.8,4.7-1.6c0-0.2,0-0.4,0-0.6c-2.4,0.4-2.7-1.4-3.5-3.8
		C516.6,233.5,519.6,231.7,518,227.8 M506.4,231.8c1.3,3.9-2.4,5.6-3.8,1.7C501.3,230.1,505.1,227.4,506.4,231.8 M508.2,230.9
		c-0.8-2.7-6.6-4.9-6.6-0.3c-1.6-0.7-0.1-0.4-3.1-0.3c0,0.2,0,0.4,0,0.6c3.2,1.4,4.9,7.6,4.1,11c1.5-0.4,3.3-0.8,4.7-1.6
		c0-0.2,0-0.4,0-0.6c-2.4,0.4-2.7-1.4-3.5-3.8C507.2,236.7,509.2,234.8,508.2,230.9 M500.1,237.8c-2.6-0.1-3.3-3.5-3.8-6.6
		c-0.7,0.1-2.5,0.6-3.1,0.9c0,0.2,0,0.4,0,0.6c7.3,0.1-1.6,13.1-1.6,0c-0.7,0.1-2.5,0.6-3.1,0.9c0,0.2,0,0.4,0,0.6
		c2.3,0.6,3.1,2.9,3.5,5.6c2.1,2.1,4.2-0.4,4.7-2.2C497.3,239.8,498.7,239.2,500.1,237.8z M489.4,239.4c-0.6-2.6-4.2-0.8-5.6-2.2
		c-1.6-3.2,4.2-0.3,4.1-0.3c-0.8-5.1-6.2-0.4-5.3,1.3c0.3,1.1,10.8,6.8,0.9,2.8C484.7,246.4,490.6,241.7,489.4,239.4 M475.3,245
		c-1.6-4.4,6.8-11.8,0.3-13.2c0.6,2.5-1.1,10.9-4.4,10.7c0,0.2,0,0.4,0,0.6C472.7,243.6,473.9,244.5,475.3,245z M468.4,240.3
		c-1.4,1.4-4.5-1,0.6-1.6C468.8,239.3,468.6,239.8,468.4,240.3z M470.9,243.1c-0.7-0.9-1.2-1-0.5-2.8c3.3-8.3-3.3-4.1-4.9-4.1
		c4,0,5.4-0.2-0.4,1.2C459.1,238.9,469.1,242.5,470.9,243.1z M462.4,240.3c-2.3-3.4,4.9-8.5-1.6-9.1c2.6,6.9-8.2,7.3-1.6-0.9
		c-0.7-0.4-2.3-0.8-3.1-0.9c0.2,0.5-2.4,14,3.5,8.2C458.9,240.2,460.7,239,462.4,240.3z M450.5,233.7c-3.7,3.7-4.7-2.9-2.1-4.9
		C451.9,226.1,451.2,232.3,450.5,233.7z M453,236.9c-1.7-4.5,7.1-12.1,0-13.2c1.4,2.1-0.3,3-0.3,5.6c-7.4-10.5-8.5,11.7-1.9,5
		C450,236.7,451.6,235.7,453,236.9z M443.3,233.4c-1.3-3.8,4.4-7.9-1.3-9.1c0.8,2.2-0.1,6.5-2.8,6.6c0,0.2,0,0.4,0,0.6
		C440.8,231.9,441.8,232.8,443.3,233.4z M445.5,223.1c-0.2-1.5-0.8-1.7-1.9-0.6C443.8,223.9,444.4,224.1,445.5,223.1 M441.7,224.9
		c-0.7-0.9-1.6-1.9-3.1-2.2c1.4,1.9-0.1,4-2.5,5.6c-0.7-2.5-1.3-5.8,1.3-5.6c0-0.2,0-0.4,0-0.6c-1.2-0.7-3.1-1.2-4.4-1.6
		c0,0.2,0,0.4,0,0.6c1.3,1.6,0.2,7.8,1.7,8.3C437.8,230.5,438.3,223,441.7,224.9z M430.7,228.7c-1.3-3.8,4.4-7.9-1.3-9.1
		c0.8,2.2-0.1,6.5-2.8,6.6c0,0.2,0,0.4,0,0.6C428.3,227.2,429.3,228.1,430.7,228.7z M432.9,218.4c-0.2-1.5-0.8-1.7-1.9-0.6
		C431.3,219.2,431.9,219.4,432.9,218.4 M423.5,224c-3.7,3.7-4.7-2.9-2.1-4.9C424.9,216.3,424.2,222.6,423.5,224z M425.7,227.1
		c-2.7-4.2,7.1-12.1-0.3-13.2c1.4,2.1-0.3,3-0.3,5.6c-7.4-10.5-8.5,11.7-1.9,5C422.4,227,424.1,226,425.7,227.1z M416,223.7
		c-0.1-0.4,1.6-14.9-3.5-8.2c-0.3-1.7,1.7-2.7-2.2-2.8c0.8,2.1,0.1,7-3.1,6.6c0,0.2,0,0.4,0,0.6c1.2,0.7,3.1,1.2,4.4,1.6
		c-0.4-1.2-1-4.5,0.6-5.3c3.9-3.9,4.1,5.3,0,5c0,0.2,0,0.4,0,0.6C413.5,222.4,414.7,223.3,416,223.7z M406.3,220.2
		c-2.2-3.5,4.3-7.9-1.6-9.1c0.8,2.1,0.1,7-3.1,6.6c0,0.2,0,0.4,0,0.6C403.3,218.8,404.6,219.6,406.3,220.2z M408.8,209.9
		c-0.2-1.5-0.8-1.7-1.9-0.6C407.1,210.7,407.7,210.9,408.8,209.9 M467.1,224c-1,0.5-2.1,1-3.1,1.6
		C463.9,223.4,465.6,220.1,467.1,224z M470,225.9c0,0-2.1,4-4,2.7c-5.7-3.8,3.8-2.8,3.1-4.2c-1.4-2.7-5-4.5-6.7-0.3
		C459.3,231.1,471.3,231.3,470,225.9 M461.8,229c-1.2-2.5-4.7,0.1-5.6-1.9c-1.3-2.7,3.3-0.8,4.1-0.6c-0.2-0.6-1.2-4-1.9-1.9
		c-1.8-0.9-4.4,1.2-3.8,3.1c1.3,2.5,4.6-0.1,5.6,1.9c1.8,3.7-4.6,0.7-4.7,0.6C456.6,235.4,462.9,231.8,461.8,229 M452.4,231.5
		c1.8,4.1-1.7,5.7-3.5,1.6C447.2,229.1,450.7,227.1,452.4,231.5 M454.3,230.6c-2.9-4.4-9.7-2.5-7.5,3.1
		C448.7,239.2,456.4,235.4,454.3,230.6 M447.7,237.5c-3.9-1.3-3.3-12.9-8.8-9.7c0,0.2,0,0.4,0,0.6c3-0.2,6.1,8.1,5,11
		C445.1,238.8,446.6,238.3,447.7,237.5z M442,237.8c-4.1,8.5-7.7-6-3.1-3.8c-0.2-0.2-0.8,3.3,0.9,1.6c1.7-0.9-3.4-5.3-5.4-0.2
		C431.9,241.6,443.1,243.1,442,237.8 M556.2,239.7c-1.2-0.4-2.3-0.8-3.5-1.3C554.3,237,557.8,235.8,556.2,239.7z M556.9,242.8
		c-1.3,0.3-6.1,0.7-4.4-3.5c1.3,0.9,3.8,1.3,5.3,1.9c2.1-11.3-14.1-1.1-5,2.8C554.4,244.4,556.2,244.1,556.9,242.8 M546.2,238.4
		c-3.3,3.3-4.6-3.1-1.5-5.2C548.4,230.8,547.2,237,546.2,238.4z M548.4,241.6c-1.2-4.4,7.6-12.2,0.6-13.5c1.2,1.8,0.5,3.3-0.6,5.6
		c-6-10.1-10.5,10.4-2.5,5C545.2,241.1,546.8,240.2,548.4,241.6z M539,237.8c-1.3-3.8,4.8-7.8-0.9-9.1c0.9,2.6-0.4,6.8-3.1,6.9
		c0,0.2,0,0.4,0,0.6C536.4,236.6,537.6,237.4,539,237.8z M541.8,227.5c-0.2-1.5-0.8-1.7-1.9-0.6
		C540.1,228.7,540.7,228.9,541.8,227.5 M537.7,229.3c-0.7-0.9-1.6-1.9-3.1-2.2c0.8,2.2-0.8,4.2-3.1,5.6c-0.6-2.6-0.9-5.8,1.6-5.6
		c0-0.2,0-0.4,0-0.6c-1.2-0.7-3.1-1.2-4.4-1.6c0,0.2,0,0.4,0,0.6c1.3,1.6,0,7.8,1.4,8.3C532.8,234.8,534,228.4,537.7,229.3z
		 M525.5,228.1c-1.8,4.2-5.2,2.5-3.5-1.6C523.8,222.3,527.2,224,525.5,228.1 M527.4,228.7c1.1-5.1-5.1-8.4-7.2-2.8
		C518.4,230.9,525.4,233.9,527.4,228.7 M520.5,223.1c1.7-3.3-3.8-1-4.4-0.3c0.8-4,0.3-0.6-1.9-3.5c0.9,2.6-0.4,6.8-3.1,6.9
		c0,0.2,0,0.4,0,0.6c1.3,0.7,3,1.2,4.4,1.6c-0.9-1.3,0.1-8,2.8-6.6c1.3,0-0.6,1.3-0.6,0.9C518.2,223.8,519.9,224.9,520.5,223.1
		 M510.4,221.8c-1.8,3.7-5.4,2.3-4.1-1.4C507.7,216.7,511.8,217.7,510.4,221.8 M512.3,222.4c1.3-3.1-1.9-7.2-4.7-4.4
		c-0.7-2.3,0.5-0.3-2.2-2.5c0.8,2.9-1.6,9.5-4.7,10c0,0.2,0,0.4,0,0.6c1.1,0.7,2.8,1.2,4.1,1.6c-1.4-1.9,0.1-2.6,0.3-5
		C507,225.2,510.6,226.3,512.3,222.4 M570.4,222.7c0.8-1.6-2.8-4.7-2.2-5.3c1.8-3.6,2.5,2.6,2.5,2.5c0.7-0.6,1.1-1,1.6-2.2
		c-8.5-5.3-3,4.1-3.8,5.6c-1.9,3.9-3.2-2.9-3.1-2.8c-0.9,0.7-1.4,1.4-1.9,2.8C564.7,224.2,568.9,225.6,570.4,222.7 M566,215.8
		c1.7-3.5-3.5-1-4.1-0.3c0.2-4,0.4-0.3-1.6-3.5c0.9,2.6-0.7,6.5-3.5,6.6c0,0.2,0,0.4,0,0.6c1.3,0.7,3,1.2,4.4,1.6
		c-1.1-1.6,0.1-7.4,3.5-6.3c1.5,0-0.7,1.3-0.6,0.9C564.4,216.4,565.3,217.1,566,215.8 M555.6,214c-1.8,4.2-5.2,2.5-3.5-1.6
		C553.9,208.2,557.9,210,555.6,214 M557.5,214.9c1.2-4.9-4.9-9-7.2-3.5C548,216.4,555.3,220,557.5,214.9 M548.4,212.4
		c0.8-1.6-2.8-4.7-2.2-5.3c1.8-3.6,2.5,2.6,2.5,2.5c0.7-0.6,1.1-1,1.6-2.2c-8.5-5.3-3,4.1-3.8,5.6c-1.9,3.9-3.2-2.9-3.1-2.8
		c-0.9,0.7-1.4,1.4-1.9,2.8C542.8,213.9,547.1,215.5,548.4,212.4 M540.9,211.5c-1.2-3.5,5.2-8.1-0.6-9.1c0.9,2.6-0.7,6.5-3.5,6.6
		c0,0.2,0,0.4,0,0.6C538.4,209.9,539.4,210.9,540.9,211.5z M544.3,201.4c-0.2-0.5-0.4-1-0.6-1.6
		C541.6,198.8,541.7,204.1,544.3,201.4 M540.2,203c-0.7-0.9-1.6-1.9-3.1-2.2c0.9,2.2-1,4-3.5,5.3c-0.5-2.6-0.6-5.8,1.9-5.6
		c0-0.2,0-0.4,0-0.6c-0.7-0.5-2.3-1.1-3.1-1.3c0.3,1.7-0.9,8.2,0.5,8.6C536,208.3,537.3,201.2,540.2,203z M531.8,199.8
		c1.7-3.4-3.2-1-3.8-0.3c0.2-4,0.4-0.3-1.6-3.5c0.9,2.6-0.7,6.5-3.5,6.6c0,0.2,0,0.4,0,0.6c1.1,0.7,2.8,1.2,4.1,1.6
		c-1.1-1.6,0.1-7.4,3.5-6.3c-0.2,0.5-0.4,1-0.6,1.6C530.5,200.8,531.1,200.5,531.8,199.8 M522.4,197.3c-1.2-0.4-2.3-0.8-3.5-1.3
		C520.4,194.6,523.9,193.6,522.4,197.3z M522.7,200.8c-1.5,0.4-6.2,0.2-4.1-4.1c1.3,1,3.8,1.6,5.3,2.2c2.7-11.5-13.9-1-5,2.8
		C520.2,202.4,522,202,522.7,200.8 M513.9,194.5c-1.6,3.1-5.9,2.5-4.3-0.9C511.2,190.1,515.6,189.3,513.9,194.5 M515.8,195.1
		c1.4-3.2-1.6-6.8-4.7-4.7c-0.7-2.3,0.2-0.5-2.2-2.8c0.8,3.4-1.9,9.8-5,10.4c0,0.2,0,0.4,0,0.6c1.1,0.7,2.8,1.2,4.1,1.6
		c-0.6-2.2,0.1-2.2,0.6-5C510.3,198.1,513.7,199.2,515.8,195.1 M504.8,194.5c-1.4-3.7,5.4-8.5-0.9-9.1c2.5,6.8-9.4,7.8-1.9-0.9
		c-0.8-0.4-2.3-0.8-3.1-0.9c0.8,2.1-4.2,12.6,3.5,8.8C501,195,502.9,193.9,504.8,194.5z M496.3,188.2c0.8-1.6-2.8-4.7-2.2-5.3
		c1.8-3.6,2.5,2.6,2.5,2.5c0.7-0.6,1.1-1,1.6-2.2c-8.5-5.3-3,4.1-3.8,5.6c-1.9,3.9-3.2-2.9-3.1-2.8c-0.9,0.7-1.4,1.4-1.9,2.8
		C490.8,189.8,494.8,191.2,496.3,188.2 M477.5,203.9c-4.2-0.8-5.5-13-10-7.8c3.3,0.2,7.7,7.4,7.2,10.4
		C476.2,205.9,477,204.7,477.5,203.9z M473.4,206.7c-4.2-0.8-5.5-13-10-7.8c3.3,0.2,7.7,7.4,7.2,10.4
		C472.2,208.7,472.9,207.5,473.4,206.7z M463.4,207.7c-0.9,0.7-1.9,1.5-2.8,2.2c-0.7-1.5-1.8-4-1.9-5.6
		C460.3,205.2,462,206.3,463.4,207.7z M470.3,208.6c-2.9-0.1-9.3-7.8-11.3-6c-2.2,2,3.3,9.7,1.3,12.9c0.9-0.4,2.7-1.2,3.8-2.2
		c-7.9-0.7,3.4-7.9,1.6-1.6C467.6,211.7,468.9,210.3,470.3,208.6z M449.9,208c-0.8-1.6-3.5,0.3-2.2,1.6
		C448.5,211.2,451.2,209.3,449.9,208 M447.4,210.8c-1.2-0.2-9.5-10.3-8.8-1.3c-0.9-3.2-3-7.1-5.6-3.5c3.3,0.2,7.4,7.4,6.9,10.4
		c1.3-0.7,2.6-1.7,3.5-2.8c-1.8-0.3-6.3-3.7-3.5-6.6c2.8-1.4,4.3,4.6,4.1,6C444.8,212.4,446.5,211.7,447.4,210.8z M437.6,214.6
		c-3.2,10.4-8.1-5.5-3.5-3.1c-0.1-0.1-1,3.5,0.9,1.6c1.1-0.5-4-4.9-5.3,0.7C428.4,220.2,439.9,220.3,437.6,214.6 M428.5,215.2
		c-1.8-3.6-3.1,1.8-2.8,2.8c-2.9-2.8-0.3-0.8-3.8-0.6c2.8,0.2,5.1,4.1,4.7,6.6c1.4-0.7,3-1.8,4.1-2.8c-3.4,0-5.5-6.1-3.8-5.3
		C426.7,215.5,430.2,216.8,428.5,215.2 M422,224.6c-0.2,1.9-1,2.4-2.5,1.6c-1.2-1.8,0.9-2.2,1.6-3.1
		C421.3,223.6,421.6,224.1,422,224.6z M425.7,224.3c-2.5-0.3-4.9-7.3-7.8-4.4c-0.2,0.4-3.6,4.1-0.6,4.1c0.9-0.9-0.8-4.8,2.5-3.1
		c1,4.1,0.6-0.9-1.8,4.3C415.1,231.1,424.2,224.7,425.7,224.3z M413.8,226.5c-0.9,0.7-1.9,1.5-2.8,2.2
		C410.7,226.9,411.6,222.9,413.8,226.5z M416.9,227.8c-0.6,2-2.7,5.5-5.3,1.6c-0.4-0.4,4.8-3,4.4-3.5c-3.1-3.8-9.3-0.5-6.3,4.1
		C412,233.2,419.1,232.1,416.9,227.8 M409.4,232.2c-1-1.6-6.7-0.2-6.1-2.2c0.5-1.7,3.7-0.5,4.2-0.4c-0.5-0.1-1.5-3.9-1.9-1.3
		c-10.6,0,3.7,6.5,2.8,4.7c1.5,3.1-4.1,1.6-4.7,1.6C405.9,239.2,411.2,234.6,409.4,232.2 M400,235c-0.9,0.7-1.9,1.5-2.8,2.2
		C396.8,235.2,397.7,231.9,400,235z M403.1,236.5c-0.6,2-2.7,5.5-5.3,1.6c-0.4-0.4,4.8-3,4.4-3.5c-3.1-3.8-9.3-0.5-6.3,4.1
		C398.3,242.1,404.3,241.2,403.1,236.5 M393.7,236.9c-1.5-2.9-3.1,1.8-2.8,3.1c-2.9-2.8-0.3-0.8-3.8-0.6c2.8,0.2,5.1,4.1,4.7,6.6
		c1.4-0.7,3-1.8,4.1-2.8c-3.4,0-5.5-6.1-3.8-5.3C392.1,237.8,395.5,238.6,393.7,236.9 M487.2,220.2c-2.3-2.3-3.1,1.6-2.8,3.1
		c-3-2.9-0.1-1-3.8-0.3c2.7-0.2,5.3,3.3,5,6c1.3-0.8,3-2.1,4.1-3.1c-3.3,1-5.7-5.3-3.8-4.7C487.7,222.9,487.2,220.3,487.2,220.2
		 M480.6,228.4c2.9,3.5-0.1,6.1-3.1,2.5C474.5,227.3,478.1,224.6,480.6,228.4 M482.2,227.1c-3.9-3.5-9.7,0.2-6.3,5
		C479.2,237.1,485.5,231.7,482.2,227.1 M512,189.5c-0.1-0.6-0.7-2.2-1.3-3.1c-0.2,0-0.4,0-0.6,0c0.2,2.5-3.1,2.1-5.6,1.6
		c1.5-2.3,3.5-4,5.6-3.1c-0.3-1.3-0.8-3.3-1.6-4.4c-0.2,0-0.4,0-0.6,0c-0.5,1.9-7.2,10.2-9.1,6.3c0.3,0.3,1.3-2.5-0.6-1.6
		C495.2,186.6,510.6,188.9,512,189.5z M502.9,179.5c-4.7,0-1.1-5.4,2.5-4.6C510.1,175.9,504.9,179.2,502.9,179.5z M502,183.2
		c0.9-4.8,13.1-1.9,9.7-8.5c-0.2,0-0.4,0-0.6,0c-0.8,1.8-0.9,2.9-4.1,3.5c1.7-9.4-13.5-2.3-5,1.9C500.2,181.2,501.9,181.5,502,183.2
		z M498.2,173.5c0.2-2.8,3.6-3.5,6.6-4.1c-0.2-0.9-0.7-2.4-1.3-3.1c-0.2,0-0.4,0-0.6,0c-0.3,7.2-12.6-1.6,0-1.6
		c-0.2-0.9-0.7-2.4-1.3-3.1c-0.2,0-0.4,0-0.6,0c-0.6,2.3-2.9,3.1-5.6,3.5c-1.2,2.2-0.1,3.8,2.5,4.7
		C495.8,170.6,496.4,172,498.2,173.5z M496.3,163.8c2.3,1.6-2.8-3.5-1.6-0.9c-0.3-0.7,5.1-4.7,6.3-0.9c0.4-2.3,0.7-1.8,2.2-3.8
		c-1.2-0.9-2.9-1.7-4.4-1.9C498.8,155.5,489.1,166.2,496.3,163.8 M494.7,157.5c2.8-0.7,0.3-4.7,2.2-5.6c3.2-1.6,0.3,4.2,0.3,4.1
		c0.6-0.1,4.1-0.9,1.9-1.6c0.8-1.6-1.1-4.8-3.1-3.8c-2.8,0.7-0.3,4.5-2.5,5.6c-3.9,1.9-0.3-4.8-0.3-4.7
		C488,152.6,491.7,158.7,494.7,157.5 M497.9,214.6c3.8-3.8-7.3-1.8-8.2-1.6c1.7,2.6-1.7,6.1-4.4,5.3c0.8,1.2,2.2,2.6,3.8,3.1
		c-2.1-3,2.5-6.4,5-5.3c-1.6-3.3,2.1-4.2,1.9-2.5C495.6,215.2,496.2,215.5,497.9,214.6 M485.6,213.3c-3,3.6-5.9,0.5-3.1-2.8
		C485.5,206.9,488.5,210,485.6,213.3 M487.2,214.6c2.4-4.5-2.5-9.5-6.3-5C476.8,213.7,483.6,218.9,487.2,214.6 M559.4,148.7
		c-0.8,0.8-1.7,1.7-2.5,2.5C556.1,149.3,557,145.5,559.4,148.7z M562.8,149.3c0,1.7-1.2,5.8-5,2.8c1.6-1,6.8-5.9,0.8-5.9
		c-3.7,0-4.5,5.1-2.1,7.1C559.5,156.4,565.4,152.8,562.8,149.3 M558.4,156.5c-2.1,0.3-2.9-3.3-5-3.5c-3.9-0.3-5.9,4.6-7.2,7.5
		c-1.9,0.1-0.8,0.2-3.1,1.3c2.4-0.4,5.9,2.4,5,5.3c1.3-0.7,2.4-1.8,3.1-3.1c-2,0.6-5-0.9-4.7-3.8c0.3-3.9,5.2,1.4,5.1,3.2
		c1.1-0.6,2.4-1.9,3.1-3.1c-2.2,0.6-6.6-2.8-4.1-5.3c2.3-2.3,5.3,3.8,5,5.3C557.6,159.5,557.7,158.3,558.4,156.5z M547.5,167.5
		c-2.8,0.5-3.2-3.3-5.6-3.5c-4-0.2-5.9,4.5-7.2,7.5c-1.7,0.2-0.9,0.3-3.1,1.3c2.7-0.5,6.1,2.7,5.6,5.3c1.3-1,2.3-2.5,2.8-3.5
		c-2.4,0.7-5.9-2-4.4-5c2.3-2.3,5.3,3.8,5,5.3c1.3-0.8,2.1-2.3,2.5-3.1c-2.2,0.6-7-2.7-4.4-5.3c2.2-2.2,5.2,3.6,5,5
		C545.4,170.8,546.5,169.3,547.5,167.5z M533,179.1C535.1,183.2,526.6,178.5,533,179.1C533.3,179.8,533,179.1,533,179.1z
		 M536.5,177.9c-3,0.6-5.5-5.8-8.8-2.5c0.3-1.2-2.5,6.6,0,4.1c0.5-0.5-1.8-5.6,1.9-3.8c2.9,1.4-0.7,2.7-1,4.5
		C527.4,186,534.9,178.7,536.5,177.9z M525.8,179.5c-2.5-2.5-1.9,2.6-1.3,3.5c-1.8-1.3-2.2-3.1-3.8,0.3c2.7-0.5,6.1,2.7,5.6,5.3
		c1-0.8,2.4-2,3.1-3.1c-1.7,0.6-8.1-2.3-5.3-5c0.4,0.4,0.8,0.8,1.3,1.3C526.4,181,526.5,180.2,525.8,179.5 M525.8,191.7
		c1.5,1.5-2.4,5.5-3.8,3.5C520.9,194,524.7,190.6,525.8,191.7 M520.2,187.6c2,2,0.6,5.6-2.5,2.5
		C515.3,187.8,517.7,185.2,520.2,187.6 M521.1,183.8c-1.7,0.5-7.8,4.8-4.4,7.5c2.7-0.4,3.6,0.6,2.5,2.8c1.5,1.5,4.3,3.8,6.9,0.6
		c8.3-8.3-7.1-2.4-6.3-1.6c-0.1-0.1,5.4-9.5-0.6-7.5C520.8,185.4,520.5,184.4,521.1,183.8z M514.5,194.5c3.1,3.1,0.4,6.4-2.8,3.1
		C508.5,194.5,511.6,191,514.5,194.5 M516.1,192.9c-4.3-2.9-9.3,1.2-5.6,5.6C514,203.1,519.7,197.3,516.1,192.9 M508.2,197
		c-2.8-2.8-2.5,2.5-1.9,3.5c-1.8-1.3-2.2-3.1-3.8,0.3c2.5-0.4,5.8,2.8,5.3,5.3c1.2-1,2.5-2.2,3.5-3.5c-3.6,1.3-6.4-5.2-4.7-4.1
		C507.9,199.8,508.6,197.8,508.2,197 M502.9,206.1c3.2,3.2,0,6-2.8,3.1C497.5,206.7,499.7,202.9,502.9,206.1 M504.2,204.5
		c-2.3-2.3-7.8-0.8-6,2.8c-1.8,0.2-0.7-0.2-3.1,1.3c3.2-0.6,8.5,4.8,8.2,7.8c0.9-0.5,2.5-1.4,3.5-2.8c-1.9-0.3-2.1-1.2-4.4-2.5
		C505.5,210.2,507.1,207.5,504.2,204.5 M482.5,199.2c3.9-1.9-2.7-3.2-2.8-3.1c3-3,0.3-0.4,0.6-3.8c-0.2,2.8-4.4,4.8-6.9,4.4
		c0.7,1.4,1.8,3,2.8,4.1c0-3.5,6.2-4.9,5.3-3.1C481.2,198.4,481,200,482.5,199.2 M473.1,195.8c0.7-3.7,7.9-3,4.7-7.8
		c-0.6,2.3-4.5,4.8-7.2,4.4C470.8,194.3,471.8,194.8,473.1,195.8z M481.6,189.5c0.8-1.5,0.4-2.1-1.3-1.9
		C479.5,189.1,479.9,189.7,481.6,189.5 M473.4,187c-0.6-1-1.3-2.1-1.9-3.1C474.3,182.7,476.4,185.2,473.4,187z M472.2,189.8
		c-1.6-0.5-5.6-2.9-1.6-5.3c0.3,1,2.3,4.1,3.5,4.4c10-5-12.8-10.1-6.3-0.3C469,189.8,470.6,190.4,472.2,189.8 M466.2,183.8
		c0.3-1.8,11.3-7.8,2.2-9.1c3.4-0.9,6.4-2.7,4.1-6c-0.7,2.9-7.7,7.1-11,6.6c0.3,1.2,0.9,3,1.6,4.1c0.3-1.5,3.2-4.8,6-3.6
		c4.1,1.7-3.5,4.8-5.1,4.6C464.2,182.1,465.1,182.9,466.2,183.8z M462.4,174.1c2.1,1.4-3.1-2.1-1.6-0.6c0.2,0.2,4-5.9,6.3-1.9
		c0.1-2.8,0.2-1.9,1.3-4.4c-1.4-0.5-3.3-0.5-4.4-0.3C464,166.9,456.9,177.8,462.4,174.1 M456.2,195.5c-0.4-2.7,6.7-10.5-1.6-8.8
		c-0.1-2.6,0.7,0-1.6-3.1c0.4,2.6-2.3,6.6-5,6.3c0.9,1.1,2.2,2.3,3.5,3.1c-0.2-1.6,1.5-7.1,5-5.3c2.3,2.3-3.2,5.8-4.7,5.6
		C452.9,195.3,454.2,195.3,456.2,195.5z M447.7,189.2c-0.5-3.7,6.6-6.3,1.3-8.8c0.4,2.6-2.3,6.6-5,6.3
		C444.9,188.3,446.2,188.5,447.7,189.2z M453,180.1c0.2-1.7-0.4-2.1-1.9-1.3C450.9,180.5,451.6,180.9,453,180.1 M433.6,202.7
		c1.6,0.3-2.5-1-1.9-0.3c-1.7-1.7,3.7-6,6-4.1c-1.2-3.6-0.5-0.8,0-4.4c-1.3-0.2-3.3-0.2-4.4,0C433.3,194.2,427.4,206.8,433.6,202.7
		 M427.9,199.8c-0.2-1.5,7.2-11.6-0.9-9.1c0.4-3,0.9,0-1.3-3.5c0.4,2.3-2.1,6.2-5,5.3c0.5,1,1.5,2.4,2.8,3.5
		c-0.1-1.3,2.5-7.6,5.3-4.7c1.9,1.9-2.7,5.5-4.7,4.7C424.5,197.6,426.1,198.8,427.9,199.8z M421.3,187.9c-0.9-0.7-1.9-1.5-2.8-2.2
		C420.5,183.7,423.8,185.4,421.3,187.9z M421,191.1c-1.5,0-6.2-0.9-3.1-4.7c0.8,1.2,3.5,3.3,4.7,3.1c7.8-7.8-15.1-6.1-6,1.6
		C418.2,192,420.1,192,421,191.1 M412.5,183.2c-5,1.7-2.7-4.4,0.1-5.2C417.1,176.7,414,182.1,412.5,183.2z M413.5,187
		c-0.5-3.7,11.2-10.8,4.1-11.9c0.1,1.8,0.5,2.2-1.9,4.4c-2.7-8.9-13.4,4.1-3.1,4.4C409.5,185.9,412.4,185.4,413.5,187z M405.6,180.4
		c-0.4-2.6,2.5-4.8,4.4-6.9c-0.5-0.6-2.2-1.6-2.8-1.9c0.1,1.3-2.5,7.6-5.3,4.7c-1.8-0.9,3.4-5.8,4.1-6.3c-0.6-0.6-2.2-1.6-2.8-1.9
		c0.3,2.8-7.9,9.3,0.9,9.1C402.1,179.4,404.3,178.9,405.6,180.4z M399.1,172.5c1.6,0.3-2.5-1-1.9-0.3c-1.7-1.7,3.7-6,6-4.1
		c-1.2-3.6-0.5-0.8,0-4.4c-1.3-0.2-3.3-0.2-4.4,0c0.1,0.7,0.4,1.4-0.3,2.3c-0.4,0.4-3.3,3.2-3.2,3.7
		C394.8,171.1,397.6,174.8,399.1,172.5 M394.7,167.8c0.8-0.8-0.3-11.7,1.9-2.5c0.3-0.2,3.3-2.7,0.9-2.2c0-1.9-3.4-3.2-4.7-1.9
		c-1.9,1.9,2,4.5,0.6,6c-3,3-2.8-3.7-2.8-4.1C385.7,166.5,393.3,169.6,394.7,167.8 M447.7,164.1c-0.6,1-1.3,2.1-1.9,3.1
		C444.6,165.3,444.2,162,447.7,164.1z M450.8,164.4c0.2,1.5-0.4,7-4.4,3.8c1.1-1.1,2-3.6,2.8-5c-4.5-1.9-9.1,3.4-4.1,6.3
		C448.6,171.7,454.5,167.2,450.8,164.4 M447.7,172.2c-1.9,0.7-12-6.6-8.8,2.2c-1.9-2.7-5.2-5.4-6.6-1.3c2.9-0.5,9.8,4.3,10,7.2
		c1.1-0.9,2.4-2.2,3.1-3.5c-1.8,0.3-5.2-1-5.6-3.8c-0.6-3.5,6.1,0.4,6.3,2.9C448.5,174.8,447.7,173.8,447.7,172.2z M440.8,179.5
		c-0.3-0.3-0.6-0.4-0.9-0.3c0.2,0.5,1.1,1.8,0.9,2.2c-2.3,2.3-6.1-3.4-4.7-5.6c-3.3,2-0.5,0.6-4.1,0.6c-0.1,1.6,0.3,3.1,0.9,4.4
		C433.5,180.4,445.4,184.1,440.8,179.5 M448.9,229.3c2,0.7-0.5,5.7-2.5,4.4C445.2,232.5,447.2,228.2,448.9,229.3 M456.5,195.8
		c-0.4,1.2-0.8,2.3-1.3,3.5C453.8,197.8,452.9,194,456.5,195.8z M459.9,195.1c0.4,1.7,0.2,5.8-4.1,4.4c1-1.3,1.6-3.8,2.2-5.3
		c-4.8-1.1-7.9,4.7-2.8,6.9C459,202.8,463.7,197.9,459.9,195.1 M454.9,205.8c3.3,3.3-3.1,4.6-5.2,1.5
		C447.2,203.6,453.5,204.8,454.9,205.8z M458.4,203.6c-4.7,1.7-11.5-8.3-13.2-0.9c2-1,3.2-0.5,5.6,0.9c-10.2,6.3,10.2,9.9,5,2.2
		C458.2,206.7,457.3,205,458.4,203.6z M454,213c-3.5,1.2-8.1-5.2-9.1,0.6c2.6-0.9,6.5,0.7,6.6,3.5c0.2,0,0.4,0,0.6,0
		C452.4,215.5,453.4,214.5,454,213z M443.9,209.9c-1.8,0.1-2.1,0.8-0.9,2.2C445.3,213.2,444.6,209.9,443.9,209.9 M451.8,217.7
		c-3.7,1.4-8.5-5.4-9.1,0.9c6.8-2.5,7.8,9.4-0.9,1.9c-0.4,0.8-0.8,2.3-0.9,3.1c2.1-0.8,12.6,4.2,8.8-3.5
		C452.2,221.6,451.2,219.6,451.8,217.7z M442,227.5c2.2,0.9,1.7,1.8,1.3,3.5C438.4,233.4,437.5,224.7,442,227.5 M441.4,223.4
		c-1.9,0.7-5.7,6.5-1.9,8.8c2.4-1.2,3.5-0.6,3.5,1.9c1.9,0.9,4.8,2.1,6.3-1.6c4.8-11.3-6.5,0.6-6,0.6c-0.9-0.9,3.4-10.6-2.8-7.5
		C441.7,224.7,441.3,223.7,441.4,223.4z"/>
	<path d="M548.1,354.2h-3.5v-25.4h-39.2l-17.9,17.9H361.7c0,0-8.2-14.1-11.6-19.1c-3.5-4.7-9.4-9.4-12.9-9.4c-3.5,0-15.1,0-18.5,0
		c-3.5,0-6.6-0.9-7.8-4.1c-1.3-3.5-14.1-40.5-15.7-44.5c-1.6-4.1-6-7.2-9.4-7.2c-3.5,0-20.7,0-20.7,0l0.9-30.4l18.2-15.7
		c0,0,10-24.2,13.2-32c3.1-7.8,8.2-9.1,8.2-9.1l21,66.8h254.1C579.1,282.7,567.5,320.9,548.1,354.2z"/>
	<path fill="#FFD500" d="M476.9,272c21,9.7,9.1,48.6-19.5,34.5C428.9,292.7,440.8,255.1,476.9,272z"/>
	<path fill="#FFFFFF" d="M74.4,315.6c0,0,3.1,15.4-3.5,23.8c-6.9,8.5-10.7,11-10.7,11s8.8,6.6,15.7,2.2c6.9-4.4,12.5-16.3,12.5-16.3
		s4.1,6.9,0.3,11.3c-3.8,4.4-5,6.3-5,6.3s12.2,1.9,16.9-3.8c4.7-5.6,7.8-13.5,7.8-13.5l-4.7-21.3L74.4,315.6z"/>
	<path fill="#FDDD3F" d="M458.7,293.6L438,269.8l2.2-2.5l-13.8-12.9l2.5-3.1l-11.3-7.5l3.1-3.8l-11.9-4.7l2.5-5.3l-13.5-1.9l0.9-5.3
		l-18.8-2.2l1.6-3.8l-21-1.9l2.8-5.6l-24.8-8.5l5.3-7.2l-14.7-21.6l7.2-0.9l-6.3-27.9c0,0,12.9,5.6,22,5.3c8.8,0,16.9-0.6,16.9-0.6
		l-9.7,22l3.8,1.3l-0.3,7.8l3.5-2.2l8.2,13.2l3.1-3.8l11.3,9.7l2.5-5.3l12.5,11.9l2.8-4.7l14.4,16l4.4-3.8l6.9,15.7l5-2.2l6.6,16.3
		l5.3-2.5l7.2,19.8l3.8-1.6l12.9,29.8c0,0,4.4,6.3-2.2,10C464.3,299.3,458.7,293.6,458.7,293.6z"/>
	<path fill="#FDDD3F" d="M229.3,293.6l1.3-4.1l15.7,0.9l0.3,37.3c0,0,76.9,0,83.1,0.9c6.3,0.6,13.2,6.6,13.8,15.1
		c0.6,8.5-9.1,14.7-17.3,14.1c-11-0.9-80.3-7.8-80.3-7.8l0.6,53.6l-4.7-0.6L240,293.3L229.3,293.6z"/>
	<path fill="#FFD500" d="M469,322.5c-38.9,0.3-49.6-32.3-33.3-52.4c16.3-20.4,48.3-10.7,58.7,3.1C501.3,281.4,507.9,322.2,469,322.5
		z M473.1,263.2c-12.2-5-40.8-0.6-41.4,24.5c-0.6,25.4,20.7,31.4,33.9,31.4c11,0,27.6-2.5,30.7-19.8
		C500.7,273.9,485.6,267.9,473.1,263.2z M284.5,246.6c-3.5-13.2,7.8-27.6,25.1-32c7.2,27.9,10.7,48.3,12.5,47.7
		C304.6,266.7,288,259.8,284.5,246.6z"/>
	<path d="M469,291.1c-3.1,3.1-8.8,0-8.8,0l-17.9-21.3l14.1-8.8l12.5,22.6C469,283.6,472.2,288,469,291.1z M432.3,252.2l12.5-9.1
		l6,18.2l-4.7,3.1L432.3,252.2z M423.5,240.9l12.2-10.7l2.8,12.5l-7.2,5.6L423.5,240.9z M414.1,230.9l10-14.1l5.3,12.9l-6.9,6.6
		L414.1,230.9z M400.6,221.8l5.6-16.9l11.3,11.9l-5,7.8L400.6,221.8z M355.8,151.2c-25.4,0-45.8-20.7-45.8-45.8
		c0-25.4,20.7-45.8,45.8-45.8c25.4,0,45.8,20.7,45.8,45.8S381.2,151.2,355.8,151.2z M355.8,68.4c-20.4,0-36.7,16.3-36.7,36.7
		s16.3,36.7,36.7,36.7c20.4,0,36.7-16.3,36.7-36.7S376.2,68.4,355.8,68.4z M299.6,248.8c-4.1-2.5-77.5-52.7-77.5-52.7l3.8-8.2
		c0,0,72.5,46.1,77.2,50.2C309.3,243.5,305.3,252.2,299.6,248.8z M214.3,194.8c-4.4,0.9-8.8-2.2-9.7-6.6s2.2-8.8,6.6-9.7
		c4.4-0.9,8.8,2.2,9.7,6.6C221.8,189.5,218.7,193.9,214.3,194.8z M111.7,262.3l-6.6-2.5l-13.8,42.7h6.9l1.3,14.7l-29.2,1.6
		l-4.7-16.6l17.3,0.3l15.4-45.5l-2.8-1.3l6.9-21l3.1,1.6l8.8-26l6.3,2.2l-8.8,27l3.8,1.9l-0.9,5.3l85-58.4l3.1,6.3l-89.4,59.6
		L111.7,262.3z M106.7,312.2l-4.4,3.8l-1.9-13.5l6,1.6L106.7,312.2z M359.8,154l-7.8,16.6l-10.4,0.6l-4.7-20.7c0,0,4.1,2.8,11.3,3.8
		C354.5,155.3,359.8,154,359.8,154z M356.7,184.2l-7.8,6.9l-11-16.3l17.6-1.3L356.7,184.2z M370.2,193.9l-5.3,9.1l-17.3-7.2
		l14.4-11.9L370.2,193.9z M385.9,198.9l-3.8,11.9l-15.7-1.9l9.4-16.3L385.9,198.9z M401.3,205.8l-3.5,10.4l-13.5,0.3l6.3-18.5
		L401.3,205.8z"/>
	<path d="M184.2,402.5h59l-0.3-58c0,0,74,8.5,84.1,10c5,0.6,11.6-3.5,12.5-9.1s-4.1-12.9-9.7-13.5c-11.3-1.6-87.5-0.9-87.5-0.9
		l-0.6-37.6h-12.2L184.2,402.5z"/>
	<path fill="#FDDD3F" d="M229.6,289.3l-17.3,103.8l-28.2,4.1L229.6,289.3z"/>
	<path fill="#FDDD3F" d="M330.7,349.2l-8.5,1.3l-5.3-6.9l3.1-8.2l8.5-1.3l5.3,6.9L330.7,349.2z"/>
	<path fill="#FFD500" d="M356.1,68.1c20.4,0,37,16.6,37,37s-16.6,37-37,37c-20.4,0-37-16.6-37-37C319.1,84.4,335.4,68.1,356.1,68.1z
		"/>
	<path d="M183.8,357.3c-3.4,1.7-3.1-4.2,0.3-4.9C188,351.6,185.1,356.4,183.8,357.3z M184.5,360.5c0.2-3.5,9.7-7.1,4.4-10.4
		c-0.2,1.8-1.3,2.1-2.2,4.4c-2.3-10.5-10.8,5.9-3.5,3.5C181.4,359.3,183.4,359.3,184.5,360.5z M178.2,354.2c0.3-0.4,6.2-9.6-0.6-7.8
		c0-1,1.8-1.4-0.9-2.5c0.4,2.4-2.3,5.1-4.7,4.7c0.6,1,2.1,2.5,3.1,3.1c-0.2-1.6,1.4-5.7,4.7-4.1c2.2,2.2-3.5,4.2-4.7,4.1
		C175.8,353,177,353.6,178.2,354.2z M171,345.1c-1.8,0.3-2.4-0.3-1.9-1.9C172.1,340.2,171.1,345.4,171,345.1z M171.9,347.9
		c0.5-1.1-1-0.9,0.5-2.4c5.2-5.2-1.6-4.7-1.8-4.8c0.4,0.4,5-0.6,2.2,2.2c-1.9,1.9-3.1-2.9-5.3-0.6
		C165.5,344.3,171,347.7,171.9,347.9z M216.8,367.7c-1.2-1.4-1.9-1.3-2.2,0.3c1.2,2.4,0.9-0.3,1.3-0.3c0.3,1.3-0.1,2.4-0.9,3.1
		C216.5,370.6,217.2,369.4,216.8,367.7 M213,368.3c0-0.5-0.2-0.7-0.6-0.6c-0.2,0.4,0.4,1.9-0.3,1.9c-3.2,0-1.8-5.8-0.3-6.6
		c-2.1-0.7-1.5-0.5-3.1-1.3c-1,1.2-1.4,2.3-1.6,3.8C207.1,365.5,214.6,373.2,213,368.3 M206.7,365.8c-1.5-2.9-2.6,1.5-2.5,2.2
		c-1.2-1.4,0-3.3-3.1-1.6c0,0.2,0,0.4,0,0.6c2.3,1,3.1,4.3,2.2,6.3c0.9-0.2,2.9-1,3.8-1.6c0-0.2,0-0.4,0-0.6
		c-1.6-0.2-4.7-4.3-1.9-5.6C205.5,367.3,207.2,366.8,206.7,365.8 M199.8,370.5c1.1,3.7-1.9,5.4-3.1,1.3
		C195.5,367.7,198.1,367,199.8,370.5 M201.4,370.2c-2.2-4-8-2.8-6.6,2.2C196,377.3,202.9,374.6,201.4,370.2 M192,373.3
		c1.4,3.4-2.3,4.6-3.3,1.3C187.8,371.5,190.7,369.5,192,373.3 M193.6,372.7c-1-2.9-4.8-3.8-6-0.3c-1.7-1,0-0.4-2.8-0.6
		c0,0.2,0,0.4,0,0.6c2.7,1,4.4,7.1,3.5,9.4c1.5-0.4,2.7-1.4,3.5-2.2c-1.9-0.9-0.9-0.9-2.5-3.1C191.4,377.1,195.4,376.4,193.6,372.7
		 M183.5,376.2c1.4,3.4-2.3,4.6-3.3,1.3C179.3,374.3,182.2,372.3,183.5,376.2 M185.1,375.5c-1-2.9-4.8-3.8-6-0.3
		c-1.7-1,0-0.4-2.8-0.6c0,0.2,0,0.4,0,0.6c2.7,1,4.4,7.1,3.5,9.4c1.5-0.4,2.7-1.4,3.5-2.2c-1.9-0.9-0.9-0.9-2.5-3.1
		C183.2,380,186.3,379.1,185.1,375.5 M177.9,381.5c-1.9-1.1-2.8-3.8-2.8-6.3c-0.6,0.1-1.9,0.6-2.5,0.9c0,0.2,0,0.4,0,0.6
		c5,2.1-0.5,10.2-1.6,0.6c-0.6,0.1-2,0.6-2.5,0.9c0,0.2,0,0.4,0,0.6c2,0.7,2.3,2.7,2.8,5c1.8,1.8,3.8-1,4.1-2.2
		C176.2,383.8,177,383.4,177.9,381.5z M168.8,382.7c-0.8-2.3-3.7-0.8-5-2.2c-1.1-2.2,2.8-0.4,3.5-0.3c-0.7-3.7-5.7-1.8-5,0.9
		c0.2,0.7,9.6,5.6,0.9,2.5C163.9,388.8,169.5,384.1,168.8,382.7 M171.6,395.9c-1-3.4,5.4-10,0-11.3c1,2.5-1,8.9-3.8,10
		c0,0.2,0,0.4,0,0.6C169.3,396.4,170.2,396.1,171.6,395.9z M165.6,391.8c-1.4,1.2-2.2,0.9-2.5-0.6
		C165.1,385.3,166.7,392.6,165.6,391.8z M167.8,394c-0.1-1.5-0.4-1.8,0.5-4.3c1.9-5-6.3-3-4.6-1.4c3.8,0,3.4,0-1.1,1
		C157.7,390.6,166.7,394.1,167.8,394z M160.3,391.8c-1.5-3.1,4.3-6.9-1.3-7.8c1.5,3-3.8,6.9-3.8,4.7c-2.3-1.8,5.2-5.4-0.9-6.3
		c0.2,0.6-1.8,12.8,3.5,7.5C157.2,392.3,158.7,391.2,160.3,391.8z M150,386.2c-3,3-4.3-2.4-2-4.3C151.2,379.2,150.6,384.9,150,386.2
		z M152.2,388.7c-1-3.5,5.7-10.3-0.3-11.3c1.4,2-0.3,2.8-0.3,5.3c-6.6-9.3-7.1,9.9-1.9,4.7C149,389.6,150.5,388.6,152.2,388.7z
		 M143.7,385.9c-1.2-2.9,3.6-6.4-1.3-7.5c0.9,2,0.1,5.3-2.2,6.3c0,0.2,0,0.4,0,0.6C141.6,386.3,142.5,386,143.7,385.9z M145.9,376.8
		c-0.2-1.5-0.8-1.7-1.9-0.6C144.2,377.6,144.8,377.8,145.9,376.8 M142.4,378.7c-0.5-0.3-1.9-0.7-2.8-0.9c0.5,1.9-0.4,3.1-2.5,5
		c-0.7-2.9,0.1-3.8,0.9-5c0-0.2,0-0.4,0-0.6c-1-0.6-3-1.4-4.1-1.6c0,0.2,0,0.4,0,0.6c1.1,1.4,0.4,6.9,1.7,7.4
		C137.7,384.2,139.6,378.9,142.4,378.7z M132.7,381.8c-1.2-2.9,3.6-6.4-1.3-7.5c0.9,2,0.1,5.3-2.2,6.3c0,0.2,0,0.4,0,0.6
		C130.6,382.2,131.5,381.9,132.7,381.8z M134.6,372.7c-0.2-1.5-0.8-1.7-1.9-0.6C132.9,373.5,133.5,373.8,134.6,372.7 M126.4,377.7
		c-3,3-4.3-2.4-2-4.3C127.7,370.7,127.1,376.4,126.4,377.7z M128.3,380.2c-1-3.5,5.7-10.3-0.3-11.3c1.4,2-0.3,2.8-0.3,5.3
		c-6.6-9.3-7.1,9.9-1.9,4.7C125.2,381.2,126.7,380.1,128.3,380.2z M120.2,377.4c-0.4-0.5,1.3-12.2-3.8-7.2c-0.5-1.3,0.9-2.4-2.2-2.5
		c0.9,2,0.1,5.3-2.2,6.3c0,0.2,0,0.4,0,0.6c0.8,0.6,2.6,1.4,3.5,1.6c-0.5-1.1-0.1-7.1,2.8-5.6c2.2,1.1-1,5.1-2.2,5.6
		c0,0.2,0,0.4,0,0.6C117.6,377.9,118.6,377.6,120.2,377.4z M111.7,374.3c-1.2-2.9,3.6-6.4-1.3-7.5c0.9,2,0.1,5.3-2.2,6.3
		c0,0.2,0,0.4,0,0.6C109.6,374.7,110.5,374.4,111.7,374.3z M113.6,365.2c-0.2-1.5-0.8-1.7-1.9-0.6
		C111.9,366,112.5,366.2,113.6,365.2 M142.7,370.8c-0.9,0.4-1.9,0.8-2.8,1.3c-0.3-1.1-0.1-2,0.6-2.8
		C141.6,369.3,142.3,369.9,142.7,370.8z M145.3,372.7c-0.7,1.2-3,3.7-5,0.3c-0.4-0.6,4.5-1.9,4.1-2.5c-2.2-3.7-7.5-2.2-6,2.5
		C139.5,376,146.2,376.3,145.3,372.7 M138,375.5c-0.8-2.3-4.1-0.1-5-1.9c-1.1-2.2,2.8-0.3,3.5-0.3c-0.5-2.5-1.5-1.5-1.6-1.6
		c-1.6-0.8-3.7,1.2-3.1,2.8c0.8,2.3,4.1,0.1,5,1.9c1.6,3.2-4.5,0.3-4.4,0.3C133.7,381.9,138.9,376.8,138,375.5 M129.9,377.4
		c1.8,3.5-1.3,5.3-3.1,1.6C125,375.4,128,373.7,129.9,377.4 M131.5,376.8c-2.4-3.7-8.2-2.4-6.6,2.5
		C126.4,383.8,133.6,381,131.5,376.8 M125.5,382.7c-3-1.5-2.8-10.9-7.5-8.2c0,0.2,0,0.4,0,0.6c2.8,1.1,5.1,7.1,4.1,10
		C123.7,384.9,124.5,383.9,125.5,382.7z M120.8,382.7c-3.5,8.3-5.2-5.9-2.5-3.1c0.9,0.8-2.4,1.6,0.9,1.6c0.9-0.5-3.3-4.2-5.1,0.1
		C111.7,386.8,121.9,388.5,120.8,382.7 M214.6,380.9c-0.9-0.3-1.9-0.6-2.8-0.9C213.1,378.6,216.2,377.6,214.6,380.9z M215.2,383.7
		c-1.1,0.3-5.6,0.4-4.1-3.5c1.2,0.8,3.3,1.1,4.7,1.6c1.8-10.3-12.2-0.4-4.4,2.2C213.3,385.3,214.6,384.9,215.2,383.7 M206.1,379.6
		c-3.1,3.1-4.1-2.8-1.5-4.6C207.7,372.8,207,378.3,206.1,379.6z M207.7,382.4c-0.9-4,6.4-10.5,0.3-11.6c1.5,1.9-0.2,2.6-0.3,5
		c-6.4-9.5-7.4,9.9-1.9,4.4C205.1,381.9,206.4,381.6,207.7,382.4z M199.5,379.3c-1.1-3.3,4-6.6-0.9-7.8c0.9,1.9-0.2,5.8-2.5,6
		C196.7,378.5,198,379.1,199.5,379.3z M202,370.2c-0.2-1.5-0.8-1.7-1.9-0.6C200.4,371,201,371.2,202,370.2 M198.6,371.8
		c-0.7-0.7-1.6-1.4-2.8-1.6c0.6,2.2-0.4,3.3-2.8,5c-0.8-3.1-0.5-4.4,1.9-5c0-0.2,0-0.4,0-0.6c-1.1-0.6-2.9-1.3-4.1-1.6
		c0,0.2,0,0.4,0,0.6c1,1.4,0.2,7,1.4,7.4C194,376.6,196.4,372.3,198.6,371.8z M187.9,370.8c-1.8,3.7-4.7,2.1-3.1-1.6
		C186.5,365.3,189.6,367.4,187.9,370.8 M189.8,371.5c0.9-4.5-4.5-7.3-6.6-2.5C181.5,373.6,187.7,375.6,189.8,371.5 M183.8,366.4
		c1.3-2.6-2.7-0.9-3.5,0c0-3.5,0.6-0.1-1.6-3.1c0.9,1.9-0.2,5.8-2.5,6c0.9,0.8,2.4,1.9,4.1,2.2c-0.9-1.3-0.1-7.3,2.5-6
		C183,365.5,182.7,368.8,183.8,366.4 M174.7,365.5c-1.4,3.5-4.8,1.6-3.5-1.4C172.7,360.9,176,361.8,174.7,365.5 M176.6,365.8
		c1.5-2.9-2-6.1-4.4-3.8c-0.6-1.8,0.3-0.3-1.9-2.2c1,2.3-1.1,8.9-3.8,9.1c0.8,0.9,2,1.8,3.5,2.2c-0.8-2,0.5-2.6,0.6-4.7
		C172.4,368.9,175.1,369.3,176.6,365.8 M230.9,356.1c1.3-1.9-2.2-3.2-2.2-5c1.3-2.6,2.7,2.4,2.5,2.2c0.7-0.6,1.2-0.9,1.6-2.2
		c-8.8-5.6-1.3,10.9-6,2.2c-0.7,0.7-1.2,1.2-1.6,2.5C225.9,356.2,230.3,358.5,230.9,356.1 M227.1,350.1c-0.2-0.6-0.4-1.3-0.6-1.9
		c-1.3,0-2.4,0.4-3.1,1.3c0-3.2-0.2-0.5-1.3-3.1c0.8,1.9-0.5,5.5-2.8,5.6c1,0.8,2.4,1.9,4.1,2.2c-1-1.4,0.1-7.3,2.8-6
		C225.9,348.2,226.2,352,227.1,350.1 M218.4,348.5c-1.8,3.7-4.7,2.1-3.1-1.6C217.1,343.2,220.1,345.1,218.4,348.5 M219.9,349.2
		c1-4.3-4-7.4-6.3-2.8C211.6,350.7,218,353.6,219.9,349.2 M212.1,347.3c1.3-1.9-2.2-3.2-2.2-5c1.3-2.6,2.7,2.4,2.5,2.2
		c0.7-0.6,1.2-0.9,1.6-2.2c-8-5.1-2.7,5.1-3.8,5.3c-2,0.5-1.7-2.5-2.1-3.5c-0.7,0.6-1.2,1.2-1.6,2.5
		C207.3,347.2,210.8,349.2,212.1,347.3 M205.5,346.4c-1.1-3.4,4.4-6.6-0.6-7.8c0.8,1.9-0.5,5.5-2.8,5.6
		C202.7,345.1,204.1,346,205.5,346.4z M208.3,337.6c0.1-1.4-0.4-1.7-1.6-0.9C206.6,338,207.2,338.3,208.3,337.6 M204.9,338.8
		c-0.6-0.8-1.7-1.5-2.8-1.9c0.6,2.2-0.4,3.3-2.8,5c-0.3-3.2,0.8-3.9,1.6-4.7c-0.6-0.7-1.5-1.6-2.8-1.9
		C197.7,347.3,197.5,340.6,204.9,338.8z M197.3,336.3c1.3-2.6-2.9-0.9-3.5-0.3c0-3.2-0.1-0.5-1.3-3.1c0.9,1.9-0.2,5.8-2.5,6
		c0.9,0.8,2.1,1.9,3.8,2.2c-1-1.4,0.1-7.3,2.8-6c-0.2,0.5-0.4,1-0.6,1.6C196.4,336.9,197,336.9,197.3,336.3 M189.2,334.1
		c-0.9-0.4-1.9-0.8-2.8-1.3C187.7,331.6,190.7,331,189.2,334.1z M189.8,336.9c-1.4,0.3-5.3,0.3-3.8-3.5c1.1,0.9,3.3,1.3,4.7,1.9
		c2.3-9.8-12.4-1.3-4.7,2.5C187.6,338.2,188.9,337.9,189.8,336.9 M182,331.6c-3.1,7.6-5.4-6-0.3-3.5
		C182.4,329.2,182.5,330.4,182,331.6 M183.5,332.2c1.3-2.6-1.1-6.1-4.1-4.1c-0.5-1.8,0.4-0.3-1.9-2.2c1,2.3-1.5,8.6-4.1,8.8
		c0.8,0.9,2,1.8,3.5,2.2c-0.9-1.9,0.6-2.4,0.6-4.4C179.2,334.9,181.9,335.5,183.5,332.2 M174.1,331.6c-0.7-2,0.4-4.7,1.9-6.6
		c-0.7-0.4-2.1-0.8-2.8-0.9c0.6,1.5-0.2,6.8-3.1,5.3c-1.8-0.9,1.1-5.7,1.9-6.6c-0.6-0.4-2.1-0.8-2.8-0.9c0.4,0.9-3.5,11.5,2.5,7.5
		C171,331.4,172.6,330.7,174.1,331.6z M166.6,326.3c1.3-1.9-2.2-3.2-2.2-5c1.3-2.6,2.7,2.4,2.5,2.2c0.7-0.6,1.2-0.9,1.6-2.2
		c-8-5.1-2.7,5.1-3.8,5.3c-2,0.5-1.7-2.5-2.1-3.5c-0.7,0.6-1.2,1.2-1.6,2.5C161.5,326,165.9,328.3,166.6,326.3 M155.9,352.9
		c-3-1.4-5.1-10.9-8.8-6.9c2.8,0.6,6.7,6.3,5.6,9.4C154.4,355.1,155.1,354.1,155.9,352.9z M152.2,355.1c-3-1.4-5.5-11.4-8.8-6.6
		c2.7,0.3,6.3,6.2,5.3,9.1C150.4,357.3,151.2,356.3,152.2,355.1z M143.4,356.1c-0.7,0.7-2,1.5-2.8,1.9c-0.2-1.5-1.2-3.3-1.3-4.7
		C140.6,354.3,142,355.2,143.4,356.1z M149.3,357c-2.2-0.5-8.3-7-10-5.3c-1.6,1.5,2,8.7,1.3,11.3c1.5-0.4,2.6-0.9,3.8-2.2
		c-5.7-0.4,3.3-6.5,1.9-1.3C148.3,359.6,148.6,358.2,149.3,357z M131.8,347.9c-1.5-0.8-2.1-0.4-1.9,1.3
		C131.3,350,132,349.6,131.8,347.9 M129.6,350.4c-1.4-2-6-7.5-7.8-1.3c-0.9-3.1-3-5.7-5-2.5c2.5,0.2,5.7,6.7,5.6,7.8
		c0.6,0,2.2-0.2,3.1-1.6c-3.7-0.5-2.1-6.5-1.3-5.6c2-0.3,2.2,4.2,1.9,5.3C127.3,352.2,128.6,351.4,129.6,350.4z M121.1,353.6
		c-2.4,8.9-6.8-4.2-2.8-2.2c-0.1-0.1-1,3.2,0.9,1.3c1.7-1.7-3.7-3.6-4.7,0.3C113.1,358.4,122.2,359.2,121.1,353.6 M113.3,354.2
		c-1.3-2.7-2.7,1.8-2.5,2.8c-1.4-0.9-1-3.3-3.1-0.3c2.4,0.3,4.4,3.4,3.5,6c1.5-0.5,2.7-1.5,3.5-2.5c-2.8-0.2-4.5-5.6-2.8-4.4
		C112.5,356.6,113.7,355.1,113.3,354.2 M107.6,362.4c0.1,1.9-0.7,2.4-2.2,1.6C103.5,360.2,108.2,362.2,107.6,362.4z M110.7,362
		c-0.8-0.8-4.9-5.4-6.9-4.1c-0.1,0.4-3.5,3.8-0.6,3.8c1.1,0,4-5.9,0.6,0.9C101.4,367.5,110.3,362.2,110.7,362z M100.4,363.9
		c-0.8,0.6-1.7,1.3-2.5,1.9C97.6,363.9,98.3,361.1,100.4,363.9z M102.9,365.2c-0.5,1.3-2.6,5.1-4.7,1.6c-0.5-0.4,4.2-2.6,3.8-3.1
		c-2.7-3.6-8-0.2-5.3,3.8C98.7,370.9,104.8,368,102.9,365.2 M96.6,368.9c-1.2-1.9-4.3,0.6-5-0.9c-1.5-3,2.9-1.1,3.5-0.9
		c-1.5-3.9-5.3,0.4-4.1,2.2c0.6,0.9,9.7,3.2,0.9,1.9C93.6,375.1,98.1,371.8,96.6,368.9 M88.2,371.5c-0.8,0.6-1.7,1.3-2.5,1.9
		C85.4,371.8,86.5,368.2,88.2,371.5z M91,372.7c-0.5,1.3-2.6,5.1-4.7,1.6c-0.5-0.4,4.2-2.6,3.8-3.1c-2.7-3.6-8-0.2-5.3,3.8
		C86.6,378,91.9,376.6,91,372.7 M82.8,373c-1.3-2.7-2.7,1.8-2.5,2.8c-3.1-1.8,0-0.7-3.5-0.3c2.4,0.3,4.4,3.4,3.5,6
		c1.5-0.5,2.7-1.5,3.5-2.5c-2.7-0.2-3.6-5.9-2.2-4.4C82.7,374.9,83.1,374.4,82.8,373 M166.9,361.7c-1.5-2.9-2.5,2-2.2,2.8
		c-2.9-1.2-0.1-0.6-3.5,0c2.6,0.1,4.4,3.4,4.1,5.6c1.4-0.7,2.6-1.6,3.5-2.8c-2.9,0.1-5.6-5.3-3.5-4.4
		C166,363.6,167.4,362.7,166.9,361.7 M161.3,368.6c2.1,3.1-0.4,5.2-2.8,2.2C156.1,367.9,158.9,365.6,161.3,368.6 M162.5,367.7
		c-3.2-3-8.8,0.1-5.6,4.1C159.6,375.7,165.7,371.6,162.5,367.7 M200.5,337.9c0-0.8,0.1-1.8-0.6-2.8c-0.2,0-0.4,0-0.6,0
		c-1.4,1-2.2,0.9-5,1.3c1.8-2.3,2.8-3.3,4.7-2.8c-0.2-1.2-0.9-3.1-1.6-4.1c-0.2,0-0.4,0-0.6,0c-0.5,1.6-7.8,8.1-7.8,5.3
		c0.6-0.6,0.4-1-0.6-1.3c-1.3,0,6.1,2.6,7.8,2.7C198.5,336.3,198.9,336.2,200.5,337.9z M192.6,329.1c-3.9,0-1-5,2.2-4.4
		C198.7,325.5,194,328.7,192.6,329.1z M191.7,332.2c2.4-3,12.7-3,8.2-7.5c-0.8,1.8-1.5,1.3-3.5,3.1c1.6-8-11.7-2.4-4.4,1.6
		C190.5,330.3,191.5,330.7,191.7,332.2z M188.5,324.1c1.2-1.9,3.8-2.9,6.3-3.1c-0.1-0.6-0.6-1.9-0.9-2.5c-0.2,0-0.4,0-0.6,0
		c-0.6,1.4-4.6,4.3-6,1.6c-0.9-1.8,4.3-2.7,5.3-2.8c-0.1-0.6-0.6-2-0.9-2.5c-0.2,0-0.4,0-0.6,0c-0.7,2-2.7,2.3-5,2.8
		c-0.9,2.1-0.1,3.5,2.2,4.1C186.3,322.4,186.7,323.2,188.5,324.1z M187,315.3c1.8,1.5-1.3-3.3-1.3-0.9c0-2.9,5.7-2.4,6.6-0.6
		c0.7-2.1,0.5-1.5,1.3-3.1c-1-0.7-2.5-1.2-3.8-1.3C189.8,309.5,181.8,317,187,315.3 M185.4,310c2.5-0.8,0-4.1,1.9-5
		c2.2-1.1,0.3,2.8,0.3,3.5c2.2-0.4,1.4-0.9,1.9-1.6c1.2-1.2-1.3-3.9-2.8-3.1c-2.1,0.7-0.6,3.7-1.9,5c-3.2,1.6-0.3-4.5-0.3-4.4
		C180.5,305.3,182.4,310.7,185.4,310 M208,390.3c3.4-3.4-6.6-1.4-7.2-1.3c1.6,2.4-1.6,5.1-3.8,4.7c1,1,2.9,2.1,3.8,2.5
		c-1.9-2.6,2-5.3,4.4-4.4c-0.5-0.8-0.5-5.5,1.6-3.5c1.1,1.1-0.3,1.2-0.6,0.9C205.8,390.6,206.4,390.9,208,390.3 M197.6,389.3
		c-2.5,3.1-5.7,0.7-2.8-2.2C197.3,384,200.2,386.2,197.6,389.3 M198.9,390.3c2.1-3.9-2.5-8.6-5.3-4.4
		C190,389.5,195.8,394.1,198.9,390.3 M234.4,316.5c-0.7,0.7-1.5,1.5-2.2,2.2C231.3,316.6,231.6,314.5,234.4,316.5z M237.2,317.2
		c-0.1,1.2-1.4,5.2-4.4,2.2c1-0.7,2.3-2.8,3.1-3.8c-3.6-2.1-7.2,1.5-4.4,5C234.1,324,239.4,320.5,237.2,317.2 M233.1,323.5
		c-1.1-0.7-1.7-0.1-3.8-2.2c-1.9-1.9-7.8,3.2-7.2,5.7c-2.2,0-0.3-0.5-2.8,0.9c2.4-0.4,5.1,2.3,4.7,4.7c0.9-0.5,2-1.7,2.5-2.5
		c-1.6,0.2-5.7-1.4-4.1-4.7c2.1-2.1,4.2,3.3,4.1,4.4c0.9-0.5,2-1.7,2.5-2.5c-1.3,0.2-6.6-1.9-3.8-4.7c2.1-2.1,4.2,3.3,4.1,4.4
		C230.5,325.9,232,324.7,233.1,323.5z M223.7,332.9c-1.1-0.7-1.7-0.1-3.8-2.2c-1.9-1.9-7.8,3.2-7.2,5.7c-2.2,0-0.3-0.5-2.8,0.9
		c2.4-0.4,5.1,2.3,4.7,4.7c0.9-0.5,2-1.7,2.5-2.5c-1.6,0.2-5.7-1.4-4.1-4.7c2.1-2.1,4.2,3.3,4.1,4.4c0.9-0.5,2-1.7,2.5-2.5
		c-1.3,0.2-6.6-1.9-3.8-4.7c2.1-2.1,4.2,3.3,4.1,4.4C221.1,335.4,222.6,334.1,223.7,332.9z M211.1,342.9c0.3,1.8-0.3,2.4-1.9,1.9
		C206.3,341.8,211.5,342.8,211.1,342.9z M214.3,342c-1.1-0.6-5.5-3.5-7.5-2.2c0.1-0.9-1.9,5.7,0.3,3.5c0.4-0.4-0.6-5,2.2-2.2
		c1.9,1.9-2.9,3.1-0.6,5.3C210.7,348.4,214.1,342.9,214.3,342z M204.9,343.2c-2.5-2.5-2,2.8-1.9,3.1c-3.2-1,0.3-0.4-3.1,0.3
		c2.4-0.4,5.1,2.3,4.7,4.7c1-0.6,2.5-2.1,3.1-3.1c-1.4,0.2-6-1.5-4.4-4.7c0.4,0.4,0.8,0.8,1.3,1.3
		C205.4,344.4,205.5,343.9,204.9,343.2 M204.9,354.2c1.4,1.4-2.1,4.2-3.5,2.8C200.1,355.7,204.3,353,204.9,354.2 M199.8,350.4
		c2,2,0.3,3.9-2.2,2.2C195.6,350.6,198.1,348.2,199.8,350.4 M200.8,347c-1.4,0.4-7.2,4.2-4.1,6.6c2.4-0.3,3.2,0.6,2.2,2.5
		c1.7,1.7,5.9,3.4,7.1-1.6c1.1-5.1-6.4,0.2-6.4,1c-1-1,5.7-6.9-0.3-6.9C200,348.2,200.6,347.8,200.8,347z M195.1,356.4
		c2.8,2.8,0.3,5.4-2.5,2.5C189.8,356.1,192.3,353.5,195.1,356.4 M196.4,355.1c-3.5-2.4-8.7,1-5,4.7
		C194.7,363.6,199.7,358.5,196.4,355.1 M189.5,358.6c-2.5-2.5-2,2.8-1.9,3.1c-3.2-1,0.3-0.4-3.1,0.3c2.4-0.4,5.1,2.3,4.7,4.7
		c1.3-1.1,2.3-2.5,2.8-3.5c-3.1,1.6-5.3-3.7-3.8-3.1C188.9,360.8,190.6,359.7,189.5,358.6 M185.1,366.4c2.7,2.7-0.3,5.1-2.7,2.7
		C180,366.7,182.4,363.7,185.1,366.4 M186,365.2c-2.1-2.1-6.3-1.2-5.3,2.5c-1.6,0-0.2-0.4-2.5,0.9c2.8-0.4,7.6,4.4,7.2,7.2
		c1.1-0.7,2.4-2.1,3.1-3.1c-1.8-0.1-1.9-1.1-4.1-1.9C187.3,370,188.6,367.7,186,365.2 M163.1,346.7c3.2-1.6-1.5-2.8-2.5-2.5
		c1-1.5,3.2-1.4,0-3.1c-0.1,2.4-3.6,4.1-6,3.1c0.4,1.5,1.3,2.7,2.2,3.5c0.1-3,5.5-4.2,4.4-2.5C160.5,346.4,161.1,346.9,163.1,346.7
		 M155,343.8c1-2.9,7.9-3.2,3.5-6.6c-0.1,2.4-3.6,4.1-6,3.1C152.8,342.1,153.8,342.9,155,343.8z M162.5,338.2
		c0.7-1.2,0.4-1.7-0.9-1.6C160.8,337.8,161.2,338.3,162.5,338.2 M155.3,336c-0.5-0.8-1-1.7-1.6-2.5
		C156.2,332.2,157.5,334.3,155.3,336z M154,338.5c-1.5-0.5-4.7-2.4-1.6-4.7c0.5,1.5,3.3,6.4,4.7,1.8c1-3.1-3.5-4.8-5.6-3.4
		C148,334,150.7,340.2,154,338.5 M149,333.2c2-1.2,8-5.5,1.6-7.5c3.3-1.1,5.6-3.1,2.5-5.3c-0.2,2.7-6.3,6-9.1,5
		c0.3,1.5,1.4,2.7,2.2,3.5c1.3-8.8,9.1,3.5,0,0.3C146.7,330.9,147.7,331.9,149,333.2z M145.9,325c1.2,0.7-1.6-2.8-1.6-0.6
		c-0.1-0.1,3.8-5,6-1.9c0.4-2.1,0.7-1.9,1.3-3.8c-1.1-0.6-2.9-0.9-4.1-0.9C147.4,317.8,139.8,327.1,145.9,325 M137.1,345.4
		c0.1-0.1,4.4-11.5-1.6-7.5c-0.2-1.4,1.5-2.1-1.6-2.8c0.4,2.2-1.5,5.6-4.1,5.6c0.6,0.7,2.2,2.1,3.1,2.5c-0.2-1.4,1.2-6.3,4.4-4.7
		c2,2-2.5,4.9-3.8,5C134.5,345.3,135.6,345.1,137.1,345.4z M129.9,340.1c-1-3.5,5.4-5.3,0.6-7.8c0.4,2.2-1.5,5.6-4.1,5.6
		C127.2,338.8,128.6,339.6,129.9,340.1z M134.3,331.9c0.1-1.4-0.4-1.7-1.6-0.9C132.6,332.3,133.1,332.7,134.3,331.9 M177.9,391.5
		c2.2,0.9-3.4-2.2-1.6-0.3c-1.8-1.8,4.1-4.4,5.6-3.5c-0.3-2.4-0.4-1.2-0.3-3.8c-0.9-0.1-3.2-0.1-3.8,0.3
		C177.5,384.6,174.1,395.3,177.9,391.5 M173.2,389c0.2-0.3,5.6-10.6-0.6-7.5c0-1.5,2.2-2-1.3-3.1c0.4,2.3-1.9,5.4-4.4,5
		c0.7,1,2,2.2,3.1,2.8c-0.1-1.1,2-7.1,4.7-4.4c2.1,2.1-2.9,4.5-4.1,4.4C171.3,386.9,172.3,388.4,173.2,389z M167.5,378.7
		c-0.8-0.6-1.7-1.3-2.5-1.9C166.9,375,169.4,376.2,167.5,378.7z M167.2,381.5c-0.9-0.1-5.5-1.1-2.5-4.1c0.8,1,3,2.1,4.1,2.8
		c4.4-8.6-11.4-5.1-5.3,0.9C164.7,382.1,166.3,382.1,167.2,381.5 M159.7,374.6c-3.8,1.9-2.8-3.8,0-4.7
		C163.4,368.6,161,373.6,159.7,374.6z M160.6,378c0.1-3.4,8.9-7.7,3.8-10.4c-0.2,1.7-1.2,2.3-1.9,4.4c-2.8-10.9-10.8,5.9-3.5,3.5
		C157.2,377,159.3,376.9,160.6,378z M153.7,372.1c-0.4-3.2,6.3-5.2,1.6-7.5c0.2,1.3-2.2,6.9-4.7,4.4c-2.7-2.7,6.8-4.2,1.3-6.9
		c0.1,0.9-6.1,10.7,0.6,8.5C150.7,372.4,152.3,371.8,153.7,372.1z M148.1,365.2c2.2,0.9-3.4-2.2-1.6-0.3c-1.8-1.8,4.1-4.4,5.6-3.5
		c-0.3-2.4-0.4-1.2-0.3-3.8c-1.1-0.2-3.4,0-4.1,0.6C147.2,358.8,145.4,369.2,148.1,365.2 M144.3,361.1c1.1-1.6-1.6-4.4-0.6-5.3
		c1.1-2.2,2.1,2.7,2.2,3.1c1.3-1.1,1-2.8,0.6-2.2c0-9.6-5.9,5.9-3.5,3.5c-1.3,2.6-2.4-3-2.5-3.5C136.8,359.6,142.4,363,144.3,361.1
		 M80.9,350.4c-0.5,0.8-1,1.7-1.6,2.5c-1-0.6-1.3-1.5-0.9-2.5C79.3,350.4,80.1,350.4,80.9,350.4z M84.1,350.7
		c0.1,1.4-0.5,5.6-3.8,3.1c1-0.9,1.8-3.2,2.5-4.4c-3.9-1.4-7.6,2.5-3.8,5.6C82.4,358.1,86.8,352.6,84.1,350.7 M81.3,357.6
		c-0.6-0.4-11.4-4.3-7.5,1.6c-2-2.3-4.6-4.4-6-0.9c2.8-0.3,8.5,3.2,8.8,6.3c0.8-0.8,1.5-2.2,1.9-3.5c-1.7,0.5-5.9-1.1-4.4-4.1
		c2-2,4.9,2.5,5,3.8C79.6,360,80.8,358.7,81.3,357.6z M75,363.9c-0.2,0-0.4,0-0.6,0c0.1,0.3,1,1.8,0.9,1.9c-2.2,2.2-4.8-3.4-4.1-5
		c-1.6,0.2-1.6,0.2-3.5,0.3c-0.1,0.7,0,3.6,0.3,4.1C69,366.4,80.3,367.5,75,363.9 M110.7,383.4c3.3,1.7-2.8,5.8-2.8,3.5
		C108.6,385.7,108.7,382.7,110.7,383.4 M117.3,354.2c-0.4,0.9-0.8,1.9-1.3,2.8C114.8,355.6,114.1,352.6,117.3,354.2z M120.2,353.6
		c0.2,1,0.3,6-3.5,3.8c0.9-1.1,1.3-3.3,1.9-4.7c-4.1-0.7-6.9,4.1-2.5,6.3C119.7,360.8,123.7,355.3,120.2,353.6 M115.8,362.7
		c3.1,3.1-2.8,4.1-4.6,1.5C108.9,360.9,114.9,362.4,115.8,362.7z M118.6,361.1c-3.9,0.9-10.2-6.8-11.3-0.6c1.9-1.5,2.6,0.2,5,0.3
		c-9.6,6.5,9.6,7.7,4.4,2.5C118.6,364,118.1,362.6,118.6,361.1z M115.1,368.9c-3.4,1.1-6.6-4.4-7.8,0.6c1.9-0.8,5.5,0.5,5.6,2.8
		C113.9,371.8,114.8,370.4,115.1,368.9z M106.4,366.4c-1.4-0.1-1.7,0.4-0.9,1.6C106.8,368.1,107.1,367.6,106.4,366.4 M113.3,373.3
		c-2,0.7-4.7-0.4-6.6-1.9c-0.4,0.7-0.8,2.1-0.9,2.8c1.5-0.6,6.8,0.2,5.3,3.1c-0.9,1.8-5.7-1.1-6.6-1.9c-0.4,0.6-0.8,2.1-0.9,2.8
		c1-0.4,11.4,3,7.5-2.8C113,376.2,112.3,374.7,113.3,373.3z M104.5,381.5c2.1,1.1,1.7,4-1.3,2.5
		C100.8,382.8,102.1,380.3,104.5,381.5 M104.2,378c-1.2,0.6-5.4,6.1-1.9,7.8c1.9,0.6,7.4,4.1,8.6,0.5c3.5-10.5-5.9-0.6-5.5-0.2
		c0,0,2.3-9.1-2.8-6.6C103,378.8,103.7,378.6,104.2,378z"/>
</g>
<ellipse transform="matrix(0.9659 -0.2588 0.2588 0.9659 -15.0291 96.0447)" fill="#FFFFFF" cx="357.2" cy="105.1" rx="29.9" ry="20.1"/>
<g>
	<path d="M386.1,97.4c-2.9-10.7-18.1-16-34.1-11.7c-15.9,4.3-26.5,16.4-23.6,27.2c2.9,10.7,18.1,16,34.1,11.7
		C378.4,120.3,389,108.1,386.1,97.4z M368.1,114.9c-8.1,9-19.5,11.9-25.6,6.5c-6-5.4-4.3-17.1,3.8-26.1c8.1-9,19.5-11.9,25.6-6.5
		C377.9,94.2,376.2,105.9,368.1,114.9z"/>
	<circle cx="357.2" cy="105.1" r="7.2"/>
</g>
</svg>
