<?xml version="1.0" encoding="utf-8"?>
<!-- Generator: Adobe Illustrator 17.1.0, SVG Export Plug-In . SVG Version: 6.00 Build 0)  -->
<!DOCTYPE svg PUBLIC "-//W3C//DTD SVG 1.1//EN" "http://www.w3.org/Graphics/SVG/1.1/DTD/svg11.dtd">
<svg version="1.1" id="Layer_1" xmlns:ev="http://www.w3.org/2001/xml-events"
	 xmlns="http://www.w3.org/2000/svg" xmlns:xlink="http://www.w3.org/1999/xlink" x="0px" y="0px" viewBox="-67 -57 180 160"
	 enable-background="new -67 -57 180 160" xml:space="preserve">
<g transform="scale(NaN)">
	<path fill="#FFCE00" d="M23.5-50.6c41.4,0,75,33.6,75,75s-33.6,75-75,75s-75-33.6-75-75S-17.9-50.6,23.5-50.6z"/>
	<path fill="#FFFFFF" d="M23.5-50.3c39.7,0,71.8,32.2,71.8,71.8S63.2,93.4,23.5,93.4s-71.8-32.2-71.8-71.8S-16.1-50.3,23.5-50.3z"/>
	<path fill="#FFFFFF" d="M23.5-53.4c41.4,0,75,33.6,75,75s-33.6,75-75,75s-75-33.6-75-75S-17.9-53.4,23.5-53.4z"/>
	<g>
		<g>
			<defs>
				<path id="SVGID_1_" d="M23.5-53.4c41.4,0,75,33.6,75,75s-33.6,75-75,75s-75-33.6-75-75S-17.9-53.4,23.5-53.4z"/>
			</defs>
			<clipPath id="SVGID_2_">
				<use xlink:href="#SVGID_1_"  overflow="visible"/>
			</clipPath>
			<path clip-path="url(#SVGID_2_)" d="M85.3,67.2H85l0.1-0.9h0.8v-1.9h-2.2L80.8,64l0.3-2.4h2V52l-9.7,0.1l-5.1,5.1h-41
				c0,0-3.4-5.6-4-6.4c-0.6-0.9-2-2.5-3.1-2.5c-0.9,0-4.9-0.1-6-0.1s-2.5,0-2.8-0.8c-0.3-0.8-4-12.1-4.5-13.5
				c-0.6-1.4-1.1-2.8-2.5-2.8s-9.1,0.1-11,0.1S-9,32.4-9,33.5c0,1.2,0,2.6,0,2.6h3.5v31H-2c0,0,0-25,0-26.4c0-2.3,2.4-4.2,2.6-2.1
				c0.1,0.9,4.7,23,4.7,23H13v1.8l-4.5,0.8L8.6,67h0l-4.7,6.7l3.8-0.9l2.1,1.4l2.2-1.5l1.9,1.6l1.8-1.4l2.3,1.3l1.8-1.3l2.5,1.6
				l2.2-1.6l3.7,1.9l-3.3-7.4h0.1l0.3-2.6L20.9,64l0.3-2.4h51.7v1.8l-4.5,0.8v0.4h-0.7l0.1,1.7h0.6l0,0.8h0.4l-4.7,6.7l3.8-0.9
				l2.1,1.4l2.2-1.5l1.9,1.6l1.8-1.4l2.3,1.3l1.8-1.3l2.5,1.6l2.2-1.5l3.7,1.8L85.3,67.2z"/>
			<path clip-path="url(#SVGID_2_)" d="M100,57.9H84.4v-7.8h-12L67,55.6H28.6c0,0-2.5-4.3-3.5-5.8c-1.1-1.4-2.9-2.9-3.9-2.9
				s-4.6,0-5.6,0c-1.1,0-2-0.3-2.4-1.3C12.7,44.6,8.8,33.3,8.3,32c-0.5-1.3-1.8-2.2-2.9-2.2c-1.1,0-6.3,0-6.3,0l0.3-9.3l5.6-4.8
				c0,0,3.1-7.4,4-9.8c0.9-2.4,2.5-2.8,2.5-2.8l6.4,20.4h77.6C105.3,24.4,105.9,47.7,100,57.9z"/>
		</g>
		<g>
			<defs>
				<path id="SVGID_3_" d="M23.5-53.4c41.4,0,75,33.6,75,75s-33.6,75-75,75s-75-33.6-75-75S-17.9-53.4,23.5-53.4z"/>
			</defs>
			<clipPath id="SVGID_4_">
				<use xlink:href="#SVGID_3_"  overflow="visible"/>
			</clipPath>
			<path clip-path="url(#SVGID_4_)" fill="#FDDD3F" d="M84,71.2l-1.6,2l-2.2-1.9L78,72.9l-1.9-1.3L74.6,73l-2-1.4l-1.9,1.7L69,71.6
				l-2.8,1.1l4.5-6.8l13,0.3l3.4,7.2L84,71.2z M22.2,73.2L20,71.3l-2.2,1.6l-2-1.3L14.2,73l-2-1.4l-2,1.7l-1.6-1.6l-2.8,1.1l4.6-6.8
				l13.2,0.3l3.4,7.2l-3.1-2.2L22.2,73.2z"/>
		</g>
	</g>
	<path fill="#2B2B2D" d="M55.3,73.4c-1.3,0-2.5-1.3-2.5-3s1.2-3,2.5-3c1.3,0,2.5,1.3,2.5,3C57.8,72,56.8,73.4,55.3,73.4z M49.5,73.4
		c-1.3,0-2.5-1.3-2.5-3s1.2-3,2.5-3c1.3,0,2.5,1.3,2.5,3C52,72,50.8,73.4,49.5,73.4z M43.3,73.4c-1.3,0-2.5-1.3-2.5-3s1.2-3,2.5-3
		s2.5,1.3,2.5,3C45.8,72,44.7,73.4,43.3,73.4z M37.5,73.4c-1.3,0-2.5-1.3-2.5-3s1.2-3,2.5-3c1.3,0,2.5,1.3,2.5,3
		C40,72,38.8,73.4,37.5,73.4z"/>
	<path fill="#FFD500" d="M55.5,71.9c-0.7,0-1.3-0.7-1.3-1.5c0-0.9,0.6-1.5,1.3-1.5c0.7,0,1.3,0.7,1.3,1.5
		C56.9,71.3,56.3,71.9,55.5,71.9z M49.6,71.9c-0.7,0-1.3-0.7-1.3-1.5c0-0.9,0.6-1.5,1.3-1.5c0.7,0,1.3,0.7,1.3,1.5
		C50.8,71.3,50.2,71.9,49.6,71.9z M43.6,71.9c-0.7,0-1.3-0.7-1.3-1.5c0-0.9,0.6-1.5,1.3-1.5s1.3,0.7,1.3,1.5
		C44.8,71.3,44.2,71.9,43.6,71.9z M37.5,71.9c-0.7,0-1.3-0.7-1.3-1.5c0-0.9,0.6-1.5,1.3-1.5s1.3,0.7,1.3,1.5
		C38.8,71.3,38.3,71.9,37.5,71.9z"/>
	<path d="M34.5,69.8c0,0,0.3-2.2,0.9-3.4c0.6-1.3,2.1-1.3,2.1-1.3l0.1-5l1.1-0.3l1.7,3.6l3.1,0.2l0.8-3.6L45,60l0.9,3.4l3.1-0.2
		l0.9-3l0.9-0.1l0.8,3.5l3.1-0.3l1.3-3.4l1.1,0.1v5.3c0,0,1.7-0.1,2.2,1.1c0.6,1.2,0.3,3.4,0.3,3.4L34.5,69.8L34.5,69.8z"/>
	<polygon points="7.8,64.1 25.8,64.7 25.9,66.4 7.9,66 	"/>
	<path d="M34.5,69.3l25.2-0.2v-2.3h-25L34.5,69.3z"/>
	<path d="M91.6,24.3c-1.4,0.5-0.9-1.5,0.1-1.7C93.1,22.3,92,23.9,91.6,24.3z M91.8,25.4c-0.2-1.4,3.4-2.3,1.6-3.6
		c0.2,0.7-0.3,0.6-0.8,1.4c-0.5-2.8-4.4,0.7-1.3,1.2C90.8,25,91.5,24.9,91.8,25.4z M89.6,23.2c-0.1-0.6,2.6-3.1-0.2-2.8
		c0.1-0.9,0.1,0-0.3-1.1c0.2,0.8-0.7,1.9-1.6,1.6c0.2,0.3,0.5,0.7,0.9,1.1c-0.1-0.5,0.4-1.5,1.3-1.4c1.2,0.1-0.5,1.7-1.2,1.6
		C88.7,22.7,89.2,22.9,89.6,23.2z M87.1,19.9c-0.5,0.2-1.3-0.9,0.4-0.5C87.4,19.6,87.2,19.8,87.1,19.9z M87.5,20.9
		c-0.1-0.4-0.2-0.5,0.2-0.9c1.9-1.9-0.6-1.6-0.7-1.7c0.2,0.2,1.7-0.5,1.2,0.6c-0.5,0.9-0.9-0.1-1.5-0.2
		C84.9,18.3,87.2,20.6,87.5,20.9z M84.3,17.5c-0.1-0.3-1.4-0.1-0.4,0.2c0.1,0.4-0.1,0.9-0.3,1.2C84.2,18.7,84.6,18.1,84.3,17.5
		 M83.1,17.6c0.6-0.6-1.3,0.9-0.4,0.5c-0.2,0.1-1.6-1.7-0.2-2c0-0.1,0-0.2-0.1-0.3c-1.3-0.1-0.2,0.2-1.1-0.5
		c-0.3,0.4-0.5,0.9-0.6,1.3C80.8,16.7,83.6,19.6,83.1,17.6 M80.9,16.8c-0.5-0.9-0.9,0.2-0.9,0.7c-0.4-0.4,0-1.1-1.1-0.4
		c0,0.1,0,0.1,0,0.2c0.9,0.2,1.3,1.5,0.8,2.2c0.5-0.1,1-0.3,1.4-0.5c0-0.1,0-0.1,0-0.2c-0.8,0.1-1.4-1.6-0.6-1.9
		c0.1,0.2,0.1,0.4,0.2,0.6C80.8,17.2,80.8,17,80.9,16.8 M78.4,18.6c0.5,1.3-0.7,1.8-1.1,0.4C76.9,17.7,78,17.2,78.4,18.6 M79,18.3
		c-0.7-1.3-3-0.9-2.3,0.8C77.2,20.6,79.6,19.9,79,18.3 M75.7,19.5c0.4,1.2-0.7,1.7-1.2,0.5C74.2,18.9,75.3,18.1,75.7,19.5
		 M76.3,19.3c-0.2-0.8-2-1.5-2-0.1c-0.5-0.2,0-0.1-0.9-0.1c0,0.1,0,0.1,0,0.2c1,0.4,1.5,2.3,1.3,3.4c0.5-0.1,1-0.2,1.4-0.5
		c0-0.1,0-0.1,0-0.2c-0.7,0.1-0.8-0.4-1.1-1.2C75.9,21,76.8,20.5,76.3,19.3 M72.8,20.5c0.4,1.2-0.7,1.7-1.2,0.5
		C71.2,20,72.4,19.2,72.8,20.5 M73.3,20.2c-0.2-0.8-2-1.5-2-0.1c-0.5-0.2,0-0.1-0.9-0.1c0,0.1,0,0.1,0,0.2c1,0.4,1.5,2.3,1.3,3.4
		c0.5-0.1,1-0.2,1.4-0.5c0-0.1,0-0.1,0-0.2c-0.7,0.1-0.8-0.4-1.1-1.2C73,22,73.6,21.4,73.3,20.2 M70.8,22.3c-0.8,0-1-1.1-1.2-2
		c-0.2,0-0.8,0.2-0.9,0.3c0,0.1,0,0.1,0,0.2c2.2,0-0.5,4-0.5,0c-0.2,0-0.8,0.2-0.9,0.3c0,0.1,0,0.1,0,0.2c0.7,0.2,0.9,0.9,1.1,1.7
		c0.6,0.6,1.3-0.1,1.4-0.7C70,22.9,70.4,22.8,70.8,22.3z M67.6,22.8c-0.2-0.8-1.3-0.2-1.7-0.7c-0.5-1,1.3-0.1,1.3-0.1
		c-0.2-1.6-1.9-0.1-1.6,0.4c0.1,0.3,3.3,2.1,0.3,0.9C66.1,25,67.9,23.5,67.6,22.8 M63.3,24.5c-0.5-1.3,2.1-3.6,0.1-4
		c0.2,0.8-0.3,3.3-1.3,3.3c0,0.1,0,0.1,0,0.2C62.5,24.1,62.8,24.4,63.3,24.5z M61.2,23.1c-0.4,0.4-1.4-0.3,0.2-0.5
		C61.3,22.8,61.2,22.9,61.2,23.1z M61.9,23.9c-0.2-0.3-0.4-0.3-0.2-0.9c1-2.5-1-1.3-1.5-1.3c1.2,0,1.6-0.1-0.1,0.4
		C58.3,22.7,61.4,23.8,61.9,23.9z M59.3,23.1c-0.7-1,1.5-2.6-0.5-2.8c0.8,2.1-2.5,2.2-0.5-0.3c-0.2-0.1-0.7-0.2-0.9-0.3
		c0.1,0.2-0.7,4.3,1.1,2.5C58.3,23.1,58.8,22.7,59.3,23.1z M55.7,21.1c-1.1,1.1-1.4-0.9-0.6-1.5C56.1,18.8,55.9,20.6,55.7,21.1z
		 M56.5,22.1c-0.5-1.4,2.2-3.7,0-4c0.4,0.6-0.1,0.9-0.1,1.7c-2.3-3.2-2.6,3.6-0.6,1.5C55.5,22,56,21.7,56.5,22.1z M53.5,21
		c-0.4-1.2,1.3-2.4-0.4-2.8c0.2,0.7,0,2-0.9,2c0,0.1,0,0.1,0,0.2C52.7,20.5,53,20.8,53.5,21z M54.2,17.8c-0.1-0.5-0.2-0.5-0.6-0.2
		C53.7,18.1,53.8,18.1,54.2,17.8 M53,18.4c-0.2-0.3-0.5-0.6-0.9-0.7c0.4,0.6,0,1.2-0.8,1.7c-0.2-0.8-0.4-1.8,0.4-1.7
		c0-0.1,0-0.1,0-0.2c-0.4-0.2-0.9-0.4-1.3-0.5c0,0.1,0,0.1,0,0.2c0.4,0.5,0.1,2.4,0.5,2.5C51.8,20.1,52,17.8,53,18.4z M49.7,19.6
		c-0.4-1.2,1.3-2.4-0.4-2.8c0.2,0.7,0,2-0.9,2c0,0.1,0,0.1,0,0.2C48.9,19.1,49.2,19.4,49.7,19.6z M50.3,16.4
		c-0.1-0.5-0.2-0.5-0.6-0.2C49.8,16.7,50,16.7,50.3,16.4 M47.5,18.1c-1.1,1.1-1.4-0.9-0.6-1.5C47.9,15.8,47.7,17.7,47.5,18.1z
		 M48.1,19.1c-0.8-1.3,2.2-3.7-0.1-4c0.4,0.6-0.1,0.9-0.1,1.7c-2.3-3.2-2.6,3.6-0.6,1.5C47.1,19,47.6,18.7,48.1,19.1z M45.2,18
		c0-0.1,0.5-4.5-1.1-2.5c-0.1-0.5,0.5-0.8-0.7-0.9c0.2,0.6,0,2.1-0.9,2c0,0.1,0,0.1,0,0.2c0.4,0.2,0.9,0.4,1.3,0.5
		C43.7,17,43.5,16,44,15.7c1.2-1.2,1.3,1.6,0,1.5c0,0.1,0,0.1,0,0.2C44.4,17.6,44.8,17.9,45.2,18z M42.2,17
		c-0.7-1.1,1.3-2.4-0.5-2.8c0.2,0.6,0,2.1-0.9,2c0,0.1,0,0.1,0,0.2C41.3,16.5,41.7,16.8,42.2,17z M43,13.8c-0.1-0.5-0.2-0.5-0.6-0.2
		C42.5,14.1,42.6,14.1,43,13.8 M60.8,18.1c-0.3,0.2-0.6,0.3-0.9,0.5C59.8,17.9,60.3,16.9,60.8,18.1z M61.7,18.7c0,0-0.6,1.2-1.2,0.8
		c-1.7-1.2,1.2-0.9,0.9-1.3c-0.4-0.8-1.5-1.4-2-0.1C58.4,20.3,62,20.3,61.7,18.7 M59.1,19.6c-0.4-0.8-1.4,0-1.7-0.6
		c-0.4-0.8,1-0.2,1.3-0.2c-0.1-0.2-0.4-1.2-0.6-0.6c-0.5-0.3-1.3,0.4-1.2,0.9c0.4,0.8,1.4,0,1.7,0.6c0.5,1.1-1.4,0.2-1.4,0.2
		C57.6,21.6,59.5,20.5,59.1,19.6 M56.3,20.4c0.5,1.3-0.5,1.7-1.1,0.5C54.7,19.7,55.8,19.1,56.3,20.4 M56.9,20.1
		c-0.9-1.3-3-0.8-2.3,0.9C55.2,22.8,57.5,21.6,56.9,20.1 M54.8,22.2c-1.2-0.4-1-3.9-2.7-3c0,0.1,0,0.1,0,0.2
		c0.9-0.1,1.9,2.5,1.5,3.4C54.1,22.6,54.5,22.5,54.8,22.2z M53.1,22.3c-1.3,2.6-2.4-1.8-0.9-1.2c-0.1-0.1-0.2,1,0.3,0.5
		c0.5-0.3-1-1.6-1.6-0.1C50,23.5,53.4,23.9,53.1,22.3 M88,22.9c-0.4-0.1-0.7-0.2-1.1-0.4C87.4,22.1,88.5,21.7,88,22.9z M88.2,23.9
		c-0.4,0.1-1.9,0.2-1.3-1.1c0.4,0.3,1.2,0.4,1.6,0.6c0.6-3.4-4.3-0.3-1.5,0.9C87.4,24.3,88,24.3,88.2,23.9 M84.9,22.5
		c-1,1-1.4-0.9-0.5-1.6C85.6,20.2,85.2,22.1,84.9,22.5z M85.6,23.5c-0.4-1.3,2.3-3.7,0.2-4.1c0.4,0.5,0.2,1-0.2,1.7
		c-1.8-3.1-3.2,3.2-0.8,1.5C84.6,23.3,85.1,23.1,85.6,23.5z M82.7,22.3c-0.4-1.2,1.5-2.4-0.3-2.8c0.3,0.8-0.1,2.1-0.9,2.1
		c0,0.1,0,0.1,0,0.2C81.9,22,82.3,22.2,82.7,22.3z M83.6,19.2c-0.1-0.5-0.2-0.5-0.6-0.2C83.1,19.6,83.2,19.6,83.6,19.2 M82.3,19.7
		c-0.2-0.3-0.5-0.6-0.9-0.7c0.2,0.7-0.2,1.3-0.9,1.7c-0.2-0.8-0.3-1.8,0.5-1.7c0-0.1,0-0.1,0-0.2c-0.4-0.2-0.9-0.4-1.3-0.5
		c0,0.1,0,0.1,0,0.2c0.4,0.5,0,2.4,0.4,2.5C80.8,21.4,81.2,19.5,82.3,19.7z M78.6,19.4c-0.5,1.3-1.6,0.8-1.1-0.5
		C78.1,17.6,79.1,18.1,78.6,19.4 M79.2,19.6c0.3-1.6-1.6-2.6-2.2-0.9C76.4,20.2,78.6,21.1,79.2,19.6 M77.1,17.8
		c0.5-1-1.2-0.3-1.3-0.1c0.2-1.2,0.1-0.2-0.6-1.1c0.3,0.8-0.1,2.1-0.9,2.1c0,0.1,0,0.1,0,0.2c0.4,0.2,0.9,0.4,1.3,0.5
		c-0.3-0.4,0-2.4,0.9-2c0.4,0-0.2,0.4-0.2,0.3C76.4,18.1,76.9,18.4,77.1,17.8 M74,17.4c-0.5,1.1-1.6,0.7-1.3-0.4
		C73.2,15.9,74.4,16.2,74,17.4 M74.6,17.6c0.4-0.9-0.6-2.2-1.4-1.3c-0.2-0.7,0.2-0.1-0.7-0.8c0.2,0.9-0.5,2.9-1.4,3.1
		c0,0.1,0,0.1,0,0.2c0.3,0.2,0.9,0.4,1.3,0.5c-0.4-0.6,0-0.8,0.1-1.5C72.9,18.5,74,18.8,74.6,17.6 M92.3,17.7
		c0.2-0.5-0.9-1.4-0.7-1.6c0.5-1.1,0.8,0.8,0.8,0.8c0.2-0.2,0.3-0.3,0.5-0.7c-2.6-1.6-0.9,1.3-1.2,1.7c-0.6,1.2-1-0.9-0.9-0.9
		c-0.3,0.2-0.4,0.4-0.6,0.9C90.6,18.2,91.8,18.6,92.3,17.7 M91,15.6c0.5-1.1-1.1-0.3-1.3-0.1c0.1-1.2,0.1-0.1-0.5-1.1
		c0.3,0.8-0.2,2-1.1,2c0,0.1,0,0.1,0,0.2c0.4,0.2,0.9,0.4,1.3,0.5c-0.3-0.5,0-2.3,1.1-1.9c0.5,0-0.2,0.4-0.2,0.3
		C90.5,15.8,90.7,16,91,15.6 M87.8,15.1c-0.5,1.3-1.6,0.8-1.1-0.5C87.3,13.3,88.5,13.8,87.8,15.1 M88.4,15.3
		c0.4-1.5-1.5-2.7-2.2-1.1C85.5,15.8,87.7,16.9,88.4,15.3 M85.6,14.6c0.2-0.5-0.9-1.4-0.7-1.6c0.5-1.1,0.8,0.8,0.8,0.8
		c0.2-0.2,0.3-0.3,0.5-0.7c-2.6-1.6-0.9,1.3-1.2,1.7c-0.6,1.2-1-0.9-0.9-0.9c-0.3,0.2-0.4,0.4-0.6,0.9C83.9,15,85.2,15.5,85.6,14.6
		 M83.3,14.3c-0.4-1.1,1.6-2.5-0.2-2.8c0.3,0.8-0.2,2-1.1,2c0,0.1,0,0.1,0,0.2C82.5,13.8,82.8,14.1,83.3,14.3z M84.3,11.2
		c-0.1-0.2-0.1-0.3-0.2-0.5C83.5,10.4,83.5,12,84.3,11.2 M83.1,11.7c-0.2-0.3-0.5-0.6-0.9-0.7c0.3,0.7-0.3,1.2-1.1,1.6
		c-0.2-0.8-0.2-1.8,0.6-1.7c0-0.1,0-0.1,0-0.2c-0.2-0.2-0.7-0.3-0.9-0.4c0.1,0.5-0.3,2.5,0.2,2.6C81.8,13.3,82.2,11.2,83.1,11.7z
		 M80.5,10.7c0.5-1-1-0.3-1.2-0.1c0.1-1.2,0.1-0.1-0.5-1.1c0.3,0.8-0.2,2-1.1,2c0,0.1,0,0.1,0,0.2c0.3,0.2,0.9,0.4,1.3,0.5
		c-0.3-0.5,0-2.3,1.1-1.9c-0.1,0.2-0.1,0.3-0.2,0.5C80.1,11,80.3,10.9,80.5,10.7 M77.6,10c-0.4-0.1-0.7-0.2-1.1-0.4
		C77,9.1,78.1,8.8,77.6,10z M77.7,11c-0.5,0.1-1.9,0.1-1.3-1.3c0.4,0.3,1.2,0.5,1.6,0.7c0.8-3.5-4.2-0.3-1.5,0.9
		C77,11.5,77.5,11.4,77.7,11 M75.1,9.1c-0.5,0.9-1.8,0.8-1.3-0.3C74.2,7.8,75.6,7.5,75.1,9.1 M75.6,9.3c0.4-1-0.5-2.1-1.4-1.4
		C74,7.2,74.3,7.7,73.5,7c0.2,1-0.6,3-1.5,3.2c0,0.1,0,0.1,0,0.2c0.3,0.2,0.9,0.4,1.3,0.5c-0.2-0.7,0-0.7,0.2-1.5
		C74,10.2,75,10.5,75.6,9.3 M72.3,9.1C71.8,8,73.9,6.5,72,6.3c0.8,2.1-2.9,2.4-0.6-0.3c-0.2-0.1-0.7-0.2-0.9-0.3
		c0.2,0.6-1.3,3.8,1.1,2.7C71.1,9.3,71.7,8.9,72.3,9.1z M69.7,7.2c0.2-0.5-0.9-1.4-0.7-1.6c0.5-1.1,0.8,0.8,0.8,0.8
		C70,6.1,70.1,6,70.3,5.7c-2.6-1.6-0.9,1.3-1.2,1.7c-0.6,1.2-1-0.9-0.9-0.9c-0.3,0.2-0.4,0.4-0.6,0.9C68,7.7,69.2,8.1,69.7,7.2
		 M63.9,12c-1.3-0.2-1.7-4-3.1-2.4c1,0.1,2.4,2.3,2.2,3.2C63.5,12.6,63.8,12.2,63.9,12z M62.7,12.8c-1.3-0.2-1.7-4-3.1-2.4
		c1,0.1,2.4,2.3,2.2,3.2C62.3,13.4,62.5,13.1,62.7,12.8z M59.6,13.1c-0.3,0.2-0.6,0.5-0.9,0.7c-0.2-0.5-0.5-1.2-0.6-1.7
		C58.7,12.4,59.2,12.7,59.6,13.1z M61.7,13.4c-0.9,0-2.8-2.4-3.4-1.8c-0.7,0.6,1,3,0.4,3.9c0.3-0.1,0.8-0.4,1.2-0.7
		c-2.4-0.2,1-2.4,0.5-0.5C60.9,14.4,61.3,13.9,61.7,13.4z M55.5,13.2c-0.2-0.5-1.1,0.1-0.7,0.5C55.1,14.2,55.9,13.6,55.5,13.2
		 M54.8,14.1c-0.4-0.1-2.9-3.1-2.7-0.4c-0.3-1-0.9-2.2-1.7-1.1c1,0.1,2.3,2.3,2.1,3.2c0.4-0.2,0.8-0.5,1.1-0.9
		c-0.5-0.1-1.9-1.1-1.1-2c0.9-0.4,1.3,1.4,1.3,1.8C54,14.6,54.5,14.4,54.8,14.1z M51.8,15.2c-1,3.2-2.5-1.7-1.1-0.9
		c0,0-0.3,1.1,0.3,0.5c0.3-0.2-1.2-1.5-1.6,0.2C49,17,52.5,17,51.8,15.2 M49,15.4c-0.5-1.1-0.9,0.5-0.9,0.9C47.2,15.4,48,16,47,16.1
		c0.9,0.1,1.6,1.3,1.4,2c0.4-0.2,0.9-0.5,1.3-0.9c-1,0-1.7-1.9-1.2-1.6C48.4,15.5,49.5,15.9,49,15.4 M47,18.3
		c-0.1,0.6-0.3,0.7-0.8,0.5c-0.4-0.5,0.3-0.7,0.5-0.9C46.8,18,46.9,18.1,47,18.3z M48.1,18.2c-0.8-0.1-1.5-2.2-2.4-1.3
		c-0.1,0.1-1.1,1.3-0.2,1.3c0.3-0.3-0.2-1.5,0.8-0.9c0.3,1.3,0.2-0.3-0.5,1.3C44.9,20.3,47.7,18.3,48.1,18.2z M44.5,18.9
		c-0.3,0.2-0.6,0.5-0.9,0.7C43.6,19,43.8,17.8,44.5,18.9z M45.4,19.3c-0.2,0.6-0.8,1.7-1.6,0.5c-0.1-0.1,1.5-0.9,1.3-1.1
		c-0.9-1.2-2.8-0.2-1.9,1.3C43.9,20.9,46.1,20.6,45.4,19.3 M43.2,20.6c-0.3-0.5-2-0.1-1.9-0.7c0.2-0.5,1.1-0.2,1.3-0.1
		c-0.2,0-0.5-1.2-0.6-0.4c-3.2,0,1.1,2,0.9,1.4c0.5,0.9-1.3,0.5-1.4,0.5C42.1,22.8,43.7,21.4,43.2,20.6 M40.3,21.5
		c-0.3,0.2-0.6,0.5-0.9,0.7C39.3,21.5,39.6,20.5,40.3,21.5z M41.2,21.9c-0.2,0.6-0.8,1.7-1.6,0.5c-0.1-0.1,1.5-0.9,1.3-1.1
		c-0.9-1.2-2.8-0.2-1.9,1.3C39.8,23.6,41.6,23.4,41.2,21.9 M38.4,22.1c-0.5-0.9-0.9,0.5-0.9,0.9c-0.9-0.9-0.1-0.2-1.2-0.2
		c0.9,0.1,1.6,1.3,1.4,2c0.4-0.2,0.9-0.5,1.3-0.9c-1,0-1.7-1.9-1.2-1.6C37.9,22.3,38.9,22.6,38.4,22.1 M66.9,17
		c-0.7-0.7-0.9,0.5-0.9,0.9c-0.9-0.9,0-0.3-1.2-0.1c0.8-0.1,1.6,1,1.5,1.8c0.4-0.2,0.9-0.6,1.3-0.9c-1,0.3-1.7-1.6-1.2-1.4
		C67.1,17.8,66.9,17,66.9,17 M64.9,19.5c0.9,1.1,0,1.9-0.9,0.8C63,19.1,64.1,18.3,64.9,19.5 M65.4,19.1c-1.2-1.1-3,0.1-1.9,1.5
		C64.5,22.1,66.4,20.5,65.4,19.1 M74.5,7.6c0-0.2-0.2-0.7-0.4-0.9c-0.1,0-0.1,0-0.2,0c0.1,0.8-0.9,0.6-1.7,0.5
		c0.5-0.7,1.1-1.2,1.7-0.9c-0.1-0.4-0.2-1-0.5-1.3c-0.1,0-0.1,0-0.2,0C73.1,5.4,71,8,70.4,6.8c0.1,0.1,0.4-0.8-0.2-0.5
		C69.3,6.7,74,7.4,74.5,7.6z M71.7,4.5c-1.4,0-0.3-1.6,0.8-1.4C73.9,3.4,72.3,4.4,71.7,4.5z M71.4,5.7c0.3-1.5,4-0.6,3-2.6
		c-0.1,0-0.1,0-0.2,0C74,3.6,73.9,4,72.9,4.1c0.5-2.9-4.1-0.7-1.5,0.6C70.9,5.1,71.4,5.1,71.4,5.7z M70.3,2.7c0.1-0.9,1.1-1.1,2-1.3
		c-0.1-0.3-0.2-0.7-0.4-0.9c-0.1,0-0.1,0-0.2,0c-0.1,2.2-3.8-0.5,0-0.5c-0.1-0.3-0.2-0.7-0.4-0.9c-0.1,0-0.1,0-0.2,0
		c-0.2,0.7-0.9,0.9-1.7,1.1c-0.4,0.7,0,1.2,0.8,1.4C69.5,1.8,69.7,2.2,70.3,2.7z M69.7-0.3c0.7,0.5-0.9-1.1-0.5-0.3
		c-0.1-0.2,1.6-1.4,1.9-0.3c0.1-0.7,0.2-0.5,0.7-1.2c-0.4-0.3-0.9-0.5-1.3-0.6C70.4-2.8,67.5,0.5,69.7-0.3 M69.2-2.2
		c0.9-0.2,0.1-1.4,0.7-1.7c1-0.5,0.1,1.3,0.1,1.3c0.2,0,1.3-0.3,0.6-0.5c0.2-0.5-0.3-1.5-0.9-1.2c-0.9,0.2-0.1,1.4-0.8,1.7
		C67.6-2,68.7-4,68.7-4C67.1-3.7,68.3-1.8,69.2-2.2 M70.2,15.2c1.2-1.2-2.2-0.5-2.5-0.5c0.5,0.8-0.5,1.9-1.3,1.6
		c0.2,0.4,0.7,0.8,1.2,0.9c-0.6-0.9,0.8-2,1.5-1.6c-0.5-1,0.6-1.3,0.6-0.8C69.5,15.4,69.7,15.5,70.2,15.2 M66.4,14.8
		c-0.9,1.1-1.8,0.2-0.9-0.9C66.4,12.9,67.3,13.8,66.4,14.8 M66.9,15.2c0.7-1.4-0.8-2.9-1.9-1.5C63.7,15,65.8,16.6,66.9,15.2
		 M88.9-4.9c-0.2,0.2-0.5,0.5-0.8,0.8C87.9-4.7,88.2-5.8,88.9-4.9z M90-4.7c0,0.5-0.4,1.8-1.5,0.9c0.5-0.3,2.1-1.8,0.2-1.8
		c-1.1,0-1.4,1.6-0.6,2.2C89-2.5,90.8-3.6,90-4.7 M88.6-2.5c-0.6,0.1-0.9-1-1.5-1.1c-1.2-0.1-1.8,1.4-2.2,2.3
		c-0.6,0-0.2,0.1-0.9,0.4c0.7-0.1,1.8,0.7,1.5,1.6c0.4-0.2,0.7-0.5,0.9-0.9C85.8,0,84.9-0.5,85-1.4c0.1-1.2,1.6,0.4,1.6,1
		c0.3-0.2,0.7-0.6,0.9-0.9c-0.7,0.2-2-0.9-1.3-1.6c0.7-0.7,1.6,1.2,1.5,1.6C88.4-1.6,88.4-1.9,88.6-2.5z M85.3,0.9
		c-0.9,0.2-1-1-1.7-1.1c-1.2-0.1-1.8,1.4-2.2,2.3c-0.5,0.1-0.3,0.1-0.9,0.4c0.8-0.2,1.9,0.8,1.7,1.6C82.6,3.8,82.9,3.3,83,3
		c-0.7,0.2-1.8-0.6-1.3-1.5c0.7-0.7,1.6,1.2,1.5,1.6c0.4-0.2,0.6-0.7,0.8-0.9c-0.7,0.2-2.1-0.8-1.3-1.6c0.7-0.7,1.6,1.1,1.5,1.5
		C84.7,1.9,85,1.4,85.3,0.9z M80.9,4.4C81.5,5.7,78.9,4.2,80.9,4.4C81,4.6,80.9,4.4,80.9,4.4z M82,4c-0.9,0.2-1.7-1.8-2.7-0.8
		c0.1-0.4-0.8,2,0,1.3c0.2-0.2-0.5-1.7,0.6-1.2c0.9,0.4-0.2,0.8-0.3,1.4C79.2,6.5,81.5,4.3,82,4z M78.7,4.5
		c-0.8-0.8-0.6,0.8-0.4,1.1c-0.5-0.4-0.7-0.9-1.2,0.1C78,5.5,79,6.5,78.8,7.3c0.3-0.2,0.7-0.6,0.9-0.9c-0.5,0.2-2.5-0.7-1.6-1.5
		c0.1,0.1,0.2,0.2,0.4,0.4C78.9,5,78.9,4.7,78.7,4.5 M78.7,8.3c0.5,0.5-0.7,1.7-1.2,1.1C77.2,9,78.4,7.9,78.7,8.3 M77,7
		c0.6,0.6,0.2,1.7-0.8,0.8C75.5,7.1,76.2,6.3,77,7 M77.3,5.8c-0.5,0.2-2.4,1.5-1.3,2.3C76.7,8,77,8.3,76.7,9
		c0.5,0.5,1.3,1.2,2.1,0.2c2.5-2.5-2.2-0.7-1.9-0.5c0,0,1.6-2.9-0.2-2.3C77.2,6.3,77.1,6,77.3,5.8z M75.2,9.1c0.9,0.9,0.1,2-0.9,0.9
		C73.4,9.1,74.4,8,75.2,9.1 M75.7,8.6C74.4,7.7,72.9,9,74,10.3C75.1,11.7,76.8,10,75.7,8.6 M73.3,9.9c-0.9-0.9-0.8,0.8-0.6,1.1
		c-0.5-0.4-0.7-0.9-1.2,0.1c0.8-0.1,1.8,0.9,1.6,1.6c0.4-0.3,0.8-0.7,1.1-1.1c-1.1,0.4-2-1.6-1.4-1.3C73.2,10.7,73.4,10.1,73.3,9.9
		 M71.7,12.7c1,1,0,1.8-0.9,0.9C70,12.8,70.7,11.7,71.7,12.7 M72.1,12.2c-0.7-0.7-2.4-0.2-1.8,0.9c-0.5,0.1-0.2-0.1-0.9,0.4
		c1-0.2,2.6,1.5,2.5,2.4c0.3-0.2,0.8-0.4,1.1-0.9c-0.6-0.1-0.6-0.4-1.3-0.8C72.5,13.9,73,13.1,72.1,12.2 M65.5,10.5
		c1.2-0.6-0.8-1-0.9-0.9c0.9-0.9,0.1-0.1,0.2-1.2c-0.1,0.9-1.3,1.5-2.1,1.3c0.2,0.4,0.5,0.9,0.9,1.3c0-1.1,1.9-1.5,1.6-0.9
		C65.1,10.3,65,10.8,65.5,10.5 M62.6,9.5C62.8,8.4,65,8.6,64,7.1c-0.2,0.7-1.4,1.5-2.2,1.3C61.9,9,62.2,9.2,62.6,9.5z M65.2,7.6
		c0.2-0.5,0.1-0.6-0.4-0.6C64.6,7.5,64.7,7.6,65.2,7.6 M62.7,6.8c-0.2-0.3-0.4-0.6-0.6-0.9C63,5.5,63.6,6.3,62.7,6.8z M62.3,7.7
		c-0.5-0.2-1.7-0.9-0.5-1.6c0.1,0.3,0.7,1.3,1.1,1.3C66,5.9,59,4.3,61,7.3C61.3,7.7,61.8,7.9,62.3,7.7 M60.5,5.8
		c0.1-0.5,3.4-2.4,0.7-2.8c1-0.3,2-0.8,1.3-1.8c-0.2,0.9-2.4,2.2-3.4,2c0.1,0.4,0.3,0.9,0.5,1.3c0.1-0.5,1-1.5,1.8-1.1
		c1.3,0.5-1.1,1.5-1.6,1.4C59.9,5.3,60.2,5.6,60.5,5.8z M59.3,2.9c0.6,0.4-0.9-0.6-0.5-0.2c0.1,0.1,1.2-1.8,1.9-0.6
		c0-0.9,0.1-0.6,0.4-1.3c-0.4-0.2-1-0.2-1.3-0.1C59.8,0.7,57.7,4,59.3,2.9 M57.4,9.4c-0.1-0.8,2-3.2-0.5-2.7c0-0.8,0.2,0-0.5-0.9
		c0.1,0.8-0.7,2-1.5,1.9C55.2,8,55.6,8.4,56,8.7c-0.1-0.5,0.5-2.2,1.5-1.6c0.7,0.7-1,1.8-1.4,1.7C56.4,9.4,56.8,9.4,57.4,9.4z
		 M54.8,7.5c-0.2-1.1,2-1.9,0.4-2.7c0.1,0.8-0.7,2-1.5,1.9C54,7.2,54.4,7.3,54.8,7.5z M56.5,4.7c0.1-0.5-0.1-0.6-0.6-0.4
		C55.8,4.8,56,5,56.5,4.7 M50.5,11.6c0.5,0.1-0.8-0.3-0.6-0.1c-0.5-0.5,1.1-1.8,1.8-1.3c-0.4-1.1-0.2-0.2,0-1.3
		c-0.4-0.1-1-0.1-1.3,0C50.4,9,48.6,12.9,50.5,11.6 M48.8,10.7C48.7,10.3,51,7.2,48.5,8c0.1-0.9,0.3,0-0.4-1.1
		c0.1,0.7-0.6,1.9-1.5,1.6c0.2,0.3,0.5,0.7,0.9,1.1c0-0.4,0.8-2.3,1.6-1.4c0.6,0.6-0.8,1.7-1.4,1.4C47.8,10.1,48.3,10.4,48.8,10.7z
		 M46.8,7.1c-0.3-0.2-0.6-0.5-0.9-0.7C46.5,5.8,47.5,6.3,46.8,7.1z M46.7,8.1c-0.5,0-1.9-0.3-0.9-1.4c0.2,0.4,1.1,1,1.4,0.9
		c2.4-2.4-4.6-1.9-1.8,0.5C45.8,8.3,46.4,8.3,46.7,8.1 M44.1,5.7c-1.5,0.5-0.8-1.3,0-1.6C45.5,3.7,44.6,5.3,44.1,5.7z M44.4,6.8
		c-0.2-1.1,3.4-3.3,1.3-3.6c0,0.5,0.2,0.7-0.6,1.3c-0.8-2.7-4.1,1.3-0.9,1.3C43.2,6.5,44.1,6.3,44.4,6.8z M42,4.8
		c-0.1-0.8,0.8-1.5,1.3-2.1c-0.2-0.2-0.7-0.5-0.9-0.6c0,0.4-0.8,2.3-1.6,1.4c-0.5-0.3,1-1.8,1.3-1.9c-0.2-0.2-0.7-0.5-0.9-0.6
		c0.1,0.9-2.4,2.8,0.3,2.8C40.9,4.5,41.6,4.3,42,4.8z M40,2.4c0.5,0.1-0.8-0.3-0.6-0.1c-0.5-0.5,1.1-1.8,1.8-1.3
		c-0.4-1.1-0.2-0.2,0-1.3c-0.4-0.1-1-0.1-1.3,0c0,0.2,0.1,0.4-0.1,0.7c-0.1,0.1-1,1-1,1.1C38.7,2,39.6,3.1,40,2.4 M38.7,1
		c0.2-0.2-0.1-3.6,0.6-0.8c0.1-0.1,1-0.8,0.3-0.7c0-0.6-1-1-1.4-0.6c-0.6,0.6,0.6,1.4,0.2,1.8c-0.9,0.9-0.9-1.1-0.9-1.3
		C35.9,0.6,38.2,1.5,38.7,1 M54.8-0.2c-0.2,0.3-0.4,0.6-0.6,0.9C53.9,0.2,53.8-0.8,54.8-0.2z M55.8-0.1c0.1,0.5-0.1,2.1-1.3,1.2
		c0.3-0.3,0.6-1.1,0.9-1.5c-1.4-0.6-2.8,1-1.3,1.9C55.1,2.2,56.9,0.8,55.8-0.1 M54.8,2.3c-0.6,0.2-3.7-2-2.7,0.7
		c-0.6-0.8-1.6-1.6-2-0.4c0.9-0.2,3,1.3,3.1,2.2c0.3-0.3,0.7-0.7,0.9-1.1c-0.5,0.1-1.6-0.3-1.7-1.2c-0.2-1.1,1.9,0.1,1.9,0.9
		C55.1,3.1,54.8,2.8,54.8,2.3z M52.7,4.5c-0.1-0.1-0.2-0.1-0.3-0.1c0.1,0.2,0.3,0.5,0.3,0.7c-0.7,0.7-1.9-1-1.4-1.7
		c-1,0.6-0.2,0.2-1.3,0.2c0,0.5,0.1,0.9,0.3,1.3C50.5,4.8,54.1,5.9,52.7,4.5 M55.2,19.7c0.6,0.2-0.2,1.7-0.8,1.3
		C54.1,20.7,54.7,19.4,55.2,19.7 M57.5,9.5c-0.1,0.4-0.2,0.7-0.4,1.1C56.7,10.1,56.4,9,57.5,9.5z M58.6,9.3c0.1,0.5,0.1,1.8-1.3,1.3
		c0.3-0.4,0.5-1.2,0.7-1.6c-1.5-0.3-2.4,1.4-0.9,2.1C58.3,11.6,59.7,10.1,58.6,9.3 M57,12.6c1,1-0.9,1.4-1.6,0.5
		C54.7,11.9,56.6,12.3,57,12.6z M58.1,11.9c-1.4,0.5-3.5-2.5-4-0.3c0.6-0.3,1-0.2,1.7,0.3c-3.1,1.9,3.1,3,1.5,0.7
		C58.1,12.8,57.8,12.3,58.1,11.9z M56.8,14.8c-1.1,0.4-2.5-1.6-2.8,0.2c0.8-0.3,2,0.2,2,1.1c0.1,0,0.1,0,0.2,0
		C56.3,15.5,56.6,15.2,56.8,14.8z M53.7,13.8c-0.5,0-0.6,0.2-0.3,0.7C54.1,14.8,53.9,13.8,53.7,13.8 M56.1,16.2
		c-1.1,0.4-2.6-1.6-2.8,0.3c2.1-0.8,2.4,2.9-0.3,0.6c-0.1,0.2-0.2,0.7-0.3,0.9c0.6-0.2,3.8,1.3,2.7-1.1
		C56.2,17.4,55.9,16.8,56.1,16.2z M53.1,19.2c0.7,0.3,0.5,0.5,0.4,1.1C52,21,51.7,18.3,53.1,19.2 M52.9,17.9c-0.6,0.2-1.7,2-0.6,2.7
		c0.7-0.4,1.1-0.2,1.1,0.6c0.6,0.3,1.5,0.6,1.9-0.5c1.5-3.4-2,0.2-1.8,0.2c-0.3-0.3,1-3.2-0.9-2.3C53,18.3,52.9,18,52.9,17.9z"/>
	<path fill="#FFD500" d="M63.8,32.8c6.4,3,2.8,14.8-6,10.5C49.1,39.1,52.7,27.6,63.8,32.8z"/>
	<path fill="#FFFFFF" d="M-59.1,46.1c0,0,0.9,4.7-1.1,7.3c-2.1,2.6-3.3,3.4-3.3,3.4s2.7,2,4.8,0.7c2.1-1.3,3.8-5,3.8-5
		s1.3,2.1,0.1,3.4c-1.2,1.3-1.5,1.9-1.5,1.9s3.7,0.6,5.2-1.2c1.4-1.7,2.4-4.1,2.4-4.1l-1.4-6.5L-59.1,46.1z"/>
	<path fill="#FDDD3F" d="M58.2,39.4l-6.3-7.3l0.7-0.8l-4.2-3.9l0.8-0.9l-3.4-2.3l0.9-1.2L43,21.6l0.8-1.6l-4.1-0.6l0.3-1.6l-5.7-0.7
		l0.5-1.2l-6.4-0.6l0.9-1.7L21.5,11l1.6-2.2l-4.5-6.6L20.8,2l-1.9-8.5c0,0,3.9,1.7,6.7,1.6c2.7,0,5.2-0.2,5.2-0.2l-3,6.7L29,2
		l-0.1,2.4L30,3.7l2.5,4l0.9-1.2l3.4,3l0.8-1.6l3.8,3.6l0.9-1.4l4.4,4.9l1.3-1.2l2.1,4.8l1.5-0.7l2,5l1.6-0.8l2.2,6l1.2-0.5l3.9,9.1
		c0,0,1.3,1.9-0.7,3.1C59.9,41.1,58.2,39.4,58.2,39.4z"/>
	<path fill="#FDDD3F" d="M-11.8,39.4l0.4-1.3l4.8,0.3l0.1,11.4c0,0,23.5,0,25.4,0.3c1.9,0.2,4,2,4.2,4.6c0.2,2.6-2.8,4.5-5.3,4.3
		c-3.4-0.3-24.5-2.4-24.5-2.4l0.2,16.4L-8,72.8l-0.5-33.5L-11.8,39.4z"/>
	<path fill="#FFD500" d="M61.3,48.2c-11.9,0.1-15.1-9.9-10.2-16c5-6.2,14.7-3.3,17.9,0.9C71.2,35.6,73.2,48.1,61.3,48.2z M62.6,30.1
		c-3.7-1.5-12.5-0.2-12.6,7.5c-0.2,7.8,6.3,9.6,10.3,9.6c3.4,0,8.4-0.8,9.4-6C71,33.3,66.4,31.5,62.6,30.1z M5,25
		c-1.1-4,2.4-8.4,7.7-9.8c2.2,8.5,3.3,14.7,3.8,14.6C11.2,31.2,6.1,29,5,25z"/>
	<path d="M61.3,38.6c-0.9,0.9-2.7,0-2.7,0l-5.5-6.5l4.3-2.7l3.8,6.9C61.3,36.3,62.3,37.7,61.3,38.6z M50.1,26.7l3.8-2.8l1.8,5.6
		l-1.4,0.9L50.1,26.7z M47.5,23.3l3.7-3.3l0.9,3.8l-2.2,1.7L47.5,23.3z M44.6,20.2l3.1-4.3l1.6,3.9l-2.1,2L44.6,20.2z M40.5,17.4
		l1.7-5.2l3.4,3.6l-1.5,2.4L40.5,17.4z M26.8-4.1c-7.8,0-14-6.3-14-14c0-7.8,6.3-14,14-14c7.8,0,14,6.3,14,14S34.5-4.1,26.8-4.1z
		 M26.8-29.4c-6.2,0-11.2,5-11.2,11.2S20.6-7,26.8-7C33-7,38-12,38-18.2S33-29.4,26.8-29.4z M9.6,25.7C8.4,24.9-14,9.6-14,9.6
		l1.2-2.5c0,0,22.1,14.1,23.6,15.3C12.6,24.1,11.4,26.7,9.6,25.7z M-16.4,9.2c-1.3,0.3-2.7-0.7-3-2c-0.3-1.3,0.7-2.7,2-3
		c1.3-0.3,2.7,0.7,3,2C-14.1,7.6-15.1,8.9-16.4,9.2z M-47.7,29.8l-2-0.8l-4.2,13h2.1l0.4,4.5l-8.9,0.5l-1.4-5.1l5.3,0.1l4.7-13.9
		l-0.9-0.4l2.1-6.4l0.9,0.5l2.7-7.9l1.9,0.7l-2.7,8.2l1.2,0.6l-0.3,1.6l25.9-17.8l0.9,1.9l-27.3,18.2L-47.7,29.8z M-49.3,45
		l-1.3,1.2l-0.6-4.1l1.8,0.5L-49.3,45z M28-3.3l-2.4,5.1L22.5,2L21-4.3c0,0,1.3,0.9,3.4,1.2C26.4-2.9,28-3.3,28-3.3z M27.1,6
		l-2.4,2.1l-3.4-5l5.4-0.4L27.1,6z M31.2,8.9l-1.6,2.8l-5.3-2.2l4.4-3.6L31.2,8.9z M36,10.5l-1.2,3.6L30,13.5l2.9-5L36,10.5z
		 M40.7,12.6l-1.1,3.2l-4.1,0.1l1.9-5.6L40.7,12.6z"/>
	<path d="M-25.6,72.6h18l-0.1-17.7c0,0,22.6,2.6,25.7,3.1c1.5,0.2,3.5-1.1,3.8-2.8c0.3-1.7-1.3-3.9-3-4.1
		c-3.4-0.5-26.7-0.3-26.7-0.3L-8,39.3h-3.7L-25.6,72.6z"/>
	<path fill="#FDDD3F" d="M-11.7,38L-17,69.7l-8.6,1.3L-11.7,38z"/>
	<path fill="#FDDD3F" d="M19.1,56.3l-2.6,0.4l-1.6-2.1l0.9-2.5l2.6-0.4l1.6,2.1L19.1,56.3z"/>
	<path fill="#FFD500" d="M26.9-29.5c6.2,0,11.3,5.1,11.3,11.3S33.1-6.9,26.9-6.9S15.6-12,15.6-18.2C15.6-24.5,20.6-29.5,26.9-29.5z"
		/>
	<path d="M-25.7,58.8c-1,0.5-0.9-1.3,0.1-1.5C-24.4,57.1-25.3,58.5-25.7,58.8z M-25.5,59.8c0.1-1.1,3-2.2,1.3-3.2
		c-0.1,0.5-0.4,0.6-0.7,1.3c-0.7-3.2-3.3,1.8-1.1,1.1C-26.4,59.4-25.8,59.4-25.5,59.8z M-27.4,57.9c0.1-0.1,1.9-2.9-0.2-2.4
		c0-0.3,0.5-0.4-0.3-0.8c0.1,0.7-0.7,1.6-1.4,1.4c0.2,0.3,0.6,0.8,0.9,0.9c-0.1-0.5,0.4-1.7,1.4-1.3c0.7,0.7-1.1,1.3-1.4,1.3
		C-28.2,57.5-27.8,57.7-27.4,57.9z M-29.6,55.1c-0.5,0.1-0.7-0.1-0.6-0.6C-29.3,53.6-29.6,55.2-29.6,55.1z M-29.3,55.9
		c0.2-0.3-0.3-0.3,0.2-0.7c1.6-1.6-0.5-1.4-0.5-1.5c0.1,0.1,1.5-0.2,0.7,0.7c-0.6,0.6-0.9-0.9-1.6-0.2
		C-31.3,54.8-29.6,55.9-29.3,55.9z M-15.6,62c-0.4-0.4-0.6-0.4-0.7,0.1c0.4,0.7,0.3-0.1,0.4-0.1c0.1,0.4,0,0.7-0.3,0.9
		C-15.7,62.9-15.5,62.5-15.6,62 M-16.8,62.2c0-0.2-0.1-0.2-0.2-0.2c-0.1,0.1,0.1,0.6-0.1,0.6c-1,0-0.5-1.8-0.1-2
		c-0.6-0.2-0.5-0.2-0.9-0.4c-0.3,0.4-0.4,0.7-0.5,1.2C-18.6,61.3-16.3,63.7-16.8,62.2 M-18.7,61.4c-0.5-0.9-0.8,0.5-0.8,0.7
		c-0.4-0.4,0-1-0.9-0.5c0,0.1,0,0.1,0,0.2c0.7,0.3,0.9,1.3,0.7,1.9c0.3-0.1,0.9-0.3,1.2-0.5c0-0.1,0-0.1,0-0.2
		c-0.5-0.1-1.4-1.3-0.6-1.7C-19.1,61.9-18.6,61.7-18.7,61.4 M-20.8,62.8c0.3,1.1-0.6,1.6-0.9,0.4C-22.1,62-21.3,61.8-20.8,62.8
		 M-20.3,62.7c-0.7-1.2-2.4-0.9-2,0.7C-22,64.9-19.9,64.1-20.3,62.7 M-23.2,63.7c0.4,1-0.7,1.4-1,0.4
		C-24.5,63.1-23.6,62.5-23.2,63.7 M-22.7,63.5c-0.3-0.9-1.5-1.2-1.8-0.1c-0.5-0.3,0-0.1-0.9-0.2c0,0.1,0,0.1,0,0.2
		c0.8,0.3,1.3,2.2,1.1,2.9c0.5-0.1,0.8-0.4,1.1-0.7c-0.6-0.3-0.3-0.3-0.8-0.9C-23.4,64.9-22.2,64.6-22.7,63.5 M-25.8,64.6
		c0.4,1-0.7,1.4-1,0.4C-27.1,64-26.2,63.4-25.8,64.6 M-25.3,64.4c-0.3-0.9-1.5-1.2-1.8-0.1c-0.5-0.3,0-0.1-0.9-0.2
		c0,0.1,0,0.1,0,0.2c0.8,0.3,1.3,2.2,1.1,2.9c0.5-0.1,0.8-0.4,1.1-0.7c-0.6-0.3-0.3-0.3-0.8-0.9C-25.9,65.7-25,65.5-25.3,64.4
		 M-27.5,66.2c-0.6-0.3-0.9-1.2-0.9-1.9c-0.2,0-0.6,0.2-0.8,0.3c0,0.1,0,0.1,0,0.2c1.5,0.6-0.2,3.1-0.5,0.2c-0.2,0-0.6,0.2-0.8,0.3
		c0,0.1,0,0.1,0,0.2c0.6,0.2,0.7,0.8,0.9,1.5c0.5,0.5,1.2-0.3,1.3-0.7C-28,66.9-27.8,66.8-27.5,66.2z M-30.3,66.6
		c-0.2-0.7-1.1-0.2-1.5-0.7c-0.3-0.7,0.9-0.1,1.1-0.1c-0.2-1.1-1.7-0.5-1.5,0.3c0.1,0.2,2.9,1.7,0.3,0.8
		C-31.8,68.4-30.1,67-30.3,66.6 M-29.4,70.6c-0.3-1,1.6-3.1,0-3.4c0.3,0.8-0.3,2.7-1.2,3.1c0,0.1,0,0.1,0,0.2
		C-30.1,70.7-29.9,70.7-29.4,70.6z M-31.3,69.3c-0.4,0.4-0.7,0.3-0.8-0.2C-31.4,67.4-30.9,69.6-31.3,69.3z M-30.6,70
		c0-0.5-0.1-0.5,0.2-1.3c0.6-1.5-1.9-0.9-1.4-0.4c1.2,0,1,0-0.3,0.3C-33.7,69-30.9,70-30.6,70z M-32.9,69.3
		c-0.5-0.9,1.3-2.1-0.4-2.4c0.5,0.9-1.2,2.1-1.2,1.4c-0.7-0.5,1.6-1.6-0.3-1.9c0.1,0.2-0.5,3.9,1.1,2.3
		C-33.8,69.5-33.4,69.2-32.9,69.3z M-36,67.6c-0.9,0.9-1.3-0.7-0.6-1.3C-35.7,65.5-35.8,67.2-36,67.6z M-35.4,68.4
		c-0.3-1.1,1.7-3.1-0.1-3.4c0.4,0.6-0.1,0.9-0.1,1.6c-2-2.8-2.2,3-0.6,1.4C-36.3,68.7-35.9,68.4-35.4,68.4z M-38,67.5
		c-0.4-0.9,1.1-2-0.4-2.3c0.3,0.6,0,1.6-0.7,1.9c0,0.1,0,0.1,0,0.2C-38.6,67.7-38.3,67.6-38,67.5z M-37.3,64.8
		c-0.1-0.5-0.2-0.5-0.6-0.2C-37.8,65-37.6,65.1-37.3,64.8 M-38.4,65.3c-0.2-0.1-0.6-0.2-0.9-0.3c0.2,0.6-0.1,0.9-0.8,1.5
		c-0.2-0.9,0-1.2,0.3-1.5c0-0.1,0-0.1,0-0.2c-0.3-0.2-0.9-0.4-1.3-0.5c0,0.1,0,0.1,0,0.2c0.3,0.4,0.1,2.1,0.5,2.3
		C-39.8,67-39.2,65.4-38.4,65.3z M-41.3,66.3c-0.4-0.9,1.1-2-0.4-2.3c0.3,0.6,0,1.6-0.7,1.9c0,0.1,0,0.1,0,0.2
		C-42,66.4-41.7,66.3-41.3,66.3z M-40.7,63.5c-0.1-0.5-0.2-0.5-0.6-0.2C-41.3,63.8-41.1,63.8-40.7,63.5 M-43.2,65
		c-0.9,0.9-1.3-0.7-0.6-1.3C-42.8,62.9-43,64.6-43.2,65z M-42.7,65.8c-0.3-1.1,1.7-3.1-0.1-3.4c0.4,0.6-0.1,0.9-0.1,1.6
		c-2-2.8-2.2,3-0.6,1.4C-43.6,66.1-43.1,65.8-42.7,65.8z M-45.1,64.9c-0.1-0.2,0.4-3.7-1.2-2.2C-46.4,62.3-46,62-47,62
		c0.3,0.6,0,1.6-0.7,1.9c0,0.1,0,0.1,0,0.2c0.2,0.2,0.8,0.4,1.1,0.5c-0.2-0.3,0-2.2,0.9-1.7c0.7,0.3-0.3,1.6-0.7,1.7
		c0,0.1,0,0.1,0,0.2C-45.9,65.1-45.6,65-45.1,64.9z M-47.7,64c-0.4-0.9,1.1-2-0.4-2.3c0.3,0.6,0,1.6-0.7,1.9c0,0.1,0,0.1,0,0.2
		C-48.4,64.1-48.1,64-47.7,64z M-47.1,61.2c-0.1-0.5-0.2-0.5-0.6-0.2C-47.7,61.5-47.5,61.5-47.1,61.2 M-38.3,62.9
		c-0.3,0.1-0.6,0.2-0.9,0.4c-0.1-0.3,0-0.6,0.2-0.9C-38.6,62.5-38.4,62.7-38.3,62.9z M-37.5,63.5c-0.2,0.4-0.9,1.1-1.5,0.1
		c-0.1-0.2,1.4-0.6,1.3-0.8c-0.7-1.1-2.3-0.7-1.8,0.8C-39.2,64.5-37.2,64.6-37.5,63.5 M-39.7,64.4c-0.2-0.7-1.3,0-1.5-0.6
		c-0.3-0.7,0.9-0.1,1.1-0.1c-0.2-0.8-0.5-0.5-0.5-0.5c-0.5-0.2-1.1,0.4-0.9,0.9c0.2,0.7,1.3,0,1.5,0.6c0.5,1-1.4,0.1-1.3,0.1
		C-41,66.3-39.4,64.8-39.7,64.4 M-42.2,64.9c0.5,1.1-0.4,1.6-0.9,0.5C-43.7,64.3-42.7,63.8-42.2,64.9 M-41.7,64.8
		c-0.7-1.1-2.5-0.7-2,0.8C-43.2,66.9-41,66-41.7,64.8 M-43.5,66.6c-0.9-0.5-0.9-3.3-2.3-2.5c0,0.1,0,0.1,0,0.2
		c0.9,0.3,1.6,2.2,1.3,3.1C-44.1,67.2-43.8,66.9-43.5,66.6z M-44.9,66.6c-1.1,2.5-1.6-1.8-0.8-0.9c0.3,0.2-0.7,0.5,0.3,0.5
		c0.3-0.2-1-1.3-1.6,0C-47.7,67.8-44.6,68.3-44.9,66.6 M-16.3,66c-0.3-0.1-0.6-0.2-0.9-0.3C-16.8,65.3-15.8,65-16.3,66z M-16.1,66.9
		c-0.3,0.1-1.7,0.1-1.3-1.1c0.4,0.2,1,0.3,1.4,0.5c0.5-3.1-3.7-0.1-1.3,0.7C-16.7,67.4-16.3,67.2-16.1,66.9 M-18.9,65.6
		c-0.9,0.9-1.3-0.9-0.5-1.4C-18.4,63.5-18.6,65.2-18.9,65.6z M-18.4,66.5c-0.3-1.2,2-3.2,0.1-3.5c0.5,0.6-0.1,0.8-0.1,1.5
		c-2-2.9-2.3,3-0.6,1.3C-19.2,66.3-18.8,66.2-18.4,66.5z M-20.9,65.5c-0.3-1,1.2-2-0.3-2.4c0.3,0.6-0.1,1.8-0.8,1.8
		C-21.8,65.3-21.4,65.5-20.9,65.5z M-20.2,62.7c-0.1-0.5-0.2-0.5-0.6-0.2C-20.6,63-20.5,63.1-20.2,62.7 M-21.2,63.2
		c-0.2-0.2-0.5-0.4-0.9-0.5c0.2,0.7-0.1,1-0.9,1.5c-0.2-0.9-0.2-1.3,0.6-1.5c0-0.1,0-0.1,0-0.2c-0.3-0.2-0.9-0.4-1.3-0.5
		c0,0.1,0,0.1,0,0.2c0.3,0.4,0.1,2.1,0.4,2.3C-22.6,64.7-21.9,63.4-21.2,63.2z M-24.5,62.9c-0.5,1.1-1.4,0.6-0.9-0.5
		C-24.9,61.2-23.9,61.9-24.5,62.9 M-23.9,63.1c0.3-1.4-1.4-2.2-2-0.8C-26.4,63.8-24.5,64.4-23.9,63.1 M-25.7,61.6
		c0.4-0.8-0.8-0.3-1.1,0c0-1.1,0.2,0-0.5-0.9c0.3,0.6-0.1,1.8-0.8,1.8c0.3,0.2,0.7,0.6,1.3,0.7c-0.3-0.4,0-2.2,0.8-1.8
		C-26,61.3-26.1,62.3-25.7,61.6 M-28.5,61.3c-0.4,1.1-1.5,0.5-1.1-0.4C-29.1,59.9-28.1,60.2-28.5,61.3 M-27.9,61.4
		c0.5-0.9-0.6-1.9-1.3-1.2c-0.2-0.5,0.1-0.1-0.6-0.7c0.3,0.7-0.3,2.7-1.2,2.8c0.2,0.3,0.6,0.5,1.1,0.7c-0.2-0.6,0.2-0.8,0.2-1.4
		C-29.2,62.3-28.4,62.5-27.9,61.4 M-11.3,58.4c0.4-0.6-0.7-1-0.7-1.5c0.4-0.8,0.8,0.7,0.8,0.7c0.2-0.2,0.4-0.3,0.5-0.7
		c-2.7-1.7-0.4,3.3-1.8,0.7c-0.2,0.2-0.4,0.4-0.5,0.8C-12.9,58.5-11.5,59.2-11.3,58.4 M-12.5,56.6c-0.1-0.2-0.1-0.4-0.2-0.6
		c-0.4,0-0.7,0.1-0.9,0.4c0-1-0.1-0.2-0.4-0.9c0.2,0.6-0.2,1.7-0.9,1.7c0.3,0.2,0.7,0.6,1.3,0.7c-0.3-0.4,0-2.2,0.9-1.8
		C-12.9,56-12.8,57.2-12.5,56.6 M-15.2,56.1c-0.5,1.1-1.4,0.6-0.9-0.5C-15.5,54.5-14.6,55.1-15.2,56.1 M-14.7,56.3
		c0.3-1.3-1.2-2.3-1.9-0.9C-17.2,56.8-15.3,57.7-14.7,56.3 M-17.1,55.8c0.4-0.6-0.7-1-0.7-1.5c0.4-0.8,0.8,0.7,0.8,0.7
		c0.2-0.2,0.4-0.3,0.5-0.7c-2.4-1.6-0.8,1.6-1.2,1.6c-0.6,0.2-0.5-0.8-0.6-1.1c-0.2,0.2-0.4,0.4-0.5,0.8
		C-18.5,55.7-17.5,56.3-17.1,55.8 M-19.1,55.5c-0.3-1,1.3-2-0.2-2.4c0.2,0.6-0.2,1.7-0.9,1.7C-19.9,55.1-19.5,55.4-19.1,55.5z
		 M-18.2,52.8c0-0.4-0.1-0.5-0.5-0.3C-18.8,52.9-18.6,53-18.2,52.8 M-19.3,53.2c-0.2-0.2-0.5-0.5-0.9-0.6c0.2,0.7-0.1,1-0.9,1.5
		c-0.1-1,0.2-1.2,0.5-1.4c-0.2-0.2-0.5-0.5-0.9-0.6C-21.5,55.8-21.5,53.7-19.3,53.2z M-21.6,52.4c0.4-0.8-0.9-0.3-1.1-0.1
		c0-1,0-0.2-0.4-0.9c0.3,0.6-0.1,1.8-0.8,1.8c0.3,0.2,0.6,0.6,1.2,0.7c-0.3-0.4,0-2.2,0.9-1.8c-0.1,0.2-0.1,0.3-0.2,0.5
		C-21.9,52.6-21.7,52.6-21.6,52.4 M-24.1,51.7c-0.3-0.1-0.6-0.2-0.9-0.4C-24.5,51-23.6,50.8-24.1,51.7z M-23.9,52.6
		c-0.4,0.1-1.6,0.1-1.2-1.1c0.3,0.3,1,0.4,1.4,0.6c0.7-3-3.8-0.4-1.4,0.8C-24.6,53-24.2,52.9-23.9,52.6 M-26.3,51
		c-0.9,2.3-1.6-1.8-0.1-1.1C-26.1,50.2-26.1,50.6-26.3,51 M-25.8,51.1c0.4-0.8-0.3-1.9-1.3-1.3c-0.2-0.5,0.1-0.1-0.6-0.7
		c0.3,0.7-0.5,2.6-1.3,2.7c0.2,0.3,0.6,0.5,1.1,0.7c-0.3-0.6,0.2-0.7,0.2-1.3C-27.1,52-26.3,52.2-25.8,51.1 M-28.7,51
		c-0.2-0.6,0.1-1.4,0.6-2c-0.2-0.1-0.6-0.2-0.9-0.3c0.2,0.5-0.1,2.1-0.9,1.6c-0.5-0.3,0.3-1.7,0.6-2c-0.2-0.1-0.6-0.2-0.9-0.3
		c0.1,0.3-1.1,3.5,0.8,2.3C-29.6,50.9-29.1,50.7-28.7,51z M-31,49.3c0.4-0.6-0.7-1-0.7-1.5c0.4-0.8,0.8,0.7,0.8,0.7
		c0.2-0.2,0.4-0.3,0.5-0.7c-2.4-1.6-0.8,1.6-1.2,1.6c-0.6,0.2-0.5-0.8-0.6-1.1c-0.2,0.2-0.4,0.4-0.5,0.8C-32.5,49.3-31.2,50-31,49.3
		 M-34.2,57.5c-0.9-0.4-1.6-3.3-2.7-2.1c0.9,0.2,2,1.9,1.7,2.9C-34.7,58.1-34.5,57.8-34.2,57.5z M-35.4,58.1c-0.9-0.4-1.7-3.5-2.7-2
		c0.8,0.1,1.9,1.9,1.6,2.8C-35.9,58.8-35.7,58.5-35.4,58.1z M-38,58.4c-0.2,0.2-0.6,0.5-0.9,0.6c-0.1-0.5-0.4-1-0.4-1.4
		C-38.9,57.9-38.5,58.2-38,58.4z M-36.2,58.7c-0.7-0.2-2.5-2.1-3.1-1.6c-0.5,0.5,0.6,2.7,0.4,3.4c0.5-0.1,0.8-0.3,1.2-0.7
		c-1.7-0.1,1-2,0.6-0.4C-36.6,59.5-36.5,59.1-36.2,58.7z M-41.6,55.9c-0.5-0.2-0.6-0.1-0.6,0.4C-41.7,56.6-41.5,56.5-41.6,55.9
		 M-42.3,56.7c-0.4-0.6-1.8-2.3-2.4-0.4c-0.3-0.9-0.9-1.7-1.5-0.8c0.8,0.1,1.7,2,1.7,2.4c0.2,0,0.7-0.1,0.9-0.5
		c-1.1-0.2-0.6-2-0.4-1.7c0.6-0.1,0.7,1.3,0.6,1.6C-43,57.3-42.6,57-42.3,56.7z M-44.9,57.7c-0.7,2.7-2.1-1.3-0.9-0.7
		c0,0-0.3,1,0.3,0.4c0.5-0.5-1.1-1.1-1.4,0.1C-47.3,59.1-44.5,59.4-44.9,57.7 M-47.2,57.9c-0.4-0.8-0.8,0.5-0.8,0.9
		c-0.4-0.3-0.3-1-0.9-0.1c0.7,0.1,1.3,1,1.1,1.8c0.5-0.2,0.8-0.5,1.1-0.8c-0.9-0.1-1.4-1.7-0.9-1.3C-47.5,58.6-47.1,58.1-47.2,57.9
		 M-49,60.4c0,0.6-0.2,0.7-0.7,0.5C-50.2,59.7-48.8,60.3-49,60.4z M-48,60.2c-0.2-0.2-1.5-1.6-2.1-1.3c0,0.1-1.1,1.2-0.2,1.2
		c0.3,0,1.2-1.8,0.2,0.3C-50.9,61.9-48.2,60.3-48,60.2z M-51.2,60.8c-0.2,0.2-0.5,0.4-0.8,0.6C-52,60.8-51.8,60-51.2,60.8z
		 M-50.4,61.2c-0.2,0.4-0.8,1.6-1.4,0.5c-0.2-0.1,1.3-0.8,1.2-0.9c-0.8-1.1-2.4-0.1-1.6,1.2C-51.7,63-49.8,62.1-50.4,61.2
		 M-52.3,62.3c-0.4-0.6-1.3,0.2-1.5-0.3c-0.5-0.9,0.9-0.3,1.1-0.3c-0.5-1.2-1.6,0.1-1.3,0.7c0.2,0.3,3,1,0.3,0.6
		C-53.2,64.2-51.9,63.2-52.3,62.3 M-54.9,63.1c-0.2,0.2-0.5,0.4-0.8,0.6C-55.8,63.2-55.4,62.1-54.9,63.1z M-54,63.5
		c-0.2,0.4-0.8,1.6-1.4,0.5c-0.2-0.1,1.3-0.8,1.2-0.9c-0.8-1.1-2.4-0.1-1.6,1.2C-55.4,65.1-53.8,64.7-54,63.5 M-56.5,63.6
		c-0.4-0.8-0.8,0.5-0.8,0.9c-0.9-0.5,0-0.2-1.1-0.1c0.7,0.1,1.3,1,1.1,1.8c0.5-0.2,0.8-0.5,1.1-0.8c-0.8-0.1-1.1-1.8-0.7-1.3
		C-56.6,64.2-56.5,64-56.5,63.6 M-30.9,60.2c-0.5-0.9-0.8,0.6-0.7,0.9c-0.9-0.4,0-0.2-1.1,0c0.8,0,1.3,1,1.3,1.7
		c0.4-0.2,0.8-0.5,1.1-0.9c-0.9,0-1.7-1.6-1.1-1.3C-31.1,60.7-30.7,60.5-30.9,60.2 M-32.6,62.3c0.6,0.9-0.1,1.6-0.9,0.7
		C-34.2,62-33.3,61.3-32.6,62.3 M-32.2,62c-1-0.9-2.7,0-1.7,1.3C-33.1,64.4-31.2,63.2-32.2,62 M-20.6,52.9c0-0.2,0-0.5-0.2-0.9
		c-0.1,0-0.1,0-0.2,0c-0.4,0.3-0.7,0.3-1.5,0.4c0.5-0.7,0.9-1,1.4-0.9c-0.1-0.4-0.3-0.9-0.5-1.3c-0.1,0-0.1,0-0.2,0
		c-0.2,0.5-2.4,2.5-2.4,1.6c0.2-0.2,0.1-0.3-0.2-0.4c-0.4,0,1.9,0.8,2.4,0.8C-21.2,52.4-21.1,52.4-20.6,52.9z M-23,50.2
		c-1.2,0-0.3-1.5,0.7-1.3C-21.2,49.1-22.6,50.1-23,50.2z M-23.3,51.1c0.7-0.9,3.9-0.9,2.5-2.3c-0.2,0.5-0.5,0.4-1.1,0.9
		c0.5-2.4-3.6-0.7-1.3,0.5C-23.7,50.6-23.4,50.7-23.3,51.1z M-24.3,48.7c0.4-0.6,1.2-0.9,1.9-0.9c0-0.2-0.2-0.6-0.3-0.8
		c-0.1,0-0.1,0-0.2,0c-0.2,0.4-1.4,1.3-1.8,0.5c-0.3-0.5,1.3-0.8,1.6-0.9c0-0.2-0.2-0.6-0.3-0.8c-0.1,0-0.1,0-0.2,0
		c-0.2,0.6-0.8,0.7-1.5,0.9c-0.3,0.6,0,1.1,0.7,1.3C-25,48.2-24.8,48.4-24.3,48.7z M-24.7,46c0.5,0.5-0.4-1-0.4-0.3
		c0-0.9,1.7-0.7,2-0.2c0.2-0.6,0.2-0.5,0.4-0.9c-0.3-0.2-0.8-0.4-1.2-0.4C-23.9,44.2-26.3,46.5-24.7,46 M-25.2,44.4
		c0.8-0.2,0-1.3,0.6-1.5c0.7-0.3,0.1,0.9,0.1,1.1c0.7-0.1,0.4-0.3,0.6-0.5c0.4-0.4-0.4-1.2-0.9-0.9c-0.6,0.2-0.2,1.1-0.6,1.5
		c-1,0.5-0.1-1.4-0.1-1.3C-26.7,42.9-26.1,44.6-25.2,44.4 M-18.3,68.9c1-1-2-0.4-2.2-0.4c0.5,0.7-0.5,1.6-1.2,1.4
		c0.3,0.3,0.9,0.6,1.2,0.8c-0.6-0.8,0.6-1.6,1.3-1.3c-0.2-0.2-0.2-1.7,0.5-1.1c0.3,0.3-0.1,0.4-0.2,0.3C-19,69-18.8,69.1-18.3,68.9
		 M-21.5,68.6c-0.8,0.9-1.7,0.2-0.9-0.7C-21.6,67-20.7,67.6-21.5,68.6 M-21.1,68.9c0.6-1.2-0.8-2.6-1.6-1.3
		C-23.8,68.6-22.1,70-21.1,68.9 M-10.3,46.4c-0.2,0.2-0.5,0.5-0.7,0.7C-11.2,46.4-11.1,45.7-10.3,46.4z M-9.4,46.6
		c0,0.4-0.4,1.6-1.3,0.7c0.3-0.2,0.7-0.9,0.9-1.2c-1.1-0.6-2.2,0.5-1.3,1.5C-10.4,48.6-8.7,47.6-9.4,46.6 M-10.7,48.5
		c-0.3-0.2-0.5,0-1.2-0.7c-0.6-0.6-2.4,1-2.2,1.7c-0.7,0-0.1-0.2-0.9,0.3c0.7-0.1,1.6,0.7,1.4,1.4c0.3-0.2,0.6-0.5,0.8-0.8
		c-0.5,0.1-1.7-0.4-1.3-1.4c0.6-0.6,1.3,1,1.3,1.3c0.3-0.2,0.6-0.5,0.8-0.8c-0.4,0.1-2-0.6-1.2-1.4c0.6-0.6,1.3,1,1.3,1.3
		C-11.5,49.2-11,48.9-10.7,48.5z M-13.5,51.4c-0.3-0.2-0.5,0-1.2-0.7c-0.6-0.6-2.4,1-2.2,1.7c-0.7,0-0.1-0.2-0.9,0.3
		c0.7-0.1,1.6,0.7,1.4,1.4c0.3-0.2,0.6-0.5,0.8-0.8c-0.5,0.1-1.7-0.4-1.3-1.4c0.6-0.6,1.3,1,1.3,1.3c0.3-0.2,0.6-0.5,0.8-0.8
		c-0.4,0.1-2-0.6-1.2-1.4c0.6-0.6,1.3,1,1.3,1.3C-14.3,52.1-13.9,51.7-13.5,51.4z M-17.4,54.4c0.1,0.5-0.1,0.7-0.6,0.6
		C-18.8,54.1-17.3,54.4-17.4,54.4z M-16.4,54.1c-0.3-0.2-1.7-1.1-2.3-0.7c0-0.3-0.6,1.7,0.1,1.1c0.1-0.1-0.2-1.5,0.7-0.7
		c0.6,0.6-0.9,0.9-0.2,1.6C-17.5,56.1-16.5,54.4-16.4,54.1z M-19.3,54.5c-0.8-0.8-0.6,0.9-0.6,0.9c-1-0.3,0.1-0.1-0.9,0.1
		c0.7-0.1,1.6,0.7,1.4,1.4c0.3-0.2,0.8-0.6,0.9-0.9c-0.4,0.1-1.8-0.5-1.3-1.4c0.1,0.1,0.2,0.2,0.4,0.4
		C-19.1,54.9-19.1,54.7-19.3,54.5 M-19.3,57.9c0.4,0.4-0.6,1.3-1.1,0.9C-20.7,58.3-19.5,57.5-19.3,57.9 M-20.8,56.7
		c0.6,0.6,0.1,1.2-0.7,0.7C-22.1,56.8-21.3,56-20.8,56.7 M-20.5,55.7c-0.4,0.1-2.2,1.3-1.3,2c0.7-0.1,1,0.2,0.7,0.8
		c0.5,0.5,1.8,1,2.2-0.5c0.3-1.6-2,0.1-2,0.3c-0.3-0.3,1.7-2.1-0.1-2.1C-20.8,56-20.6,55.9-20.5,55.7z M-22.3,58.5
		c0.9,0.9,0.1,1.6-0.8,0.8C-23.9,58.4-23.1,57.6-22.3,58.5 M-21.9,58.1c-1.1-0.7-2.7,0.3-1.5,1.4C-22.4,60.7-20.9,59.2-21.9,58.1
		 M-24,59.2c-0.8-0.8-0.6,0.9-0.6,0.9c-1-0.3,0.1-0.1-0.9,0.1c0.7-0.1,1.6,0.7,1.4,1.4c0.4-0.3,0.7-0.8,0.9-1.1
		c-0.9,0.5-1.6-1.1-1.2-0.9C-24.2,59.9-23.6,59.5-24,59.2 M-25.3,61.6c0.8,0.8-0.1,1.6-0.8,0.8C-26.9,61.7-26.1,60.8-25.3,61.6
		 M-25,61.2c-0.6-0.6-1.9-0.4-1.6,0.8c-0.5,0-0.1-0.1-0.8,0.3c0.9-0.1,2.3,1.3,2.2,2.2c0.3-0.2,0.7-0.6,0.9-0.9
		c-0.5,0-0.6-0.3-1.3-0.6C-24.6,62.7-24.2,62-25,61.2 M-32,55.6c1-0.5-0.5-0.9-0.8-0.8c0.3-0.5,1-0.4,0-0.9c0,0.7-1.1,1.3-1.8,0.9
		c0.1,0.5,0.4,0.8,0.7,1.1c0-0.9,1.7-1.3,1.3-0.8C-32.8,55.5-32.6,55.6-32,55.6 M-34.5,54.7c0.3-0.9,2.4-1,1.1-2
		c0,0.7-1.1,1.3-1.8,0.9C-35.2,54.2-34.9,54.4-34.5,54.7z M-32.2,53c0.2-0.4,0.1-0.5-0.3-0.5C-32.7,52.9-32.6,53-32.2,53
		 M-34.4,52.3c-0.2-0.2-0.3-0.5-0.5-0.8C-34.1,51.1-33.7,51.8-34.4,52.3z M-34.8,53.1c-0.5-0.2-1.4-0.7-0.5-1.4c0.2,0.5,1,2,1.4,0.5
		c0.3-0.9-1.1-1.5-1.7-1C-36.6,51.7-35.8,53.6-34.8,53.1 M-36.3,51.5c0.6-0.4,2.4-1.7,0.5-2.3c1-0.3,1.7-0.9,0.8-1.6
		c-0.1,0.8-1.9,1.8-2.8,1.5c0.1,0.5,0.4,0.8,0.7,1.1c0.4-2.7,2.8,1.1,0,0.1C-37,50.7-36.7,51.1-36.3,51.5z M-37.3,48.9
		c0.4,0.2-0.5-0.9-0.5-0.2c0,0,1.2-1.5,1.8-0.6c0.1-0.6,0.2-0.6,0.4-1.2c-0.3-0.2-0.9-0.3-1.3-0.3C-36.8,46.7-39.1,49.6-37.3,48.9
		 M-40,55.2c0,0,1.3-3.5-0.5-2.3c-0.1-0.4,0.5-0.6-0.5-0.9c0.1,0.7-0.5,1.7-1.3,1.7c0.2,0.2,0.7,0.6,0.9,0.8
		c-0.1-0.4,0.4-1.9,1.3-1.4c0.6,0.6-0.8,1.5-1.2,1.5C-40.8,55.1-40.4,55.1-40,55.2z M-42.2,53.6c-0.3-1.1,1.6-1.6,0.2-2.4
		c0.1,0.7-0.5,1.7-1.3,1.7C-43,53.2-42.6,53.4-42.2,53.6z M-40.8,51.1c0-0.4-0.1-0.5-0.5-0.3C-41.3,51.2-41.2,51.3-40.8,51.1
		 M-27.5,69.2c0.7,0.3-1-0.7-0.5-0.1c-0.5-0.5,1.3-1.3,1.7-1.1c-0.1-0.7-0.1-0.4-0.1-1.2c-0.3,0-1,0-1.2,0.1
		C-27.6,67.1-28.7,70.4-27.5,69.2 M-29,68.5c0.1-0.1,1.7-3.2-0.2-2.3c0-0.5,0.7-0.6-0.4-0.9c0.1,0.7-0.6,1.6-1.3,1.5
		c0.2,0.3,0.6,0.7,0.9,0.9c0-0.3,0.6-2.2,1.4-1.3c0.6,0.6-0.9,1.4-1.3,1.3C-29.5,67.8-29.2,68.3-29,68.5z M-30.7,65.3
		c-0.2-0.2-0.5-0.4-0.8-0.6C-30.9,64.2-30.1,64.6-30.7,65.3z M-30.8,66.2c-0.3,0-1.7-0.3-0.8-1.3c0.2,0.3,0.9,0.6,1.3,0.9
		c1.3-2.6-3.5-1.6-1.6,0.3C-31.5,66.4-31.1,66.4-30.8,66.2 M-33.1,64.1c-1.2,0.6-0.9-1.2,0-1.4C-31.9,62.3-32.7,63.8-33.1,64.1z
		 M-32.8,65.1c0-1,2.7-2.4,1.2-3.2c-0.1,0.5-0.4,0.7-0.6,1.3c-0.9-3.3-3.3,1.8-1.1,1.1C-33.8,64.8-33.2,64.8-32.8,65.1z M-34.9,63.3
		c-0.1-1,1.9-1.6,0.5-2.3c0.1,0.4-0.7,2.1-1.4,1.3c-0.8-0.8,2.1-1.3,0.4-2.1c0,0.3-1.9,3.3,0.2,2.6C-35.8,63.4-35.3,63.2-34.9,63.3z
		 M-36.6,61.2c0.7,0.3-1-0.7-0.5-0.1c-0.5-0.5,1.3-1.3,1.7-1.1c-0.1-0.7-0.1-0.4-0.1-1.2c-0.3-0.1-1,0-1.3,0.2
		C-36.9,59.3-37.4,62.4-36.6,61.2 M-37.8,60c0.3-0.5-0.5-1.3-0.2-1.6c0.3-0.7,0.6,0.8,0.7,0.9c0.4-0.3,0.3-0.9,0.2-0.7
		c0-2.9-1.8,1.8-1.1,1.1c-0.4,0.8-0.7-0.9-0.8-1.1C-40.1,59.5-38.4,60.5-37.8,60 M-57.1,56.7c-0.2,0.2-0.3,0.5-0.5,0.8
		c-0.3-0.2-0.4-0.5-0.3-0.8C-57.6,56.7-57.4,56.7-57.1,56.7z M-56.1,56.8c0,0.4-0.2,1.7-1.2,0.9c0.3-0.3,0.5-1,0.8-1.3
		c-1.2-0.4-2.3,0.8-1.2,1.7C-56.7,59.1-55.3,57.4-56.1,56.8 M-57,58.9c-0.2-0.1-3.5-1.3-2.3,0.5c-0.6-0.7-1.4-1.3-1.8-0.3
		c0.9-0.1,2.6,1,2.7,1.9c0.2-0.2,0.5-0.7,0.6-1.1c-0.5,0.2-1.8-0.3-1.3-1.3c0.6-0.6,1.5,0.8,1.5,1.2C-57.5,59.6-57.2,59.2-57,58.9z
		 M-58.9,60.8c-0.1,0-0.1,0-0.2,0c0,0.1,0.3,0.5,0.3,0.6c-0.7,0.7-1.5-1-1.3-1.5c-0.5,0.1-0.5,0.1-1.1,0.1c0,0.2,0,1.1,0.1,1.3
		C-60.8,61.6-57.3,61.9-58.9,60.8 M-48,66.8c1,0.5-0.9,1.8-0.9,1.1C-48.7,67.5-48.6,66.6-48,66.8 M-46,57.9
		c-0.1,0.3-0.2,0.6-0.4,0.9C-46.8,58.3-47,57.4-46,57.9z M-45.1,57.7c0.1,0.3,0.1,1.8-1.1,1.2c0.3-0.3,0.4-1,0.6-1.4
		c-1.3-0.2-2.1,1.3-0.8,1.9C-45.3,59.9-44.1,58.2-45.1,57.7 M-46.5,60.5c0.9,0.9-0.9,1.3-1.4,0.5C-48.6,59.9-46.7,60.4-46.5,60.5z
		 M-45.6,60c-1.2,0.3-3.1-2.1-3.4-0.2c0.6-0.5,0.8,0.1,1.5,0.1c-2.9,2,2.9,2.4,1.3,0.8C-45.6,60.9-45.8,60.4-45.6,60z M-46.7,62.3
		c-1,0.3-2-1.3-2.4,0.2c0.6-0.2,1.7,0.2,1.7,0.9C-47.1,63.2-46.8,62.8-46.7,62.3z M-49.3,61.6c-0.4,0-0.5,0.1-0.3,0.5
		C-49.2,62.1-49.1,62-49.3,61.6 M-47.2,63.7c-0.6,0.2-1.4-0.1-2-0.6c-0.1,0.2-0.2,0.6-0.3,0.9c0.5-0.2,2.1,0.1,1.6,0.9
		c-0.3,0.5-1.7-0.3-2-0.6c-0.1,0.2-0.2,0.6-0.3,0.9c0.3-0.1,3.5,0.9,2.3-0.9C-47.3,64.6-47.5,64.1-47.2,63.7z M-49.9,66.2
		c0.6,0.3,0.5,1.2-0.4,0.8C-51.1,66.6-50.7,65.8-49.9,66.2 M-50,65.1c-0.4,0.2-1.6,1.9-0.6,2.4c0.6,0.2,2.3,1.3,2.6,0.2
		c1.1-3.2-1.8-0.2-1.7-0.1c0,0,0.7-2.8-0.9-2C-50.4,65.4-50.2,65.3-50,65.1z"/>
</g>
<ellipse transform="matrix(-0.2588 -0.9659 0.9659 -0.2588 51.8552 3.4409)" fill="#FFFFFF" cx="27.2" cy="-18.2" rx="6.1" ry="9.1"/>
<g>
	<path d="M36.1-20.5c-0.9-3.3-5.5-4.9-10.4-3.6c-4.9,1.3-8.1,5-7.2,8.3c0.9,3.3,5.5,4.9,10.4,3.6C33.7-13.5,37-17.3,36.1-20.5z
		 M30.6-15.2c-2.5,2.7-6,3.6-7.8,2c-1.8-1.6-1.3-5.2,1.2-8c2.5-2.7,6-3.6,7.8-2C33.6-21.5,33.1-17.9,30.6-15.2z"/>
	<circle cx="27.3" cy="-18.2" r="2.2"/>
</g>
</svg>
