<?xml version="1.0" encoding="utf-8"?> <!-- Generated by Layerhero SVG Exporter: http://www.layerhero.com/photoshop-svg-exporter --><!DOCTYPE svg PUBLIC "-//W3C//DTD SVG 1.1//EN" "http://www.w3.org/Graphics/SVG/1.1/DTD/svg11.dtd"><svg version="1.1" baseProfile="full" xmlns="http://www.w3.org/2000/svg" xmlns:xlink="http://www.w3.org/1999/xlink" xmlns:ev="http://www.w3.org/2001/xml-events" width="76" height="103" viewBox="0 0 76 103"><g transform="scale(NaN)" ><path fill-rule="evenodd"  fill="rgb( 234, 87, 91 )" d="M61.837,37.067 C62.184,37.067 62.635,36.984 63.075,36.636 C64.212,36.455 65.346,35.862 66.276,34.938 C66.276,34.938 73.706,27.449 73.706,27.449 C75.817,25.345 75.817,21.787 73.733,19.710 C73.733,19.710 66.266,11.966 66.266,11.966 C65.089,10.795 63.482,10.125 61.837,10.125 C61.837,10.125 44.888,10.125 44.888,10.125 C44.888,10.125 44.888,7.236 44.888,7.236 C44.888,3.523 41.855,0.501 38.127,0.501 C34.400,0.501 31.366,3.523 31.366,7.236 C31.366,7.236 31.366,10.125 31.366,10.125 C31.366,10.125 14.770,10.125 14.770,10.125 C11.324,10.125 8.186,13.428 8.186,17.054 C8.186,17.054 8.186,30.061 8.186,30.061 C8.186,33.665 11.386,37.067 14.770,37.067 C14.770,37.067 31.366,37.067 31.366,37.067 C31.366,37.067 31.366,40.888 31.366,40.888 C31.366,40.888 14.279,40.874 14.279,40.874 C12.594,40.655 10.903,41.199 9.735,42.362 C9.735,42.362 2.299,49.771 2.299,49.771 C1.269,50.798 0.701,52.150 0.701,53.578 C0.701,55.010 1.269,56.363 2.305,57.394 C2.305,57.394 9.737,64.732 9.737,64.732 C10.687,65.676 11.982,66.174 13.483,66.174 C13.624,66.174 13.764,66.171 13.801,66.165 C14.184,66.165 14.499,66.062 14.744,65.935 C14.744,65.935 31.366,65.935 31.366,65.935 C31.366,65.935 31.366,102.502 31.366,102.502 C31.366,102.502 35.230,102.502 35.230,102.502 C35.230,102.502 35.230,65.935 35.230,65.935 C35.230,65.935 41.025,65.935 41.025,65.935 C41.025,65.935 41.025,102.502 41.025,102.502 C41.025,102.502 44.888,102.502 44.888,102.502 C44.888,102.502 44.888,65.935 44.888,65.935 C44.888,65.935 61.233,65.935 61.233,65.935 C64.593,65.935 68.068,63.773 68.068,60.151 C68.068,60.151 68.068,47.144 68.068,47.144 C68.068,43.419 64.535,40.917 61.233,40.917 C61.233,40.917 44.888,40.903 44.888,40.903 C44.888,40.903 44.888,37.067 44.888,37.067 C44.888,37.067 61.837,37.067 61.837,37.067 ZM35.230,7.236 C35.230,5.647 36.529,4.352 38.127,4.352 C39.725,4.352 41.025,5.647 41.025,7.236 C41.025,7.236 41.025,10.125 41.025,10.125 C41.025,10.125 35.230,10.125 35.230,10.125 C35.230,10.125 35.230,7.236 35.230,7.236 ZM12.050,30.061 C12.050,30.061 12.050,17.054 12.050,17.054 C12.050,15.615 13.498,13.973 14.770,13.973 C14.770,13.973 61.860,13.973 61.860,13.973 C62.450,13.973 63.093,14.249 63.508,14.662 C63.508,14.662 70.973,22.405 70.973,22.405 C71.594,23.023 71.594,24.111 70.965,24.738 C70.965,24.738 63.539,32.221 63.539,32.221 C63.160,32.596 62.697,32.841 62.324,32.841 C62.324,32.841 62.322,32.841 62.322,32.841 C62.322,32.841 62.177,32.832 62.177,32.832 C62.177,32.832 62.032,32.847 62.032,32.847 C61.667,32.879 61.339,33.003 61.045,33.218 C61.045,33.218 14.770,33.218 14.770,33.218 C13.498,33.218 12.050,31.535 12.050,30.061 ZM64.205,47.144 C64.205,47.144 64.205,60.151 64.205,60.151 C64.205,61.347 62.662,62.089 61.233,62.089 C61.233,62.089 14.164,62.089 14.164,62.089 C13.784,62.089 13.471,62.189 13.226,62.313 C12.784,62.271 12.582,62.125 12.461,62.001 C12.461,62.001 5.030,54.667 5.030,54.667 C4.730,54.366 4.564,53.980 4.564,53.578 C4.564,53.177 4.730,52.790 5.030,52.492 C5.030,52.492 12.466,45.084 12.466,45.084 C12.624,44.927 12.799,44.828 12.972,44.766 C12.972,44.766 61.233,44.766 61.233,44.766 C62.607,44.766 64.205,45.802 64.205,47.144 ZM41.025,40.897 C41.025,40.897 35.230,40.892 35.230,40.892 C35.230,40.892 35.230,37.067 35.230,37.067 C35.230,37.067 41.025,37.067 41.025,37.067 C41.025,37.067 41.025,40.897 41.025,40.897 Z"/></g></svg>