<?xml version="1.0" encoding="utf-8"?>
<!-- Generator: Adobe Illustrator 17.1.0, SVG Export Plug-In . SVG Version: 6.00 Build 0)  -->
<!DOCTYPE svg PUBLIC "-//W3C//DTD SVG 1.1//EN" "http://www.w3.org/Graphics/SVG/1.1/DTD/svg11.dtd">
<svg version="1.1" id="Layer_1" xmlns:ev="http://www.w3.org/2001/xml-events"
	 xmlns="http://www.w3.org/2000/svg" xmlns:xlink="http://www.w3.org/1999/xlink" x="0px" y="0px" viewBox="-15 -3 180 160"
	 enable-background="new -15 -3 180 160" xml:space="preserve">
<g transform="scale(NaN)">
	<path fill="#FFCE00" d="M75,3.5c41.4,0,75,33.6,75,75c0,41.4-33.6,75-75,75c-41.4,0-75-33.6-75-75C0,37.1,33.6,3.5,75,3.5z"/>
	<path fill="#FFFFFF" d="M75,0.5c41.4,0,75,33.6,75,75c0,41.4-33.6,75-75,75c-41.4,0-75-33.6-75-75C0,34.1,33.6,0.5,75,0.5z"/>
	<path stroke="#000000" d="M120,84.6c-0.6,0.6-1.5,1.4-2.7,2.4c-0.4-2.3-0.8-4.8-1.3-7.3c1.7-1.4,3.1-2.6,3.9-3.6
		c0.2,1.6,0.3,3.2,0.3,4.8C120.1,82.1,120.1,83.4,120,84.6z M115.9,79.1c-0.5-2.3-1-4.6-1.6-6.8c2-1.6,3.3-2.9,4.1-3.8
		c0.6,2.2,1.1,4.5,1.4,6.8C119.1,76.3,117.9,77.5,115.9,79.1z M114,71.6c-0.5-1.8-1.1-3.5-1.8-5c-0.2-0.6-0.5-1.1-0.7-1.7
		c2-1.5,3.3-2.7,4.1-3.4c1,2,1.8,4.2,2.5,6.3C117.4,68.6,116.1,69.9,114,71.6z M107.6,57.5c1.9-1.5,3-2.6,3.6-3.3
		c1.6,2.1,3,4.4,4.2,6.8c-0.8,0.7-2.1,1.9-4.1,3.4C110.2,62,109,59.7,107.6,57.5z M107.3,57.1c-1.4-2.1-2.9-4.2-4.6-6.1
		c1.5-1.2,2.5-2.1,3.2-2.7c1.8,1.7,3.5,3.5,5.1,5.5C110.3,54.5,109.2,55.6,107.3,57.1z M96.6,45.1c1.2-0.9,2-1.6,2.5-2
		c2.3,1.4,4.4,3,6.4,4.8c-0.7,0.6-1.7,1.6-3.1,2.7C100.6,48.7,98.7,46.9,96.6,45.1z M89.3,39.8c0.3-0.3,0.6-0.6,0.8-0.8
		c3,1,5.9,2.4,8.5,4c-0.5,0.4-1.3,1.1-2.4,1.9C94.1,43,91.8,41.4,89.3,39.8z M85.8,37.7c1.3,0.3,2.6,0.7,3.9,1.1
		c-0.2,0.2-0.5,0.5-0.7,0.8C87.9,38.9,86.8,38.3,85.8,37.7z M84.6,43.2c-1.9-1.7-3.6-3-5-4c0.9-0.9,1.6-1.6,2-2.2
		c0.8,0.1,1.7,0.2,2.5,0.4c1.5,0.8,3,1.6,4.4,2.5C87.5,40.8,86.3,41.9,84.6,43.2z M79.2,38.9c-1.8-1.2-3.2-1.9-4.1-2.3
		c0.3,0,0.5,0,0.8,0c1.8,0,3.5,0.1,5.2,0.3C80.7,37.4,80,38.1,79.2,38.9z M73.5,43.1c-3.8-3.3-6.1-4.2-7.1-4.5
		c0.5-0.4,0.9-0.9,1.1-1.2c2.1-0.4,4.2-0.7,6.3-0.7c0.6,0.2,2.2,0.8,5,2.6C77.5,40.4,75.8,41.7,73.5,43.1z M65.8,38.5
		C65.7,38.5,65.7,38.5,65.8,38.5l-0.2,0L63.7,40c-0.8,0.5-1.9,1-3,1.5c-3.1,1.2-5.7,1.5-7.6,1.4c4.1-2.5,8.7-4.3,13.6-5.3
		C66.5,37.8,66.1,38.2,65.8,38.5z M55,43.3c-0.1,0.9-0.5,3.3-0.6,7.1c-2.3,0.6-4.4,1.1-6.1,1.4c0.5-3.1,1.1-5.4,1.5-6.6
		c0.9-0.6,1.7-1.2,2.6-1.8c0.3,0,0.7,0,1.1,0C54,43.4,54.5,43.4,55,43.3z M42.9,52.6c0.2-0.7,0.5-1.4,0.7-2c1.7-1.8,3.5-3.4,5.5-4.9
		c-0.4,1.4-0.9,3.5-1.3,6.3C45.7,52.3,44,52.5,42.9,52.6z M41.8,52.6c0.3-0.4,0.7-0.8,1-1.2c-0.1,0.4-0.3,0.7-0.4,1.1
		C42.2,52.6,42,52.6,41.8,52.6z M40.6,59.4c-1.6,0.3-2.8,0.4-3.6,0.5c1.3-2.4,2.8-4.7,4.6-6.8l0,0.1c0,0,0.3,0,0.7,0
		C41.6,55,41.1,57.1,40.6,59.4z M39.4,67.5c-2.9,0.4-4.7,0.4-5.8,0.3c0.8-2.6,1.9-5.1,3.1-7.5c0.8-0.1,2.1-0.2,3.8-0.5
		C40,62.3,39.6,64.9,39.4,67.5z M39.3,68c-0.2,2.5-0.3,5.2-0.2,7.8c-3.3,0.7-5.8,1.1-7.3,1.3c0.3-3,0.8-6,1.6-8.8c0.3,0,0.8,0,1.3,0
		C35.8,68.4,37.3,68.3,39.3,68z M39.6,82.1c0.1,0.8,0.2,1.6,0.4,2.4c-3.9,0.7-6.6,0.9-8.1,1c-0.2-1.5-0.2-3.1-0.2-4.6
		c0-1.1,0-2.2,0.1-3.3c1.5-0.2,4-0.6,7.3-1.3C39.2,78.3,39.4,80.2,39.6,82.1z M41.6,92.9c-4,0.5-6.8,0.5-8.2,0.5
		c-0.7-2.4-1.2-4.9-1.5-7.4c1.6-0.1,4.3-0.3,8.1-1C40.5,87.6,41,90.3,41.6,92.9z M41.7,93.4c0.6,2.3,1.3,4.6,2.1,6.8
		c-4,0.3-6.6,0-7.9-0.1c-0.9-2-1.8-4-2.4-6.2c0.3,0,0.6,0,0.9,0C36.1,93.9,38.5,93.8,41.7,93.4z M44.1,100.8c0.8,2.2,1.8,4.3,3,6.3
		c-3.3,0.3-5.4,0.3-6.7,0.1c-1.5-2-2.9-4.2-4-6.5c0.9,0.1,2.2,0.2,3.9,0.2C41.4,101,42.6,101,44.1,100.8z M47.4,107.7
		c1,1.7,2.1,3.3,3.4,4.9c-2.8,0.2-4.6,0.2-5.7,0.1c-1.5-1.5-3-3.1-4.3-4.8c0.5,0,1.2,0.1,2,0.1C44,107.9,45.5,107.9,47.4,107.7z
		 M51.2,113.1c0.1,0.1,0.2,0.3,0.3,0.4c1.6,1.9,3.3,3.5,4.9,4.9c-1.7,0.2-3,0.2-3.9,0.2c-2.5-1.6-4.8-3.3-7-5.4
		c0.5,0,1.1,0.1,1.7,0.1C48.4,113.2,49.7,113.2,51.2,113.1z M61.5,122.1c-0.7,0.1-1.2,0.1-1.6,0.1c-2.3-0.9-4.5-1.9-6.5-3.2
		c0.9,0,2.1-0.1,3.6-0.3C58.6,120.1,60.1,121.2,61.5,122.1z M64.1,123.6c-1.1-0.3-2.1-0.6-3.1-1c0.4,0,0.8-0.1,1.2-0.1
		C62.9,122.9,63.5,123.2,64.1,123.6z M68.8,121.5c1,0.9,1.9,1.6,2.7,2.3c-1.7,0.2-3.1,0.4-4.3,0.5c-0.2,0-0.4,0-0.5,0
		c-0.2-0.1-0.4-0.2-0.6-0.3c-0.8-0.4-1.9-1-3.1-1.7C64.5,122.2,66.5,121.9,68.8,121.5z M73.1,125.1c-1.4-0.1-2.8-0.2-4.2-0.5
		c0.9-0.1,1.9-0.2,3.1-0.4C72.3,124.5,72.7,124.8,73.1,125.1z M76.1,123.5c0.5,0.7,0.9,1.2,1.2,1.7c-0.5,0-0.9,0-1.4,0
		c-0.7,0-1.3,0-2,0c-0.4-0.3-0.8-0.6-1.4-1C73.6,123.9,74.8,123.7,76.1,123.5z M84.8,121.4c0.6,1.2,1.1,2.1,1.4,2.6
		c-2.7,0.6-5.5,1-8.4,1.2c-0.3-0.4-0.8-1-1.3-1.7C79,122.9,81.8,122.2,84.8,121.4z M89.8,119.9c1.6-0.5,3-1,4.4-1.5
		c0,1.3,0,2.3-0.1,2.9c-2.3,1.1-4.8,1.9-7.3,2.6c-0.3-0.5-0.8-1.3-1.4-2.6C86.7,120.8,88.2,120.4,89.8,119.9z M102.7,104.1
		c-0.1,2-0.2,3.9-0.4,5.7c-2.3,1.2-5,2.4-8,3.7c-0.2-1.6-0.4-3.4-0.8-5.4C97,106.7,100,105.3,102.7,104.1z M101.6,114.6
		c-1.9,1-4.3,2-7,3c0-1-0.1-2.3-0.2-3.7c2.9-1.2,5.6-2.5,7.9-3.6C102,111.9,101.8,113.4,101.6,114.6z M94.6,118.2
		c2.6-1,4.9-2,6.8-2.9c-0.2,0.9-0.4,1.7-0.6,2.2c-2,1.4-4.1,2.6-6.3,3.6C94.6,120.4,94.6,119.4,94.6,118.2z M107.7,111.7
		C107.7,111.7,107.7,111.7,107.7,111.7c-1.9,2-4,3.8-6.2,5.3c0.2-0.6,0.3-1.3,0.5-2.1C104.4,113.7,106.3,112.6,107.7,111.7z
		 M102.7,110.1c2.7-1.4,4.9-2.6,6.8-3.7c-0.4,2.1-1,3.5-1.4,4.5c-1.4,1-3.3,2.2-6,3.5C102.3,113.1,102.6,111.7,102.7,110.1z
		 M114,103.4c-1.4,2.4-3,4.6-4.8,6.6c-0.1,0.1-0.2,0.2-0.4,0.3c0.4-1,0.8-2.4,1.2-4.3C111.7,105,113,104.1,114,103.4z M110.8,99.8
		c3.5-2,5.7-3.6,7-4.8c-0.9,2.5-1.9,5-3.2,7.3c-1,0.7-2.4,1.8-4.4,3C110.5,103.8,110.7,102,110.8,99.8z M117.8,94.4
		c-1.2,1.1-3.4,2.7-7,4.8c0.1-1.9,0.1-4.1,0-6.5c0-0.2,0-0.4,0-0.6c2.2-1.4,4.4-2.9,6.2-4.3C117.3,90.4,117.6,92.6,117.8,94.4z
		 M116.9,87.3c-1.6,1.2-3.6,2.7-6.1,4.3c-0.2-2.5-0.5-5-1-7.4c2.2-1.5,4.2-2.9,5.8-4.2C116.1,82.5,116.5,85,116.9,87.3z M115.5,79.5
		c-1.5,1.2-3.5,2.6-5.8,4.2c-0.5-2.3-1.1-4.5-1.8-6.7c2.4-1.6,4.4-3,6-4.2C114.5,74.9,115,77.2,115.5,79.5z M111.9,66.7
		c0.7,1.5,1.2,3.3,1.8,5.2c-1.6,1.2-3.5,2.7-6,4.3c-0.8-2.3-1.7-4.6-2.7-6.8c2.5-1.6,4.6-3,6.2-4.2
		C111.4,65.7,111.6,66.2,111.9,66.7z M111,64.7c-1.6,1.2-3.7,2.6-6.2,4.2c-1.1-2.4-2.4-4.7-3.8-6.9c2.6-1.6,4.7-3,6.2-4.2
		C108.6,60,109.8,62.3,111,64.7z M106.9,57.4c-1.6,1.2-3.6,2.6-6.2,4.2c-1.4-2.1-2.9-4.2-4.5-6.2c2.6-1.5,4.5-2.9,6.1-4.1
		C104,53.2,105.5,55.2,106.9,57.4z M101.9,50.9c-1.5,1.2-3.5,2.5-6.1,4.1c-0.1-0.1-0.2-0.3-0.4-0.4c-1.7-2-3.2-3.8-4.7-5.4
		c2.2-1.4,4.1-2.7,5.5-3.8C98.3,47.2,100.2,49,101.9,50.9z M95.9,45.1c-1.4,1-3.2,2.3-5.4,3.7c-2-2.1-3.8-3.9-5.5-5.4
		c1.6-1.3,2.9-2.4,3.9-3.3C91.4,41.7,93.7,43.3,95.9,45.1z M90,49.1c-2,1.2-4.2,2.6-6.8,3.9c-1.8-2-3.4-3.8-4.8-5.3
		c2.4-1.4,4.4-2.7,6.1-4C86.2,45.2,88.1,47,90,49.1z M84.2,43.5c-1.7,1.3-3.7,2.6-6.1,4c-1.6-1.6-3-2.9-4.2-4
		c2.4-1.4,4.1-2.7,5.4-3.9C80.7,40.5,82.3,41.8,84.2,43.5z M77.7,47.7c-2.1,1.1-4.4,2.3-7,3.3c-1-1.6-1.9-3.2-2.8-4.6
		c2.1-0.9,4-1.8,5.6-2.7C74.7,44.7,76.1,46.1,77.7,47.7z M73,43.3c-1.5,0.9-3.3,1.8-5.4,2.7c-1.8-2.9-3.2-5-3.6-5.6
		c0.7-0.5,1.4-0.9,1.9-1.4C66.6,39.1,68.8,39.7,73,43.3z M63.6,40.6c0.4,0.6,1.8,2.7,3.5,5.6c-0.9,0.4-1.8,0.7-2.8,1.1
		c-1.3,0.5-2.6,0.9-3.8,1.3c-0.8-3.4-1.3-5.4-1.4-6.1c0.6-0.2,1.2-0.4,1.8-0.6C61.9,41.5,62.8,41.1,63.6,40.6z M58.7,42.7
		c0.1,0.7,0.6,2.8,1.4,6.1c-1.8,0.6-3.5,1.1-5.1,1.5c0.1-3.8,0.5-6.2,0.6-7C56.5,43.2,57.5,43,58.7,42.7z M60.2,49.2
		c0.4,1.4,0.8,3.1,1.3,5c-2.3,0.7-4.5,1.4-6.5,1.9c-0.1-2-0.1-3.8,0-5.3C56.5,50.3,58.3,49.8,60.2,49.2z M55,64
		c-2.9,0.8-5.4,1.5-7.6,2c0-2.8,0-5.3,0.2-7.5c2-0.5,4.3-1,6.9-1.7C54.6,58.9,54.7,61.3,55,64z M47.8,52.4c-0.2,1.7-0.5,3.6-0.6,5.7
		c-2.4,0.5-4.4,0.9-6,1.2c0.5-2.2,1-4.3,1.7-6.2C43.8,53,45.5,52.8,47.8,52.4z M47.1,58.6c-0.1,2.3-0.2,4.8-0.2,7.5
		c-2.8,0.7-5.2,1.1-7.1,1.4c0.3-2.7,0.6-5.3,1.2-7.7C42.6,59.5,44.7,59.1,47.1,58.6z M39.8,68c1.9-0.3,4.3-0.7,7.2-1.4
		c0,0.9,0.1,1.9,0.1,2.9c0.1,1.5,0.2,3,0.4,4.5c-2.9,0.7-5.6,1.3-7.9,1.8C39.5,73.1,39.6,70.5,39.8,68z M40.1,82
		c-0.3-1.9-0.4-3.9-0.5-5.8c2.3-0.5,4.9-1.1,7.9-1.8c0.3,2.7,0.8,5.4,1.4,8.1c-3.2,0.8-6,1.4-8.4,1.8C40.3,83.6,40.2,82.8,40.1,82z
		 M40.5,84.9c2.4-0.4,5.2-1,8.4-1.8c0.6,2.7,1.4,5.4,2.3,8.2c-3.5,0.8-6.6,1.3-9.1,1.6C41.5,90.2,41,87.5,40.5,84.9z M42.2,93.3
		c2.6-0.3,5.6-0.9,9.2-1.7c0.8,2.3,1.6,4.7,2.6,7c-2.8,0.6-5.3,1-7.3,1.2c-0.8,0.1-1.6,0.2-2.4,0.2C43.5,97.9,42.8,95.6,42.2,93.3z
		 M44.6,100.8c0.7-0.1,1.4-0.1,2.1-0.2c2.1-0.2,4.6-0.6,7.6-1.2c0.9,2,1.8,4.1,2.8,6.1c-3.8,0.9-6.9,1.4-9.4,1.6
		C46.4,105.1,45.4,103,44.6,100.8z M47.9,107.6c0.2,0,0.4,0,0.5-0.1c2.3-0.3,5.2-0.8,8.8-1.6c0.7,1.4,1.4,2.9,2.2,4.3
		c0.2,0.3,0.4,0.7,0.6,1c-3.5,0.7-6.4,1.1-8.7,1.3C50.1,110.9,48.9,109.3,47.9,107.6z M51.9,113.2c0,0-0.1-0.1-0.1-0.1
		c2.3-0.2,5.1-0.6,8.5-1.3c1.2,1.9,2.6,3.7,4,5.4c-2.9,0.6-5.3,1-7.2,1.2C55.4,116.8,53.6,115.1,51.9,113.2z M57.6,118.7
		c1.9-0.2,4.2-0.6,7-1.2c1.2,1.4,2.5,2.6,3.6,3.7c-2.4,0.4-4.5,0.7-6,0.8C60.9,121.1,59.3,120,57.6,118.7z M65.2,117.4
		c1.8-0.4,3.8-0.9,6-1.5c0.9,1.6,1.8,3,2.5,4.2c-1.8,0.4-3.4,0.7-4.9,1C67.7,120,66.4,118.7,65.2,117.4z M69.3,121.4
		c1.5-0.3,3-0.6,4.7-0.9c0.6,1,1.2,1.8,1.7,2.6c-1.3,0.3-2.6,0.5-3.7,0.6C71.2,123.1,70.3,122.3,69.3,121.4z M74.6,120.4
		c2.7-0.6,5.6-1.4,8.7-2.4c0.5,1.1,1,2.1,1.3,2.9c-3.1,0.9-5.9,1.5-8.4,2C75.8,122.2,75.2,121.4,74.6,120.4z M94.1,117.8
		c-1.4,0.5-2.9,1.1-4.5,1.6c-1.6,0.5-3.1,1-4.6,1.4c-0.4-0.8-0.8-1.8-1.3-2.9c2.5-0.8,5.1-1.7,7.8-2.8c0.8-0.3,1.6-0.6,2.4-1
		C94,115.6,94.1,116.8,94.1,117.8z M91.4,114.7c-2.7,1.1-5.3,2-7.8,2.8c-0.6-1.3-1.3-2.9-2-4.8c2.6-0.9,5.3-1.9,8.3-3.1
		c1.1-0.4,2.2-0.9,3.3-1.3c0.4,2,0.6,3.8,0.8,5.4C93,114,92.2,114.3,91.4,114.7z M92.2,102.2c3.3-1.4,6.7-3.1,10.2-5
		c0.2,2.1,0.3,4.3,0.3,6.4c-2.7,1.3-5.7,2.6-9.3,4.1C93.1,105.9,92.7,104.1,92.2,102.2z M109.2,83.9c-0.1,0.1-0.2,0.1-0.3,0.2
		c-2.4,1.6-4.9,3.1-7.4,4.6c-0.5-2.4-1.1-4.7-1.8-6.9c3-1.6,5.6-3.2,7.8-4.6C108.2,79.4,108.8,81.7,109.2,83.9z M107.2,76.5
		c-2.2,1.4-4.8,3-7.8,4.6c-0.8-2.4-1.7-4.8-2.7-7c2.9-1.6,5.5-3.1,7.7-4.5C105.6,71.9,106.5,74.2,107.2,76.5z M104.3,69.2
		c-2.2,1.4-4.8,2.9-7.7,4.4c-1.2-2.6-2.4-5-3.7-7.2c2.9-1.5,5.5-2.9,7.6-4.2C101.9,64.5,103.2,66.9,104.3,69.2z M100.3,61.9
		c-2.1,1.3-4.6,2.7-7.6,4.2c-1.4-2.4-2.8-4.5-4.2-6.5c2.8-1.4,5.2-2.7,7.3-3.9C97.4,57.6,98.9,59.7,100.3,61.9z M95.1,54.9
		c0.1,0.1,0.2,0.3,0.3,0.4c-2.1,1.2-4.5,2.5-7.3,3.9c-1-1.4-2.1-2.7-3-3.9c-0.5-0.6-1.1-1.3-1.6-1.9c2.5-1.4,4.8-2.7,6.8-4
		C91.9,51.1,93.5,52.8,95.1,54.9z M84.8,55.6c1,1.2,2,2.4,3,3.8c-0.1,0-0.1,0.1-0.2,0.1c-3.3,1.6-6.6,3.1-9.8,4.4
		c-0.5-1-1-1.9-1.3-2.7c-0.6-1.1-1.2-2.3-1.9-3.5c3.1-1.3,6-2.7,8.6-4.1C83.7,54.3,84.2,54.9,84.8,55.6z M82.8,53.3
		c-2.6,1.4-5.4,2.7-8.5,4.1c-1.1-2-2.3-4-3.4-5.9c2.6-1.1,5-2.2,7.1-3.4C79.5,49.5,81.1,51.3,82.8,53.3z M73.9,57.5
		C72,58.3,70,59.1,68,59.8c-1.4,0.5-2.8,1-4.1,1.4c-0.7-2.5-1.3-4.7-1.9-6.7c1.1-0.3,2.2-0.7,3.4-1.1c1.8-0.6,3.5-1.2,5-1.8
		C71.6,53.5,72.8,55.5,73.9,57.5z M64.5,47.7c1-0.4,2-0.8,2.9-1.1c0.9,1.4,1.8,3,2.8,4.6c-1.5,0.6-3.2,1.2-4.9,1.8
		c-1.2,0.4-2.3,0.7-3.4,1.1c-0.5-1.9-0.9-3.5-1.3-5C61.9,48.7,63.2,48.2,64.5,47.7z M61.6,54.7c0.5,2,1.2,4.2,1.9,6.7
		c-2.9,1-5.6,1.8-8,2.5c-0.3-2.7-0.4-5.1-0.5-7.3C57,56,59.2,55.4,61.6,54.7z M47.5,69.5c-0.1-1-0.1-2-0.1-3c2.2-0.5,4.8-1.2,7.6-2
		c0.2,1.8,0.4,3.8,0.8,5.8c0.1,0.4,0.1,0.9,0.2,1.3c-2.9,0.9-5.6,1.6-8.1,2.2C47.7,72.4,47.6,70.9,47.5,69.5z M47.9,74.3
		c2.5-0.6,5.3-1.4,8.2-2.2c0.4,2.8,0.9,5.4,1.5,8c-3,0.9-5.8,1.7-8.3,2.3C48.7,79.7,48.3,77,47.9,74.3z M49.4,82.9
		c2.5-0.6,5.3-1.4,8.3-2.3c0.6,2.9,1.3,5.7,2.1,8.4c-2.9,0.9-5.6,1.6-8.1,2.1C50.8,88.3,50,85.6,49.4,82.9z M51.8,91.5
		c2.5-0.6,5.1-1.3,8-2.1c0.7,2.5,1.5,4.9,2.3,7.2c-2.8,0.8-5.4,1.4-7.7,1.9C53.5,96.2,52.6,93.9,51.8,91.5z M54.7,99.3
		c2.3-0.5,4.9-1.1,7.7-1.9c0.8,2.1,1.6,4.1,2.5,6.1c-2.7,0.8-5.2,1.4-7.4,1.9C56.5,103.3,55.6,101.3,54.7,99.3z M59.9,110
		c-0.8-1.4-1.5-2.8-2.2-4.2c2.2-0.5,4.6-1.1,7.4-1.9c0.8,1.9,1.7,3.8,2.7,5.6c-2.7,0.7-5.1,1.2-7.2,1.6
		C60.3,110.8,60.1,110.4,59.9,110z M60.8,111.6c2.2-0.4,4.5-1,7.2-1.6c0.3,0.7,0.7,1.3,1,1.9c0.7,1.3,1.3,2.4,2,3.5
		c-2.3,0.6-4.3,1.1-6.2,1.5C63.4,115.3,62,113.5,60.8,111.6z M69.5,111.7c-0.3-0.6-0.7-1.2-1-1.8c3.1-0.8,6.5-1.8,10.3-2.9
		c0.8,2,1.5,3.8,2.1,5.4c-3.5,1.2-6.6,2.2-9.4,2.9C70.8,114.2,70.2,113,69.5,111.7z M74.3,120c-0.8-1.2-1.6-2.6-2.6-4.2
		c2.8-0.8,5.9-1.7,9.4-2.9c0.8,1.9,1.4,3.5,2,4.8C80,118.6,77,119.3,74.3,120z M89.6,109.1c-3,1.2-5.7,2.2-8.3,3.1
		c-0.6-1.6-1.3-3.4-2.1-5.4c2.3-0.7,4.8-1.5,7.4-2.4c1.6-0.6,3.4-1.2,5.1-2c0.5,2,0.9,3.8,1.2,5.4C91.9,108.2,90.8,108.7,89.6,109.1
		z M102.3,96.1c0,0.2,0,0.3,0.1,0.5c0,0,0,0.1,0,0.1c-3.5,1.9-7,3.7-10.3,5.1c-0.2-0.7-0.4-1.4-0.6-2.2c-0.4-1.5-0.9-3.1-1.3-4.6
		c3.7-1.7,7.5-3.6,11-5.6C101.7,91.6,102,93.8,102.3,96.1z M101.1,88.9c-3.7,2.1-7.5,4-11.1,5.6c-0.7-2.3-1.5-4.6-2.3-6.8
		c4.4-2,8.2-3.9,11.5-5.7C100,84.2,100.6,86.5,101.1,88.9z M99.1,81.3c-3.3,1.8-7.1,3.7-11.5,5.8c-0.9-2.5-1.8-4.8-2.7-7.1
		c4.4-2,8.2-3.9,11.6-5.7C97.4,76.5,98.3,78.8,99.1,81.3z M96.2,73.9c-3.3,1.8-7.2,3.7-11.5,5.7c-1.1-2.8-2.2-5.4-3.3-7.7
		c4.3-1.8,7.9-3.5,11.1-5.1C93.8,68.9,95.1,71.3,96.2,73.9z M88.1,59.8c1.4,1.9,2.8,4.1,4.2,6.5c-3.2,1.6-6.8,3.3-11.1,5.1
		c-1.2-2.7-2.3-5.1-3.3-7c3.2-1.3,6.5-2.8,9.8-4.4C87.9,59.9,88,59.8,88.1,59.8z M80.8,71.6c-1.7,0.7-3.4,1.4-5.2,2.2
		c-2.4,1-4.7,1.9-7,2.7c-0.9-2.7-1.7-5.2-2.4-7.5c3.6-1.3,7.4-2.7,11.3-4.3C78.4,66.4,79.6,68.8,80.8,71.6z M74.1,57.9
		c0.7,1.2,1.3,2.4,1.9,3.5c0.4,0.7,0.8,1.6,1.3,2.6c-3.9,1.6-7.6,3-11.2,4.3c-0.7-2.4-1.4-4.7-2-6.7c1.3-0.4,2.7-0.9,4.1-1.4
		C70.2,59.5,72.2,58.7,74.1,57.9z M56.3,70.3c-0.3-2.1-0.6-4.1-0.8-5.9c2.4-0.7,5.1-1.6,8.1-2.5c0.6,2.1,1.3,4.3,2,6.8
		c-3.2,1.1-6.3,2.1-9.1,2.9C56.4,71.1,56.4,70.7,56.3,70.3z M56.6,72c2.9-0.9,6-1.8,9.2-3c0.7,2.4,1.5,4.9,2.4,7.5
		c-3.6,1.3-7,2.5-10.1,3.4C57.5,77.4,57,74.7,56.6,72z M58.1,80.4c3.1-1,6.5-2.1,10.2-3.4c0.8,2.6,1.7,5.3,2.7,8.2
		c-3.9,1.5-7.5,2.7-10.8,3.6C59.5,86.1,58.8,83.3,58.1,80.4z M60.3,89.3c3.3-1,6.9-2.2,10.8-3.6c0.5,1.5,1,3,1.6,4.6
		c0.3,0.9,0.6,1.8,0.9,2.6c-4,1.5-7.7,2.7-11,3.7C61.8,94.2,61.1,91.8,60.3,89.3z M62.9,97.2c3.3-1,7-2.2,11-3.7
		c0.8,2.3,1.6,4.4,2.3,6.4c-4,1.4-7.6,2.5-10.8,3.4C64.5,101.3,63.7,99.3,62.9,97.2z M65.6,103.8c3.2-0.9,6.8-2.1,10.8-3.4
		c0.8,2.2,1.6,4.3,2.3,6.1c-3.8,1.2-7.3,2.1-10.4,2.9C67.3,107.6,66.4,105.7,65.6,103.8z M91.1,99.7c0.2,0.8,0.4,1.5,0.6,2.2
		c-1.8,0.8-3.5,1.4-5.2,2c-2.6,0.9-5.1,1.7-7.4,2.4c-0.7-1.9-1.5-3.9-2.3-6.2c2.6-0.9,5.4-1.9,8.4-3.1c1.5-0.6,3-1.2,4.5-1.9
		C90.2,96.7,90.6,98.2,91.1,99.7z M89.6,94.7c-1.6,0.7-3.1,1.3-4.6,1.9c-3,1.1-5.8,2.2-8.4,3.1c-0.7-2-1.5-4.1-2.3-6.4
		c3.1-1.2,6.4-2.5,10-4.1c1-0.5,2-0.9,3-1.3C88.1,90.1,88.9,92.4,89.6,94.7z M71.5,85c-1-2.9-1.9-5.6-2.7-8.2c2.2-0.8,4.6-1.7,7-2.7
		c1.8-0.7,3.6-1.5,5.2-2.2c1,2.4,2.1,5,3.3,7.8c-2.2,1-4.5,2-6.9,3C75.3,83.6,73.3,84.3,71.5,85z M87.1,87.3c-1,0.5-2,0.9-3,1.4
		c-3.5,1.6-6.8,2.9-9.9,4.1c-0.3-0.9-0.6-1.7-0.9-2.6c-0.5-1.6-1.1-3.1-1.6-4.6c1.9-0.7,3.8-1.5,5.9-2.3c2.4-1,4.8-2,6.9-3
		C85.3,82.4,86.2,84.8,87.1,87.3z M101.7,89.2c2.7-1.6,5.3-3.1,7.7-4.7c0.5,2.5,0.8,5,0.9,7.5c-0.3,0.2-0.6,0.4-0.9,0.6
		c-2.2,1.4-4.4,2.7-6.5,3.9c0-0.1,0-0.2,0-0.4C102.5,93.7,102.1,91.4,101.7,89.2z M109.6,92.9c0.2-0.1,0.5-0.3,0.7-0.5
		c0,0.1,0,0.2,0,0.3c0.1,2.5,0.1,4.8,0,6.8c-2,1.1-4.3,2.4-7.2,3.8c0-2.1-0.1-4.3-0.3-6.4C105.1,95.7,107.4,94.3,109.6,92.9z
		 M102.8,109.5c0.2-1.8,0.3-3.7,0.4-5.7c2.8-1.3,5.2-2.6,7.1-3.7c-0.1,2.2-0.4,4-0.7,5.6C107.8,106.8,105.5,108.1,102.8,109.5z
		 M47.6,58c0.2-2.1,0.4-4,0.6-5.7c1.8-0.3,3.8-0.8,6.2-1.4c0,1.6,0,3.4,0,5.4C51.9,56.9,49.6,57.5,47.6,58z M119.9,85.3
		c-0.3,2.9-0.9,5.8-1.7,8.5c-0.2-1.8-0.5-3.9-0.9-6.3C118.4,86.7,119.2,86,119.9,85.3z"/>
	<path fill="#FFFFFF" d="M115.4,94.6c0,0-0.2-0.5-0.2-0.8c0-0.2,0.6-1.5,0.6-1.5s0.2-1.4,0.2-1.6c-0.1-0.2-0.5-1.4-0.5-1.6
		c0-0.2,0-1.5,0.2-1.7c0.2-0.2-0.1-1.4-0.1-1.4l-0.9-1.1l0.2-1.5l0.2-1.9l-0.5-2.1c0,0-0.5-1.8-0.8-1.9c-0.2-0.2-0.9-1.4-0.9-1.4
		l-0.5-1.5l-1.2-1.5l-1.8-1.2l-1.3-0.9l-1.7,0.9c0,0-0.8,1-1.1,1.1c-0.2,0.1-2.1,1.5-2.1,1.5s-1.2,1.2-1.5,1.1
		c-0.2-0.1-2.2,0.3-2.2,0.3s-1.5-0.5-1.6-0.8s-1.2-1.2-1.2-1.2l-2.2-0.3c0,0-1.2,0.1-1.4,0c-0.2-0.1-1.3-0.7-1.3-0.7l-1.5-3.8
		L89,66.7l-0.8-0.8l1-1.9l-0.4-2.2l0.2-1.5l-0.7-1.4l-0.5-1l0.7-0.9l1.1-1.9c0,0,0.5-1.2,0.5-1.5c0-0.2,0-0.7,0-0.7h1.7l1.6-0.7
		L95,51c0,0,1.2-0.1,1.4-0.1c0.2,0,0.6-0.5,0.6-0.5l1.5,0.2l2.1,0.5l1.7,0.2l1.4-0.7l0.6-1.2l-0.6-1.2l-0.8-1.5c0,0,8,6.7,12.4,16.7
		C119.7,73.5,118.1,87.9,115.4,94.6z M99.3,45.7l-0.5-0.9c0,0-2.5-1.7-2.6-1.9C96,42.6,93.9,42,93.9,42l-1.3,0.2l0.2,1L92,43.4
		l-0.3,0.5l0.6,0.6l0.5,0.5l1.6,0.2c0,0,1,0.5,1.3,0.5s1.1,0.2,1.1,0.2l0.2,0.6h-0.6c0,0-0.7,0.2-0.5,0.2c0.2,0.1,0.5,0.4,0.5,0.4
		l0.2,0.5l-0.6,0.5L95.6,49l-0.5,0.2l-0.3-0.9v-0.7l-0.1-0.8l-0.4-0.3l-1.2-0.5c0,0-1.1-0.2-1.3-0.3c-0.2-0.1-0.8-0.2-1-0.2
		c-0.2-0.1-0.9-0.2-0.9-0.2l0.3,0.8l0.2,0.7l-1.2,0.8l-0.6,0.8v1.2l0.3,0.9l0.3,0.7v0.8l0.4,0.8l-0.7,1l-0.5,0.5l-1.3-0.8l-1.7-0.2
		L84,53.2L83.5,53l0.2-1l0.8-1.9l-0.4-0.8l-0.3-0.3l-0.7-2.2l-0.8-0.8l-1.2,0.5l-0.3-0.3l1.1-1l0.5-1.2l0.8-0.2l-0.8-1.2l-1.8-1
		c0,0-1.6-0.8-1.8-0.8s-1.1,0.1-1.1,0.1s1.2,1.2,1.5,1.3c0.2,0.1,1.6,1.2,1.6,1.2l0.5,0.8l0.1,0.8l-0.6,0.5l-0.5,1l-0.9-0.6
		c0,0-0.8-0.5-1.2-0.6s-1.4-0.4-1.4-0.4l-0.2-1.2l-1-1.4L73.4,42l-0.4-0.3l1.2-1.4l0.2-1.6c0,0,0.8-0.2,1.1-0.3s2.1-0.6,2.3-0.6
		c0.2,0,1.7-0.8,1.7-0.8h1.3c0,0,11.6,1.3,20.9,8.8l-1.5-0.4L99.3,45.7z M78.9,49.1l-1-0.3l-0.3-0.5h0.8L78.9,49.1z M77.8,46.7
		l0.7,0.2l1.3,0.5l1.3-0.1l-0.2,0.4l0.2,0.8l-0.4,0.6l0.2,0.8l-0.8-0.4l-0.2-0.8l-0.2-0.3l-0.6-0.2l-0.2-0.5l-1-0.3c0,0,0,0-0.2-0.2
		C77.4,47,77.8,46.7,77.8,46.7z M47.2,80.4l0.3-0.5l0.8,0.3l-0.4-0.1l-0.1,0.4L47.2,80.4z M49.5,82.3c0.3,0.1,1.2-0.1,1.5-0.2
		c0.2-0.1,0.9-0.1,0.9-0.1l1.1,0.5l0.1,1l-0.7,0.2l-0.7-0.3l-0.1-0.3l-1.2,0.4l-0.5,0.2l-1.2-0.1c0,0-0.4-0.2-0.5-0.5
		c-0.1-0.2-1-0.2-1-0.2s-0.8,0.3-1.2,0.3c-0.4,0-0.9,0.2-1.2,0.1c-0.2-0.1-0.6-0.5-0.6-0.5l-0.9-0.2l0.2-0.8l1.8,0.2
		c0,0,0.9-0.4,1.2-0.5c0.2-0.1,0.7-0.2,0.9,0c0.2,0.2,0.8,0.5,1,0.5C48.7,82.2,49.2,82.2,49.5,82.3z M75.8,92l1.4,0.6l1.7,0.2
		l1.6-1.1l1.6,0.4l1.8-0.1l0.9-0.5c0,0,0.4,1.1,0.6,1.2c0.2,0.2,0.8,1.5,0.8,1.5L86,95.4l-0.8,1.1l-0.4,2.1l0.1,1.7l0.1,2.3
		l-0.5,0.8L84,105v1.4l-0.9,0.2l-1.3,1.4L81,109l0.5,1.4l-1,1.5l-0.5,1.9l-0.5,1.6l-1,0.3l0.1,1l-1.2,1.1l-0.7,1.8l0.2,1.5l1.4,0.5
		l1.4-0.2l1.1-0.2v0.8l0.8-0.5l-1.5,1.3l-1.7,0.2c0,0-4.6,0-5.3-0.2c-0.7-0.2-2.5-1.6-2.5-1.6l-3-5.3l-2.1-0.2l-3.2-6.9l-4.2-0.2
		l-2.8-0.9l-0.5-2.5l-3.7-1.2l-1.2-3v-3.7l0.7-3.7h-2.5l-3-0.7l-2.8-3.2l-3-0.7l-1.8-1.6l-1.6-0.2l-1.2-3.7l-1.4-4.4
		c0,0-1.6-6.2,5.5-20.4c7.2-14.1,15.3-15.3,15.3-15.3s1.6,0.2,5.3-0.7c3.7-0.9,3.7-0.9,3.7-0.9l1.6,0.2l1.4,0.2l-2.1,2.1l-0.2,1.6
		l-1.4,1.2l-1.8,1.4l-0.2,1.2l-1.6-1.9l-1.2-0.9l-0.7-1.6L55,46.5h-2.5l-1.4,0.5L50.6,49l-2.1,3l-0.9,1.6l-2.1,0.9l-1.6,2.5l0.9,0.9
		l1.2,0.5l0.9,1.8l2.1-2.1l2.1-1.6l0.5-1.2v-1.4l1.2-0.7l1.4-2.1l1.4-1.2l1.6,0.2l0.2,2.1l-0.6,0.2L56,53.4l-0.8-0.5L54.8,53l-1,0.6
		l-0.5,0.6l0.9-0.5l0.6,0.2c0,0,0,0.5,0.2,0.6c0.2,0.1,0.9,0.3,0.9,0.3l0.3,0.7l0.9-0.8l-0.9,1.6l-0.6,0.9l-0.9,1l-1.2,1.2l-0.8,1
		l0.4,0.6l1.2-0.8l1.1-0.2l0.1,0.5l-1.3,1.1l-0.7,1c0,0-0.9,0.4-1.2,0.4c-0.2,0-1.7,0.5-1.7,0.5l0.2,1.6l-1.1,0.7l-1.2,1l-1,1.1
		l-0.6,0.8l-0.1,1.8l-0.2,1l-0.2,1.2l-1,1.5l-1.2,1.2l0.2,2.1l0.2,1.7l-0.8-0.5l-0.7-1.2c0,0-0.5-0.6-0.8-0.5
		c-0.2,0.1-0.9,0.5-0.9,0.5l-0.7,0.8l-0.8-0.6l-1-0.2l-0.8,1.2l-0.6,1.5l-0.2,1.6l0.2,2.8l0.9,1.9L40,86l0.8-0.7l0.7-1.7l0.3-0.5
		l0.4-0.1l0.2,0.8c0,0-0.3,1.2-0.4,1.5c-0.1,0.3-0.2,1.7-0.2,1.7l0.4,1.1l1.1,0.3l1-0.5l0.8,0.5l-0.1,1l0.6,1.9l0.8,0.8
		c0,0,0.9,0.1,1.2,0.2c0.2,0.1,1.2-0.2,1.2-0.2s1.2-1,1.4-1.2s1.3-2,1.3-2l2.2-0.2l1.5,0.2h1l1.3-1.1l1.7,0.3l1.6,0.6L63,90h2.5
		l2.8-0.3l1.8,0.9l2.1,1.2l2.1,0.4L75.8,92z"/>
	<path fill="#FFD500" d="M110.8,66.8C103.1,88.4,80.2,95.7,79.2,96l-0.4-2.2c0.2-0.1,23-7.4,30.5-28c3.2-8.7,2.9-18.3-0.6-28.2
		c-2.4-6.9-12-11.3-20-15.1c-5.6-2.6-10.3-4.8-11.8-7.4c-3.4-6-2-14.2-1.9-14.6h1c0,0.1-1.2,8.2,2,13.7c1.3,2.2,6.1,4.4,11.2,6.8
		c8.3,3.9,18.2,8.4,20.9,16C113.8,47.4,114.2,57.5,110.8,66.8z M68.1,20.3c-3.5,3.6-7.6,5.4-11.2,7c-4.7,2-8.8,3.8-11.3,9.1
		c-4.5,9.5-0.9,29.2-0.8,30.1l-1.4,0.6c-0.3-1.6-3.7-21.4,1-31.5c2.8-5.9,7.3-7.9,12.1-9.9c3.6-1.6,7.4-3.2,10.7-6.6
		c3.5-3.5,5.5-14.5,5.7-18.7l1.2,0C74,5.1,72,16.4,68.1,20.3z"/>
	<path fill="#FFD500" d="M84.4,34.8c-0.3-0.1-7.3-5.3-8.1-12.8c-0.5-5.1-1.6-14.4-2.1-18.9c0,1.2-0.2,2.7-0.4,4.6
		c-0.5,4.4-1,9.4-0.1,12.7c1.6,5.9,3.7,12.6,3.7,12.6l-0.6,1.5c-0.2-0.1-2.6-7-4.4-13.6c-1-3.6-0.4-8.9,0.1-13.4
		C72.9,4.4,73.4,2,73,0.5h1h1c0,0.1,1.9,14.7,2.6,21.2c0.7,6.4,7,11.4,7,11.4L84.4,34.8z"/>
	<path fill="#FFD500" d="M86,37.4L85.2,37l-0.5-0.2l0,0h0h0c0-0.1,1.4-5.3,0-9.2c-0.5-1.4-1.6-2.6-2.9-3.9
		c-2.4-2.5-7.6-6.8-7.4-12.9c0.1-4.2,0.1-6.7,0.1-8.2c-0.1,0.3-0.2,0.6-0.3,0.9c0.1-1.8,0-3,0-3.1h1c0,0.1,0.9-0.9,0.6,10.3
		c-0.2,5.4,4.7,9.3,7,11.7c1.3,1.4,2.6,2.7,3.3,4.4C87.6,31.5,86,37.2,86,37.4z M66.1,21.2c-4.1,2.8-8.3,5.7-10.3,9.3
		c-3.9,7.1-1.8,18.9-1.7,19.1l-1.2,0.2c-0.1-0.7-2.4-12.4,1.9-20.1c2.2-4,6.6-7,10.8-9.8c3.6-2.4,4.7-5.9,5.6-8.2
		c1.1-2.7,2.2-5.8,2.9-8c-0.1,2.3-0.5,5.6-1.7,8.6C71.2,15,69.9,18.6,66.1,21.2z"/>
	<path fill="#FFD500" d="M93.8,56.8l-1.2-1.3l0.6,0.6l-0.6-0.6c0.1-0.1,5.5-8.3,4-22.2c-0.9-8.5-8.1-10.6-13.7-12.2
		c-2.9-0.8-6.1-4.8-7.1-6.2C73.1,11,74,0.9,74,0.5h1c0.3,3.1-0.6,10,1.8,13.3c0.7,1,4,5,6.4,5.7C89,21.2,97,23.4,98.1,33.1
		C99.7,47.9,94.1,56.4,93.8,56.8z"/>
	<path fill="#FFD500" d="M94.5,56.6c0,0-0.9,0.9-2.3,0.1c-1.4-0.8-1.1-2.4-1.1-2.4l2.3-2.2l1.6,1.4L94.5,56.6z M85.2,37
		c-0.8-0.3-1.5-1.2-1.5-1.2l1.4-2.4l1.6,0.1l0.1,3C86.8,36.5,86.1,37.3,85.2,37z M76.9,100.3c-1.4-0.6-1.2-4.4-1.2-4.4l3-3.9
		l2.1,2.7l-1.1,5.5C79.7,100.3,78.8,101.2,76.9,100.3z M78.4,32.7l-0.8-3.1l0.8-0.9l2.2,1.8c0,0,0.1,1-0.7,1.9
		C79.2,33.4,78.4,32.7,78.4,32.7z M55.1,51.7c-0.9,0.5-1.9-0.4-1.9-0.4l0.3-4l1.6-0.4l0.9,3.4C56.1,50.1,56,51.2,55.1,51.7z
		 M44.2,66.7c-1,0.5-1.9-1.2-1.9-1.2l-0.1-4.1l1.6-0.6l2.1,3C45.9,63.8,45.4,66.1,44.2,66.7z"/>
</g>
</svg>
