<?xml version="1.0" encoding="utf-8"?> <!-- Generated by Layerhero SVG Exporter: http://www.layerhero.com/photoshop-svg-exporter --><!DOCTYPE svg PUBLIC "-//W3C//DTD SVG 1.1//EN" "http://www.w3.org/Graphics/SVG/1.1/DTD/svg11.dtd"><svg version="1.1" baseProfile="full" xmlns="http://www.w3.org/2000/svg" xmlns:xlink="http://www.w3.org/1999/xlink" xmlns:ev="http://www.w3.org/2001/xml-events" width="150" height="154" viewBox="0 0 150 154"><g transform="scale(NaN)" ><path fill-rule="evenodd"  fill="rgb( 255, 206, 0 )" d="M74.988,4.013 C116.407,4.013 149.985,37.591 149.985,79.010 C149.985,120.430 116.407,154.007 74.988,154.007 C33.568,154.007 -0.009,120.430 -0.009,79.010 C-0.009,37.591 33.568,4.013 74.988,4.013 Z"/><path fill-rule="evenodd"  fill="rgb( 255, 255, 255 )" d="M74.988,1.013 C116.407,1.013 149.985,34.591 149.985,76.010 C149.985,117.430 116.407,151.007 74.988,151.007 C33.568,151.007 -0.009,117.430 -0.009,76.010 C-0.009,34.591 33.568,1.013 74.988,1.013 Z"/><path fill-rule="evenodd"  stroke="rgb( 0, 0, 0 )" stroke-width="1px" stroke-linecap="butt" stroke-linejoin="miter" fill="rgb( 0, 0, 0 )" d="M119.968,85.050 C119.354,85.690 118.450,86.496 117.269,87.438 C116.914,85.132 116.489,82.650 115.988,80.159 C117.714,78.776 119.047,77.537 119.859,76.533 C120.031,78.119 120.122,79.729 120.122,81.361 C120.122,82.603 120.068,83.833 119.968,85.050 ZM115.879,79.620 C115.405,77.310 114.866,75.006 114.258,72.841 C116.234,71.256 117.550,69.985 118.396,69.077 C119.028,71.272 119.495,73.536 119.782,75.856 C119.137,76.747 117.857,78.019 115.879,79.620 ZM114.034,72.059 C113.501,70.242 112.918,68.539 112.282,67.035 C112.040,66.463 111.789,65.901 111.534,65.344 C113.520,63.838 114.843,62.669 115.637,61.917 C116.631,63.949 117.476,66.067 118.153,68.260 C117.381,69.109 116.081,70.399 114.034,72.059 ZM107.546,58.005 C109.444,56.514 110.563,55.390 111.188,54.679 C112.793,56.803 114.210,59.075 115.417,61.473 C114.663,62.196 113.352,63.368 111.332,64.905 C110.201,62.478 108.942,60.181 107.546,58.005 ZM107.265,57.574 C105.862,55.431 104.323,53.407 102.640,51.490 C104.123,50.339 105.144,49.407 105.804,48.749 C107.649,50.446 109.349,52.297 110.885,54.283 C110.291,54.952 109.181,56.069 107.265,57.574 ZM96.614,45.596 C97.778,44.714 98.602,44.035 99.065,43.644 C101.336,45.046 103.470,46.646 105.444,48.422 C104.789,49.067 103.776,49.986 102.313,51.120 C100.568,49.169 98.673,47.330 96.614,45.596 ZM89.265,40.264 C89.579,39.954 89.854,39.671 90.094,39.416 C93.100,40.437 95.961,41.773 98.638,43.384 C98.152,43.792 97.348,44.447 96.239,45.286 C94.091,43.507 91.770,41.836 89.265,40.264 ZM85.745,38.187 C87.052,38.486 88.336,38.843 89.596,39.254 C89.376,39.484 89.129,39.735 88.853,40.005 C87.847,39.385 86.810,38.780 85.745,38.187 ZM84.623,43.634 C82.705,41.939 81.034,40.648 79.613,39.666 C80.558,38.777 81.205,38.018 81.632,37.453 C82.476,37.563 83.312,37.698 84.141,37.855 C85.652,38.658 87.105,39.487 88.500,40.346 C87.524,41.280 86.240,42.407 84.623,43.634 ZM79.192,39.379 C77.390,38.169 76.027,37.480 75.108,37.091 C75.364,37.087 75.621,37.081 75.878,37.081 C77.633,37.081 79.364,37.187 81.066,37.385 C80.640,37.916 80.033,38.595 79.192,39.379 ZM73.470,43.556 C69.635,40.295 67.390,39.354 66.358,39.086 C66.840,38.636 67.211,38.222 67.490,37.880 C69.552,37.483 71.665,37.230 73.819,37.131 C74.371,37.294 76.060,37.899 78.808,39.729 C77.537,40.864 75.802,42.184 73.470,43.556 ZM65.755,38.980 C65.713,38.978 65.686,38.979 65.675,38.979 C65.675,38.979 65.598,38.983 65.598,38.983 C65.598,38.983 63.736,40.474 63.736,40.474 C62.887,41.000 61.885,41.512 60.709,41.958 C57.576,43.146 54.979,43.410 53.141,43.370 C57.277,40.885 61.851,39.059 66.721,38.033 C66.456,38.322 66.137,38.643 65.755,38.980 ZM55.029,43.792 C54.880,44.720 54.554,47.128 54.444,50.871 C52.110,51.482 50.057,51.931 48.316,52.255 C48.812,49.121 49.395,46.883 49.776,45.607 C50.628,44.983 51.504,44.388 52.401,43.825 C52.730,43.848 53.090,43.863 53.479,43.863 C53.953,43.863 54.471,43.842 55.029,43.792 ZM42.919,53.035 C43.160,52.330 43.409,51.656 43.663,51.012 C45.350,49.219 47.185,47.567 49.148,46.076 C48.764,47.448 48.258,49.554 47.823,52.346 C45.640,52.739 43.986,52.936 42.919,53.035 ZM41.800,53.120 C42.125,52.727 42.458,52.342 42.797,51.961 C42.664,52.327 42.532,52.697 42.404,53.080 C42.148,53.099 41.948,53.112 41.800,53.120 ZM40.578,59.826 C39.000,60.078 37.800,60.220 36.949,60.301 C38.259,57.880 39.790,55.597 41.511,53.474 C41.511,53.474 41.514,53.607 41.514,53.607 C41.528,53.607 41.778,53.600 42.242,53.567 C41.619,55.479 41.054,57.583 40.578,59.826 ZM39.341,68.006 C36.488,68.386 34.661,68.406 33.579,68.341 C34.385,65.715 35.430,63.194 36.686,60.801 C37.528,60.727 38.779,60.588 40.475,60.321 C39.978,62.753 39.587,65.337 39.341,68.006 ZM39.294,68.521 C39.077,71.070 38.996,73.691 39.081,76.322 C35.767,76.987 33.271,77.386 31.794,77.599 C32.048,74.578 32.605,71.642 33.435,68.825 C33.777,68.850 34.192,68.869 34.694,68.869 C35.790,68.869 37.290,68.785 39.294,68.521 ZM39.615,82.580 C39.729,83.372 39.848,84.168 39.973,84.964 C36.111,85.645 33.420,85.891 31.873,85.979 C31.715,84.461 31.634,82.920 31.634,81.361 C31.634,80.258 31.675,79.166 31.754,78.084 C33.213,77.875 35.731,77.476 39.097,76.802 C39.174,78.732 39.342,80.666 39.615,82.580 ZM41.619,93.379 C37.594,93.875 34.862,93.898 33.422,93.851 C32.721,91.462 32.217,88.989 31.926,86.451 C33.497,86.360 36.196,86.111 40.047,85.432 C40.472,88.081 40.976,90.743 41.619,93.379 ZM41.731,93.840 C42.305,96.130 42.989,98.398 43.821,100.621 C39.863,100.896 37.269,100.671 35.964,100.487 C35.017,98.511 34.213,96.454 33.564,94.328 C33.834,94.336 34.142,94.341 34.491,94.341 C36.086,94.341 38.504,94.240 41.731,93.840 ZM44.087,101.317 C44.931,103.483 45.920,105.604 47.096,107.655 C43.804,107.989 41.650,107.921 40.380,107.793 C38.855,105.745 37.504,103.559 36.345,101.260 C37.243,101.367 38.531,101.466 40.243,101.466 C41.347,101.466 42.628,101.424 44.087,101.317 ZM47.374,108.125 C48.376,109.822 49.505,111.470 50.789,113.055 C48.036,113.274 46.187,113.221 45.057,113.124 C43.520,111.629 42.090,110.024 40.782,108.321 C41.322,108.364 41.978,108.395 42.769,108.395 C43.979,108.395 45.501,108.323 47.374,108.125 ZM51.191,113.538 C51.302,113.670 51.409,113.803 51.522,113.933 C53.122,115.797 54.809,117.416 56.467,118.812 C54.780,118.981 53.505,119.024 52.601,119.019 C50.098,117.467 47.762,115.671 45.625,113.666 C46.110,113.697 46.685,113.718 47.361,113.718 C48.394,113.718 49.662,113.669 51.191,113.538 ZM61.530,122.528 C60.860,122.592 60.316,122.635 59.908,122.663 C57.630,121.781 55.445,120.715 53.368,119.484 C54.298,119.463 55.489,119.395 56.974,119.232 C58.566,120.535 60.119,121.629 61.530,122.528 ZM64.074,124.043 C63.020,123.751 61.983,123.422 60.962,123.056 C61.324,123.025 61.731,122.987 62.186,122.940 C62.858,123.354 63.491,123.721 64.074,124.043 ZM68.739,122.021 C69.691,122.878 70.593,123.633 71.397,124.276 C69.692,124.525 68.266,124.678 67.139,124.773 C66.957,124.788 66.781,124.802 66.615,124.815 C66.441,124.733 66.248,124.639 66.045,124.539 C65.216,124.130 64.164,123.574 62.960,122.856 C64.503,122.681 66.456,122.417 68.739,122.021 ZM73.043,125.545 C71.627,125.456 70.229,125.300 68.853,125.080 C69.753,124.980 70.772,124.850 71.906,124.679 C72.321,125.003 72.702,125.292 73.043,125.545 ZM76.050,123.954 C76.539,124.642 76.949,125.187 77.285,125.614 C76.817,125.629 76.349,125.639 75.878,125.639 C75.218,125.639 74.563,125.621 73.910,125.592 C73.532,125.319 73.073,124.981 72.551,124.580 C73.625,124.409 74.794,124.203 76.050,123.954 ZM84.833,121.836 C85.450,123.079 85.910,123.888 86.242,124.414 C83.542,125.063 80.747,125.463 77.881,125.592 C77.543,125.171 77.106,124.601 76.568,123.850 C79.013,123.355 81.779,122.699 84.833,121.836 ZM89.778,120.329 C91.330,119.822 92.781,119.310 94.138,118.800 C94.158,120.144 94.108,121.123 94.058,121.740 C91.713,122.798 89.260,123.657 86.720,124.297 C86.409,123.822 85.946,123.029 85.288,121.707 C86.725,121.295 88.220,120.839 89.778,120.329 ZM102.668,104.540 C102.616,106.538 102.472,108.478 102.275,110.252 C99.946,111.426 97.293,112.664 94.296,113.932 C94.125,112.353 93.873,110.563 93.505,108.561 C96.993,107.133 100.028,105.790 102.668,104.540 ZM101.548,115.094 C99.600,116.059 97.296,117.083 94.595,118.120 C94.563,117.071 94.489,115.838 94.347,114.424 C97.290,113.183 99.905,111.970 102.210,110.816 C102.019,112.420 101.787,113.874 101.548,115.094 ZM94.607,118.623 C97.239,117.618 99.499,116.623 101.429,115.679 C101.235,116.597 101.039,117.354 100.860,117.907 C98.867,119.274 96.758,120.480 94.549,121.511 C94.594,120.848 94.631,119.886 94.607,118.623 ZM107.682,112.136 C107.681,112.138 107.680,112.139 107.679,112.141 C105.782,114.104 103.707,115.893 101.476,117.479 C101.637,116.908 101.804,116.212 101.968,115.412 C104.407,114.193 106.285,113.068 107.682,112.136 ZM102.728,110.555 C105.401,109.200 107.644,107.935 109.489,106.812 C109.049,108.871 108.529,110.323 108.105,111.276 C106.733,112.236 104.766,113.466 102.084,114.825 C102.320,113.586 102.545,112.139 102.728,110.555 ZM114.008,103.828 C112.621,106.180 111.025,108.392 109.243,110.439 C109.125,110.530 109.002,110.624 108.869,110.723 C109.268,109.701 109.703,108.304 110.067,106.457 C111.717,105.434 113.021,104.543 114.008,103.828 ZM110.798,100.312 C114.286,98.292 116.469,96.680 117.807,95.531 C116.952,98.066 115.872,100.496 114.595,102.802 C113.629,103.538 112.179,104.575 110.185,105.825 C110.459,104.286 110.681,102.460 110.798,100.312 ZM117.798,94.886 C116.550,95.991 114.401,97.631 110.827,99.725 C110.912,97.807 110.915,95.644 110.799,93.209 C110.790,93.017 110.776,92.826 110.765,92.634 C112.966,91.205 115.128,89.699 116.923,88.316 C117.299,90.829 117.589,93.097 117.798,94.886 ZM116.842,87.775 C115.245,89.022 113.199,90.483 110.733,92.089 C110.567,89.601 110.239,87.117 109.759,84.650 C111.955,83.195 113.925,81.785 115.572,80.490 C116.069,82.987 116.491,85.474 116.842,87.775 ZM115.464,79.952 C113.922,81.175 111.995,82.576 109.657,84.134 C109.195,81.868 108.602,79.618 107.885,77.396 C110.319,75.820 112.283,74.400 113.856,73.160 C114.459,75.331 114.994,77.641 115.464,79.952 ZM111.845,67.220 C112.496,68.759 113.092,70.510 113.634,72.380 C112.071,73.624 110.104,75.062 107.647,76.666 C106.875,74.366 105.967,72.099 104.932,69.876 C107.462,68.284 109.513,66.857 111.147,65.636 C111.385,66.159 111.619,66.685 111.845,67.220 ZM110.945,65.197 C109.320,66.416 107.269,67.846 104.731,69.444 C103.607,67.076 102.337,64.760 100.927,62.514 C103.575,60.908 105.613,59.494 107.169,58.297 C108.563,60.473 109.818,62.770 110.945,65.197 ZM106.888,57.866 C105.337,59.059 103.301,60.476 100.654,62.087 C99.286,59.943 97.791,57.864 96.173,55.862 C98.724,54.331 100.722,52.952 102.262,51.780 C103.947,53.697 105.486,55.721 106.888,57.866 ZM101.935,51.411 C100.396,52.580 98.401,53.959 95.863,55.485 C95.740,55.336 95.620,55.185 95.496,55.036 C93.827,53.037 92.251,51.256 90.767,49.665 C92.997,48.234 94.827,46.936 96.225,45.889 C98.289,47.622 100.188,49.460 101.935,51.411 ZM95.848,45.580 C94.455,46.619 92.642,47.901 90.438,49.313 C88.446,47.196 86.627,45.429 84.982,43.954 C86.627,42.701 87.930,41.552 88.915,40.604 C91.406,42.161 93.713,43.817 95.848,45.580 ZM90.027,49.576 C88.059,50.823 85.796,52.164 83.255,53.525 C81.499,51.497 79.897,49.754 78.437,48.252 C80.846,46.889 82.884,45.525 84.581,44.257 C86.222,45.718 88.040,47.473 90.027,49.576 ZM84.220,43.937 C82.529,45.196 80.496,46.549 78.095,47.901 C76.515,46.292 75.108,44.974 73.861,43.893 C76.216,42.501 77.961,41.166 79.234,40.017 C80.642,40.982 82.308,42.259 84.220,43.937 ZM77.664,48.141 C75.600,49.282 73.273,50.417 70.669,51.489 C69.691,49.853 68.736,48.294 67.866,46.892 C70.006,45.982 71.846,45.054 73.425,44.146 C74.667,45.216 76.076,46.529 77.664,48.141 ZM73.031,43.811 C71.486,44.697 69.690,45.599 67.612,46.483 C65.825,43.614 64.439,41.479 64.031,40.854 C64.772,40.394 65.398,39.925 65.920,39.476 C66.586,39.587 68.776,40.220 73.031,43.811 ZM63.624,41.099 C64.014,41.696 65.389,43.812 67.169,46.670 C66.277,47.041 65.337,47.408 64.341,47.770 C63.009,48.253 61.727,48.693 60.496,49.093 C59.654,45.702 59.235,43.687 59.098,43.000 C59.669,42.832 60.262,42.635 60.877,42.402 C61.922,42.005 62.833,41.560 63.624,41.099 ZM58.640,43.131 C58.787,43.864 59.211,45.886 60.044,49.237 C58.217,49.823 56.505,50.323 54.921,50.746 C55.040,46.918 55.386,44.529 55.517,43.741 C56.457,43.633 57.502,43.442 58.640,43.131 ZM60.159,49.699 C60.518,51.131 60.946,52.788 61.456,54.677 C59.109,55.401 56.938,56.033 54.933,56.586 C54.868,54.587 54.868,52.802 54.907,51.241 C56.528,50.810 58.284,50.299 60.159,49.699 ZM55.000,64.465 C52.142,65.295 49.620,65.953 47.395,66.477 C47.348,63.721 47.422,61.202 47.575,58.933 C49.601,58.473 51.899,57.905 54.481,57.201 C54.565,59.385 54.727,61.809 55.000,64.465 ZM47.748,52.841 C47.500,54.514 47.281,56.421 47.128,58.550 C44.724,59.090 42.716,59.472 41.079,59.744 C41.559,57.513 42.127,55.421 42.752,53.527 C43.797,53.435 45.485,53.244 47.748,52.841 ZM47.093,59.043 C46.943,61.314 46.873,63.836 46.922,66.587 C44.074,67.243 41.732,67.670 39.821,67.940 C40.072,65.264 40.469,62.673 40.974,60.241 C42.622,59.972 44.652,59.587 47.093,59.043 ZM39.774,68.455 C41.697,68.185 44.056,67.756 46.931,67.091 C46.953,68.030 46.988,68.995 47.040,69.987 C47.118,71.464 47.243,72.951 47.411,74.448 C44.469,75.179 41.829,75.764 39.552,76.227 C39.471,73.605 39.555,70.994 39.774,68.455 ZM40.085,82.512 C39.810,80.590 39.642,78.646 39.567,76.708 C41.852,76.244 44.505,75.657 47.464,74.923 C47.783,77.601 48.248,80.309 48.856,83.043 C45.622,83.857 42.820,84.450 40.439,84.881 C40.315,84.090 40.197,83.300 40.085,82.512 ZM40.513,85.347 C42.903,84.916 45.716,84.321 48.958,83.505 C49.573,86.204 50.330,88.928 51.224,91.674 C47.687,92.473 44.643,92.990 42.093,93.319 C41.446,90.676 40.940,88.006 40.513,85.347 ZM42.206,93.781 C44.770,93.447 47.828,92.925 51.372,92.125 C52.143,94.456 53.013,96.802 53.984,99.163 C51.150,99.749 48.716,100.123 46.680,100.357 C45.844,100.453 45.057,100.527 44.313,100.585 C43.473,98.355 42.784,96.079 42.206,93.781 ZM44.581,101.278 C45.250,101.223 45.950,101.156 46.691,101.072 C48.793,100.833 51.317,100.445 54.262,99.832 C55.113,101.865 56.038,103.909 57.036,105.962 C53.215,106.822 50.107,107.324 47.615,107.599 C46.430,105.556 45.432,103.440 44.581,101.278 ZM47.891,108.067 C48.070,108.046 48.247,108.028 48.432,108.004 C50.702,107.725 53.617,107.237 57.254,106.410 C57.958,107.845 58.697,109.284 59.472,110.728 C59.654,111.066 59.843,111.400 60.038,111.731 C56.509,112.414 53.649,112.801 51.365,113.006 C50.059,111.420 48.909,109.770 47.891,108.067 ZM51.881,113.624 C51.842,113.578 51.805,113.532 51.766,113.485 C54.042,113.268 56.862,112.871 60.313,112.191 C61.492,114.120 62.868,115.917 64.294,117.543 C61.403,118.159 59.029,118.528 57.125,118.743 C55.373,117.297 53.579,115.600 51.881,113.624 ZM57.634,119.157 C59.532,118.927 61.859,118.550 64.654,117.948 C65.870,119.303 67.112,120.533 68.293,121.617 C65.869,122.029 63.834,122.289 62.297,122.451 C60.872,121.569 59.279,120.476 57.634,119.157 ZM65.186,117.832 C67.007,117.429 69.020,116.932 71.235,116.320 C72.178,117.953 73.024,119.348 73.778,120.542 C72.022,120.931 70.384,121.251 68.883,121.515 C67.691,120.434 66.427,119.199 65.186,117.832 ZM69.331,121.917 C70.786,121.656 72.364,121.343 74.048,120.967 C74.687,121.968 75.255,122.817 75.752,123.531 C74.407,123.794 73.167,124.007 72.038,124.180 C71.233,123.547 70.312,122.787 69.331,121.917 ZM74.545,120.855 C77.228,120.242 80.164,119.471 83.277,118.503 C83.786,119.649 84.232,120.607 84.620,121.405 C81.525,122.278 78.730,122.934 76.269,123.429 C75.770,122.718 75.195,121.866 74.545,120.855 ZM94.127,118.297 C92.732,118.824 91.237,119.354 89.631,119.878 C88.049,120.395 86.530,120.859 85.075,121.276 C84.688,120.483 84.241,119.523 83.726,118.361 C86.231,117.570 88.845,116.650 91.530,115.580 C92.339,115.257 93.126,114.936 93.891,114.616 C94.030,116.033 94.099,117.259 94.127,118.297 ZM91.354,115.139 C88.662,116.212 86.042,117.133 83.534,117.925 C82.946,116.585 82.275,114.994 81.510,113.103 C84.084,112.211 86.840,111.198 89.790,110.046 C90.921,109.604 92.008,109.170 93.058,108.743 C93.425,110.757 93.674,112.547 93.841,114.123 C93.036,114.461 92.208,114.799 91.354,115.139 ZM92.211,102.657 C95.471,101.254 98.931,99.548 102.415,97.629 C102.643,99.725 102.715,101.890 102.679,104.001 C100.021,105.269 96.951,106.634 93.415,108.084 C93.098,106.416 92.704,104.608 92.211,102.657 ZM109.232,84.416 C109.141,84.476 109.053,84.534 108.962,84.594 C106.557,86.173 104.058,87.702 101.532,89.145 C101.012,86.744 100.395,84.444 99.698,82.243 C102.699,80.605 105.273,79.072 107.473,77.662 C108.186,79.889 108.776,82.144 109.232,84.416 ZM107.237,76.932 C105.045,78.349 102.475,79.890 99.473,81.539 C98.673,79.093 97.779,76.772 96.818,74.579 C99.765,72.995 102.323,71.503 104.527,70.129 C105.562,72.356 106.469,74.627 107.237,76.932 ZM104.327,69.697 C102.128,71.069 99.573,72.561 96.624,74.146 C95.470,71.558 94.228,69.147 92.943,66.920 C95.890,65.425 98.397,64.033 100.521,62.760 C101.933,65.009 103.204,67.327 104.327,69.697 ZM100.249,62.333 C98.130,63.607 95.631,65.000 92.696,66.496 C91.312,64.130 89.886,61.972 88.478,60.029 C91.286,58.647 93.697,57.331 95.761,56.109 C97.382,58.109 98.879,60.188 100.249,62.333 ZM95.132,55.341 C95.240,55.470 95.345,55.601 95.452,55.731 C93.392,56.954 90.988,58.267 88.193,59.641 C87.157,58.228 86.132,56.928 85.145,55.748 C84.607,55.104 84.084,54.487 83.572,53.893 C86.118,52.526 88.387,51.179 90.357,49.927 C91.855,51.527 93.447,53.322 95.132,55.341 ZM84.782,56.052 C85.746,57.206 86.747,58.476 87.760,59.852 C87.688,59.887 87.618,59.921 87.547,59.955 C84.217,61.568 80.936,63.040 77.731,64.385 C77.227,63.352 76.780,62.459 76.405,61.722 C75.831,60.594 75.204,59.416 74.546,58.220 C77.679,56.889 80.551,55.497 83.143,54.120 C83.675,54.739 84.221,55.381 84.782,56.052 ZM82.825,53.753 C80.257,55.114 77.414,56.488 74.316,57.803 C73.225,55.832 72.058,53.820 70.914,51.900 C73.558,50.809 75.917,49.654 78.007,48.492 C79.463,49.985 81.066,51.726 82.825,53.753 ZM73.877,57.988 C72.000,58.774 70.033,59.538 67.977,60.262 C66.569,60.758 65.214,61.224 63.908,61.662 C63.191,59.194 62.569,56.972 62.033,54.994 C63.133,54.653 64.268,54.294 65.443,53.912 C67.220,53.334 68.894,52.719 70.470,52.081 C71.615,54.003 72.784,56.016 73.877,57.988 ZM64.502,48.216 C65.533,47.842 66.504,47.462 67.424,47.079 C68.292,48.477 69.247,50.035 70.225,51.669 C68.679,52.293 67.037,52.894 65.297,53.460 C64.129,53.839 63.001,54.197 61.909,54.536 C61.398,52.644 60.969,50.986 60.611,49.555 C61.857,49.150 63.154,48.705 64.502,48.216 ZM61.580,55.135 C62.117,57.116 62.740,59.341 63.458,61.813 C60.545,62.785 57.886,63.618 55.463,64.329 C55.191,61.673 55.032,59.251 54.950,57.073 C56.985,56.513 59.192,55.872 61.580,55.135 ZM47.514,69.962 C47.460,68.940 47.424,67.947 47.402,66.981 C49.638,66.454 52.175,65.790 55.051,64.951 C55.248,66.795 55.498,68.745 55.813,70.800 C55.880,71.240 55.949,71.674 56.018,72.108 C53.115,72.965 50.389,73.701 47.875,74.332 C47.712,72.866 47.589,71.409 47.514,69.962 ZM47.928,74.807 C50.448,74.175 53.182,73.438 56.094,72.580 C56.544,75.351 57.039,78.015 57.583,80.589 C54.574,81.517 51.820,82.287 49.316,82.927 C48.708,80.192 48.244,77.484 47.928,74.807 ZM49.418,83.389 C51.922,82.750 54.676,81.981 57.682,81.054 C58.305,83.959 58.993,86.749 59.752,89.443 C56.832,90.307 54.144,91.005 51.689,91.570 C50.792,88.819 50.033,86.091 49.418,83.389 ZM51.836,92.020 C54.290,91.455 56.970,90.759 59.882,89.898 C60.592,92.381 61.361,94.787 62.199,97.128 C59.356,97.939 56.776,98.572 54.456,99.064 C53.482,96.701 52.609,94.352 51.836,92.020 ZM54.734,99.732 C57.049,99.238 59.618,98.605 62.442,97.798 C63.206,99.891 64.023,101.935 64.899,103.944 C62.189,104.717 59.732,105.346 57.511,105.855 C56.512,103.804 55.586,101.763 54.734,99.732 ZM59.890,110.504 C59.135,109.098 58.415,107.698 57.728,106.300 C59.920,105.793 62.370,105.163 65.091,104.384 C65.930,106.283 66.822,108.151 67.769,109.999 C65.100,110.670 62.694,111.206 60.531,111.634 C60.310,111.262 60.095,110.885 59.890,110.504 ZM60.809,112.093 C62.961,111.659 65.351,111.119 68.002,110.446 C68.339,111.096 68.682,111.744 69.033,112.389 C69.726,113.662 70.377,114.825 70.992,115.897 C68.725,116.521 66.673,117.025 64.824,117.429 C63.389,115.811 62.000,114.019 60.809,112.093 ZM69.449,112.163 C69.117,111.553 68.793,110.940 68.473,110.326 C71.552,109.535 74.972,108.570 78.769,107.393 C79.540,109.420 80.245,111.219 80.887,112.816 C77.408,114.012 74.275,114.981 71.465,115.766 C70.833,114.668 70.162,113.473 69.449,112.163 ZM74.274,120.430 C73.515,119.236 72.660,117.831 71.709,116.188 C74.505,115.406 77.618,114.441 81.065,113.256 C81.824,115.134 82.495,116.724 83.084,118.065 C79.939,119.044 76.975,119.818 74.274,120.430 ZM89.618,109.604 C86.664,110.758 83.907,111.770 81.333,112.662 C80.693,111.071 79.991,109.276 79.220,107.252 C81.546,106.526 84.010,105.723 86.620,104.831 C88.253,104.274 89.980,103.605 91.770,102.846 C92.262,104.798 92.653,106.602 92.967,108.268 C91.893,108.705 90.778,109.151 89.618,109.604 ZM102.289,96.559 C102.311,96.744 102.330,96.907 102.347,97.045 C102.350,97.070 102.353,97.095 102.356,97.119 C98.852,99.057 95.370,100.778 92.090,102.192 C91.909,101.490 91.719,100.774 91.513,100.035 C91.082,98.499 90.631,96.978 90.166,95.479 C93.867,93.816 97.635,91.884 101.204,89.871 C101.650,92.022 102.018,94.250 102.289,96.559 ZM101.100,89.389 C97.387,91.494 93.626,93.407 90.024,95.023 C89.294,92.691 88.529,90.412 87.748,88.205 C92.148,86.184 95.967,84.267 99.274,82.474 C99.968,84.679 100.584,86.983 101.100,89.389 ZM99.050,81.770 C95.743,83.574 91.918,85.502 87.508,87.531 C86.627,85.071 85.727,82.705 84.835,80.462 C89.219,78.486 93.057,76.587 96.399,74.804 C97.359,76.998 98.253,79.321 99.050,81.770 ZM96.205,74.371 C92.870,76.151 89.039,78.046 84.659,80.021 C83.540,77.225 82.436,74.625 81.398,72.277 C85.659,70.456 89.342,68.737 92.519,67.136 C93.806,69.364 95.050,71.776 96.205,74.371 ZM88.046,60.240 C89.456,62.183 90.885,64.343 92.273,66.711 C89.107,68.311 85.443,70.027 81.205,71.842 C79.992,69.113 78.875,66.739 77.939,64.811 C81.144,63.467 84.425,61.995 87.753,60.383 C87.852,60.336 87.948,60.288 88.046,60.240 ZM80.769,72.028 C79.117,72.732 77.381,73.449 75.553,74.182 C73.132,75.151 70.811,76.040 68.589,76.857 C67.723,74.184 66.930,71.672 66.204,69.321 C69.820,68.055 73.602,66.619 77.501,64.994 C78.437,66.920 79.554,69.295 80.769,72.028 ZM74.107,58.405 C74.771,59.612 75.404,60.801 75.983,61.938 C76.353,62.666 76.795,63.548 77.292,64.567 C73.418,66.181 69.659,67.608 66.065,68.868 C65.320,66.446 64.646,64.196 64.041,62.119 C65.354,61.677 66.717,61.209 68.135,60.710 C70.217,59.976 72.208,59.203 74.107,58.405 ZM56.281,70.729 C55.963,68.649 55.711,66.677 55.513,64.816 C57.959,64.096 60.644,63.255 63.591,62.270 C64.198,64.349 64.872,66.601 65.617,69.024 C62.424,70.135 59.366,71.112 56.476,71.972 C56.410,71.559 56.345,71.146 56.281,70.729 ZM56.552,72.444 C59.461,71.579 62.541,70.595 65.757,69.477 C66.483,71.830 67.277,74.344 68.143,77.020 C64.508,78.349 61.140,79.482 58.038,80.448 C57.495,77.876 57.001,75.214 56.552,72.444 ZM58.136,80.913 C61.254,79.944 64.637,78.806 68.289,77.471 C69.127,80.052 70.032,82.782 71.007,85.663 C67.114,87.116 63.513,88.317 60.206,89.307 C59.447,86.612 58.760,83.820 58.136,80.913 ZM60.336,89.761 C63.653,88.769 67.258,87.569 71.160,86.113 C71.665,87.599 72.187,89.124 72.730,90.689 C73.045,91.595 73.352,92.475 73.653,93.334 C69.637,94.836 65.970,96.039 62.656,96.998 C61.817,94.654 61.046,92.247 60.336,89.761 ZM62.899,97.667 C66.216,96.706 69.879,95.504 73.889,94.006 C74.691,96.285 75.447,98.403 76.158,100.363 C72.183,101.743 68.593,102.880 65.359,103.812 C64.482,101.804 63.663,99.760 62.899,97.667 ZM65.552,104.252 C68.759,103.325 72.340,102.191 76.321,100.809 C77.136,103.051 77.895,105.093 78.598,106.946 C74.779,108.126 71.335,109.092 68.241,109.879 C67.289,108.029 66.394,106.155 65.552,104.252 ZM91.056,100.164 C91.269,100.924 91.465,101.660 91.650,102.382 C89.847,103.149 88.109,103.821 86.467,104.381 C83.851,105.275 81.382,106.080 79.050,106.805 C78.347,104.950 77.587,102.905 76.768,100.654 C79.405,99.732 82.214,98.705 85.207,97.554 C86.689,96.983 88.203,96.352 89.730,95.674 C90.188,97.152 90.632,98.650 91.056,100.164 ZM89.589,95.219 C88.034,95.909 86.510,96.544 85.036,97.111 C82.051,98.259 79.246,99.285 76.606,100.207 C75.893,98.244 75.136,96.125 74.333,93.839 C77.454,92.664 80.779,91.312 84.317,89.751 C85.346,89.297 86.343,88.848 87.315,88.404 C88.096,90.609 88.860,92.887 89.589,95.219 ZM71.452,85.496 C70.476,82.617 69.572,79.888 68.735,77.308 C70.967,76.488 73.297,75.595 75.729,74.622 C77.563,73.888 79.305,73.168 80.962,72.463 C82.001,74.813 83.107,77.416 84.226,80.216 C82.049,81.192 79.741,82.187 77.289,83.196 C75.275,84.026 73.331,84.789 71.452,85.496 ZM87.076,87.730 C86.088,88.182 85.076,88.638 84.030,89.100 C80.509,90.653 77.201,91.998 74.097,93.168 C73.797,92.312 73.491,91.436 73.178,90.533 C72.634,88.963 72.109,87.434 71.604,85.944 C73.492,85.235 75.445,84.469 77.469,83.635 C79.919,82.626 82.226,81.632 84.402,80.657 C85.295,82.901 86.195,85.268 87.076,87.730 ZM101.638,89.625 C104.366,88.075 106.970,86.481 109.330,84.933 C109.803,87.404 110.121,89.894 110.276,92.386 C109.970,92.583 109.661,92.781 109.343,92.983 C107.188,94.347 104.993,95.649 102.804,96.870 C102.790,96.759 102.776,96.640 102.760,96.503 C102.481,94.128 102.101,91.835 101.638,89.625 ZM109.596,93.383 C109.833,93.234 110.070,93.081 110.308,92.929 C110.313,93.030 110.321,93.131 110.326,93.231 C110.447,95.781 110.435,98.031 110.333,100.012 C108.375,101.142 106.010,102.397 103.165,103.768 C103.190,101.657 103.105,99.490 102.864,97.380 C105.118,96.126 107.379,94.788 109.596,93.383 ZM102.791,109.991 C102.980,108.218 103.116,106.293 103.156,104.308 C105.979,102.958 108.335,101.718 110.300,100.599 C110.163,102.792 109.916,104.640 109.618,106.178 C107.777,107.312 105.513,108.603 102.791,109.991 ZM47.611,58.440 C47.767,56.315 47.989,54.413 48.239,52.751 C49.993,52.427 52.067,51.980 54.431,51.364 C54.394,52.932 54.396,54.718 54.463,56.714 C51.903,57.413 49.623,57.980 47.611,58.440 ZM119.902,85.796 C119.611,88.720 119.035,91.559 118.204,94.287 C117.992,92.521 117.711,90.357 117.352,87.983 C118.357,87.193 119.228,86.451 119.902,85.796 Z"/><path fill-rule="evenodd"  fill="rgb( 255, 255, 255 )" d="M115.343,95.051 C115.343,95.051 115.112,94.511 115.112,94.280 C115.112,94.049 115.729,92.738 115.729,92.738 C115.729,92.738 115.960,91.350 115.883,91.119 C115.806,90.888 115.420,89.731 115.420,89.499 C115.420,89.269 115.421,88.034 115.575,87.804 C115.729,87.572 115.497,86.416 115.497,86.416 C115.497,86.416 114.573,85.336 114.573,85.336 C114.573,85.336 114.804,83.794 114.804,83.794 C114.804,83.794 115.035,81.943 115.035,81.943 C115.035,81.943 114.496,79.861 114.496,79.861 C114.496,79.861 113.957,78.088 113.725,77.934 C113.494,77.779 112.801,76.545 112.801,76.545 C112.801,76.545 112.339,75.081 112.339,75.081 C112.339,75.081 111.183,73.616 111.183,73.616 C111.183,73.616 109.411,72.459 109.411,72.459 C109.411,72.459 108.101,71.534 108.101,71.534 C108.101,71.534 106.406,72.459 106.406,72.459 C106.406,72.459 105.558,73.461 105.327,73.538 C105.096,73.616 103.247,75.081 103.247,75.081 C103.247,75.081 102.014,76.237 101.783,76.160 C101.552,76.083 99.548,76.468 99.548,76.468 C99.548,76.468 98.084,75.929 97.930,75.697 C97.776,75.465 96.698,74.541 96.698,74.541 C96.698,74.541 94.540,74.232 94.540,74.232 C94.540,74.232 93.385,74.309 93.153,74.232 C92.922,74.155 91.844,73.538 91.844,73.538 C91.844,73.538 90.303,69.760 90.303,69.760 C90.303,69.760 88.993,67.139 88.993,67.139 C88.993,67.139 88.222,66.290 88.222,66.290 C88.222,66.290 89.224,64.439 89.224,64.439 C89.224,64.439 88.839,62.203 88.839,62.203 C88.839,62.203 89.070,60.738 89.070,60.738 C89.070,60.738 88.376,59.350 88.376,59.350 C88.376,59.350 87.914,58.348 87.914,58.348 C87.914,58.348 88.607,57.423 88.607,57.423 C88.607,57.423 89.686,55.495 89.686,55.495 C89.686,55.495 90.149,54.261 90.149,54.029 C90.149,53.798 90.149,53.335 90.149,53.335 C90.149,53.335 91.844,53.335 91.844,53.335 C91.844,53.335 93.462,52.642 93.462,52.642 C93.462,52.642 95.003,51.485 95.003,51.485 C95.003,51.485 96.158,51.409 96.390,51.409 C96.621,51.409 97.006,50.869 97.006,50.869 C97.006,50.869 98.547,51.100 98.547,51.100 C98.547,51.100 100.627,51.639 100.627,51.639 C100.627,51.639 102.322,51.871 102.322,51.871 C102.322,51.871 103.709,51.177 103.709,51.177 C103.709,51.177 104.326,50.020 104.326,50.020 C104.326,50.020 103.709,48.786 103.709,48.786 C103.709,48.786 102.862,47.244 102.862,47.244 C102.862,47.244 110.875,53.952 115.266,63.976 C119.658,74.001 118.117,88.420 115.343,95.051 ZM99.240,46.165 C99.240,46.165 98.701,45.239 98.701,45.239 C98.701,45.239 96.158,43.543 96.081,43.312 C96.004,43.080 93.924,42.464 93.924,42.464 C93.924,42.464 92.614,42.694 92.614,42.694 C92.614,42.694 92.768,43.698 92.768,43.698 C92.768,43.698 91.998,43.852 91.998,43.852 C91.998,43.852 91.689,44.391 91.689,44.391 C91.689,44.391 92.306,45.008 92.306,45.008 C92.306,45.008 92.768,45.548 92.768,45.548 C92.768,45.548 94.386,45.779 94.386,45.779 C94.386,45.779 95.388,46.242 95.696,46.242 C96.004,46.242 96.775,46.396 96.775,46.396 C96.775,46.396 96.929,47.013 96.929,47.013 C96.929,47.013 96.312,47.013 96.312,47.013 C96.312,47.013 95.619,47.167 95.850,47.244 C96.081,47.321 96.390,47.630 96.390,47.630 C96.390,47.630 96.543,48.092 96.543,48.092 C96.543,48.092 95.927,48.555 95.927,48.555 C95.927,48.555 95.619,49.480 95.619,49.480 C95.619,49.480 95.080,49.634 95.080,49.634 C95.080,49.634 94.772,48.709 94.772,48.709 C94.772,48.709 94.772,48.015 94.772,48.015 C94.772,48.015 94.694,47.167 94.694,47.167 C94.694,47.167 94.309,46.858 94.309,46.858 C94.309,46.858 93.153,46.396 93.153,46.396 C93.153,46.396 92.075,46.165 91.844,46.088 C91.613,46.011 91.073,45.934 90.842,45.856 C90.611,45.779 89.917,45.702 89.917,45.702 C89.917,45.702 90.225,46.473 90.225,46.473 C90.225,46.473 90.380,47.167 90.380,47.167 C90.380,47.167 89.224,47.938 89.224,47.938 C89.224,47.938 88.607,48.786 88.607,48.786 C88.607,48.786 88.607,50.020 88.607,50.020 C88.607,50.020 88.916,50.945 88.916,50.945 C88.916,50.945 89.224,51.639 89.224,51.639 C89.224,51.639 89.224,52.410 89.224,52.410 C89.224,52.410 89.609,53.182 89.609,53.182 C89.609,53.182 88.916,54.184 88.916,54.184 C88.916,54.184 88.376,54.647 88.376,54.647 C88.376,54.647 87.066,53.798 87.066,53.798 C87.066,53.798 85.371,53.567 85.371,53.567 C85.371,53.567 83.985,53.644 83.985,53.644 C83.985,53.644 83.522,53.490 83.522,53.490 C83.522,53.490 83.754,52.488 83.754,52.488 C83.754,52.488 84.524,50.637 84.524,50.637 C84.524,50.637 84.139,49.866 84.139,49.866 C84.139,49.866 83.831,49.557 83.831,49.557 C83.831,49.557 83.137,47.398 83.137,47.398 C83.137,47.398 82.290,46.628 82.290,46.628 C82.290,46.628 81.057,47.090 81.057,47.090 C81.057,47.090 80.749,46.781 80.749,46.781 C80.749,46.781 81.827,45.779 81.827,45.779 C81.827,45.779 82.367,44.546 82.367,44.546 C82.367,44.546 83.137,44.314 83.137,44.314 C83.137,44.314 82.290,43.158 82.290,43.158 C82.290,43.158 80.517,42.156 80.517,42.156 C80.517,42.156 78.899,41.384 78.668,41.307 C78.437,41.230 77.590,41.384 77.590,41.384 C77.590,41.384 78.822,42.618 79.053,42.694 C79.285,42.772 80.671,43.852 80.671,43.852 C80.671,43.852 81.211,44.623 81.211,44.623 C81.211,44.623 81.288,45.471 81.288,45.471 C81.288,45.471 80.671,46.011 80.671,46.011 C80.671,46.011 80.132,47.013 80.132,47.013 C80.132,47.013 79.208,46.396 79.208,46.396 C79.208,46.396 78.360,45.856 77.975,45.779 C77.590,45.702 76.588,45.393 76.588,45.393 C76.588,45.393 76.357,44.237 76.357,44.237 C76.357,44.237 75.355,42.849 75.355,42.849 C75.355,42.849 73.429,42.464 73.429,42.464 C73.429,42.464 73.044,42.156 73.044,42.156 C73.044,42.156 74.199,40.768 74.199,40.768 C74.199,40.768 74.354,39.148 74.354,39.148 C74.354,39.148 75.201,38.916 75.432,38.839 C75.663,38.762 77.513,38.222 77.744,38.222 C77.975,38.222 79.439,37.451 79.439,37.451 C79.439,37.451 80.749,37.451 80.749,37.451 C80.749,37.451 92.383,38.762 101.629,46.242 C101.629,46.242 100.165,45.856 100.165,45.856 C100.165,45.856 99.240,46.165 99.240,46.165 ZM78.899,49.557 C78.899,49.557 77.898,49.249 77.898,49.249 C77.898,49.249 77.590,48.786 77.590,48.786 C77.590,48.786 78.437,48.786 78.437,48.786 C78.437,48.786 78.899,49.557 78.899,49.557 ZM77.821,47.167 C77.821,47.167 78.514,47.398 78.514,47.398 C78.514,47.398 79.824,47.938 79.824,47.938 C79.824,47.938 81.134,47.861 81.134,47.861 C81.134,47.861 80.903,48.247 80.903,48.247 C80.903,48.247 81.057,49.095 81.057,49.095 C81.057,49.095 80.671,49.711 80.671,49.711 C80.671,49.711 80.903,50.483 80.903,50.483 C80.903,50.483 80.132,50.097 80.132,50.097 C80.132,50.097 79.901,49.326 79.901,49.326 C79.901,49.326 79.670,49.017 79.670,49.017 C79.670,49.017 79.053,48.786 79.053,48.786 C79.053,48.786 78.899,48.247 78.899,48.247 C78.899,48.247 77.898,47.938 77.898,47.938 C77.898,47.938 77.898,47.938 77.667,47.707 C77.435,47.475 77.821,47.167 77.821,47.167 ZM47.232,80.864 C47.232,80.864 47.541,80.400 47.541,80.400 C47.541,80.400 48.311,80.709 48.311,80.709 C48.311,80.709 47.926,80.633 47.926,80.633 C47.926,80.633 47.849,81.018 47.849,81.018 C47.849,81.018 47.232,80.864 47.232,80.864 ZM49.467,82.792 C49.775,82.869 50.700,82.714 50.931,82.637 C51.162,82.560 51.855,82.560 51.855,82.560 C51.855,82.560 52.934,83.023 52.934,83.023 C52.934,83.023 53.011,84.025 53.011,84.025 C53.011,84.025 52.318,84.180 52.318,84.180 C52.318,84.180 51.624,83.871 51.624,83.871 C51.624,83.871 51.547,83.563 51.547,83.563 C51.547,83.563 50.391,83.948 50.391,83.948 C50.391,83.948 49.929,84.102 49.929,84.102 C49.929,84.102 48.696,84.025 48.696,84.025 C48.696,84.025 48.311,83.794 48.234,83.563 C48.157,83.332 47.232,83.332 47.232,83.332 C47.232,83.332 46.462,83.639 46.077,83.639 C45.691,83.639 45.152,83.794 44.921,83.717 C44.690,83.639 44.305,83.254 44.305,83.254 C44.305,83.254 43.380,83.100 43.380,83.100 C43.380,83.100 43.534,82.328 43.534,82.328 C43.534,82.328 45.383,82.560 45.383,82.560 C45.383,82.560 46.308,82.174 46.539,82.097 C46.770,82.020 47.232,81.943 47.464,82.097 C47.695,82.251 48.234,82.560 48.465,82.637 C48.696,82.714 49.159,82.714 49.467,82.792 ZM75.740,92.507 C75.740,92.507 77.127,93.124 77.127,93.124 C77.127,93.124 78.822,93.278 78.822,93.278 C78.822,93.278 80.440,92.198 80.440,92.198 C80.440,92.198 82.058,92.584 82.058,92.584 C82.058,92.584 83.830,92.507 83.830,92.507 C83.830,92.507 84.755,91.967 84.755,91.967 C84.755,91.967 85.140,93.047 85.371,93.201 C85.603,93.355 86.142,94.743 86.142,94.743 C86.142,94.743 85.988,95.823 85.988,95.823 C85.988,95.823 85.217,96.902 85.217,96.902 C85.217,96.902 84.832,98.984 84.832,98.984 C84.832,98.984 84.909,100.680 84.909,100.680 C84.909,100.680 84.986,102.994 84.986,102.994 C84.986,102.994 84.447,103.765 84.447,103.765 C84.447,103.765 83.985,105.461 83.985,105.461 C83.985,105.461 83.985,106.849 83.985,106.849 C83.985,106.849 83.060,107.003 83.060,107.003 C83.060,107.003 81.750,108.391 81.750,108.391 C81.750,108.391 80.980,109.470 80.980,109.470 C80.980,109.470 81.442,110.859 81.442,110.859 C81.442,110.859 80.440,112.324 80.440,112.324 C80.440,112.324 79.901,114.174 79.901,114.174 C79.901,114.174 79.439,115.793 79.439,115.793 C79.439,115.793 78.437,116.102 78.437,116.102 C78.437,116.102 78.514,117.105 78.514,117.105 C78.514,117.105 77.281,118.184 77.281,118.184 C77.281,118.184 76.588,119.958 76.588,119.958 C76.588,119.958 76.742,121.500 76.742,121.500 C76.742,121.500 78.129,122.040 78.129,122.040 C78.129,122.040 79.516,121.809 79.516,121.809 C79.516,121.809 80.595,121.654 80.595,121.654 C80.595,121.654 80.595,122.425 80.595,122.425 C80.595,122.425 81.365,121.962 81.365,121.962 C81.365,121.962 79.824,123.273 79.824,123.273 C79.824,123.273 78.129,123.505 78.129,123.505 C78.129,123.505 73.506,123.505 72.812,123.273 C72.119,123.042 70.270,121.654 70.270,121.654 C70.270,121.654 67.265,116.333 67.265,116.333 C67.265,116.333 65.185,116.102 65.185,116.102 C65.185,116.102 61.949,109.162 61.949,109.162 C61.949,109.162 57.788,108.931 57.788,108.931 C57.788,108.931 55.014,108.006 55.014,108.006 C55.014,108.006 54.552,105.461 54.552,105.461 C54.552,105.461 50.854,104.304 50.854,104.304 C50.854,104.304 49.698,101.298 49.698,101.298 C49.698,101.298 49.698,97.596 49.698,97.596 C49.698,97.596 50.391,93.894 50.391,93.894 C50.391,93.894 47.849,93.894 47.849,93.894 C47.849,93.894 44.844,93.201 44.844,93.201 C44.844,93.201 42.070,89.963 42.070,89.963 C42.070,89.963 39.065,89.269 39.065,89.269 C39.065,89.269 37.216,87.649 37.216,87.649 C37.216,87.649 35.598,87.418 35.598,87.418 C35.598,87.418 34.442,83.717 34.442,83.717 C34.442,83.717 33.055,79.321 33.055,79.321 C33.055,79.321 31.437,73.076 38.603,58.965 C45.768,44.854 53.858,43.698 53.858,43.698 C53.858,43.698 55.477,43.928 59.175,43.003 C62.873,42.078 62.873,42.078 62.873,42.078 C62.873,42.078 64.491,42.310 64.491,42.310 C64.491,42.310 65.878,42.541 65.878,42.541 C65.878,42.541 63.798,44.623 63.798,44.623 C63.798,44.623 63.566,46.242 63.566,46.242 C63.566,46.242 62.180,47.398 62.180,47.398 C62.180,47.398 60.331,48.786 60.331,48.786 C60.331,48.786 60.099,49.943 60.099,49.943 C60.099,49.943 58.481,48.092 58.481,48.092 C58.481,48.092 57.326,47.167 57.326,47.167 C57.326,47.167 56.632,45.548 56.632,45.548 C56.632,45.548 55.014,46.936 55.014,46.936 C55.014,46.936 52.472,46.936 52.472,46.936 C52.472,46.936 51.085,47.398 51.085,47.398 C51.085,47.398 50.623,49.480 50.623,49.480 C50.623,49.480 48.542,52.488 48.542,52.488 C48.542,52.488 47.618,54.107 47.618,54.107 C47.618,54.107 45.537,55.032 45.537,55.032 C45.537,55.032 43.919,57.577 43.919,57.577 C43.919,57.577 44.844,58.502 44.844,58.502 C44.844,58.502 46.000,58.965 46.000,58.965 C46.000,58.965 46.924,60.815 46.924,60.815 C46.924,60.815 49.005,58.734 49.005,58.734 C49.005,58.734 51.085,57.115 51.085,57.115 C51.085,57.115 51.547,55.957 51.547,55.957 C51.547,55.957 51.547,54.570 51.547,54.570 C51.547,54.570 52.703,53.875 52.703,53.875 C52.703,53.875 54.090,51.794 54.090,51.794 C54.090,51.794 55.477,50.637 55.477,50.637 C55.477,50.637 57.095,50.869 57.095,50.869 C57.095,50.869 57.326,52.950 57.326,52.950 C57.326,52.950 56.709,53.105 56.709,53.105 C56.709,53.105 55.939,53.875 55.939,53.875 C55.939,53.875 55.092,53.413 55.092,53.413 C55.092,53.413 54.783,53.490 54.783,53.490 C54.783,53.490 53.782,54.107 53.782,54.107 C53.782,54.107 53.319,54.724 53.319,54.724 C53.319,54.724 54.244,54.184 54.244,54.184 C54.244,54.184 54.860,54.338 54.860,54.338 C54.860,54.338 54.860,54.878 55.092,54.955 C55.323,55.032 56.016,55.263 56.016,55.263 C56.016,55.263 56.324,55.957 56.324,55.957 C56.324,55.957 57.249,55.186 57.249,55.186 C57.249,55.186 56.324,56.806 56.324,56.806 C56.324,56.806 55.708,57.731 55.708,57.731 C55.708,57.731 54.783,58.734 54.783,58.734 C54.783,58.734 53.627,59.890 53.627,59.890 C53.627,59.890 52.780,60.893 52.780,60.893 C52.780,60.893 53.165,61.509 53.165,61.509 C53.165,61.509 54.321,60.661 54.321,60.661 C54.321,60.661 55.400,60.507 55.400,60.507 C55.400,60.507 55.477,61.047 55.477,61.047 C55.477,61.047 54.167,62.126 54.167,62.126 C54.167,62.126 53.473,63.128 53.473,63.128 C53.473,63.128 52.549,63.514 52.318,63.514 C52.086,63.514 50.623,63.976 50.623,63.976 C50.623,63.976 50.777,65.596 50.777,65.596 C50.777,65.596 49.698,66.290 49.698,66.290 C49.698,66.290 48.542,67.293 48.542,67.293 C48.542,67.293 47.541,68.372 47.541,68.372 C47.541,68.372 46.924,69.220 46.924,69.220 C46.924,69.220 46.847,70.994 46.847,70.994 C46.847,70.994 46.693,71.996 46.693,71.996 C46.693,71.996 46.462,73.153 46.462,73.153 C46.462,73.153 45.460,74.695 45.460,74.695 C45.460,74.695 44.305,75.851 44.305,75.851 C44.305,75.851 44.459,77.934 44.459,77.934 C44.459,77.934 44.613,79.630 44.613,79.630 C44.613,79.630 43.842,79.167 43.842,79.167 C43.842,79.167 43.149,77.934 43.149,77.934 C43.149,77.934 42.610,77.316 42.378,77.394 C42.147,77.471 41.454,77.934 41.454,77.934 C41.454,77.934 40.760,78.705 40.760,78.705 C40.760,78.705 39.913,78.088 39.913,78.088 C39.913,78.088 38.911,77.856 38.911,77.856 C38.911,77.856 38.064,79.014 38.064,79.014 C38.064,79.014 37.447,80.555 37.447,80.555 C37.447,80.555 37.293,82.174 37.293,82.174 C37.293,82.174 37.447,84.951 37.447,84.951 C37.447,84.951 38.372,86.801 38.372,86.801 C38.372,86.801 39.990,86.492 39.990,86.492 C39.990,86.492 40.760,85.798 40.760,85.798 C40.760,85.798 41.454,84.102 41.454,84.102 C41.454,84.102 41.762,83.563 41.762,83.563 C41.762,83.563 42.147,83.486 42.147,83.486 C42.147,83.486 42.378,84.257 42.378,84.257 C42.378,84.257 42.070,85.413 41.993,85.721 C41.916,86.030 41.762,87.418 41.762,87.418 C41.762,87.418 42.147,88.497 42.147,88.497 C42.147,88.497 43.226,88.806 43.226,88.806 C43.226,88.806 44.228,88.343 44.228,88.343 C44.228,88.343 45.075,88.806 45.075,88.806 C45.075,88.806 44.998,89.808 44.998,89.808 C44.998,89.808 45.615,91.659 45.615,91.659 C45.615,91.659 46.385,92.507 46.385,92.507 C46.385,92.507 47.310,92.584 47.541,92.661 C47.772,92.738 48.773,92.507 48.773,92.507 C48.773,92.507 49.929,91.504 50.160,91.350 C50.391,91.196 51.470,89.346 51.470,89.346 C51.470,89.346 53.627,89.191 53.627,89.191 C53.627,89.191 55.168,89.346 55.168,89.346 C55.168,89.346 56.170,89.346 56.170,89.346 C56.170,89.346 57.480,88.267 57.480,88.267 C57.480,88.267 59.175,88.574 59.175,88.574 C59.175,88.574 60.793,89.191 60.793,89.191 C60.793,89.191 62.950,90.502 62.950,90.502 C62.950,90.502 65.416,90.502 65.416,90.502 C65.416,90.502 68.190,90.194 68.190,90.194 C68.190,90.194 69.962,91.119 69.962,91.119 C69.962,91.119 72.042,92.276 72.042,92.276 C72.042,92.276 74.122,92.661 74.122,92.661 C74.122,92.661 75.740,92.507 75.740,92.507 Z"/><path fill-rule="evenodd"  fill="rgb( 255, 213, 0 )" d="M110.817,67.259 C103.068,88.865 80.189,96.182 79.223,96.482 C79.223,96.482 78.828,94.266 78.828,94.266 C79.057,94.194 101.870,86.883 109.347,66.243 C112.510,57.512 112.221,47.956 108.733,38.049 C106.318,31.189 96.778,26.745 88.697,22.980 C83.106,20.376 78.395,18.181 76.890,15.556 C73.463,9.578 74.931,1.382 75.000,1.000 C75.000,1.000 76.000,1.000 76.000,1.000 C75.984,1.088 74.817,9.225 77.987,14.702 C79.283,16.940 84.040,19.137 89.196,21.519 C97.539,25.372 107.399,29.926 110.100,37.497 C113.810,47.897 114.143,57.985 110.817,67.259 ZM68.126,20.813 C64.603,24.438 60.532,26.207 56.935,27.770 C52.225,29.817 48.152,31.586 45.655,36.920 C41.194,46.445 44.717,66.145 44.885,67.046 C44.885,67.046 43.499,67.694 43.499,67.694 C43.202,66.070 39.766,46.340 44.542,36.213 C47.329,30.303 51.833,28.347 56.595,26.279 C60.230,24.700 63.985,23.069 67.300,19.670 C70.755,16.128 72.792,5.208 73.016,0.942 C73.016,0.942 74.261,0.937 74.261,0.937 C74.037,5.535 71.945,16.882 68.126,20.813 Z"/><path fill-rule="evenodd"  fill="rgb( 255, 213, 0 )" d="M84.369,35.269 C84.066,35.194 77.047,29.979 76.281,22.463 C75.759,17.350 74.684,8.070 74.220,3.570 C74.185,4.783 74.018,6.236 73.805,8.205 C73.334,12.568 72.786,17.641 73.684,20.913 C75.297,26.795 77.336,33.485 77.392,33.518 C77.392,33.518 76.769,35.064 76.769,35.064 C76.522,34.915 74.166,28.017 72.399,21.466 C71.424,17.854 72.011,12.600 72.514,8.086 C72.876,4.848 73.364,2.490 73.000,1.000 C73.000,1.000 74.000,1.000 74.000,1.000 C74.000,1.000 75.000,1.000 75.000,1.000 C74.982,1.141 76.925,15.655 77.621,22.227 C78.295,28.594 84.577,33.594 84.641,33.610 C84.641,33.610 84.369,35.269 84.369,35.269 Z"/><path fill-rule="evenodd"  fill="rgb( 255, 213, 0 )" d="M85.964,37.868 C85.964,37.868 85.151,37.517 85.151,37.517 C85.151,37.517 84.619,37.289 84.619,37.289 C84.619,37.289 84.620,37.288 84.620,37.288 C84.620,37.288 84.619,37.288 84.619,37.288 C84.619,37.288 84.620,37.288 84.620,37.288 C84.637,37.224 86.070,32.032 84.571,28.108 C84.033,26.699 82.929,25.531 81.662,24.191 C79.254,21.644 74.064,17.411 74.272,11.278 C74.415,7.053 74.406,4.586 74.341,3.126 C74.247,3.417 74.146,3.727 74.037,4.061 C74.117,2.276 74.021,1.069 74.000,1.000 C74.000,1.000 75.000,1.000 75.000,1.000 C75.039,1.145 75.912,0.114 75.574,11.278 C75.410,16.719 80.251,20.559 82.575,22.998 C83.900,24.389 85.165,25.716 85.829,27.433 C87.584,31.969 86.032,37.626 85.964,37.868 ZM66.093,21.626 C62.034,24.412 57.806,27.315 55.799,30.959 C51.872,38.090 54.034,49.904 54.065,50.076 C54.065,50.076 52.848,50.255 52.848,50.255 C52.718,49.522 50.439,37.874 54.727,30.135 C56.931,26.156 61.298,23.165 65.490,20.293 C69.067,17.843 70.169,14.414 71.116,12.109 C72.220,9.424 73.297,6.309 74.037,4.061 C73.933,6.374 73.533,9.658 72.292,12.703 C71.166,15.464 69.874,19.030 66.093,21.626 Z"/><path fill-rule="evenodd"  fill="rgb( 255, 213, 0 )" d="M93.810,57.246 C93.810,57.246 92.635,55.951 92.635,55.951 C92.635,55.951 93.221,56.597 93.221,56.597 C93.221,56.597 92.634,55.952 92.634,55.952 C92.690,55.870 98.100,47.632 96.613,33.748 C95.698,25.215 88.530,23.177 82.904,21.577 C79.968,20.743 76.764,16.754 75.769,15.336 C73.061,11.474 73.942,1.407 74.000,1.000 C74.000,1.000 75.000,1.000 75.000,1.000 C75.270,4.062 74.439,10.994 76.805,14.338 C77.530,15.363 80.757,19.351 83.234,20.048 C88.945,21.655 96.965,23.911 98.043,33.607 C99.679,48.326 94.054,56.884 93.810,57.246 Z"/><path fill-rule="evenodd"  fill="rgb( 255, 213, 0 )" d="M94.493,57.086 C94.493,57.086 93.596,58.006 92.178,57.166 C90.769,56.332 91.119,54.727 91.119,54.727 C91.119,54.727 93.373,52.491 93.373,52.491 C93.373,52.491 94.993,53.886 94.993,53.886 C94.993,53.886 94.493,57.086 94.493,57.086 ZM85.224,37.497 C84.404,37.196 83.702,36.248 83.702,36.248 C83.702,36.248 85.057,33.867 85.057,33.867 C85.057,33.867 86.610,33.952 86.610,33.952 C86.610,33.952 86.749,36.997 86.749,36.997 C86.749,36.997 86.047,37.798 85.224,37.497 ZM76.924,100.821 C75.524,100.177 75.695,96.389 75.695,96.389 C75.695,96.389 78.678,92.507 78.678,92.507 C78.678,92.507 80.753,95.215 80.753,95.215 C80.753,95.215 79.673,100.724 79.673,100.724 C79.673,100.724 78.744,101.658 76.924,100.821 ZM78.390,33.177 C78.390,33.177 77.628,30.110 77.628,30.110 C77.628,30.110 78.474,29.219 78.474,29.219 C78.474,29.219 80.692,31.039 80.692,31.039 C80.692,31.039 80.754,32.026 79.972,32.950 C79.187,33.877 78.390,33.177 78.390,33.177 ZM55.129,52.129 C54.220,52.603 53.183,51.694 53.183,51.694 C53.183,51.694 53.484,47.652 53.484,47.652 C53.484,47.652 55.124,47.228 55.124,47.228 C55.124,47.228 56.048,50.596 56.048,50.596 C56.048,50.596 56.038,51.655 55.129,52.129 ZM44.188,67.207 C43.160,67.739 42.243,65.974 42.243,65.974 C42.243,65.974 42.169,61.890 42.169,61.890 C42.169,61.890 43.734,61.284 43.734,61.284 C43.734,61.284 45.880,64.300 45.880,64.300 C45.880,64.300 45.403,66.579 44.188,67.207 Z"/></g></svg>