<svg xmlns="http://www.w3.org/2000/svg" xmlns:xlink="http://www.w3.org/1999/xlink" preserveAspectRatio="xMidYMid" width="92" height="92" viewBox="0 0 92 92">
  <defs>
    <style>
      .cls-1 {
        fill: #f8f7f7;
        fill-rule: evenodd;
      }
    </style>
  </defs>
  <path d="M46.000,92.000 C20.595,92.000 -0.000,71.405 -0.000,46.000 C-0.000,20.595 20.595,-0.000 46.000,-0.000 C71.405,-0.000 92.000,20.595 92.000,46.000 C92.000,71.405 71.405,92.000 46.000,92.000 ZM68.000,73.042 L68.000,18.956 L68.000,16.000 L65.153,16.000 L26.848,16.000 L24.000,16.000 L24.000,18.956 L24.000,73.042 L24.000,76.000 L26.848,76.000 L65.153,76.000 L68.000,76.000 L68.000,73.042 ZM26.000,17.770 L66.000,17.770 L66.000,74.000 L26.000,74.000 L26.000,17.770 ZM44.163,69.759 L44.274,69.644 L44.384,69.759 L61.278,52.223 L59.264,50.133 L44.274,65.692 L35.660,56.752 L33.646,58.843 L44.163,69.759 ZM30.000,50.000 L42.000,50.000 L42.000,48.000 L30.000,48.000 L30.000,50.000 ZM30.000,44.000 L62.000,44.000 L62.000,42.000 L30.000,42.000 L30.000,44.000 ZM30.000,38.000 L62.000,38.000 L62.000,36.000 L30.000,36.000 L30.000,38.000 ZM30.000,32.000 L62.000,32.000 L62.000,30.000 L30.000,30.000 L30.000,32.000 ZM30.000,26.000 L62.000,26.000 L62.000,24.000 L30.000,24.000 L30.000,26.000 Z" class="cls-1"/>
</svg>
