<?xml version="1.0" encoding="utf-8"?>
<!-- Generator: Adobe Illustrator 16.0.0, SVG Export Plug-In . SVG Version: 6.00 Build 0)  -->
<!DOCTYPE svg PUBLIC "-//W3C//DTD SVG 1.1//EN" "http://www.w3.org/Graphics/SVG/1.1/DTD/svg11.dtd">
<svg version="1.1" id="Layer_1" xmlns:ev="http://www.w3.org/2001/xml-events"
	 xmlns="http://www.w3.org/2000/svg" xmlns:xlink="http://www.w3.org/1999/xlink" x="0px" y="0px" width="27.999px" height="22px"
	 viewBox="0 0 27.999 22" enable-background="new 0 0 27.999 22" xml:space="preserve">
<g transform="scale(NaN)">
	<path fill="#BBB5BB" d="M25.083,21.989H2.917c-1.608,0-2.916-1.297-2.916-2.892V2.903c0-1.595,1.308-2.892,2.916-2.892h22.166
		c1.608,0,2.916,1.297,2.916,2.892v16.194C27.999,20.692,26.691,21.989,25.083,21.989z M26.833,2.903
		c0-0.957-0.786-1.735-1.75-1.735H2.917c-0.964,0-1.75,0.778-1.75,1.735v2.892h25.666V2.903z M26.833,6.951H1.167v12.146
		c0,0.957,0.786,1.735,1.75,1.735h22.166c0.964,0,1.75-0.778,1.75-1.735V6.951z M4.667,2.324c0.645,0,1.167,0.518,1.167,1.157
		S5.312,4.638,4.667,4.638c-0.644,0-1.166-0.518-1.166-1.157S4.023,2.324,4.667,2.324z M8.167,2.324
		c0.644,0,1.167,0.518,1.167,1.157S8.811,4.638,8.167,4.638S7,4.12,7,3.481S7.523,2.324,8.167,2.324z M11.667,2.324
		c0.644,0,1.166,0.518,1.166,1.157s-0.522,1.157-1.166,1.157c-0.645,0-1.167-0.518-1.167-1.157S11.022,2.324,11.667,2.324z"/>
	<path fill="#BBB5BB" d="M8.022,14.473l1.451-1.451l4.505,4.505l-1.451,1.451L8.022,14.473z"/>
	<path fill="#BBB5BB" d="M12.45,18.971l-1.452-1.452l8.521-8.521l1.451,1.452L12.45,18.971z"/>
</g>
</svg>
