<?xml version="1.0" encoding="utf-8"?>
<!-- Generator: Adobe Illustrator 17.1.0, SVG Export Plug-In . SVG Version: 6.00 Build 0)  -->
<svg version="1.2" baseProfile="tiny" id="Layer_1" xmlns:ev="http://www.w3.org/2001/xml-events"
	 xmlns="http://www.w3.org/2000/svg" xmlns:xlink="http://www.w3.org/1999/xlink" x="0px" y="0px" viewBox="0 0 36 33"
	 xml:space="preserve">
<g transform="scale(NaN)">
	<path fill="#BBB5BB" d="M33,28H22.6l1.3,4c0,0,0,0,0,0.1h4.3c0.4,0,1-0.2,1,0.2c0,0.4-0.3,0.7-0.7,0.7h-5.2c0,0,0,0,0,0
		c0,0,0,0,0,0H12.8c0,0,0,0,0,0H7.5c-0.4,0-0.7-0.3-0.7-0.7c0-0.4,0.5-0.2,1-0.2h4.3l1.3-4.1H3c-1.7,0-3-1.3-3-3V3c0-1.7,1.3-3,3-3
		h30c1.7,0,3,1.3,3,3v22C36,26.6,34.6,28,33,28z M22,32l-1-4h-6l-1,4H22z M35,3c0-0.8-1.2-2-2-2H3C2.2,1,1,2.2,1,3v22
		c0,0.8,1.2,2,2,2h30c0.8,0,2-1.2,2-2V3z M2.9,3H33v18H2.9V3z M4,20h28V4H4V20z M17.9,22.4c0.8,0,1.5,0.7,1.5,1.5
		c0,0.8-0.7,1.5-1.5,1.5s-1.5-0.7-1.5-1.5C16.4,23.1,17.1,22.4,17.9,22.4z"/>
	<path fill="#BBB5BB" d="M16.6,16.6c-0.7-0.5-1.4-0.9-2.4-0.9c-0.6,0-1.4,0.2-2.3,0.5l1.2-4.3c0.1-0.1,0.3-0.1,0.4-0.2
		c0.4-0.2,1.1-0.3,1.8-0.4c0.1,0,0.2,0,0.2,0c0.7,0,1.3,0.2,1.8,0.5c0.2,0.1,0.4,0.2,0.6,0.3C17.7,12.8,16.9,15.8,16.6,16.6
		 M16.6,16.6c-0.7-0.5-1.4-0.9-2.4-0.9c-0.6,0-1.4,0.2-2.3,0.5l1.2-4.3c0.1-0.1,0.3-0.1,0.4-0.2c0.4-0.2,1.1-0.3,1.8-0.4
		c0.1,0,0.2,0,0.2,0c0.7,0,1.3,0.2,1.8,0.5c0.2,0.1,0.4,0.2,0.6,0.3C17.7,12.8,16.9,15.8,16.6,16.6 M19.9,18c-1.1,0-2.5-0.9-2.5-0.9
		l1.2-4.3c0.4,0.3,1.2,0.9,2.6,0.9c0.6,0,1.4-0.1,2.3-0.5l-1.2,4.2C21.3,17.8,20.5,18,19.9,18 M19.9,18c-1.1,0-2.5-0.9-2.5-0.9
		l1.2-4.3c0.4,0.3,1.2,0.9,2.6,0.9c0.6,0,1.4-0.1,2.3-0.5l-1.2,4.2C21.3,17.8,20.5,18,19.9,18 M19.3,6.8L19.3,6.8
		c-0.2,0.9-1,3.5-1.2,4.4 M18.1,11.2c-0.6-0.4-1.3-0.9-2.3-0.9c0,0,0,0,0,0c-0.6,0-1.4,0.2-2.3,0.6l1.2-4.3C15.6,6.2,16.3,6,16.9,6
		c0,0,0,0,0,0c0.4,0,0.7,0,1,0.1c0.6,0.2,1.5,0.7,1.5,0.7 M19.3,6.8L19.3,6.8c-0.2,0.9-1,3.5-1.2,4.4 M18.1,11.2
		c-0.6-0.4-1.3-0.9-2.3-0.9c0,0,0,0,0,0c-0.6,0-1.4,0.2-2.3,0.6l1.2-4.3C15.6,6.2,16.3,6,16.9,6c0,0,0,0,0,0c0.4,0,0.7,0,1,0.1
		c0.6,0.2,1.5,0.7,1.5,0.7 M21.5,12.6c-1,0-1.9-0.4-2.6-0.8c0,0,0,0,0,0l1.2-4.4c0.4,0.3,1.3,0.9,2.6,0.9c0.7,0,1.4-0.1,2.3-0.6
		L23.8,12c0,0,0,0,0,0c0,0,0,0,0,0C23,12.5,22.2,12.6,21.5,12.6 M21.5,12.6c-1,0-1.9-0.4-2.6-0.8c0,0,0,0,0,0l1.2-4.4
		c0.4,0.3,1.3,0.9,2.6,0.9c0.7,0,1.4-0.1,2.3-0.6L23.8,12c0,0,0,0,0,0c0,0,0,0,0,0C23,12.5,22.2,12.6,21.5,12.6"/>
</g>
</svg>
