<?xml version="1.0" encoding="utf-8"?>
<!-- Generator: Adobe Illustrator 17.1.0, SVG Export Plug-In . SVG Version: 6.00 Build 0)  -->
<svg version="1.2" baseProfile="tiny" id="Layer_1" xmlns:ev="http://www.w3.org/2001/xml-events"
	 xmlns="http://www.w3.org/2000/svg" xmlns:xlink="http://www.w3.org/1999/xlink" x="0px" y="0px" viewBox="-3.5 -3.5 31 31"
	 xml:space="preserve">
<ellipse transform="matrix(0.9659 -0.2588 0.2588 0.9659 -2.6599 3.4975)" fill="#FFFFFF" cx="12" cy="11.9" rx="11.6" ry="7.8"/>
<path fill="#FFD400" d="M27.1,7.8C25.4,1.6,17.3-1.5,9,0.7C0.6,3-4.8,9.8-3.2,15.9c1.6,6.1,9.8,9.3,18.1,7.1
	C23.3,20.7,28.7,13.9,27.1,7.8z M14,19.4C7.8,21.1,1.8,19,0.7,14.9c-1.1-4.2,3-8.9,9.2-10.6c6.2-1.7,12.2,0.4,13.3,4.6
	C24.3,13,20.2,17.8,14,19.4z"/>
<g>
	<path d="M23.2,8.8c-1.1-4.2-7.1-6.2-13.3-4.6C3.7,5.9-0.4,10.7,0.7,14.9C1.8,19,7.8,21.1,14,19.4C20.2,17.8,24.3,13,23.2,8.8z
		 M16.2,15.7c-3.2,3.5-7.6,4.6-10,2.5C3.9,16.1,4.6,11.5,7.7,8c3.2-3.5,7.6-4.6,10-2.5C20,7.6,19.4,12.1,16.2,15.7z"/>
	<circle cx="12" cy="11.8" r="2.8"/>
</g>
<g>
	<g>
		<path fill="#1A171B" d="M-0.4,18.3c-0.2-0.3-0.2-0.7,0.2-0.9c0.3-0.2,0.7-0.2,0.9,0.1c0.1,0.1,0.1,0.2,0.1,0.3l-0.2,0.1
			c0-0.1,0-0.2-0.1-0.3c-0.1-0.2-0.4-0.2-0.6,0c-0.2,0.2-0.3,0.4-0.1,0.6c0.1,0.1,0.2,0.2,0.3,0.2L0,18.5
			C-0.2,18.5-0.3,18.4-0.4,18.3z"/>
		<path fill="#1A171B" d="M1.3,18.2l0.2,0.2L1,19.6l-0.2-0.1l0.1-0.3l-0.4-0.3L0.3,19l-0.2-0.2L1.3,18.2z M0.8,18.7L1,19l0.2-0.5
			L0.8,18.7z"/>
		<path fill="#1A171B" d="M2.3,20.6l0.5-0.8l-0.8,0.6l-0.2-0.1l0.3-1L1.4,20l-0.2-0.1l0.8-1L2.3,19L2,20l0.8-0.6l0.3,0.2l-0.6,1.2
			L2.3,20.6z"/>
		<path fill="#1A171B" d="M3.2,21l-0.3-0.2l0.6-1.2l0.3,0.2C4,20,4.1,20.1,4,20.3c-0.1,0.1-0.2,0.2-0.3,0.2c0.1,0.1,0.2,0.2,0.1,0.4
			C3.7,21.1,3.5,21.2,3.2,21z M3.5,20.5l-0.1-0.1l-0.2,0.4l0.1,0.1c0.1,0.1,0.3,0,0.3-0.1C3.7,20.7,3.6,20.6,3.5,20.5z M3.7,20
			L3.6,20l-0.1,0.3l0.1,0c0.1,0.1,0.2,0,0.3-0.1C3.8,20.2,3.8,20.1,3.7,20z"/>
		<path fill="#1A171B" d="M4.6,21.6L4.5,21l-0.1,0l-0.2,0.5L4,21.4l0.4-1.2l0.4,0.1c0.3,0.1,0.4,0.3,0.3,0.5
			c-0.1,0.2-0.2,0.3-0.4,0.3l0.2,0.6L4.6,21.6z M4.7,20.5l-0.1,0l-0.1,0.4l0.1,0c0.1,0.1,0.3,0,0.3-0.1C4.9,20.6,4.9,20.5,4.7,20.5z
			"/>
		<path fill="#1A171B" d="M5.2,21.8l0.4-1.3l0.2,0.1l-0.4,1.3L5.2,21.8z"/>
		<path fill="#1A171B" d="M6.3,22L5.8,22l0.3-1.3l0.4,0.1c0.4,0.1,0.6,0.4,0.6,0.8C7,21.9,6.7,22.1,6.3,22z M6.5,20.9l-0.2,0
			l-0.2,0.9l0.2,0c0.3,0.1,0.5-0.1,0.5-0.4C6.9,21.2,6.7,21,6.5,20.9z"/>
		<path fill="#1A171B" d="M7.9,22.3c-0.4,0-0.6-0.3-0.6-0.7c0-0.4,0.3-0.7,0.7-0.6c0.2,0,0.3,0.1,0.4,0.1l-0.1,0.2
			c-0.1-0.1-0.2-0.1-0.3-0.2c-0.3,0-0.4,0.1-0.4,0.4c0,0.3,0.1,0.5,0.3,0.5c0.1,0,0.2,0,0.2,0l0-0.3l-0.3,0l0-0.2l0.5,0.1l-0.1,0.6
			C8.2,22.3,8.1,22.3,7.9,22.3z"/>
		<path fill="#1A171B" d="M8.7,22.4l0-1.3l0.8,0l0,0.2l-0.5,0l0,0.3l0.4,0l0,0.2l-0.4,0l0,0.4l0.5,0l0,0.2L8.7,22.4z"/>
		<path fill="#1A171B" d="M11.2,22.2l0.3,0.1l0,0.2l-0.7-0.2c-0.3-0.1-0.5-0.3-0.5-0.6c0-0.4,0.2-0.7,0.6-0.7c0.4,0,0.6,0.2,0.7,0.6
			C11.5,21.9,11.4,22.1,11.2,22.2z M10.9,21.2c-0.2,0-0.3,0.2-0.3,0.5c0,0.3,0.2,0.5,0.4,0.5c0.2,0,0.3-0.2,0.3-0.5
			C11.2,21.4,11.1,21.2,10.9,21.2z"/>
		<path fill="#1A171B" d="M12.4,22.2c-0.3,0-0.5-0.1-0.6-0.4l-0.1-0.8l0.2,0l0.1,0.8c0,0.2,0.1,0.3,0.3,0.3c0.2,0,0.3-0.2,0.2-0.4
			l-0.1-0.8l0.3,0l0.1,0.8C12.9,21.9,12.8,22.1,12.4,22.2z"/>
		<path fill="#1A171B" d="M13.4,20.6l0.3-0.1l0.8,1.2l-0.2,0.1L14,21.5l-0.5,0.1l0,0.4L13.2,22L13.4,20.6z M13.5,21.4l0.3-0.1
			l-0.3-0.5L13.5,21.4z"/>
		<path fill="#1A171B" d="M14.7,21.7l-0.4-1.3l0.2-0.1l0.3,1l0.4-0.1l0.1,0.2L14.7,21.7z"/>
		<path fill="#1A171B" d="M15.7,21.4l-0.4-1.2l0.2-0.1l0.4,1.2L15.7,21.4z"/>
		<path fill="#1A171B" d="M16.5,19.9l0.4,1l-0.2,0.1l-0.4-1l-0.4,0.1L15.8,20l1-0.4l0.1,0.2L16.5,19.9z"/>
		<path fill="#1A171B" d="M17.9,20l0.2,0.5l-0.2,0.1l-0.2-0.5l-0.8-0.5l0.2-0.2l0.6,0.4l0-0.7l0.2-0.1L17.9,20z"/>
		<path fill="#1A171B" d="M19.7,19.5c-0.4,0.2-0.7,0.1-0.9-0.2c-0.2-0.3-0.2-0.7,0.2-0.9c0.1-0.1,0.3-0.1,0.4-0.1l0.1,0.2
			c-0.1,0-0.2,0-0.4,0.1c-0.2,0.1-0.2,0.4-0.1,0.6c0.1,0.2,0.4,0.3,0.6,0.2c0.1,0,0.1-0.1,0.2-0.2l-0.2-0.2l-0.2,0.1l-0.1-0.2
			l0.4-0.3l0.3,0.5C20,19.3,19.9,19.4,19.7,19.5z"/>
		<path fill="#1A171B" d="M20.9,18.8c-0.3,0.2-0.5,0.2-0.7-0.1L19.7,18l0.2-0.1l0.5,0.6c0.1,0.2,0.3,0.2,0.4,0.1
			c0.2-0.1,0.2-0.3,0-0.4l-0.5-0.6l0.2-0.2L21,18C21.2,18.3,21.1,18.6,20.9,18.8z"/>
		<path fill="#1A171B" d="M21,17l0.2-0.2l1.2,0.6l-0.2,0.2l-0.3-0.2l-0.4,0.3l0.1,0.3l-0.2,0.2L21,17z M21.5,17.6l0.3-0.2l-0.5-0.3
			L21.5,17.6z"/>
		<path fill="#1A171B" d="M23.2,16.7l-0.6-0.1l-0.1,0.1l0.4,0.3l-0.2,0.2l-1-0.9L22,16c0.2-0.2,0.4-0.2,0.6-0.1
			c0.1,0.1,0.2,0.3,0.1,0.4l0.6,0.1L23.2,16.7z M22.1,16.2L22,16.3l0.3,0.3l0.1-0.1c0.1-0.1,0.1-0.2,0-0.3
			C22.3,16,22.2,16.1,22.1,16.2z"/>
		<path fill="#1A171B" d="M22.7,15.2l0.2-0.2l1.3,0.4l-0.1,0.2l-0.4-0.1l-0.3,0.4l0.2,0.3l-0.2,0.2L22.7,15.2z M23.3,15.7l0.2-0.3
			L23,15.2L23.3,15.7z"/>
		<path fill="#1A171B" d="M24.8,14.3l-1.1,0.1l0.8,0.5l-0.1,0.2l-1.1-0.7l0.1-0.2l1-0.1l-0.7-0.4l0.1-0.2l1.1,0.7L24.8,14.3z"/>
		<path fill="#1A171B" d="M24.3,12.8l1,0.4l-0.1,0.2l-1-0.4l-0.1,0.4l-0.2-0.1l0.4-0.9l0.2,0L24.3,12.8z"/>
		<path fill="#1A171B" d="M25.6,12.5l-1.3-0.3l0.2-0.7l0.2,0.1L24.6,12l0.3,0.1l0.1-0.4l0.2,0l-0.1,0.4l0.4,0.1l0.1-0.5l0.2,0.1
			L25.6,12.5z"/>
		<path fill="#1A171B" d="M25.9,11.4l-1.3-0.2l0.1-0.8l0.2,0L24.8,11l0.3,0l0-0.4l0.2,0l0,0.4l0.4,0l0.1-0.5l0.2,0L25.9,11.4z"/>
	</g>
</g>
<g>
	<g>
		<path fill="#1A171B" d="M-0.5,13.5c0,0.5-0.3,0.8-0.8,0.8c-0.5,0-0.8-0.3-0.8-0.8c0-0.2,0-0.3,0.1-0.4l0.4,0.1
			c-0.1,0.1-0.1,0.2-0.1,0.3c0,0.2,0.2,0.4,0.5,0.4c0.3,0,0.5-0.2,0.5-0.4c0-0.1-0.1-0.2-0.1-0.4l0.3-0.1
			C-0.6,13.1-0.5,13.3-0.5,13.5z"/>
		<path fill="#1A171B" d="M-2,12.1l0.1-0.4l1.6-0.2l0,0.4l-0.4,0l-0.1,0.5l0.3,0.2L-0.5,13L-2,12.1z M-1.1,12.3l0.1-0.4L-1.6,12
			L-1.1,12.3z"/>
		<path fill="#1A171B" d="M0.4,10.1l-1-0.4l0.8,0.7l-0.2,0.3L-1,10.5l0.9,0.5l-0.1,0.3l-1.4-0.8l0.2-0.5l1.1,0.2l-0.9-0.7l0.2-0.5
			l1.5,0.6L0.4,10.1z"/>
		<path fill="#1A171B" d="M1,9.1L0.7,9.5l-1.3-0.9l0.3-0.4c0.2-0.3,0.4-0.4,0.7-0.2C0.5,8,0.5,8.2,0.5,8.3c0.1-0.1,0.3-0.1,0.5,0
			C1.3,8.5,1.2,8.8,1,9.1z M-0.1,8.3l-0.1,0.1l0.3,0.2l0.1-0.1c0.1-0.1,0.1-0.2,0-0.3C0.1,8.2,0,8.2-0.1,8.3z M0.4,8.7L0.4,8.8
			L0.7,9l0.1-0.1c0.1-0.1,0.1-0.2,0-0.3C0.7,8.5,0.5,8.5,0.4,8.7z"/>
		<path fill="#1A171B" d="M2.1,7.8L1.5,7.6L1.4,7.7l0.4,0.4L1.5,8.4L0.3,7.3l0.4-0.4C1,6.6,1.3,6.6,1.5,6.8c0.2,0.1,0.2,0.3,0.1,0.5
			l0.7,0.1L2.1,7.8z M0.9,7.1L0.9,7.1l0.3,0.4l0.1-0.1c0.1-0.1,0.1-0.3,0-0.4C1.2,7,1,7,0.9,7.1z"/>
		<path fill="#1A171B" d="M2.6,7.3L1.5,6.1l0.3-0.3L2.8,7L2.6,7.3z"/>
		<path fill="#1A171B" d="M3.5,6.4L3.1,6.8l-1-1.3l0.4-0.3C3,4.8,3.4,4.9,3.7,5.3C4,5.7,4,6.1,3.5,6.4z M2.7,5.4L2.6,5.5l0.6,0.8
			l0.1-0.1C3.6,6,3.6,5.8,3.4,5.5C3.2,5.3,3,5.3,2.7,5.4z"/>
		<path fill="#1A171B" d="M5,5.4C4.6,5.7,4.2,5.6,3.9,5.2C3.7,4.7,3.7,4.3,4.2,4c0.2-0.1,0.3-0.2,0.5-0.2l0.1,0.3
			c-0.1,0-0.3,0-0.4,0.1C4.1,4.4,4.1,4.7,4.3,4.9c0.2,0.3,0.4,0.4,0.6,0.2C4.9,5.1,5,5.1,5,5L4.9,4.8L4.6,4.9L4.4,4.7L5,4.3L5.4,5
			C5.3,5.2,5.2,5.3,5,5.4z"/>
		<path fill="#1A171B" d="M5.8,5L5.1,3.5l0.9-0.5l0.1,0.3L5.6,3.6l0.1,0.3l0.4-0.2L6.3,4L5.8,4.2L6,4.5l0.6-0.3l0.1,0.3L5.8,5z"/>
		<path fill="#1A171B" d="M7.5,4.1L6.9,2.6l0.9-0.4L8,2.6L7.4,2.8l0.1,0.3L8,2.9l0.2,0.3L7.6,3.4l0.1,0.3l0.6-0.2l0.1,0.3L7.5,4.1z"
			/>
		<path fill="#1A171B" d="M9.7,3.4L8.8,2.7l0.3,0.9L8.7,3.7L8.3,2.2L8.6,2l0.8,0.7L9.2,1.9l0.4-0.1L10,3.3L9.7,3.4z"/>
		<path fill="#1A171B" d="M11.1,3.1c-0.5,0.1-0.8-0.2-0.9-0.7c-0.1-0.5,0.1-0.9,0.6-1c0.2,0,0.4,0,0.5,0l0,0.3
			c-0.1-0.1-0.3-0.1-0.4-0.1c-0.3,0.1-0.4,0.3-0.3,0.6c0.1,0.3,0.2,0.5,0.5,0.4c0.1,0,0.1,0,0.2-0.1l-0.1-0.3l-0.3,0.1l-0.1-0.3
			l0.7-0.1l0.1,0.8C11.5,3,11.3,3.1,11.1,3.1z"/>
		<path fill="#1A171B" d="M12,2.9l-0.2-1.6l0.4,0l0.1,1.2l0.5-0.1l0.1,0.3L12,2.9z"/>
		<path fill="#1A171B" d="M13.2,2.8l-0.1-1.6l0.4,0l0.1,1.6L13.2,2.8z"/>
		<path fill="#1A171B" d="M14.4,2.8c-0.2,0-0.4,0-0.6-0.1l0.1-0.3c0.2,0.1,0.3,0.2,0.5,0.2c0.1,0,0.2,0,0.2-0.1c0-0.1,0-0.1-0.3-0.2
			c-0.3-0.1-0.5-0.2-0.5-0.5c0-0.3,0.2-0.5,0.5-0.5c0.2,0,0.3,0,0.5,0.1l-0.1,0.3c-0.1-0.1-0.3-0.1-0.4-0.1c-0.1,0-0.2,0-0.2,0.1
			c0,0.1,0,0.1,0.2,0.2C14.9,1.9,15,2.1,15,2.3C15,2.7,14.8,2.8,14.4,2.8z"/>
		<path fill="#1A171B" d="M16.2,2.9l0.1-0.6l-0.5-0.1l-0.1,0.6l-0.4,0l0.2-1.6l0.4,0l-0.1,0.6l0.5,0.1l0.1-0.6l0.4,0l-0.2,1.6
			L16.2,2.9z"/>
		<path fill="#1A171B" d="M18.2,3.3c-0.5-0.1-0.7-0.5-0.5-1c0.1-0.5,0.5-0.7,1-0.6c0.2,0,0.3,0.1,0.4,0.2l-0.1,0.3
			c-0.1-0.1-0.2-0.2-0.3-0.2C18.3,2,18.1,2.1,18,2.4c-0.1,0.3,0,0.5,0.3,0.6c0.1,0,0.2,0,0.4,0l0,0.3C18.5,3.3,18.4,3.4,18.2,3.3z"
			/>
		<path fill="#1A171B" d="M19.5,3.7c-0.4-0.2-0.6-0.6-0.4-1c0.2-0.5,0.6-0.7,1-0.5c0.4,0.2,0.6,0.6,0.4,1
			C20.3,3.7,19.9,3.9,19.5,3.7z M20,2.5c-0.2-0.1-0.4,0.1-0.5,0.3c-0.1,0.3-0.1,0.5,0.1,0.6c0.2,0.1,0.4-0.1,0.5-0.3
			C20.2,2.8,20.2,2.6,20,2.5z"/>
		<path fill="#1A171B" d="M21.1,4.5l0-0.7L21,3.8l-0.3,0.5l-0.3-0.2l0.8-1.4L21.7,3C22,3.2,22.1,3.5,22,3.8C21.8,3.9,21.7,4,21.5,4
			l0,0.7L21.1,4.5z M21.5,3.2l-0.1-0.1l-0.2,0.4l0.1,0.1c0.1,0.1,0.3,0.1,0.4-0.1C21.7,3.4,21.6,3.3,21.5,3.2z"/>
		<path fill="#1A171B" d="M22.3,4.7L22.3,4.7l-0.4,0.3l-0.3-0.2l1-1.2L23,3.9c0.3,0.2,0.4,0.5,0.2,0.8C22.9,5,22.6,5,22.3,4.7z
			 M22.8,4.1L22.8,4.1l-0.4,0.3l0.1,0.1c0.1,0.1,0.3,0.1,0.4,0C23,4.4,22.9,4.3,22.8,4.1z"/>
		<path fill="#1A171B" d="M23,6.2c-0.3-0.3-0.3-0.6,0.1-0.9l0.7-0.6l0.3,0.3l-0.7,0.6c-0.2,0.1-0.2,0.3-0.1,0.4
			c0.1,0.1,0.3,0.1,0.4,0l0.7-0.6l0.3,0.3l-0.7,0.6C23.6,6.6,23.2,6.5,23,6.2z"/>
		<path fill="#1A171B" d="M23.8,7.3c-0.1-0.2-0.1-0.4-0.2-0.5l0.3-0.1c0,0.2,0,0.4,0.1,0.5c0.1,0.1,0.1,0.1,0.2,0.1
			c0.1,0,0.1-0.1,0.1-0.3c0-0.3,0-0.5,0.2-0.6c0.3-0.1,0.5,0,0.7,0.3c0.1,0.2,0.1,0.3,0.1,0.5L25,7.1C25,7,25,6.8,25,6.7
			c-0.1-0.1-0.1-0.1-0.2-0.1c-0.1,0-0.1,0.1-0.1,0.3c0,0.4,0,0.5-0.2,0.7C24.2,7.7,23.9,7.6,23.8,7.3z"/>
	</g>
</g>
</svg>
