<?xml version="1.0" encoding="utf-8"?> <!-- Generated by Layerhero SVG Exporter: http://www.layerhero.com/photoshop-svg-exporter --><!DOCTYPE svg PUBLIC "-//W3C//DTD SVG 1.1//EN" "http://www.w3.org/Graphics/SVG/1.1/DTD/svg11.dtd"><svg version="1.1" baseProfile="full" xmlns="http://www.w3.org/2000/svg" xmlns:xlink="http://www.w3.org/1999/xlink" xmlns:ev="http://www.w3.org/2001/xml-events" width="36" height="33" viewBox="0 0 36 33"><g transform="scale(NaN)" ><path fill-rule="evenodd"  fill="rgb( 187, 181, 187 )" d="M32.994,27.959 C32.994,27.959 22.625,27.959 22.625,27.959 C22.625,27.959 23.927,31.973 23.927,31.973 C23.939,31.994 23.936,32.021 23.947,32.043 C23.947,32.043 28.289,32.043 28.289,32.043 C28.702,32.043 29.251,31.833 29.251,32.247 C29.251,32.660 28.915,32.996 28.502,32.996 C28.502,32.996 23.278,32.996 23.278,32.996 C23.277,32.996 23.277,32.996 23.276,32.996 C23.271,32.996 23.266,32.996 23.261,32.996 C23.261,32.996 12.779,32.996 12.779,32.996 C12.779,32.996 12.778,32.996 12.777,32.996 C12.777,32.996 7.538,32.996 7.538,32.996 C7.125,32.996 6.789,32.660 6.789,32.247 C6.789,31.833 7.338,32.043 7.752,32.043 C7.752,32.043 12.086,32.043 12.086,32.043 C12.086,32.043 13.415,27.959 13.415,27.959 C13.415,27.959 3.006,27.959 3.006,27.959 C1.354,27.959 0.011,26.615 0.011,24.963 C0.011,24.963 0.011,2.987 0.011,2.987 C0.011,1.335 1.354,-0.008 3.006,-0.008 C3.006,-0.008 32.994,-0.008 32.994,-0.008 C34.646,-0.008 35.989,1.335 35.989,2.987 C35.989,2.987 35.989,24.963 35.989,24.963 C35.989,26.615 34.646,27.959 32.994,27.959 ZM22.000,32.000 C22.000,32.000 21.000,28.000 21.000,28.000 C21.000,28.000 15.000,28.000 15.000,28.000 C15.000,28.000 14.000,32.000 14.000,32.000 C14.000,32.000 22.000,32.000 22.000,32.000 ZM35.000,3.000 C35.000,2.174 33.826,1.000 33.000,1.000 C33.000,1.000 3.000,1.000 3.000,1.000 C2.174,1.000 1.000,2.174 1.000,3.000 C1.000,3.000 1.000,25.000 1.000,25.000 C1.000,25.826 2.174,27.000 3.000,27.000 C3.000,27.000 33.000,27.000 33.000,27.000 C33.826,27.000 35.000,25.826 35.000,25.000 C35.000,25.000 35.000,3.000 35.000,3.000 ZM2.938,2.985 C2.938,2.985 33.004,2.985 33.004,2.985 C33.004,2.985 33.004,21.025 33.004,21.025 C33.004,21.025 2.938,21.025 2.938,21.025 C2.938,21.025 2.938,2.985 2.938,2.985 ZM3.982,19.993 C3.982,19.993 31.978,19.993 31.978,19.993 C31.978,19.993 31.978,4.002 31.978,4.002 C31.978,4.002 3.982,4.002 3.982,4.002 C3.982,4.002 3.982,19.993 3.982,19.993 ZM17.945,22.400 C18.772,22.400 19.442,23.070 19.442,23.898 C19.442,24.725 18.772,25.395 17.945,25.395 C17.118,25.395 16.447,24.725 16.447,23.898 C16.447,23.070 17.118,22.400 17.945,22.400 Z"/><path fill-rule="evenodd"  fill="rgb( 187, 181, 187 )" d="M13.673,12.316 C13.686,13.828 14.973,14.330 14.988,14.337 C14.976,14.372 14.781,15.054 14.309,15.759 C13.901,16.368 13.478,16.973 12.810,16.986 C12.154,16.999 11.944,16.589 11.193,16.589 C10.444,16.589 10.209,16.973 9.589,16.999 C8.945,17.024 8.455,16.341 8.043,15.735 C7.201,14.494 6.559,12.228 7.422,10.699 C7.850,9.939 8.617,9.459 9.449,9.446 C10.081,9.435 10.678,9.881 11.064,9.881 C11.451,9.881 12.177,9.344 12.940,9.423 C13.259,9.436 14.155,9.554 14.731,10.413 C14.685,10.443 13.661,11.050 13.673,12.316 ZM10.987,9.309 C10.913,8.735 11.190,8.138 11.507,7.763 C11.861,7.340 12.457,7.026 12.950,7.006 C13.013,7.591 12.781,8.179 12.440,8.602 C12.098,9.024 11.537,9.353 10.987,9.309 Z"/><path fill-rule="evenodd"  fill="rgb( 187, 181, 187 )" d="M22.932,15.859 C22.367,15.474 21.768,15.132 20.905,15.132 C20.381,15.132 19.758,15.260 18.987,15.578 C18.987,15.578 20.008,11.955 20.008,11.955 C20.124,11.906 20.237,11.862 20.347,11.822 C20.720,11.687 21.250,11.535 21.831,11.486 C21.898,11.480 21.963,11.478 22.029,11.478 C22.609,11.478 23.139,11.685 23.519,11.885 C23.682,11.975 23.835,12.072 23.988,12.169 C23.853,12.643 23.141,15.132 22.932,15.859 M22.932,15.859 C22.367,15.474 21.768,15.132 20.905,15.132 C20.381,15.132 19.758,15.260 18.987,15.578 C18.987,15.578 20.008,11.955 20.008,11.955 C20.124,11.906 20.237,11.862 20.347,11.822 C20.720,11.687 21.250,11.535 21.831,11.486 C21.898,11.480 21.963,11.478 22.029,11.478 C22.609,11.478 23.139,11.685 23.519,11.885 C23.682,11.975 23.835,12.072 23.988,12.169 C23.853,12.643 23.141,15.132 22.932,15.859 M25.664,16.995 C24.770,16.995 23.579,16.244 23.581,16.245 C23.581,16.245 24.598,12.627 24.598,12.627 C24.908,12.880 25.625,13.362 26.804,13.362 C27.346,13.362 27.987,13.259 28.731,12.986 C28.731,12.986 27.751,16.496 27.751,16.496 C26.905,16.854 26.229,16.995 25.664,16.995 M25.664,16.995 C24.770,16.995 23.579,16.244 23.581,16.245 C23.581,16.245 24.598,12.627 24.598,12.627 C24.908,12.880 25.625,13.362 26.804,13.362 C27.346,13.362 27.987,13.259 28.731,12.986 C28.731,12.986 27.751,16.496 27.751,16.496 C26.905,16.854 26.229,16.995 25.664,16.995 M25.218,7.682 C25.218,7.682 25.218,7.684 25.218,7.684 C25.008,8.419 24.388,10.597 24.179,11.322 M24.179,11.322 C23.633,10.952 23.047,10.613 22.220,10.605 C22.211,10.605 22.202,10.605 22.192,10.605 C21.659,10.605 21.024,10.749 20.241,11.076 C20.241,11.076 21.246,7.462 21.246,7.462 C22.008,7.143 22.628,7.015 23.145,7.005 C23.149,7.005 23.153,7.005 23.157,7.005 C23.461,7.005 23.735,7.042 23.978,7.101 C24.487,7.234 25.218,7.682 25.218,7.682 M25.218,7.682 C25.218,7.682 25.218,7.684 25.218,7.684 C25.008,8.419 24.388,10.597 24.179,11.322 M24.179,11.322 C23.633,10.952 23.047,10.613 22.220,10.605 C22.211,10.605 22.202,10.605 22.192,10.605 C21.659,10.605 21.024,10.749 20.241,11.076 C20.241,11.076 21.246,7.462 21.246,7.462 C22.008,7.143 22.628,7.015 23.145,7.005 C23.149,7.005 23.153,7.005 23.157,7.005 C23.461,7.005 23.735,7.042 23.978,7.101 C24.487,7.234 25.218,7.682 25.218,7.682 M27.035,12.515 C26.146,12.515 25.408,12.201 24.841,11.812 C24.838,11.810 24.833,11.808 24.830,11.804 C24.830,11.804 25.861,8.151 25.861,8.151 C26.187,8.411 26.924,8.898 28.042,8.898 C28.604,8.898 29.262,8.774 30.013,8.439 C30.013,8.439 28.996,12.026 28.996,12.026 C28.993,12.027 28.991,12.028 28.990,12.028 C28.990,12.029 28.990,12.031 28.990,12.033 C28.276,12.378 27.622,12.515 27.035,12.515 M27.035,12.515 C26.146,12.515 25.408,12.201 24.841,11.812 C24.838,11.810 24.833,11.808 24.830,11.804 C24.830,11.804 25.861,8.151 25.861,8.151 C26.187,8.411 26.924,8.898 28.042,8.898 C28.604,8.898 29.262,8.774 30.013,8.439 C30.013,8.439 28.996,12.026 28.996,12.026 C28.993,12.027 28.991,12.028 28.990,12.028 C28.990,12.029 28.990,12.031 28.990,12.033 C28.276,12.378 27.622,12.515 27.035,12.515 "/></g></svg>