<?xml version="1.0" encoding="utf-8"?> <!-- Generated by Layerhero SVG Exporter: http://www.layerhero.com/photoshop-svg-exporter --><!DOCTYPE svg PUBLIC "-//W3C//DTD SVG 1.1//EN" "http://www.w3.org/Graphics/SVG/1.1/DTD/svg11.dtd"><svg version="1.1" baseProfile="full" xmlns="http://www.w3.org/2000/svg" xmlns:xlink="http://www.w3.org/1999/xlink" xmlns:ev="http://www.w3.org/2001/xml-events" width="139" height="44" viewBox="0 0 139 44"><g transform="scale(NaN)" ><path fill-rule="evenodd"  fill="rgb( 187, 181, 187 )" d="M133.269,44.000 C133.269,44.000 5.731,44.000 5.731,44.000 C2.571,44.000 0.000,41.433 0.000,38.277 C0.000,38.277 0.000,5.727 0.000,5.727 C0.000,2.569 2.571,0.000 5.731,0.000 C5.731,0.000 133.268,0.000 133.268,0.000 C136.428,0.000 138.999,2.569 138.999,5.727 C138.999,5.727 138.999,38.277 138.999,38.277 C139.000,39.804 138.402,41.241 137.317,42.323 C136.233,43.404 134.796,44.000 133.269,44.000 ZM5.731,2.000 C3.674,2.000 2.000,3.672 2.000,5.727 C2.000,5.727 2.000,38.277 2.000,38.277 C2.000,40.330 3.674,42.000 5.731,42.000 C5.731,42.000 133.269,42.000 133.269,42.000 C134.263,42.000 135.199,41.612 135.905,40.907 C136.610,40.203 136.999,39.269 136.999,38.277 C136.999,38.277 136.999,5.727 136.999,5.727 C136.999,3.672 135.325,2.000 133.268,2.000 C133.268,2.000 5.731,2.000 5.731,2.000 Z"/><path fill-rule="evenodd"  fill="rgb( 187, 181, 187 )" d="M124.936,28.869 C124.936,28.869 118.502,28.869 118.502,28.869 C118.526,29.812 118.838,30.533 119.436,31.031 C119.978,31.474 120.679,31.697 121.540,31.697 C122.493,31.697 123.361,31.548 124.143,31.246 C124.143,31.246 124.479,32.717 124.479,32.717 C123.566,33.110 122.487,33.307 121.243,33.307 C119.746,33.307 118.571,32.872 117.716,32.003 C116.864,31.133 116.435,29.963 116.435,28.498 C116.435,27.061 116.832,25.863 117.628,24.907 C118.461,23.887 119.587,23.377 121.004,23.377 C122.395,23.377 123.448,23.887 124.163,24.907 C124.730,25.715 125.015,26.717 125.015,27.908 C125.015,28.288 124.989,28.608 124.936,28.869 ZM122.553,25.729 C122.181,25.138 121.611,24.843 120.844,24.843 C120.143,24.843 119.572,25.131 119.137,25.708 C118.780,26.166 118.568,26.717 118.502,27.356 C118.502,27.356 122.969,27.358 122.969,27.358 C122.984,26.729 122.843,26.187 122.553,25.729 ZM116.200,13.068 C116.219,13.956 116.813,14.457 117.692,14.457 C118.162,14.457 118.591,14.379 118.970,14.235 C118.970,14.235 119.135,14.959 119.135,14.959 C118.687,15.152 118.159,15.248 117.544,15.248 C116.059,15.248 115.181,14.322 115.181,12.885 C115.181,11.448 116.080,10.366 117.426,10.366 C118.636,10.366 119.398,11.254 119.398,12.596 C119.402,12.779 119.392,12.943 119.363,13.068 C119.363,13.068 116.200,13.068 116.200,13.068 ZM117.352,11.090 C116.746,11.090 116.268,11.611 116.200,12.325 C116.200,12.325 118.396,12.325 118.396,12.325 C118.396,11.601 118.026,11.090 117.352,11.090 ZM115.423,25.453 C115.210,25.414 114.983,25.395 114.747,25.395 C113.992,25.395 113.409,25.675 112.998,26.240 C112.642,26.737 112.463,27.365 112.463,28.123 C112.463,28.123 112.463,33.130 112.463,33.130 C112.463,33.130 110.318,33.130 110.318,33.130 C110.318,33.130 110.318,26.593 110.318,26.593 C110.318,25.495 110.298,24.492 110.256,23.590 C110.256,23.590 112.124,23.590 112.124,23.590 C112.124,23.590 112.202,25.415 112.202,25.415 C112.202,25.415 112.262,25.415 112.262,25.415 C112.489,24.788 112.846,24.282 113.334,23.903 C113.813,23.562 114.328,23.392 114.884,23.392 C115.083,23.392 115.262,23.406 115.421,23.431 C115.421,23.431 115.423,25.453 115.423,25.453 ZM112.921,12.489 C112.921,11.650 112.598,11.226 111.964,11.226 C111.417,11.226 110.911,11.592 110.911,12.335 C110.911,12.335 110.911,15.162 110.911,15.162 C110.911,15.162 109.856,15.162 109.856,15.162 C109.856,15.162 109.856,8.321 109.856,8.321 C109.856,8.321 110.911,8.321 110.911,8.321 C110.911,8.321 110.911,11.138 110.911,11.138 C110.911,11.138 110.931,11.138 110.931,11.138 C111.262,10.627 111.742,10.375 112.357,10.375 C113.362,10.375 113.976,11.147 113.976,12.373 C113.976,12.373 113.976,15.162 113.976,15.162 C113.976,15.162 112.921,15.162 112.921,15.162 C112.921,15.162 112.921,12.489 112.921,12.489 ZM103.642,33.345 C102.223,33.345 101.096,32.881 100.255,31.953 C99.414,31.024 98.993,29.853 98.993,28.440 C98.993,26.961 99.429,25.750 100.294,24.808 C101.161,23.867 102.330,23.395 103.800,23.395 C105.217,23.395 106.354,23.861 107.216,24.789 C108.039,25.690 108.449,26.853 108.449,28.281 C108.449,29.747 108.024,30.951 107.177,31.893 C106.290,32.862 105.112,33.345 103.642,33.345 ZM105.651,26.078 C105.201,25.321 104.557,24.942 103.724,24.942 C102.865,24.942 102.205,25.321 101.757,26.078 C101.372,26.706 101.181,27.469 101.181,28.369 C101.181,29.244 101.372,29.996 101.757,30.621 C102.220,31.379 102.867,31.758 103.706,31.758 C104.525,31.758 105.168,31.370 105.633,30.602 C106.027,29.961 106.225,29.205 106.225,28.329 C106.225,27.455 106.034,26.706 105.651,26.078 ZM107.233,13.531 C107.233,14.111 107.437,14.400 107.847,14.400 C108.032,14.400 108.189,14.380 108.315,14.352 C108.315,14.352 108.345,15.143 108.345,15.143 C108.139,15.221 107.865,15.260 107.525,15.260 C106.694,15.260 106.199,14.806 106.199,13.619 C106.199,13.619 106.199,11.254 106.199,11.254 C106.199,11.254 105.507,11.254 105.507,11.254 C105.507,11.254 105.507,10.473 105.507,10.473 C105.507,10.473 106.199,10.473 106.199,10.473 C106.199,10.473 106.199,9.614 106.199,9.614 C106.199,9.614 107.233,9.305 107.233,9.305 C107.233,9.305 107.233,10.472 107.233,10.472 C107.233,10.472 108.393,10.472 108.393,10.472 C108.393,10.472 108.393,11.254 108.393,11.254 C108.393,11.254 107.233,11.254 107.233,11.254 C107.233,11.254 107.233,13.531 107.233,13.531 ZM100.442,12.469 C100.442,11.640 100.120,11.225 99.486,11.225 C98.861,11.225 98.431,11.755 98.431,12.373 C98.431,12.373 98.431,15.162 98.431,15.162 C98.431,15.162 97.377,15.162 97.377,15.162 C97.377,15.162 97.377,11.813 97.377,11.813 C97.377,11.398 97.366,10.954 97.338,10.472 C97.338,10.472 98.265,10.472 98.265,10.472 C98.265,10.472 98.315,11.195 98.315,11.195 C98.315,11.195 98.344,11.195 98.344,11.195 C98.625,10.694 99.203,10.375 99.847,10.375 C100.841,10.375 101.495,11.128 101.495,12.353 C101.495,12.353 101.495,15.162 101.495,15.162 C101.495,15.162 100.442,15.162 100.442,15.162 C100.442,15.162 100.442,12.469 100.442,12.469 ZM93.464,15.268 C92.077,15.268 91.179,14.245 91.179,12.856 C91.179,11.409 92.096,10.376 93.543,10.376 C94.908,10.376 95.827,11.351 95.827,12.780 C95.827,14.245 94.880,15.268 93.464,15.268 ZM93.504,11.138 C92.743,11.138 92.254,11.842 92.254,12.826 C92.254,13.792 92.752,14.496 93.494,14.496 C94.236,14.496 94.733,13.743 94.733,12.806 C94.733,11.852 94.246,11.138 93.504,11.138 ZM87.335,25.514 C88.487,25.974 89.334,26.509 89.876,27.123 C90.422,27.738 90.694,28.504 90.694,29.419 C90.694,30.545 90.296,31.461 89.505,32.168 C88.633,32.940 87.417,33.326 85.858,33.326 C84.417,33.326 83.263,33.051 82.391,32.502 C82.391,32.502 82.887,30.734 82.887,30.734 C83.827,31.285 84.861,31.560 85.986,31.560 C86.794,31.560 87.423,31.379 87.872,31.020 C88.322,30.660 88.549,30.179 88.549,29.578 C88.549,29.040 88.361,28.589 87.992,28.222 C87.620,27.857 87.006,27.516 86.145,27.203 C83.801,26.339 82.628,25.074 82.628,23.412 C82.628,22.327 83.043,21.438 83.869,20.743 C84.696,20.049 85.792,19.702 87.157,19.702 C88.375,19.702 89.390,19.912 90.195,20.330 C90.195,20.330 89.657,22.059 89.657,22.059 C88.899,21.653 88.043,21.450 87.085,21.450 C86.329,21.450 85.734,21.634 85.310,22.000 C84.953,22.327 84.771,22.726 84.771,23.198 C84.771,23.721 84.978,24.154 85.388,24.494 C85.745,24.807 86.394,25.148 87.335,25.514 ZM83.909,13.068 C83.931,13.956 84.524,14.457 85.402,14.457 C85.872,14.457 86.301,14.379 86.681,14.235 C86.681,14.235 86.845,14.959 86.845,14.959 C86.396,15.152 85.870,15.248 85.255,15.248 C83.770,15.248 82.892,14.322 82.892,12.885 C82.892,11.448 83.791,10.366 85.137,10.366 C86.346,10.366 87.110,11.254 87.110,12.596 C87.114,12.779 87.104,12.943 87.074,13.068 C87.074,13.068 83.909,13.068 83.909,13.068 ZM85.062,11.090 C84.456,11.090 83.980,11.611 83.909,12.325 C83.909,12.325 86.108,12.325 86.108,12.325 C86.108,11.601 85.736,11.090 85.062,11.090 ZM80.282,8.321 C80.282,8.321 81.335,8.321 81.335,8.321 C81.335,8.321 81.335,15.162 81.335,15.162 C81.335,15.162 80.282,15.162 80.282,15.162 C80.282,15.162 80.282,8.321 80.282,8.321 ZM76.623,15.268 C75.950,15.268 75.453,14.988 75.131,14.438 C75.131,14.438 75.110,14.438 75.110,14.438 C75.110,14.438 75.050,15.162 75.050,15.162 C75.050,15.162 74.152,15.162 74.152,15.162 C74.181,14.786 74.190,14.361 74.190,13.898 C74.190,13.898 74.190,8.321 74.190,8.321 C74.190,8.321 75.246,8.321 75.246,8.321 C75.246,8.321 75.246,11.159 75.246,11.159 C75.246,11.159 75.266,11.159 75.266,11.159 C75.578,10.638 76.085,10.377 76.779,10.377 C77.921,10.377 78.722,11.343 78.722,12.751 C78.722,14.207 77.833,15.268 76.623,15.268 ZM76.409,11.195 C75.802,11.195 75.246,11.717 75.246,12.440 C75.246,12.440 75.246,13.261 75.246,13.261 C75.246,13.907 75.745,14.438 76.390,14.438 C77.180,14.438 77.650,13.802 77.650,12.788 C77.649,11.843 77.160,11.195 76.409,11.195 ZM77.140,24.726 C77.899,25.618 78.281,26.789 78.281,28.242 C78.281,29.864 77.835,31.147 76.943,32.089 C76.143,32.927 75.151,33.345 73.966,33.345 C72.688,33.345 71.769,32.895 71.210,31.992 C71.210,31.992 71.210,36.998 71.210,36.998 C71.210,36.998 69.065,36.998 69.065,36.998 C69.065,36.998 69.065,26.725 69.065,26.725 C69.065,25.706 69.038,24.661 68.986,23.589 C68.986,23.589 70.872,23.589 70.872,23.589 C70.872,23.589 70.992,25.102 70.992,25.102 C70.992,25.102 71.032,25.102 71.032,25.102 C71.746,23.962 72.832,23.392 74.290,23.392 C75.427,23.392 76.378,23.836 77.140,24.726 ZM73.593,25.080 C73.064,25.080 72.583,25.255 72.152,25.601 C71.722,25.948 71.441,26.403 71.309,26.966 C71.243,27.228 71.208,27.442 71.208,27.611 C71.208,27.611 71.208,29.203 71.208,29.203 C71.208,29.895 71.424,30.481 71.853,30.961 C72.284,31.436 72.842,31.677 73.533,31.677 C74.342,31.677 74.970,31.368 75.419,30.755 C75.869,30.139 76.095,29.327 76.095,28.320 C76.095,27.391 75.883,26.625 75.459,26.022 C74.995,25.395 74.374,25.080 73.593,25.080 ZM71.394,14.622 C71.394,14.622 71.365,14.622 71.365,14.622 C71.043,15.057 70.574,15.268 69.978,15.268 C69.130,15.268 68.524,14.680 68.524,13.888 C68.524,12.731 69.539,12.132 71.296,12.132 C71.296,12.132 71.296,12.046 71.296,12.046 C71.296,11.428 70.964,11.119 70.311,11.119 C69.842,11.119 69.431,11.235 69.071,11.467 C69.071,11.467 68.856,10.781 68.856,10.781 C69.296,10.511 69.842,10.375 70.487,10.375 C71.726,10.375 72.352,11.022 72.352,12.315 C72.352,12.315 72.352,14.042 72.352,14.042 C72.352,14.516 72.373,14.882 72.419,15.162 C72.419,15.162 71.472,15.162 71.472,15.162 C71.472,15.162 71.394,14.622 71.394,14.622 ZM71.326,12.826 C70.154,12.826 69.568,13.107 69.568,13.772 C69.568,14.264 69.871,14.505 70.290,14.505 C70.828,14.505 71.326,14.100 71.326,13.550 C71.326,13.550 71.326,12.826 71.326,12.826 ZM62.865,33.345 C61.586,33.345 60.666,32.895 60.108,31.992 C60.108,31.992 60.108,36.998 60.108,36.998 C60.108,36.998 57.963,36.998 57.963,36.998 C57.963,36.998 57.963,26.725 57.963,26.725 C57.963,25.706 57.936,24.661 57.884,23.589 C57.884,23.589 59.770,23.589 59.770,23.589 C59.770,23.589 59.890,25.102 59.890,25.102 C59.890,25.102 59.930,25.102 59.930,25.102 C60.645,23.962 61.731,23.392 63.187,23.392 C64.326,23.392 65.277,23.836 66.037,24.726 C66.797,25.618 67.178,26.789 67.178,28.242 C67.178,29.864 66.733,31.147 65.840,32.089 C65.042,32.927 64.048,33.345 62.865,33.345 ZM64.357,26.022 C63.894,25.395 63.271,25.080 62.490,25.080 C61.961,25.080 61.480,25.255 61.051,25.601 C60.620,25.948 60.338,26.403 60.207,26.966 C60.140,27.228 60.107,27.442 60.107,27.611 C60.107,27.611 60.107,29.203 60.107,29.203 C60.107,29.895 60.323,30.481 60.753,30.961 C61.184,31.437 61.743,31.677 62.431,31.677 C63.239,31.677 63.868,31.368 64.317,30.755 C64.768,30.139 64.993,29.327 64.993,28.320 C64.993,27.391 64.782,26.625 64.357,26.022 ZM65.938,8.321 C65.938,8.321 66.992,8.321 66.992,8.321 C66.992,8.321 66.992,15.162 66.992,15.162 C66.992,15.162 65.938,15.162 65.938,15.162 C65.938,15.162 65.938,8.321 65.938,8.321 ZM64.065,15.162 C64.065,15.162 63.010,15.162 63.010,15.162 C63.010,15.162 63.010,10.473 63.010,10.473 C63.010,10.473 64.065,10.473 64.065,10.473 C64.065,10.473 64.065,15.162 64.065,15.162 ZM63.517,9.700 C63.166,9.700 62.893,9.430 62.893,9.073 C62.893,8.716 63.175,8.455 63.537,8.455 C63.898,8.455 64.191,8.716 64.181,9.073 C64.181,9.450 63.909,9.700 63.517,9.700 ZM60.211,14.622 C60.211,14.622 60.182,14.622 60.182,14.622 C59.860,15.057 59.391,15.268 58.796,15.268 C57.946,15.268 57.341,14.680 57.341,13.888 C57.341,12.731 58.356,12.132 60.113,12.132 C60.113,12.132 60.113,12.046 60.113,12.046 C60.113,11.428 59.781,11.119 59.128,11.119 C58.658,11.119 58.248,11.235 57.888,11.467 C57.888,11.467 57.674,10.782 57.674,10.782 C58.113,10.512 58.659,10.376 59.304,10.376 C60.544,10.376 61.169,11.023 61.169,12.316 C61.169,12.316 61.169,14.043 61.169,14.043 C61.169,14.517 61.190,14.883 61.238,15.163 C61.238,15.163 60.289,15.162 60.289,15.162 C60.289,15.162 60.211,14.622 60.211,14.622 ZM60.142,12.826 C58.970,12.826 58.385,13.107 58.385,13.772 C58.385,14.264 58.688,14.505 59.107,14.505 C59.644,14.505 60.142,14.100 60.142,13.550 C60.142,13.550 60.142,12.826 60.142,12.826 ZM53.643,15.162 C53.643,15.162 51.905,10.473 51.905,10.473 C51.905,10.473 53.037,10.473 53.037,10.473 C53.037,10.473 53.848,12.953 53.848,12.953 C53.985,13.367 54.102,13.763 54.189,14.139 C54.189,14.139 54.218,14.139 54.218,14.139 C54.297,13.802 54.414,13.406 54.559,12.953 C54.559,12.953 55.360,10.473 55.360,10.473 C55.360,10.473 56.465,10.473 56.465,10.473 C56.465,10.473 54.668,15.162 54.668,15.162 C54.668,15.162 53.643,15.162 53.643,15.162 ZM53.830,33.130 C53.830,33.130 52.579,29.243 52.579,29.243 C52.579,29.243 48.229,29.243 48.229,29.243 C48.229,29.243 47.037,33.130 47.037,33.130 C47.037,33.130 44.813,33.130 44.813,33.130 C44.813,33.130 49.123,19.898 49.123,19.898 C49.123,19.898 51.785,19.898 51.785,19.898 C51.785,19.898 56.115,33.130 56.115,33.130 C56.115,33.130 53.830,33.130 53.830,33.130 ZM51.070,24.158 C50.950,23.804 50.725,22.973 50.395,21.665 C50.395,21.665 50.355,21.665 50.355,21.665 C50.222,22.228 50.010,23.059 49.719,24.158 C49.719,24.158 48.606,27.613 48.606,27.613 C48.606,27.613 52.201,27.613 52.201,27.613 C52.201,27.613 51.070,24.158 51.070,24.158 ZM49.429,13.252 C49.429,13.252 47.291,13.252 47.291,13.252 C47.291,13.252 46.705,15.162 46.705,15.162 C46.705,15.162 45.612,15.162 45.612,15.162 C45.612,15.162 47.730,8.658 47.730,8.658 C47.730,8.658 49.038,8.658 49.038,8.658 C49.038,8.658 51.167,15.162 51.167,15.162 C51.167,15.162 50.044,15.162 50.044,15.162 C50.044,15.162 49.429,13.252 49.429,13.252 ZM48.688,10.752 C48.629,10.578 48.522,10.174 48.356,9.527 C48.356,9.527 48.336,9.527 48.336,9.527 C48.267,9.807 48.170,10.212 48.023,10.752 C48.023,10.752 47.477,12.451 47.477,12.451 C47.477,12.451 49.244,12.451 49.244,12.451 C49.244,12.451 48.688,10.752 48.688,10.752 ZM34.088,30.203 C33.034,31.762 31.929,33.286 30.175,33.312 C28.471,33.351 27.898,32.322 25.943,32.322 C23.970,32.322 23.360,33.286 21.725,33.351 C20.054,33.412 18.777,31.689 17.685,30.144 C15.501,26.991 13.801,21.259 16.081,17.358 C17.185,15.445 19.199,14.213 21.352,14.180 C23.025,14.147 24.577,15.297 25.605,15.297 C26.613,15.297 28.532,13.921 30.511,14.127 C31.339,14.151 33.695,14.450 35.215,16.640 C35.092,16.713 32.408,18.272 32.437,21.477 C32.472,25.317 35.837,26.587 35.878,26.601 C35.858,26.690 35.351,28.435 34.088,30.203 ZM25.404,13.836 C25.217,12.392 25.941,10.857 26.752,9.920 C27.668,8.857 29.260,8.043 30.532,7.987 C30.699,9.488 30.097,10.966 29.219,12.053 C28.301,13.122 26.833,13.941 25.404,13.836 ZM93.333,21.838 C93.333,21.838 95.439,21.209 95.439,21.209 C95.439,21.209 95.439,23.585 95.439,23.585 C95.439,23.585 97.804,23.585 97.804,23.585 C97.804,23.585 97.804,25.179 97.804,25.179 C97.804,25.179 95.439,25.179 95.439,25.179 C95.439,25.179 95.439,29.812 95.439,29.812 C95.439,30.990 95.856,31.578 96.691,31.578 C97.074,31.578 97.392,31.546 97.644,31.479 C97.644,31.479 97.703,33.089 97.703,33.089 C97.280,33.245 96.724,33.324 96.035,33.324 C95.188,33.324 94.527,33.068 94.048,32.557 C93.572,32.046 93.333,31.190 93.333,29.985 C93.333,29.985 93.333,25.175 93.333,25.175 C93.333,25.175 91.925,25.175 91.925,25.175 C91.925,25.175 91.925,23.585 91.925,23.585 C91.925,23.585 93.333,23.585 93.333,23.585 C93.333,23.585 93.333,21.838 93.333,21.838 Z"/></g></svg>