<?xml version="1.0" encoding="utf-8"?> <!-- Generated by Layerhero SVG Exporter: http://www.layerhero.com/photoshop-svg-exporter --><!DOCTYPE svg PUBLIC "-//W3C//DTD SVG 1.1//EN" "http://www.w3.org/Graphics/SVG/1.1/DTD/svg11.dtd"><svg version="1.1" baseProfile="full" xmlns="http://www.w3.org/2000/svg" xmlns:xlink="http://www.w3.org/1999/xlink" xmlns:ev="http://www.w3.org/2001/xml-events" width="48" height="32" viewBox="0 0 48 32"><g transform="scale(NaN)" ><path fill-rule="evenodd"  fill="rgb( 187, 181, 187 )" d="M32.000,28.000 C32.000,28.000 32.000,32.000 32.000,32.000 C32.000,32.000 17.000,32.000 17.000,32.000 C17.000,32.000 17.000,28.000 17.000,28.000 C17.000,28.000 19.015,28.000 19.015,28.000 C19.015,28.000 19.000,29.000 19.000,29.000 C19.000,29.000 30.000,29.000 30.000,29.000 C30.000,29.000 30.024,28.000 30.024,28.000 C30.024,28.000 32.000,28.000 32.000,28.000 Z"/><path fill-rule="evenodd"  fill="rgb( 187, 181, 187 )" d="M43.994,31.000 C43.994,31.000 4.008,31.000 4.008,31.000 C1.799,31.000 0.002,29.206 0.002,27.000 C0.002,27.000 0.002,4.202 0.002,4.202 C0.002,4.202 0.002,4.000 0.002,4.000 C0.002,1.794 1.799,0.000 4.008,0.000 C4.008,0.000 43.994,0.000 43.994,0.000 C46.203,0.000 47.999,1.794 47.999,4.000 C47.999,4.000 47.999,27.000 47.999,27.000 C47.999,29.206 46.203,31.000 43.994,31.000 ZM46.999,5.000 C46.999,2.794 45.203,1.000 42.994,1.000 C42.994,1.000 5.008,1.000 5.008,1.000 C2.799,1.000 1.002,1.794 1.002,4.000 C1.002,4.010 1.002,4.016 1.002,4.025 C1.002,4.020 1.002,4.089 1.002,4.285 C1.002,4.435 1.002,4.657 1.002,5.000 C1.002,5.000 1.002,26.000 1.002,26.000 C1.002,28.206 2.799,30.000 5.008,30.000 C5.008,30.000 42.994,30.000 42.994,30.000 C45.203,30.000 46.999,28.206 46.999,26.000 C46.999,26.000 46.999,5.000 46.999,5.000 Z"/></g></svg>