<?xml version="1.0" encoding="utf-8"?> <!-- Generated by Layerhero SVG Exporter: http://www.layerhero.com/photoshop-svg-exporter --><!DOCTYPE svg PUBLIC "-//W3C//DTD SVG 1.1//EN" "http://www.w3.org/Graphics/SVG/1.1/DTD/svg11.dtd"><svg version="1.1" baseProfile="full" xmlns="http://www.w3.org/2000/svg" xmlns:xlink="http://www.w3.org/1999/xlink" xmlns:ev="http://www.w3.org/2001/xml-events" width="148" height="70" viewBox="0 0 148 70"><g transform="scale(NaN)" ><path fill-rule="evenodd"  fill="rgb( 232, 235, 112 )" d="M84.116,69.331 C84.116,69.331 84.116,66.968 84.116,66.968 C84.116,66.968 80.641,66.968 80.641,66.968 C80.641,66.968 80.641,69.331 80.641,69.331 C80.641,69.331 0.967,69.331 0.967,69.331 C0.967,69.331 0.967,2.143 0.967,2.143 C0.967,2.143 80.641,2.143 80.641,2.143 C80.641,2.143 80.641,5.424 80.641,5.424 C80.641,5.424 84.116,5.424 84.116,5.424 C84.116,5.424 84.116,2.143 84.116,2.143 C84.116,2.143 113.213,2.143 113.213,2.143 C108.981,7.129 107.098,13.979 110.481,20.397 C110.481,20.397 107.164,25.258 107.164,25.258 C107.164,25.258 84.116,28.816 84.116,28.816 C84.116,28.816 84.116,25.937 84.116,25.937 C84.116,25.937 80.641,25.937 80.641,25.937 C80.641,25.937 80.641,29.319 80.641,29.319 C80.425,29.345 80.211,29.377 79.996,29.402 C77.056,29.747 73.722,30.136 71.812,32.668 C71.075,33.648 70.284,35.348 70.708,37.890 C70.708,37.890 71.094,40.211 71.094,40.211 C71.094,40.211 73.397,40.710 73.397,40.710 C75.371,41.137 77.904,40.973 80.209,40.736 C80.356,40.721 80.496,40.710 80.641,40.695 C80.641,40.695 80.641,46.453 80.641,46.453 C80.641,46.453 84.116,46.453 84.116,46.453 C84.116,46.453 84.116,40.472 84.116,40.472 C84.116,40.472 98.009,39.113 98.009,39.113 C97.157,40.371 96.269,41.631 95.363,42.922 C93.957,44.920 92.504,46.987 91.116,49.150 C91.116,49.150 88.327,53.661 88.327,53.661 C88.327,53.661 88.050,54.075 88.050,54.075 C86.872,55.838 85.534,57.835 84.914,60.371 C84.914,60.371 84.429,62.350 84.429,62.350 C84.429,62.350 85.928,63.736 85.928,63.736 C87.541,65.228 89.160,65.542 90.233,65.542 C93.866,65.542 96.132,62.303 97.630,60.160 C97.926,59.737 98.175,59.355 98.399,59.110 C98.399,59.110 114.364,37.320 114.364,37.320 C114.364,37.320 116.147,37.095 116.147,37.095 C116.147,37.095 116.147,69.331 116.147,69.331 C116.147,69.331 84.116,69.331 84.116,69.331 ZM80.641,19.099 C80.641,19.099 84.116,19.099 84.116,19.099 C84.116,19.099 84.116,12.262 84.116,12.262 C84.116,12.262 80.641,12.262 80.641,12.262 C80.641,12.262 80.641,19.099 80.641,19.099 ZM47.397,43.381 C47.397,36.690 42.293,34.034 34.090,32.237 C33.926,32.212 33.804,32.175 33.649,32.139 C33.649,32.139 33.649,26.560 33.649,26.560 C36.220,26.974 38.943,28.106 41.482,29.891 C41.482,29.891 46.428,22.892 46.428,22.892 C42.964,20.111 38.809,18.518 33.649,18.202 C33.649,18.202 33.649,13.304 33.649,13.304 C33.649,13.304 31.157,13.304 31.157,13.304 C31.157,13.304 31.157,18.157 31.157,18.157 C22.947,18.383 17.926,23.095 17.926,29.588 C17.926,29.588 17.926,29.692 17.926,29.692 C17.926,36.970 23.676,39.146 31.157,40.875 C31.157,40.875 31.157,46.757 31.157,46.757 C27.819,46.329 24.643,44.933 21.760,42.613 C21.760,42.613 16.247,49.210 16.247,49.210 C20.214,52.767 25.516,54.722 31.157,55.068 C31.157,55.068 31.157,59.297 31.157,59.297 C31.157,59.297 33.651,59.297 33.651,59.297 C33.651,59.297 33.651,55.115 33.651,55.115 C41.936,54.884 47.397,50.599 47.397,43.490 C47.397,43.490 47.397,43.381 47.397,43.381 ZM84.116,53.290 C84.116,53.290 80.641,53.290 80.641,53.290 C80.641,53.290 80.641,60.128 80.641,60.128 C80.641,60.128 84.116,60.128 84.116,60.128 C84.116,60.128 84.116,53.290 84.116,53.290 ZM33.649,46.889 C33.649,46.889 33.649,41.515 33.649,41.515 C36.582,42.374 37.403,43.150 37.403,44.351 C37.403,44.351 37.403,44.453 37.403,44.453 C37.403,45.924 36.084,46.816 33.649,46.889 ZM27.919,28.772 C27.919,28.772 27.919,28.671 27.919,28.671 C27.919,27.451 28.997,26.475 31.157,26.381 C31.157,26.381 31.157,31.488 31.157,31.488 C28.643,30.728 27.919,30.014 27.919,28.772 Z"/><path fill-rule="evenodd"  fill="rgb( 99, 158, 200 )" d="M146.710,27.676 C144.787,22.237 136.427,20.377 129.624,23.182 C128.118,23.813 126.617,24.626 125.488,25.587 C125.151,25.961 124.814,26.341 124.488,26.718 C122.180,27.037 119.881,27.366 117.580,27.689 C118.821,26.028 120.061,24.373 121.308,22.713 C121.419,22.375 121.529,22.033 121.647,21.690 C122.653,20.801 124.657,20.460 125.730,19.592 C129.517,16.506 135.853,7.110 129.866,1.472 C127.336,-0.908 122.031,0.063 119.085,2.163 C113.955,5.838 109.497,13.323 114.199,20.496 C114.378,20.626 114.568,20.760 114.747,20.896 C112.915,23.588 111.075,26.279 109.236,28.973 C100.421,30.333 91.614,31.702 82.795,33.056 C78.641,33.700 73.875,33.422 74.594,37.742 C77.400,38.350 80.757,37.437 84.069,37.450 C90.965,36.773 97.858,36.100 104.754,35.426 C101.746,40.940 97.716,45.912 94.300,51.241 C94.300,51.241 91.483,55.795 91.483,55.795 C90.336,57.522 89.095,59.261 88.585,61.348 C91.886,64.402 94.570,58.578 96.047,56.971 C101.516,49.489 106.986,42.004 112.455,34.524 C115.887,34.090 119.318,33.659 122.753,33.225 C124.933,43.856 150.700,38.999 146.710,27.676 ZM108.692,32.377 C108.528,29.548 112.144,28.664 113.115,31.203 C114.113,33.798 110.443,35.378 108.692,32.377 ZM116.770,16.286 C115.954,11.597 118.860,7.917 121.721,5.860 C122.951,4.982 125.711,3.752 126.999,5.051 C128.135,6.195 127.582,8.594 127.228,9.690 C126.378,12.292 120.458,21.206 116.770,16.286 ZM139.955,32.820 C135.693,35.454 129.743,35.214 127.101,32.169 C126.255,26.434 141.155,24.428 142.451,29.308 C142.872,30.906 140.995,32.180 139.955,32.820 Z"/></g></svg>