<?xml version="1.0" encoding="utf-8"?> <!-- Generated by Layerhero SVG Exporter: http://www.layerhero.com/photoshop-svg-exporter --><!DOCTYPE svg PUBLIC "-//W3C//DTD SVG 1.1//EN" "http://www.w3.org/Graphics/SVG/1.1/DTD/svg11.dtd"><svg version="1.1" baseProfile="full" xmlns="http://www.w3.org/2000/svg" xmlns:xlink="http://www.w3.org/1999/xlink" xmlns:ev="http://www.w3.org/2001/xml-events" width="62" height="62" viewBox="0 0 62 62"><g transform="scale(NaN)" ><path fill-rule="evenodd"  fill="rgb( 198, 198, 198 )" d="M57.000,62.000 C57.000,62.000 5.000,62.000 5.000,62.000 C2.243,62.000 -0.000,59.757 -0.000,57.000 C-0.000,57.000 -0.000,9.000 -0.000,9.000 C-0.000,6.243 2.243,4.000 5.000,4.000 C5.551,4.000 6.000,4.449 6.000,5.000 C6.000,5.551 5.551,6.000 5.000,6.000 C3.346,6.000 2.000,7.346 2.000,9.000 C2.000,9.000 2.000,15.000 2.000,15.000 C2.000,15.000 60.000,15.000 60.000,15.000 C60.000,15.000 60.000,9.000 60.000,9.000 C60.000,7.346 58.654,6.000 57.000,6.000 C56.448,6.000 56.000,5.551 56.000,5.000 C56.000,4.449 56.448,4.000 57.000,4.000 C59.757,4.000 62.000,6.243 62.000,9.000 C62.000,9.000 62.000,57.000 62.000,57.000 C62.000,59.757 59.757,62.000 57.000,62.000 ZM60.000,17.000 C60.000,17.000 2.000,17.000 2.000,17.000 C2.000,17.000 2.000,57.000 2.000,57.000 C2.000,58.654 3.346,60.000 5.000,60.000 C5.000,60.000 57.000,60.000 57.000,60.000 C58.654,60.000 60.000,58.654 60.000,57.000 C60.000,57.000 60.000,17.000 60.000,17.000 ZM47.000,53.708 C44.814,53.708 43.034,51.929 43.034,49.742 C43.034,47.556 44.814,45.776 47.000,45.776 C49.187,45.776 50.966,47.556 50.966,49.742 C50.966,51.929 49.187,53.708 47.000,53.708 ZM47.000,47.776 C45.916,47.776 45.034,48.658 45.034,49.742 C45.034,50.826 45.916,51.708 47.000,51.708 C48.084,51.708 48.966,50.826 48.966,49.742 C48.966,48.658 48.084,47.776 47.000,47.776 ZM47.000,42.708 C44.814,42.708 43.034,40.929 43.034,38.742 C43.034,36.556 44.814,34.776 47.000,34.776 C49.187,34.776 50.966,36.556 50.966,38.742 C50.966,40.929 49.187,42.708 47.000,42.708 ZM47.000,36.776 C45.916,36.776 45.034,37.658 45.034,38.742 C45.034,39.826 45.916,40.708 47.000,40.708 C48.084,40.708 48.966,39.826 48.966,38.742 C48.966,37.658 48.084,36.776 47.000,36.776 ZM47.000,31.708 C44.814,31.708 43.034,29.929 43.034,27.743 C43.034,25.556 44.814,23.777 47.000,23.777 C49.187,23.777 50.966,25.556 50.966,27.743 C50.966,29.929 49.187,31.708 47.000,31.708 ZM47.000,25.776 C45.916,25.776 45.034,26.659 45.034,27.743 C45.034,28.827 45.916,29.708 47.000,29.708 C48.084,29.708 48.966,28.827 48.966,27.743 C48.966,26.659 48.084,25.776 47.000,25.776 ZM36.000,53.708 C33.814,53.708 32.034,51.929 32.034,49.742 C32.034,47.556 33.814,45.776 36.000,45.776 C38.187,45.776 39.966,47.556 39.966,49.742 C39.966,51.929 38.187,53.708 36.000,53.708 ZM36.000,47.776 C34.916,47.776 34.034,48.658 34.034,49.742 C34.034,50.826 34.916,51.708 36.000,51.708 C37.084,51.708 37.966,50.826 37.966,49.742 C37.966,48.658 37.084,47.776 36.000,47.776 ZM36.000,42.708 C33.814,42.708 32.034,40.929 32.034,38.742 C32.034,36.556 33.814,34.776 36.000,34.776 C38.187,34.776 39.966,36.556 39.966,38.742 C39.966,40.929 38.187,42.708 36.000,42.708 ZM36.000,36.776 C34.916,36.776 34.034,37.658 34.034,38.742 C34.034,39.826 34.916,40.708 36.000,40.708 C37.084,40.708 37.966,39.826 37.966,38.742 C37.966,37.658 37.084,36.776 36.000,36.776 ZM36.000,31.708 C33.814,31.708 32.034,29.929 32.034,27.742 C32.034,25.556 33.814,23.776 36.000,23.776 C38.187,23.776 39.966,25.556 39.966,27.742 C39.966,29.929 38.187,31.708 36.000,31.708 ZM36.000,25.776 C34.916,25.776 34.034,26.658 34.034,27.742 C34.034,28.826 34.916,29.708 36.000,29.708 C37.084,29.708 37.966,28.826 37.966,27.742 C37.966,26.658 37.084,25.776 36.000,25.776 ZM25.000,53.708 C22.813,53.708 21.034,51.929 21.034,49.742 C21.034,47.556 22.813,45.776 25.000,45.776 C27.186,45.776 28.966,47.556 28.966,49.742 C28.966,51.929 27.186,53.708 25.000,53.708 ZM25.000,47.776 C23.916,47.776 23.034,48.658 23.034,49.742 C23.034,50.826 23.916,51.708 25.000,51.708 C26.084,51.708 26.966,50.826 26.966,49.742 C26.966,48.658 26.084,47.776 25.000,47.776 ZM25.000,42.708 C22.813,42.708 21.034,40.929 21.034,38.742 C21.034,36.556 22.813,34.776 25.000,34.776 C27.186,34.776 28.966,36.556 28.966,38.742 C28.966,40.929 27.186,42.708 25.000,42.708 ZM25.000,36.776 C23.916,36.776 23.034,37.658 23.034,38.742 C23.034,39.826 23.916,40.708 25.000,40.708 C26.084,40.708 26.966,39.826 26.966,38.742 C26.966,37.658 26.084,36.776 25.000,36.776 ZM25.000,31.708 C22.813,31.708 21.034,29.929 21.034,27.743 C21.034,25.556 22.813,23.777 25.000,23.777 C27.186,23.777 28.966,25.556 28.966,27.743 C28.966,29.929 27.186,31.708 25.000,31.708 ZM25.000,25.776 C23.916,25.776 23.034,26.659 23.034,27.743 C23.034,28.827 23.916,29.708 25.000,29.708 C26.084,29.708 26.966,28.827 26.966,27.743 C26.966,26.659 26.084,25.776 25.000,25.776 ZM14.000,53.708 C11.814,53.708 10.034,51.929 10.034,49.742 C10.034,47.556 11.814,45.776 14.000,45.776 C16.187,45.776 17.966,47.556 17.966,49.742 C17.966,51.929 16.187,53.708 14.000,53.708 ZM14.000,47.776 C12.916,47.776 12.034,48.658 12.034,49.742 C12.034,50.826 12.916,51.708 14.000,51.708 C15.084,51.708 15.966,50.826 15.966,49.742 C15.966,48.658 15.084,47.776 14.000,47.776 ZM14.000,31.708 C11.814,31.708 10.034,29.929 10.034,27.743 C10.034,25.556 11.814,23.777 14.000,23.777 C16.187,23.777 17.966,25.556 17.966,27.743 C17.966,29.929 16.187,31.708 14.000,31.708 ZM14.000,25.776 C12.916,25.776 12.034,26.659 12.034,27.743 C12.034,28.827 12.916,29.708 14.000,29.708 C15.084,29.708 15.966,28.827 15.966,27.743 C15.966,26.659 15.084,25.776 14.000,25.776 ZM51.000,10.000 C50.448,10.000 50.000,9.551 50.000,9.000 C50.000,9.000 50.000,1.000 50.000,1.000 C50.000,0.449 50.448,0.000 51.000,0.000 C51.552,0.000 52.000,0.449 52.000,1.000 C52.000,1.000 52.000,9.000 52.000,9.000 C52.000,9.551 51.552,10.000 51.000,10.000 ZM43.000,10.000 C42.448,10.000 42.000,9.551 42.000,9.000 C42.000,9.000 42.000,1.000 42.000,1.000 C42.000,0.449 42.448,0.000 43.000,0.000 C43.552,0.000 44.000,0.449 44.000,1.000 C44.000,1.000 44.000,9.000 44.000,9.000 C44.000,9.551 43.552,10.000 43.000,10.000 ZM35.000,10.000 C34.448,10.000 34.000,9.551 34.000,9.000 C34.000,9.000 34.000,1.000 34.000,1.000 C34.000,0.449 34.448,0.000 35.000,0.000 C35.552,0.000 36.000,0.449 36.000,1.000 C36.000,1.000 36.000,9.000 36.000,9.000 C36.000,9.551 35.552,10.000 35.000,10.000 ZM27.000,10.000 C26.449,10.000 26.000,9.551 26.000,9.000 C26.000,9.000 26.000,1.000 26.000,1.000 C26.000,0.449 26.449,0.000 27.000,0.000 C27.551,0.000 28.000,0.449 28.000,1.000 C28.000,1.000 28.000,9.000 28.000,9.000 C28.000,9.551 27.551,10.000 27.000,10.000 ZM19.000,10.000 C18.449,10.000 18.000,9.551 18.000,9.000 C18.000,9.000 18.000,1.000 18.000,1.000 C18.000,0.449 18.449,0.000 19.000,0.000 C19.551,0.000 20.000,0.449 20.000,1.000 C20.000,1.000 20.000,9.000 20.000,9.000 C20.000,9.551 19.551,10.000 19.000,10.000 ZM11.000,10.000 C10.449,10.000 10.000,9.551 10.000,9.000 C10.000,9.000 10.000,1.000 10.000,1.000 C10.000,0.449 10.449,0.000 11.000,0.000 C11.551,0.000 12.000,0.449 12.000,1.000 C12.000,1.000 12.000,9.000 12.000,9.000 C12.000,9.551 11.551,10.000 11.000,10.000 Z"/><path fill-rule="evenodd"  fill="rgb( 71, 182, 199 )" d="M14.000,42.708 C11.814,42.708 10.034,40.929 10.034,38.743 C10.034,36.556 11.814,34.777 14.000,34.777 C16.187,34.777 17.966,36.556 17.966,38.743 C17.966,40.929 16.187,42.708 14.000,42.708 ZM14.000,36.776 C12.916,36.776 12.034,37.659 12.034,38.743 C12.034,39.827 12.916,40.708 14.000,40.708 C15.084,40.708 15.966,39.827 15.966,38.743 C15.966,37.659 15.084,36.776 14.000,36.776 Z"/></g></svg>