<?xml version="1.0" encoding="utf-8"?>
<!-- Generator: Adobe Illustrator 16.0.0, SVG Export Plug-In . SVG Version: 6.00 Build 0)  -->
<!DOCTYPE svg PUBLIC "-//W3C//DTD SVG 1.1//EN" "http://www.w3.org/Graphics/SVG/1.1/DTD/svg11.dtd">
<svg version="1.1" id="Layer_1" xmlns:ev="http://www.w3.org/2001/xml-events"
	 xmlns="http://www.w3.org/2000/svg" xmlns:xlink="http://www.w3.org/1999/xlink" x="0px" y="0px" width="595.279px"
	 height="188.108px" viewBox="0 357.391 595.279 188.108" enable-background="new 0 357.391 595.279 188.108" xml:space="preserve">
<path fill="#BBB5BB" d="M570.873,545.499H24.406C11.311,545.499,0,534.784,0,521.093V381.797c0-13.096,11.311-24.407,24.406-24.407
	h545.872c13.691,0,24.406,11.311,24.406,24.407v139.295c0,6.548-2.381,13.097-7.144,17.264
	C583.374,543.118,577.422,545.499,570.873,545.499z M24.406,365.725c-8.334,0-16.072,7.144-16.072,16.073v139.295
	c0,8.93,7.143,16.072,16.072,16.072h545.872c4.167,0,8.334-1.785,11.31-4.762c2.977-2.977,4.763-7.144,4.763-11.311V381.797
	c0-8.929-7.144-16.073-16.072-16.073H24.406z"/>
<g>
	<g>
		<path fill="#BBB5BB" d="M211.92,424.657c3.571,0,7.143-1.785,8.929-3.571v-12.501h-10.12v4.167h5.358v5.953
			c-0.596,0.595-2.382,1.19-3.572,1.19c-5.357,0-8.334-3.571-8.334-10.12c0-6.548,3.572-10.12,8.334-10.12
			c2.381,0,4.167,0.595,5.357,2.381l2.382-2.976c-1.786-1.786-4.167-3.572-8.334-3.572c-7.739,0-13.097,5.357-13.097,14.287
			C198.823,419.3,204.181,424.657,211.92,424.657z M235.731,424.657c2.382,0,5.357-0.595,7.144-2.381l-1.786-2.977
			c-1.785,0.595-2.976,1.786-4.762,1.786c-3.572,0-5.357-2.381-5.953-5.953h13.097c0-0.595,0-1.19,0-2.381
			c0-5.953-2.977-10.12-8.334-10.12c-4.763,0-10.12,4.167-10.12,11.311C225.016,419.895,229.779,424.657,235.731,424.657z
			 M235.136,406.204c2.977,0,4.167,2.381,4.167,5.358h-9.524C230.373,407.99,232.754,406.204,235.136,406.204z M248.232,416.919
			c0,4.763,1.786,7.738,7.144,7.738c1.786,0,2.977-0.595,4.167-0.595l-0.596-3.572c-0.595,0.595-1.19,0.595-2.381,0.595
			c-2.381,0-2.977-1.191-2.977-3.572v-10.12h5.357v-3.572h-5.357v-5.953h-4.167l-0.595,5.953h-3.572v3.572h3.572v9.524H248.232z
			 M273.829,399.061c1.785,0,2.976-1.191,2.976-2.381c0-1.786-1.19-2.976-2.976-2.976c-1.786,0-2.977,1.19-2.977,2.976
			C270.853,397.87,272.638,399.061,273.829,399.061z M272.043,424.062h4.762v-20.835h-4.762V424.062z M294.663,423.467l-0.595-3.572
			c-0.596,0.595-1.19,0.595-2.381,0.595c-2.382,0-2.977-1.19-2.977-3.571v-10.12h5.357v-3.571h-5.357v-5.953h-4.167l-0.596,5.357
			h-3.571v3.572h2.977v10.12c0,4.762,1.785,7.739,7.143,7.739C292.282,424.657,293.473,424.062,294.663,423.467z M315.498,424.657
			c5.357,0,10.12-3.571,10.12-11.31c0-7.144-4.763-11.311-10.12-11.311s-10.12,3.572-10.12,11.311
			C305.974,419.895,310.736,424.657,315.498,424.657z M315.498,406.204c2.977,0,5.357,2.381,5.357,7.144s-1.786,7.144-5.357,7.144
			c-2.977,0-4.763-2.381-4.763-7.144S312.522,406.204,315.498,406.204z M335.738,409.18c1.786-1.786,2.977-2.381,4.763-2.381
			c2.381,0,3.571,1.191,3.571,4.763v12.501h4.763v-13.097c0-5.357-2.382-8.334-6.548-8.334c-2.977,0-5.358,1.191-7.144,3.572l0,0
			l-0.596-2.976h-3.571v20.835h4.762V409.18z M444.674,462.16c-2.381,0-4.167,0.596-5.953,1.19
			c-1.785,0.596-3.571,2.381-4.762,3.571h-0.596l-0.595-4.762h-4.167v49.408h5.357v-14.287c0-1.785,0-3.571-0.596-5.357h0.596
			c1.19,1.786,2.977,2.977,4.762,3.572c1.786,0.595,3.572,1.19,5.953,1.19c4.167,0,8.334-1.786,10.12-4.763
			c2.381-2.977,3.571-7.144,3.571-13.096c0-5.357-1.19-10.12-3.571-13.097C452.412,463.946,449.437,462.16,444.674,462.16z
			 M451.222,489.543c-1.785,2.381-3.571,3.571-7.144,3.571c-3.571,0-5.952-0.595-7.738-2.976c-1.786-2.382-2.381-5.357-2.381-10.12
			v-1.19c0-4.167,0.595-7.144,2.381-9.524c1.786-2.382,4.167-2.977,7.738-2.977c2.977,0,5.358,1.19,7.144,3.571
			c1.786,2.382,2.382,5.357,2.382,10.12C453.604,484.186,452.412,487.162,451.222,489.543z M466.104,496.687h5.358v-48.218h-5.358
			V496.687z M492.296,462.16c-2.381,0-3.571,0.596-5.952,0.596c-2.382,0.595-3.572,1.19-5.357,2.381l1.785,3.571
			c3.572-1.786,7.144-2.381,10.12-2.381c2.381,0,4.167,0.595,5.357,1.786c1.19,1.19,1.786,3.571,1.786,5.952v2.382h-5.953
			c-11.311,0.595-16.668,3.571-16.668,10.715c0,3.571,0.596,5.357,2.977,7.144c1.786,1.785,4.763,2.381,8.334,2.381
			c2.381,0,4.763-0.596,6.548-1.19c1.786-0.596,3.572-2.382,5.357-4.167h-0.595l0.595,4.762h3.572v-23.216
			c0-3.571-0.596-7.144-2.977-8.334C500.035,462.756,497.059,462.16,492.296,462.16z M499.44,482.995
			c0,2.977-0.595,5.357-2.381,7.144c-1.786,1.785-4.167,2.381-7.738,2.381c-2.382,0-3.572-0.596-4.763-1.19
			c-1.19-0.596-1.786-2.382-1.786-4.167c0-2.381,0.596-4.167,2.382-5.357c1.785-1.191,4.762-1.786,8.929-1.786h5.357
			C499.44,480.614,499.44,482.995,499.44,482.995z M533.966,462.756c-4.763,13.096-7.738,20.834-8.334,23.811
			c-0.595,2.381-1.19,4.167-1.786,5.357h-0.595c-0.596-2.381-1.19-5.357-2.977-9.524l-7.144-19.644h-5.357l13.691,34.525
			l-1.786,4.763c-1.785,3.571-3.571,5.953-7.738,5.953c-1.19,0-2.381,0-3.571-0.596v4.167c1.785,0.596,2.977,0.596,4.762,0.596
			c2.977,0,5.357-0.596,7.144-2.382c2.381-1.785,3.571-4.167,5.357-8.334l14.287-38.692H533.966L533.966,462.756z M357.763,463.351
			h-14.286c-3.572,0-8.334,0.596-13.097,3.571c-2.977,2.382-4.762,6.549-4.762,9.525c0,5.357,4.167,11.31,11.905,11.31
			c0.596,0,1.786,0,2.381,0c-0.595,0.596-0.595,1.786-0.595,2.977c0,2.381,1.19,3.572,2.381,4.763
			c-3.571,0.595-9.524,0.595-13.691,3.571c-4.167,2.381-5.357,5.953-5.357,8.334c0,5.357,5.357,10.12,15.478,10.12
			c12.5,0,19.049-7.144,19.049-13.691c0-5.357-2.977-7.144-5.953-10.12l-2.381-2.381c-0.596-0.596-1.786-1.19-1.786-2.977
			s1.19-2.381,2.381-3.571c2.977-2.382,5.953-4.763,5.953-10.12s-3.571-8.334-5.357-10.12h4.167L357.763,463.351z M351.811,507.401
			c0,4.167-3.572,7.738-10.716,7.738c-7.738,0-12.501-3.571-12.501-8.334c0-5.357,4.763-7.143,5.953-7.143
			c2.977-0.596,7.144-1.19,7.739-1.19c0.595,0,0.595,0,1.785,0C348.834,501.448,351.811,503.234,351.811,507.401z M345.858,484.186
			c-1.19,1.19-2.977,2.381-4.763,2.381c-5.952,0-8.929-8.334-8.929-13.096c0-1.786,0.595-3.572,1.786-5.357
			c1.19-1.191,2.976-2.382,5.357-2.382c5.952,0,8.929,8.334,8.929,13.097C347.644,480.019,347.048,482.399,345.858,484.186z
			 M304.783,462.16c-10.715,0-18.454,8.334-18.454,17.263c0,8.334,5.953,16.668,17.264,16.668c11.31,0,17.858-8.929,17.858-17.263
			C322.046,470.494,314.903,462.16,304.783,462.16z M312.522,490.733c-1.786,2.381-4.167,3.572-7.144,3.572
			c-8.333,0-11.905-11.311-11.905-19.05c0-2.976,0.596-6.548,3.572-8.334c1.785-1.19,3.571-2.381,6.548-2.381
			c8.929,0,11.905,11.906,11.905,18.454C314.903,485.972,314.308,488.353,312.522,490.733z M266.09,462.16
			c-10.715,0-18.453,8.334-18.453,17.263c0,8.334,5.952,16.668,17.263,16.668s17.858-8.929,17.858-17.263
			S276.805,462.16,266.09,462.16z M273.829,490.733c-1.786,2.381-4.763,3.572-7.144,3.572c-8.334,0-11.906-11.311-11.906-19.05
			c0-2.976,0.596-6.548,3.572-8.334c1.785-1.19,3.571-2.381,6.548-2.381c8.93,0,11.905,11.906,11.905,18.454
			C276.21,485.972,275.615,488.353,273.829,490.733z M223.825,483.59l10.715-0.595v11.311c-2.381,0.595-4.762,1.785-8.929,1.785
			c-16.073,0-25.002-13.096-25.002-26.192c0-12.501,8.334-20.834,19.645-20.834c8.333,0,13.096,4.166,15.477,7.143l-1.785,2.977
			l2.381-0.595l5.952-5.358c-1.785-1.19-4.166-2.976-9.524-4.166c-3.571-0.596-7.143-1.786-11.31-1.786
			c-18.454,0-29.169,13.096-29.169,26.787c0,11.311,7.738,26.192,27.383,26.192c3.571,0,7.738-0.595,11.905-1.19l10.12-2.381v-9.524
			c0-0.596,0-2.977,0-3.572c0-0.595,0-0.595,0.595-1.19l1.786-1.785h-15.478L223.825,483.59z M368.478,490.139v-40.479v-0.595
			c0.596-2.382,0.596-2.977,3.572-4.167h-10.12l-5.357,2.381h5.357v44.051c0,1.19-0.595,1.785-2.381,3.571h13.096l2.382-1.786
			c-1.19,0-2.382-0.595-3.572-0.595C369.073,493.114,368.478,492.52,368.478,490.139z M380.979,478.232l5.357-0.595l16.668-7.144
			c-0.595-1.786-1.19-4.763-5.357-7.144c-2.381-1.19-4.762-2.381-7.144-2.381c-7.143,0-16.072,5.357-16.072,16.072
			c0,5.357,2.381,11.311,7.144,14.882c3.571,2.382,7.144,2.977,9.524,2.977s4.763-0.595,7.144-1.19
			c0.595-0.596,1.786-0.596,2.381-1.19l3.572-3.572c-2.382,1.191-5.358,2.382-8.334,2.382
			C388.718,493.114,382.765,487.757,380.979,478.232z M380.979,474.661c0-7.739,5.357-10.12,8.334-10.12
			c3.572,0,7.144,3.572,7.144,5.953c0,0.595-0.595,1.19-2.381,1.786l-13.097,5.952C380.979,477.042,380.979,475.852,380.979,474.661
			z M405.386,462.756h1.19v4.762h0.595v-4.762h1.786v-0.596L405.386,462.756L405.386,462.756L405.386,462.756z M412.529,466.327
			L412.529,466.327l-1.19-4.167h-0.595v5.357l0,0v-4.762l0,0l1.19,4.762h0.595l1.19-4.762l0,0v4.762h0.596v-5.357h-0.596
			L412.529,466.327z"/>
	</g>
</g>
<g id="PLAY">
	<g>
		<g>
			<defs>
				<path id="SVGID_1_" d="M144.058,435.968l-23.812-13.096c0,0-43.455-24.407-46.432-25.598c-2.977-1.786-5.357-0.595-5.357,2.381
					c0,5.357,0,51.79,0,51.79s0,50.599,0,52.385c0,2.381,1.786,2.977,4.167,2.381c2.381-1.19,47.622-26.192,47.622-26.192
					l23.812-13.097c0,0,20.835-11.31,23.216-13.096s2.381-3.571,0-4.762C165.488,447.873,144.058,435.968,144.058,435.968z"/>
			</defs>
			<clipPath id="SVGID_2_">
				<use xlink:href="#SVGID_1_"  overflow="visible"/>
			</clipPath>
			
				<linearGradient id="SVGID_3_" gradientUnits="userSpaceOnUse" x1="23.0095" y1="750.2627" x2="23.0095" y2="776.7296" gradientTransform="matrix(4.2824 0 0 4.2824 -0.3186 -2818.4561)">
				<stop  offset="1.924261e-05" style="stop-color:#207CB0"/>
				<stop  offset="0.3757" style="stop-color:#3CB2BF"/>
				<stop  offset="0.7961" style="stop-color:#58E9CE"/>
				<stop  offset="1" style="stop-color:#63FFD4"/>
			</linearGradient>
			<polygon clip-path="url(#SVGID_2_)" fill="url(#SVGID_3_)" points="68.457,394.298 68.457,450.85 68.457,507.997 127.986,450.85 
							"/>
		</g>
	</g>
	<g>
		<g>
			<defs>
				<path id="SVGID_4_" d="M144.058,435.968l-23.812-13.096c0,0-43.455-24.407-46.432-25.598c-2.977-1.786-5.357-0.595-5.357,2.381
					c0,5.357,0,51.79,0,51.79s0,50.599,0,52.385c0,2.381,1.786,2.977,4.167,2.381c2.381-1.19,47.622-26.192,47.622-26.192
					l23.812-13.097c0,0,20.835-11.31,23.216-13.096s2.381-3.571,0-4.762C165.488,447.873,144.058,435.968,144.058,435.968z"/>
			</defs>
			<clipPath id="SVGID_5_">
				<use xlink:href="#SVGID_4_"  overflow="visible"/>
			</clipPath>
			
				<linearGradient id="SVGID_6_" gradientUnits="userSpaceOnUse" x1="16.1072" y1="756.8174" x2="33.761" y2="756.8174" gradientTransform="matrix(4.2824 0 0 4.2824 -0.3186 -2818.4561)">
				<stop  offset="0" style="stop-color:#4BC3AE"/>
				<stop  offset="1" style="stop-color:#DEE999"/>
			</linearGradient>
			<polygon clip-path="url(#SVGID_5_)" fill="url(#SVGID_6_)" points="144.058,435.968 120.246,422.872 68.457,394.298 
				68.457,394.298 127.986,450.85 			"/>
		</g>
	</g>
	<g>
		<g>
			<defs>
				<path id="SVGID_7_" d="M144.058,435.968l-23.812-13.096c0,0-43.455-24.407-46.432-25.598c-2.977-1.786-5.357-0.595-5.357,2.381
					c0,5.357,0,51.79,0,51.79s0,50.599,0,52.385c0,2.381,1.786,2.977,4.167,2.381c2.381-1.19,47.622-26.192,47.622-26.192
					l23.812-13.097c0,0,20.835-11.31,23.216-13.096s2.381-3.571,0-4.762C165.488,447.873,144.058,435.968,144.058,435.968z"/>
			</defs>
			<clipPath id="SVGID_8_">
				<use xlink:href="#SVGID_7_"  overflow="visible"/>
			</clipPath>
			
				<linearGradient id="SVGID_9_" gradientUnits="userSpaceOnUse" x1="24.8865" y1="763.5068" x2="24.8865" y2="776.8359" gradientTransform="matrix(4.2824 0 0 4.2824 -0.3186 -2818.4561)">
				<stop  offset="0" style="stop-color:#EC403D"/>
				<stop  offset="0.384" style="stop-color:#C93B75"/>
				<stop  offset="0.7988" style="stop-color:#A636AC"/>
				<stop  offset="1" style="stop-color:#9934C2"/>
			</linearGradient>
			<polygon clip-path="url(#SVGID_8_)" fill="url(#SVGID_9_)" points="68.457,507.997 68.457,508.592 120.246,479.423 
				144.058,466.327 127.986,450.85 			"/>
		</g>
	</g>
	<g>
		<g>
			<defs>
				<path id="SVGID_10_" d="M144.058,435.968l-23.812-13.096c0,0-43.455-24.407-46.432-25.598c-2.977-1.786-5.357-0.595-5.357,2.381
					c0,5.357,0,51.79,0,51.79s0,50.599,0,52.385c0,2.381,1.786,2.977,4.167,2.381c2.381-1.19,47.622-26.192,47.622-26.192
					l23.812-13.097c0,0,20.835-11.31,23.216-13.096s2.381-3.571,0-4.762C165.488,447.873,144.058,435.968,144.058,435.968z"/>
			</defs>
			<clipPath id="SVGID_11_">
				<use xlink:href="#SVGID_10_"  overflow="visible"/>
			</clipPath>
			
				<linearGradient id="SVGID_12_" gradientUnits="userSpaceOnUse" x1="35.0339" y1="759.9541" x2="35.0339" y2="767.062" gradientTransform="matrix(4.2824 0 0 4.2824 -0.3186 -2818.4561)">
				<stop  offset="0" style="stop-color:#FF8877"/>
				<stop  offset="0.6121" style="stop-color:#FFB175"/>
				<stop  offset="1" style="stop-color:#FFC774"/>
			</linearGradient>
			<polygon clip-path="url(#SVGID_11_)" fill="url(#SVGID_12_)" points="144.058,435.968 127.986,450.85 144.058,466.327 
				171.441,450.85 			"/>
		</g>
	</g>
</g>
</svg>
