<?xml version="1.0" encoding="utf-8"?> <!-- Generated by Layerhero SVG Exporter: http://www.layerhero.com/photoshop-svg-exporter --><!DOCTYPE svg PUBLIC "-//W3C//DTD SVG 1.1//EN" "http://www.w3.org/Graphics/SVG/1.1/DTD/svg11.dtd"><svg version="1.1" baseProfile="full" xmlns="http://www.w3.org/2000/svg" xmlns:xlink="http://www.w3.org/1999/xlink" xmlns:ev="http://www.w3.org/2001/xml-events" width="36" height="33" viewBox="0 0 36 33"><g transform="scale(NaN)" ><path fill-rule="evenodd"  fill="rgb( 187, 181, 187 )" d="M32.994,27.959 C32.994,27.959 22.625,27.959 22.625,27.959 C22.625,27.959 23.927,31.973 23.927,31.973 C23.939,31.994 23.936,32.021 23.947,32.043 C23.947,32.043 28.289,32.043 28.289,32.043 C28.702,32.043 29.251,31.833 29.251,32.247 C29.251,32.660 28.915,32.996 28.502,32.996 C28.502,32.996 23.278,32.996 23.278,32.996 C23.277,32.996 23.277,32.996 23.276,32.996 C23.271,32.996 23.266,32.996 23.261,32.996 C23.261,32.996 12.779,32.996 12.779,32.996 C12.779,32.996 12.778,32.996 12.777,32.996 C12.777,32.996 7.538,32.996 7.538,32.996 C7.125,32.996 6.789,32.660 6.789,32.247 C6.789,31.833 7.338,32.043 7.752,32.043 C7.752,32.043 12.086,32.043 12.086,32.043 C12.086,32.043 13.415,27.959 13.415,27.959 C13.415,27.959 3.006,27.959 3.006,27.959 C1.354,27.959 0.011,26.615 0.011,24.963 C0.011,24.963 0.011,2.987 0.011,2.987 C0.011,1.335 1.354,-0.008 3.006,-0.008 C3.006,-0.008 32.994,-0.008 32.994,-0.008 C34.646,-0.008 35.989,1.335 35.989,2.987 C35.989,2.987 35.989,24.963 35.989,24.963 C35.989,26.615 34.646,27.959 32.994,27.959 ZM22.000,32.000 C22.000,32.000 21.000,28.000 21.000,28.000 C21.000,28.000 15.000,28.000 15.000,28.000 C15.000,28.000 14.000,32.000 14.000,32.000 C14.000,32.000 22.000,32.000 22.000,32.000 ZM35.000,3.000 C35.000,2.174 33.826,1.000 33.000,1.000 C33.000,1.000 3.000,1.000 3.000,1.000 C2.174,1.000 1.000,2.174 1.000,3.000 C1.000,3.000 1.000,25.000 1.000,25.000 C1.000,25.826 2.174,27.000 3.000,27.000 C3.000,27.000 33.000,27.000 33.000,27.000 C33.826,27.000 35.000,25.826 35.000,25.000 C35.000,25.000 35.000,3.000 35.000,3.000 ZM2.938,2.985 C2.938,2.985 33.004,2.985 33.004,2.985 C33.004,2.985 33.004,21.025 33.004,21.025 C33.004,21.025 2.938,21.025 2.938,21.025 C2.938,21.025 2.938,2.985 2.938,2.985 ZM3.982,19.993 C3.982,19.993 31.978,19.993 31.978,19.993 C31.978,19.993 31.978,4.002 31.978,4.002 C31.978,4.002 3.982,4.002 3.982,4.002 C3.982,4.002 3.982,19.993 3.982,19.993 ZM17.945,22.400 C18.772,22.400 19.442,23.070 19.442,23.898 C19.442,24.725 18.772,25.395 17.945,25.395 C17.118,25.395 16.447,24.725 16.447,23.898 C16.447,23.070 17.118,22.400 17.945,22.400 Z"/><path fill-rule="evenodd"  fill="rgb( 187, 181, 187 )" d="M21.360,12.379 C21.377,14.193 22.985,14.796 23.004,14.805 C22.989,14.846 22.746,15.665 22.155,16.511 C21.644,17.241 21.115,17.968 20.281,17.983 C19.460,17.998 19.197,17.507 18.258,17.507 C17.320,17.507 17.027,17.968 16.251,17.998 C15.446,18.028 14.832,17.209 14.318,16.481 C13.265,14.992 12.461,12.274 13.541,10.439 C14.077,9.527 15.035,8.950 16.076,8.935 C16.867,8.921 17.614,9.457 18.097,9.457 C18.581,9.457 19.489,8.813 20.443,8.907 C20.842,8.924 21.963,9.065 22.683,10.095 C22.625,10.132 21.344,10.860 21.360,12.379 ZM18.000,8.771 C17.907,8.082 18.254,7.365 18.650,6.915 C19.093,6.408 19.839,6.032 20.455,6.007 C20.534,6.710 20.245,7.415 19.817,7.922 C19.389,8.429 18.688,8.823 18.000,8.771 Z"/></g></svg>