<?xml version="1.0" encoding="utf-8"?> <!-- Generated by Layerhero SVG Exporter: http://www.layerhero.com/photoshop-svg-exporter --><!DOCTYPE svg PUBLIC "-//W3C//DTD SVG 1.1//EN" "http://www.w3.org/Graphics/SVG/1.1/DTD/svg11.dtd"><svg version="1.1" baseProfile="full" xmlns="http://www.w3.org/2000/svg" xmlns:xlink="http://www.w3.org/1999/xlink" xmlns:ev="http://www.w3.org/2001/xml-events" width="104" height="86" viewBox="0 0 104 86"><g transform="scale(NaN)" ><path fill-rule="evenodd"  fill="rgb( 232, 235, 112 )" d="M0.832,0.109 C0.832,0.109 0.832,55.352 0.832,55.352 C0.832,59.474 4.196,62.816 8.334,62.816 C8.334,62.816 66.895,62.816 66.895,62.816 C66.895,62.816 68.809,54.317 68.809,54.317 C68.098,53.709 67.514,52.969 67.089,52.139 C63.573,51.858 60.761,49.053 60.478,45.545 C58.151,44.349 56.552,41.923 56.552,39.144 C56.552,38.385 56.669,37.642 56.896,36.938 C55.811,35.665 55.181,34.023 55.181,32.276 C55.181,30.524 55.811,28.882 56.896,27.608 C56.669,26.903 56.552,26.161 56.552,25.402 C56.552,22.623 58.151,20.197 60.478,19.001 C60.763,15.492 63.578,12.686 67.093,12.410 C68.294,10.087 70.724,8.492 73.504,8.492 C74.267,8.492 75.012,8.610 75.720,8.838 C76.996,7.754 78.643,7.127 80.397,7.127 C81.318,7.127 82.204,7.310 83.029,7.632 C83.029,7.632 83.344,0.109 83.344,0.109 C83.344,0.109 0.832,0.109 0.832,0.109 ZM48.473,47.689 C48.473,47.689 17.037,47.689 17.037,47.689 C17.037,47.689 17.037,43.244 17.037,43.244 C17.037,43.244 48.473,43.244 48.473,43.244 C48.473,43.244 48.473,47.689 48.473,47.689 ZM48.473,34.356 C48.473,34.356 17.037,34.356 17.037,34.356 C17.037,34.356 17.037,29.911 17.037,29.911 C17.037,29.911 48.473,29.911 48.473,29.911 C48.473,29.911 48.473,34.356 48.473,34.356 ZM48.473,21.021 C48.473,21.021 17.037,21.021 17.037,21.021 C17.037,21.021 17.037,16.577 17.037,16.577 C17.037,16.577 48.473,16.577 48.473,16.577 C48.473,16.577 48.473,21.021 48.473,21.021 Z"/><path fill-rule="evenodd"  fill="rgb( 99, 158, 200 )" d="M103.155,31.982 C103.155,30.237 102.085,28.743 100.557,28.102 C101.314,27.342 101.783,26.298 101.783,25.147 C101.783,22.832 99.898,20.956 97.563,20.939 C97.759,20.450 97.875,19.915 97.875,19.359 C97.875,17.029 95.969,15.147 93.619,15.147 C93.054,15.147 92.522,15.254 92.031,15.450 C92.010,13.141 90.117,11.272 87.774,11.272 C86.616,11.272 85.566,11.736 84.793,12.481 C84.148,10.969 82.639,9.914 80.877,9.914 C79.115,9.914 77.599,10.968 76.955,12.481 C76.189,11.736 75.136,11.272 73.977,11.272 C71.638,11.272 69.743,13.141 69.722,15.450 C69.231,15.257 68.694,15.147 68.132,15.147 C65.782,15.147 63.877,17.029 63.877,19.359 C63.877,19.915 63.986,20.450 64.185,20.939 C61.855,20.956 59.969,22.832 59.969,25.147 C59.969,26.298 60.438,27.341 61.193,28.102 C59.670,28.740 58.596,30.235 58.596,31.978 C58.596,31.978 58.596,31.982 58.596,31.982 C58.596,31.982 58.596,31.985 58.596,31.985 C58.596,33.730 59.670,35.223 61.193,35.861 C60.438,36.623 59.969,37.664 59.969,38.817 C59.969,41.131 61.855,43.007 64.185,43.024 C63.989,43.514 63.877,44.048 63.877,44.606 C63.877,46.934 65.782,48.820 68.135,48.820 C68.694,48.820 69.231,48.708 69.722,48.515 C69.739,50.358 70.953,51.924 72.640,52.473 C72.640,52.473 66.351,80.221 66.351,80.221 C66.351,80.221 74.167,75.666 74.167,75.666 C74.167,75.666 78.289,82.875 78.289,82.875 C78.289,82.875 80.877,71.455 80.877,71.455 C80.877,71.455 84.279,85.839 84.279,85.839 C84.279,85.839 88.481,78.122 88.481,78.122 C88.481,78.122 95.936,82.872 95.936,82.872 C95.936,82.872 89.111,52.471 89.111,52.471 C90.795,51.921 92.013,50.358 92.031,48.510 C92.518,48.705 93.054,48.818 93.614,48.818 C95.969,48.818 97.870,46.928 97.870,44.604 C97.870,44.043 97.763,43.512 97.557,43.023 C99.898,43.005 101.780,41.129 101.780,38.815 C101.780,37.664 101.314,36.621 100.557,35.858 C102.085,35.223 103.155,33.725 103.155,31.982 ZM80.877,45.677 C73.235,45.677 67.036,39.546 67.036,31.980 C67.036,24.416 73.235,18.284 80.877,18.284 C88.525,18.284 94.723,24.416 94.723,31.980 C94.723,39.549 88.525,45.677 80.877,45.677 Z"/></g></svg>