<?xml version="1.0" encoding="utf-8"?> <!-- Generated by Layerhero SVG Exporter: http://www.layerhero.com/photoshop-svg-exporter --><!DOCTYPE svg PUBLIC "-//W3C//DTD SVG 1.1//EN" "http://www.w3.org/Graphics/SVG/1.1/DTD/svg11.dtd"><svg version="1.1" baseProfile="full" xmlns="http://www.w3.org/2000/svg" xmlns:xlink="http://www.w3.org/1999/xlink" xmlns:ev="http://www.w3.org/2001/xml-events" width="135" height="86" viewBox="0 0 135 86"><g transform="scale(NaN)" ><path fill-rule="evenodd"  fill="rgb( 232, 235, 112 )" d="M106.251,77.012 C106.035,74.017 102.259,60.708 102.156,59.984 C102.009,55.922 98.367,52.293 92.143,49.815 C92.622,49.199 93.122,48.309 93.346,47.811 C93.690,47.048 96.050,45.506 96.650,45.419 C96.650,45.419 96.748,42.239 96.748,42.239 C96.748,42.239 89.914,40.144 89.914,40.144 C89.914,40.144 88.155,39.338 87.984,39.338 C87.811,39.338 88.608,38.283 88.739,37.944 C88.869,37.602 89.698,35.058 89.698,35.058 C89.698,35.058 87.396,37.843 86.225,38.366 C86.225,38.366 88.571,34.259 89.257,31.886 C89.943,29.515 90.343,25.657 90.343,25.319 C90.343,24.978 91.758,15.023 92.532,13.371 C93.304,11.718 94.354,9.473 96.146,8.371 C97.940,7.269 100.598,5.701 104.416,5.491 C104.476,5.489 104.533,5.489 104.589,5.484 C104.647,5.489 104.704,5.489 104.760,5.491 C108.580,5.701 111.238,7.269 113.033,8.371 C114.827,9.473 115.874,11.718 116.646,13.371 C117.418,15.023 118.835,24.978 118.835,25.319 C118.835,25.657 119.287,29.363 119.974,31.737 C120.658,34.108 122.955,38.366 122.955,38.366 C121.786,37.846 119.479,35.062 119.479,35.062 C119.479,35.062 120.122,37.380 120.251,37.719 C120.380,38.060 121.367,39.339 121.194,39.339 C121.025,39.339 119.262,40.145 119.262,40.145 C119.262,40.145 112.430,42.241 112.430,42.241 C112.430,42.241 112.527,45.420 112.527,45.420 C113.128,45.508 115.490,47.049 115.832,47.811 C116.174,48.575 117.164,50.266 117.743,50.471 C118.984,50.916 121.659,51.985 122.481,52.601 C123.887,53.649 127.247,54.550 129.867,54.975 C132.483,55.396 134.134,59.542 134.134,59.542 C134.143,59.672 135.033,76.888 135.008,77.012 C135.008,77.012 106.251,77.012 106.251,77.012 ZM45.078,30.300 C44.213,36.741 40.358,40.105 40.358,40.105 C40.358,40.105 41.054,44.949 41.377,45.590 C42.170,45.767 43.863,46.847 47.070,48.295 C41.786,50.568 32.107,54.357 30.247,62.290 C30.247,62.290 30.228,62.460 30.228,62.460 C30.228,62.460 30.228,62.633 30.228,62.633 C30.228,62.633 27.434,75.165 27.434,75.165 C27.434,75.165 0.124,75.165 0.124,75.165 C0.124,75.165 -1.594,57.316 7.075,53.037 C12.559,50.330 10.443,51.937 17.182,49.167 C21.756,47.288 23.934,45.803 24.878,45.594 C25.207,44.977 26.064,40.103 26.064,40.103 C26.064,40.103 23.036,36.628 22.055,30.939 C22.055,30.939 19.921,31.675 19.854,27.498 C19.802,24.479 18.712,23.218 20.791,22.336 C20.791,22.336 20.605,21.056 20.511,19.203 C20.370,16.444 19.521,11.786 24.644,8.628 C29.864,5.411 30.288,4.767 30.288,4.767 C30.288,4.767 30.084,6.867 30.084,6.867 C30.084,6.867 31.657,4.695 33.939,3.014 C33.939,3.014 33.939,3.014 33.878,3.893 C33.846,4.387 34.026,5.637 34.343,5.961 C34.423,6.037 34.509,6.126 34.595,6.209 C34.595,6.209 34.544,5.076 34.544,5.076 C34.544,5.076 36.145,5.557 37.404,6.312 C37.427,6.302 40.961,8.242 41.645,8.683 C46.462,11.786 45.949,15.644 45.846,18.392 C45.780,20.247 45.630,22.336 45.630,22.336 C47.711,23.218 47.183,24.398 47.095,27.418 C46.977,31.337 45.078,30.300 45.078,30.300 Z"/><path fill-rule="evenodd"  fill="rgb( 99, 158, 200 )" d="M104.668,86.007 C104.668,80.885 98.851,59.229 98.851,59.229 C98.851,56.064 94.664,52.449 86.406,50.342 C82.119,49.249 78.526,46.803 78.526,46.803 C77.996,46.503 78.077,43.737 78.077,43.737 C78.077,43.737 75.417,43.340 75.417,43.340 C75.417,43.114 75.192,39.799 75.192,39.799 C78.373,38.744 78.045,32.522 78.045,32.522 C80.065,33.627 81.379,28.707 81.379,28.707 C83.769,21.866 80.190,22.278 80.190,22.278 C81.326,17.158 80.190,9.678 80.190,9.678 C78.598,-4.177 54.642,-0.417 57.483,4.110 C50.483,2.829 52.079,18.563 52.079,18.563 C52.079,18.563 53.597,22.630 53.597,22.630 C50.614,24.537 52.687,26.847 52.788,29.507 C52.934,33.431 55.364,32.618 55.364,32.618 C55.515,39.095 58.747,39.946 58.747,39.946 C59.355,44.013 58.977,43.321 58.977,43.321 C58.977,43.321 56.097,43.664 56.097,43.664 C56.225,44.692 55.871,46.422 55.871,46.422 C52.478,47.911 51.756,48.785 48.393,50.239 C41.893,53.050 34.828,56.709 33.573,61.633 C32.317,66.557 28.591,86.003 28.591,86.003 C28.591,86.003 104.668,86.003 104.668,86.003 C104.668,86.003 104.668,86.007 104.668,86.007 Z"/></g></svg>