<?xml version="1.0" encoding="utf-8"?> <!-- Generated by Layerhero SVG Exporter: http://www.layerhero.com/photoshop-svg-exporter --><!DOCTYPE svg PUBLIC "-//W3C//DTD SVG 1.1//EN" "http://www.w3.org/Graphics/SVG/1.1/DTD/svg11.dtd"><svg version="1.1" baseProfile="full" xmlns="http://www.w3.org/2000/svg" xmlns:xlink="http://www.w3.org/1999/xlink" xmlns:ev="http://www.w3.org/2001/xml-events" width="24" height="28" viewBox="0 0 24 28"><g transform="scale(NaN)" ><path fill-rule="evenodd"  fill="rgb( 187, 181, 187 )" d="M21.132,27.999 C21.132,27.999 3.798,27.999 3.798,27.999 C2.212,27.999 0.921,26.691 0.921,25.083 C0.921,25.083 0.921,2.917 0.921,2.917 C0.921,1.309 2.212,0.001 3.798,0.001 C3.798,0.001 21.132,0.001 21.132,0.001 C22.719,0.001 24.010,1.309 24.010,2.917 C24.010,2.917 24.010,25.083 24.010,25.083 C24.010,26.691 22.719,27.999 21.132,27.999 ZM22.859,2.917 C22.859,1.953 22.084,1.167 21.132,1.167 C21.132,1.167 3.798,1.167 3.798,1.167 C2.846,1.167 2.072,1.953 2.072,2.917 C2.072,2.917 2.072,25.083 2.072,25.083 C2.072,26.047 2.846,26.833 3.798,26.833 C3.798,26.833 21.132,26.833 21.132,26.833 C22.084,26.833 22.859,26.047 22.859,25.083 C22.859,25.083 22.859,2.917 22.859,2.917 ZM21.480,23.055 C21.480,23.055 3.520,23.055 3.520,23.055 C3.202,23.055 2.945,22.793 2.945,22.471 C2.945,22.471 2.945,4.223 2.945,4.223 C2.945,3.901 3.202,3.640 3.520,3.640 C3.520,3.640 21.480,3.640 21.480,3.640 C21.798,3.640 22.055,3.901 22.055,4.223 C22.055,4.223 22.055,22.471 22.055,22.471 C22.055,22.793 21.798,23.055 21.480,23.055 ZM20.905,4.806 C20.905,4.806 4.095,4.806 4.095,4.806 C4.095,4.806 4.095,21.888 4.095,21.888 C4.095,21.888 20.905,21.888 20.905,21.888 C20.905,21.888 20.905,4.806 20.905,4.806 ZM12.596,2.917 C12.278,2.917 12.021,2.657 12.021,2.334 C12.021,2.011 12.278,1.751 12.596,1.751 C12.914,1.751 13.172,2.011 13.172,2.334 C13.172,2.657 12.914,2.917 12.596,2.917 ZM12.596,23.916 C13.231,23.916 13.747,24.438 13.747,25.083 C13.747,25.727 13.231,26.249 12.596,26.249 C11.960,26.249 11.445,25.727 11.445,25.083 C11.445,24.438 11.960,23.916 12.596,23.916 Z"/></g></svg>