<?xml version="1.0" encoding="utf-8"?> <!-- Generated by Layerhero SVG Exporter: http://www.layerhero.com/photoshop-svg-exporter --><!DOCTYPE svg PUBLIC "-//W3C//DTD SVG 1.1//EN" "http://www.w3.org/Graphics/SVG/1.1/DTD/svg11.dtd"><svg version="1.1" baseProfile="full" xmlns="http://www.w3.org/2000/svg" xmlns:xlink="http://www.w3.org/1999/xlink" xmlns:ev="http://www.w3.org/2001/xml-events" width="65" height="64" viewBox="0 0 65 64"><g transform="scale(NaN)" ><path fill-rule="evenodd"  fill="rgb( 71, 182, 199 )" d="M63.627,63.394 C62.846,64.175 61.580,64.175 60.799,63.394 C60.799,63.394 41.381,43.856 41.381,43.856 C36.992,47.672 31.273,50.000 25.000,50.000 C11.193,50.000 0.000,38.807 0.000,25.000 C0.000,11.193 11.193,-0.000 25.000,-0.000 C38.807,-0.000 50.000,11.193 50.000,25.000 C50.000,31.093 47.815,36.673 44.193,41.010 C44.193,41.010 63.627,60.566 63.627,60.566 C64.409,61.347 64.409,62.613 63.627,63.394 ZM46.033,25.000 C46.033,13.384 36.616,3.967 25.000,3.967 C13.384,3.967 3.967,13.384 3.967,25.000 C3.967,36.616 13.384,46.033 25.000,46.033 C36.616,46.033 46.033,36.616 46.033,25.000 Z"/></g></svg>