<?xml version="1.0" encoding="utf-8"?>
<!-- Generator: Adobe Illustrator 17.1.0, SVG Export Plug-In . SVG Version: 6.00 Build 0)  -->
<svg version="1.2" baseProfile="tiny" id="Ok" xmlns="http://www.w3.org/2000/svg" xmlns:xlink="http://www.w3.org/1999/xlink"
	 x="0px" y="0px" viewBox="2559.5 938.5 386 65" xml:space="preserve">
<polygon fill="#629EC7" points="2945.5,1003.5 2780.5,1003.5 2780.5,938.5 2945.5,938.5 "/>
<g>
	<rect x="2559.5" y="938.5" fill="#414042" width="221" height="65"/>
	<path fill="#FFFFFF" d="M2609.7,962l0.9,4.8l-1.3,0.3c-0.8-3.2-3.5-5.3-6.9-5.3c-4.2,0-7.3,3.7-7.3,8.7c0,5.2,3.3,8.9,7.7,8.9
		c3.5,0,6-2,7-5.7l1.3,0.2l-0.5,4.7c-3.3,1.7-5.6,2.4-8.4,2.4c-6.6,0-11.1-4.3-11.1-10.6c0-6.1,4.3-10.1,10.8-10.1
		c2.6,0,4.1,0.3,7.2,1.5C2609.3,961.8,2609.5,961.9,2609.7,962z"/>
	<path fill="#FFFFFF" d="M2635,963.7c0.6,1.3,0.8,1.7,1.6,3.2c0.7,1.3,1.1,2.2,1.3,2.5l1,2.1l1,2l0.4,0.7c0.6-1.1,0.8-1.5,1.4-2.9
		l1.1-2.4l1.2-2.6l1-2.2l0.3-0.6h5.8v0.8c-0.4-0.1-0.5-0.1-0.8-0.1c-1.6,0-1.9,0.5-1.9,3.6v6.1c0,2.9,0.3,3.6,1.8,3.6
		c0.2,0,0.5,0,0.9-0.1v0.8h-8.3v-0.8c0.3,0.1,0.5,0.1,0.7,0.1c1.4,0,1.8-0.7,1.8-3.6v-7.5c-0.2,0.4-0.3,0.6-0.4,0.8
		c-0.1,0.1-0.4,0.9-1,2.2l-1.2,2.5l-1.3,2.9c-0.6,1.5-1,2.3-1.1,2.5c-0.1,0.1-0.2,0.4-0.3,0.7h-1l-0.3-0.7c-1.2-2.7-1.4-3.1-2.3-4.9
		l-1.2-2.4c-0.6-1.3-1-2.1-1.2-2.4c-0.1-0.2-0.3-0.6-0.6-1.1v7.4v0.7c0,2.2,0.5,2.9,2,2.9c0.2,0,0.4,0,0.6-0.1v0.8h-6.4v-0.8
		c0.2,0.1,0.5,0.1,0.7,0.1c1.5,0,1.8-0.7,1.8-3.6V968v-0.7c0-2.3-0.3-2.9-1.7-2.9c-0.3,0-0.4,0-0.7,0.1v-0.8H2635z"/>
	<path fill="#FFFFFF" d="M2696.5,977.6v0.8h-9.7v-0.8c0.5,0.1,0.8,0.1,1.1,0.1c1.8,0,2.1-0.6,2.1-3.6V968c0-3.1-0.3-3.6-2.1-3.6
		c-0.4,0-0.6,0-0.9,0.1v-0.8h9.4v0.8c-0.4-0.1-0.6-0.1-1.1-0.1c-1.8,0-2.2,0.6-2.2,3.6v6.1c0,3,0.4,3.6,2.1,3.6
		C2695.7,977.7,2696.1,977.7,2696.5,977.6z"/>
	<path fill="#FFFFFF" d="M2732,964.1l0.7,3.8l-1.1,0.2c-0.9-2.6-2.4-3.8-4.8-3.8c-3.4,0-5.7,2.6-5.7,6.4c0,4.1,2.5,7,6.1,7
		c0.9,0,1.5-0.1,2.4-0.4v-3.6v-0.4c0-1.1-0.4-1.6-1.4-1.6c-0.1,0-0.3,0-0.5,0l-0.2,0v-0.9h7.3v0.9l-0.2,0l-0.3,0l-0.1,0
		c-1.3,0-1.6,0.4-1.6,2.2c0,1.1,0,2.6,0.1,3.9c-0.9,0.2-1.8,0.3-2.6,0.5c-2.2,0.5-3.1,0.6-4.4,0.6c-4.7,0-7.8-3.1-7.8-7.6
		c0-4.8,3.2-7.8,8.4-7.8c0.9,0,1.9,0.1,2.8,0.2l1.3,0.2l1.1,0.2L2732,964.1z"/>
	<path fill="#FFFFFF" d="M2748.8,963.7l0.6,3.2l-0.9,0.2c-0.4-1.9-1.3-2.4-4.2-2.4c-0.9,0-1.4,0.1-2.4,0.2v5.1h2.6
		c1.4,0,1.9-0.3,1.9-1.4c0-0.2,0-0.3,0-0.5h0.9v5h-0.9c0-0.4,0-0.5,0-0.7c0-1-0.5-1.3-1.9-1.3h-2.6v6.1h2.7h0.4
		c2.5,0,3.2-0.5,4.2-2.6c0-0.1,0.1-0.2,0.2-0.4l0.9,0.3l-1.4,4h-13.3v-0.8c0.4,0.1,0.8,0.1,1.2,0.1c1.7,0,2.1-0.7,2.1-3.6V968
		c0-3-0.4-3.6-2.1-3.6c-0.4,0-0.6,0-0.9,0.1v-0.8H2748.8z"/>
	<path fill="#FFFFFF" d="M2620.6,962.8l2.7,6.7l0.2,0.4c2.7,6.9,3.3,7.9,4.9,7.9c0.2,0,0.4,0,0.7-0.1v0.8h-8.1v-0.8
		c0.4,0.1,0.5,0.1,0.8,0.1c0.8,0,1.2-0.3,1.2-0.9c0-0.2-0.1-0.4-0.2-0.7l-0.9-2.4h-5l-0.7,1.8l-0.1,0.4l-0.2,0.4
		c-0.1,0.2-0.1,0.4-0.1,0.5c0,0.6,0.5,1,1.4,1c0.3,0,0.4,0,0.9-0.1v0.8h-6.4v-0.8c0.3,0.1,0.5,0.1,0.7,0.1c1.2,0,1.7-0.6,2.7-3
		l0.4-0.9l0.2-0.5l4.4-10.5H2620.6z M2619.4,967.4l-2.2,5.2h4.2L2619.4,967.4z"/>
	<path fill="#FFFFFF" d="M2652.7,964.5v-0.8h4.6h0.6c0.5,0,1.3,0,2.6-0.1c0.6,0,1.1,0,1.4,0c2.7,0,4.3,1.2,4.3,3.1
		c0,1.9-1.3,3.1-3.8,3.7c3,0.2,4.3,1.4,4.3,3.6c0,2.9-2.3,4.4-6.4,4.4c-0.3,0-0.8,0-1.4,0l-1.4,0h-0.6h-4.5v-0.8
		c0.4,0.1,0.8,0.1,1.2,0.1c1.7,0,2.1-0.6,2.1-3.6V968c0-3.1-0.3-3.6-2.1-3.6C2653.2,964.4,2653.1,964.4,2652.7,964.5z M2658.7,970.1
		c0.3,0.1,0.8,0.1,1.1,0.1c2,0,3.5-1.4,3.5-3.2c0-1.5-1.3-2.5-3-2.5c-0.5,0-0.8,0.1-1.7,0.3V970.1z M2658.7,977.3
		c0.7,0.1,1.2,0.2,1.8,0.2c1.9,0,3.2-1.5,3.2-3.5c0-1.9-1.4-3-3.8-3c-0.4,0-0.6,0-1.2,0.1V977.3z"/>
	<path fill="#FFFFFF" d="M2669.3,964.5v-0.8h4.3h0.5l1.1,0l1.1,0c1,0,1.3,0,1.5,0c3.3,0,5,1.2,5,3.5c0,2.2-1.3,3.5-3.8,3.7
		c1.5,0.8,2,1.4,3.1,3.3c1.4,2.6,2.2,3.5,3.4,3.5c0.1,0,0.2,0,0.7-0.1v0.8h-1.6h-0.5l-0.7,0l-0.6,0c-1.4,0-2.1-0.5-3-2.2l-0.6-1.1
		c-1.6-2.9-2.2-3.5-4-3.5v2.6c0,3,0.3,3.6,2.1,3.6c0.3,0,0.6,0,1-0.1v0.8h-9.2v-0.8c0.4,0.1,0.8,0.1,1.1,0.1c1.6,0,2.1-0.7,2.1-2.9
		v-0.7V968v-0.7c0-2.2-0.5-2.9-2.1-2.9C2669.8,964.4,2669.6,964.4,2669.3,964.5z M2675.2,970.7c0.5,0,0.6,0.1,1,0.1
		c2.3,0,3.6-1.2,3.6-3.4c0-1.8-1.2-3-2.9-3c-0.5,0-1.1,0.1-1.6,0.3V970.7z"/>
	<path fill="#FFFFFF" d="M2698.2,964.5v-0.8h4.6h0.5l1.1,0l1.3,0c0.9,0,1.5,0,1.8,0c5.1,0,7.9,2.3,7.9,6.6c0,5-3.6,8.3-9.1,8.3
		l-1.6,0l-1.1,0h-0.7h-4.7v-0.8c0.4,0.1,0.8,0.1,1.2,0.1c1.8,0,2.1-0.6,2.1-3.6V968c0-3.1-0.3-3.6-2.2-3.6
		C2698.8,964.4,2698.6,964.4,2698.2,964.5z M2704.4,977.2c1,0.3,1.5,0.4,2.3,0.4c3.2,0,5.3-2.8,5.3-7.1c0-3.8-1.9-6-5.3-6
		c-0.8,0-1.4,0.1-2.3,0.4V977.2z"/>
</g>
<g>
	<path fill="#FFFFFF" d="M2809.5,981.7v-21.8h1.9v20.3h6.1v1.5H2809.5z"/>
	<path fill="#FFFFFF" d="M2841,981.7h-1.9c2-10.1,2.3-11.7,4.3-21.8h2.5l4.3,21.8h-2l-1.1-5.7h-5L2841,981.7z M2842.3,974.7h4.6
		l-2.3-12.9L2842.3,974.7z"/>
	<path fill="#FFFFFF" d="M2873.5,981.7v-21.8h4.7c3.9,0,4.9,2.8,4.9,5.5c0,1.7-0.8,3.7-2.4,4.5c2.2,0.9,2.8,3.5,2.8,5.3
		c0,3.5-0.7,6.5-5,6.5H2873.5z M2875.4,969.2h3.1c2,0,2.5-1.8,2.5-3.8c0-2.2-0.7-4.1-3.1-4.1h-2.5V969.2z M2875.4,980.2h3.5
		c2.3,0,2.8-2.3,2.8-5c0-2.4-0.5-4.5-2.8-4.5h-3.5V980.2z"/>
	<path fill="#FFFFFF" d="M2906.5,976.4l1.7-0.5c0.3,2.3,1.3,4.6,3.9,4.6c2,0,3.1-1.2,3.1-3.2c0-1.9-1.3-3.4-2.9-5.1l-3.4-3.6
		c-1.3-1.4-2.3-2.7-2.3-4.4c0-2.9,2.1-4.7,5-4.7c2.9,0,4.6,1.7,5.2,4.7l0,0.2l-1.6,0.5l0-0.2c-0.3-2-1.5-3.7-3.6-3.7
		c-1.9,0-3.2,0.9-3.2,2.9c0,1.2,0.7,2.3,1.8,3.5l3.2,3.5c1.7,1.9,3.6,3.7,3.6,6.2c0,3.2-2.2,4.9-5.2,4.9
		C2908.7,982,2907,979.4,2906.5,976.4z"/>
</g>
</svg>
