<?xml version="1.0" encoding="utf-8"?> <!-- Generated by Layerhero SVG Exporter: http://www.layerhero.com/photoshop-svg-exporter --><!DOCTYPE svg PUBLIC "-//W3C//DTD SVG 1.1//EN" "http://www.w3.org/Graphics/SVG/1.1/DTD/svg11.dtd"><svg version="1.1" baseProfile="full" xmlns="http://www.w3.org/2000/svg" xmlns:xlink="http://www.w3.org/1999/xlink" xmlns:ev="http://www.w3.org/2001/xml-events" width="205" height="167" viewBox="0 0 205 167"><g transform="scale(NaN)" ><path fill-rule="evenodd"  fill="rgb( 255, 235, 97 )" d="M202.679,52.066 C191.767,11.217 138.074,-9.839 82.749,5.035 C27.422,19.911 -8.588,65.079 2.321,105.929 C13.231,146.775 66.926,167.833 122.254,152.960 C177.582,138.083 213.587,92.913 202.679,52.066 Z"/><path fill-rule="evenodd"  fill="rgb( 255, 192, 0 )" d="M202.679,61.066 C191.767,20.217 138.074,-0.839 82.749,14.035 C27.422,28.911 -8.588,74.079 2.321,114.929 C13.231,155.775 66.926,176.833 122.254,161.960 C177.582,147.083 213.587,101.913 202.679,61.066 Z"/><path fill-rule="evenodd"  fill="rgb( 255, 213, 0 )" d="M202.679,56.561 C191.767,15.698 138.074,-5.365 82.749,9.514 C27.422,24.395 -8.588,69.579 2.321,110.443 C13.231,151.304 66.926,172.370 122.254,157.491 C177.582,142.609 213.587,97.422 202.679,56.561 Z"/><path fill-rule="evenodd"  fill="rgb( 26, 23, 27 )" d="M194.997,80.414 C194.997,80.414 186.354,79.411 186.354,79.411 C186.354,79.411 186.938,74.397 186.938,74.397 C186.938,74.397 188.342,74.560 188.342,74.560 C188.342,74.560 187.947,77.936 187.947,77.936 C187.947,77.936 190.015,78.176 190.015,78.176 C190.015,78.176 190.318,75.575 190.318,75.575 C190.318,75.575 191.734,75.512 191.734,75.512 C191.734,75.512 191.405,78.337 191.405,78.337 C191.405,78.337 193.786,78.614 193.786,78.614 C193.786,78.614 194.193,75.113 194.193,75.113 C194.193,75.113 195.597,75.276 195.597,75.276 C195.597,75.276 194.997,80.414 194.997,80.414 ZM188.995,49.520 C188.624,48.817 188.148,48.635 187.714,48.862 C187.239,49.111 187.144,49.489 187.309,50.887 C187.639,53.322 187.354,54.489 185.864,55.272 C183.830,56.338 182.151,55.318 181.176,53.465 C180.513,52.206 180.229,51.009 180.164,49.834 C180.164,49.834 182.321,49.134 182.321,49.134 C182.312,50.365 182.522,51.619 183.013,52.553 C183.363,53.216 183.890,53.527 184.445,53.235 C184.974,52.958 185.076,52.559 184.887,50.984 C184.622,48.740 184.805,47.608 186.350,46.798 C188.153,45.852 189.857,46.754 190.797,48.541 C191.439,49.758 191.621,50.664 191.655,51.682 C191.655,51.682 189.517,52.354 189.517,52.354 C189.564,51.259 189.372,50.237 188.995,49.520 ZM176.074,45.980 C174.413,43.997 174.322,41.719 176.592,39.825 C176.592,39.825 181.493,35.733 181.493,35.733 C181.493,35.733 183.185,37.752 183.185,37.752 C183.185,37.752 178.294,41.834 178.294,41.834 C177.247,42.707 177.030,43.687 177.787,44.590 C178.553,45.506 179.536,45.462 180.571,44.599 C180.571,44.599 185.485,40.497 185.485,40.497 C185.485,40.497 187.177,42.516 187.177,42.516 C187.177,42.516 182.285,46.598 182.285,46.598 C180.028,48.482 177.716,47.939 176.074,45.980 ZM171.608,36.507 C171.608,36.507 171.085,36.082 171.085,36.082 C171.085,36.082 168.868,38.797 168.868,38.797 C168.868,38.797 166.836,37.145 166.836,37.145 C166.836,37.145 173.516,28.963 173.516,28.963 C173.516,28.963 176.154,31.108 176.154,31.108 C178.150,32.731 178.647,34.616 177.195,36.394 C175.685,38.244 173.592,38.120 171.608,36.507 ZM174.787,32.541 C174.787,32.541 174.275,32.126 174.275,32.126 C174.275,32.126 172.310,34.533 172.310,34.533 C172.310,34.533 172.785,34.919 172.785,34.919 C173.688,35.654 174.507,35.668 175.194,34.826 C175.833,34.044 175.689,33.275 174.787,32.541 ZM165.899,31.536 C165.899,31.536 166.177,36.194 166.177,36.194 C166.177,36.194 163.557,35.184 163.557,35.184 C163.557,35.184 163.439,30.796 163.439,30.796 C163.439,30.796 162.870,30.466 162.870,30.466 C162.870,30.466 161.042,33.598 161.042,33.598 C161.042,33.598 158.791,32.289 158.791,32.289 C158.791,32.289 164.114,23.170 164.114,23.170 C164.114,23.170 167.305,25.026 167.305,25.026 C169.516,26.311 170.228,28.070 169.132,29.947 C168.392,31.215 167.255,31.705 165.899,31.536 ZM166.085,26.599 C166.085,26.599 165.356,26.176 165.356,26.176 C165.356,26.176 163.806,28.833 163.806,28.833 C163.806,28.833 164.508,29.241 164.508,29.241 C165.487,29.810 166.322,29.658 166.831,28.786 C167.325,27.940 167.064,27.169 166.085,26.599 ZM152.645,29.862 C149.827,28.743 148.793,25.962 150.000,22.937 C151.212,19.897 153.883,18.573 156.730,19.703 C159.576,20.834 160.596,23.609 159.389,26.635 C158.183,29.660 155.506,30.999 152.645,29.862 ZM155.956,21.601 C154.548,21.041 153.215,21.943 152.439,23.889 C151.663,25.835 152.010,27.405 153.418,27.965 C154.841,28.530 156.160,27.622 156.936,25.676 C157.712,23.730 157.379,22.167 155.956,21.601 ZM146.639,18.645 C145.038,18.229 143.698,19.176 143.188,21.129 C142.671,23.111 143.443,24.576 145.044,24.993 C145.874,25.209 146.697,25.091 147.576,24.814 C147.576,24.814 147.350,27.014 147.350,27.014 C146.411,27.276 145.381,27.340 144.181,27.028 C141.127,26.233 139.807,23.709 140.649,20.484 C141.476,17.318 143.975,15.693 147.058,16.495 C148.140,16.777 148.952,17.241 149.581,17.863 C149.581,17.863 148.631,20.049 148.631,20.049 C148.147,19.417 147.528,18.877 146.639,18.645 ZM140.933,131.773 C140.933,131.773 142.573,130.994 142.573,130.994 C142.573,130.994 142.046,137.181 142.046,137.181 C142.046,137.181 143.477,140.181 143.477,140.181 C143.477,140.181 141.962,140.901 141.962,140.901 C141.962,140.901 140.537,137.912 140.537,137.912 C140.537,137.912 135.561,134.533 135.561,134.533 C135.561,134.533 137.013,133.537 137.013,133.537 C137.013,133.537 140.668,136.136 140.668,136.136 C140.668,136.136 140.933,131.773 140.933,131.773 ZM133.888,144.332 C133.888,144.332 131.232,137.593 131.232,137.593 C131.232,137.593 128.789,138.552 128.789,138.552 C128.789,138.552 128.257,137.205 128.257,137.205 C128.257,137.205 134.552,134.733 134.552,134.733 C134.552,134.733 135.306,135.993 135.306,135.993 C135.306,135.993 132.782,136.984 132.782,136.984 C132.782,136.984 135.438,143.724 135.438,143.724 C135.438,143.724 133.888,144.332 133.888,144.332 ZM131.159,24.295 C131.159,24.295 131.605,20.038 131.605,20.038 C131.605,20.038 127.964,19.657 127.964,19.657 C127.964,19.657 127.517,23.914 127.517,23.914 C127.517,23.914 124.912,23.642 124.912,23.642 C124.912,23.642 126.012,13.150 126.012,13.150 C126.012,13.150 128.618,13.423 128.618,13.423 C128.618,13.423 128.202,17.391 128.202,17.391 C128.202,17.391 131.843,17.772 131.843,17.772 C131.843,17.772 132.259,13.803 132.259,13.803 C132.259,13.803 134.880,14.077 134.880,14.077 C134.880,14.077 133.780,24.569 133.780,24.569 C133.780,24.569 131.159,24.295 131.159,24.295 ZM119.993,17.055 C122.300,17.915 123.196,18.717 123.183,20.398 C123.165,22.692 121.471,23.687 119.373,23.670 C117.948,23.659 116.755,23.343 115.687,22.845 C115.687,22.845 116.088,20.617 116.088,20.617 C117.172,21.206 118.378,21.614 119.435,21.622 C120.186,21.628 120.709,21.311 120.714,20.684 C120.719,20.088 120.415,19.810 118.933,19.233 C116.827,18.406 115.913,17.710 115.927,15.967 C115.943,13.934 117.546,12.861 119.567,12.878 C120.946,12.889 121.832,13.156 122.748,13.607 C122.748,13.607 122.331,15.805 122.331,15.805 C121.386,15.247 120.393,14.933 119.581,14.927 C118.785,14.920 118.399,15.253 118.395,15.743 C118.390,16.278 118.680,16.540 119.993,17.055 ZM117.674,149.515 C117.674,149.515 116.358,147.462 116.358,147.462 C116.358,147.462 113.146,148.182 113.146,148.182 C113.146,148.182 112.892,150.496 112.892,150.496 C112.892,150.496 111.255,150.863 111.255,150.863 C111.255,150.863 112.527,141.637 112.527,141.637 C112.527,141.637 114.262,141.249 114.262,141.249 C114.262,141.249 119.244,148.853 119.244,148.853 C119.244,148.853 117.674,149.515 117.674,149.515 ZM113.722,143.214 C113.722,143.214 113.291,146.756 113.291,146.756 C113.291,146.756 115.604,146.237 115.604,146.237 C115.604,146.237 113.722,143.214 113.722,143.214 ZM110.387,13.261 C110.387,13.261 113.002,13.116 113.002,13.116 C113.002,13.116 113.590,23.646 113.590,23.646 C113.590,23.646 110.975,23.791 110.975,23.791 C110.975,23.791 110.387,13.261 110.387,13.261 ZM106.089,151.833 C104.006,152.147 102.461,151.120 102.122,148.879 C102.122,148.879 101.325,143.614 101.325,143.614 C101.325,143.614 102.971,143.366 102.971,143.366 C102.971,143.366 103.755,148.544 103.755,148.544 C103.953,149.851 104.675,150.582 105.885,150.400 C107.108,150.215 107.602,149.352 107.402,148.033 C107.402,148.033 106.613,142.817 106.613,142.817 C106.613,142.817 108.272,142.567 108.272,142.567 C108.272,142.567 109.063,147.795 109.063,147.795 C109.407,150.072 108.172,151.519 106.089,151.833 ZM101.711,14.110 C101.711,14.110 104.314,13.814 104.314,13.814 C104.314,13.814 105.253,22.048 105.253,22.048 C105.253,22.048 108.480,21.682 108.480,21.682 C108.480,21.682 109.087,23.890 109.087,23.890 C109.087,23.890 102.906,24.592 102.906,24.592 C102.906,24.592 101.711,14.110 101.711,14.110 ZM97.001,25.788 C93.706,26.428 91.464,24.620 90.840,21.422 C90.214,18.209 91.760,15.649 94.964,15.026 C96.243,14.778 97.370,14.871 98.287,15.176 C98.287,15.176 98.378,17.480 98.378,17.480 C97.499,17.136 96.505,16.924 95.437,17.132 C93.647,17.479 93.032,18.970 93.410,20.907 C93.791,22.859 94.960,24.050 96.750,23.702 C97.322,23.591 97.704,23.392 98.085,23.100 C98.085,23.100 97.725,21.253 97.725,21.253 C97.725,21.253 95.919,21.604 95.919,21.604 C95.919,21.604 95.246,19.756 95.246,19.756 C95.246,19.756 99.594,18.911 99.594,18.911 C99.594,18.911 100.578,23.955 100.578,23.955 C99.633,24.871 98.430,25.510 97.001,25.788 ZM82.053,22.763 C82.053,22.763 83.808,28.827 83.808,28.827 C83.808,28.827 81.469,29.502 81.469,29.502 C81.469,29.502 78.537,19.370 78.537,19.370 C78.537,19.370 80.979,18.666 80.979,18.666 C80.979,18.666 86.356,23.257 86.356,23.257 C86.356,23.257 84.716,17.588 84.716,17.588 C84.716,17.588 87.055,16.914 87.055,16.914 C87.055,16.914 89.987,27.046 89.987,27.046 C89.987,27.046 87.810,27.674 87.810,27.674 C87.810,27.674 82.053,22.763 82.053,22.763 ZM76.357,24.487 C76.357,24.487 77.417,26.328 77.417,26.328 C77.417,26.328 74.236,27.531 74.236,27.531 C74.236,27.531 75.029,29.619 75.029,29.619 C75.029,29.619 78.912,28.150 78.912,28.150 C78.912,28.150 79.667,30.137 79.667,30.137 C79.667,30.137 73.377,32.517 73.377,32.517 C73.377,32.517 69.629,22.650 69.629,22.650 C69.629,22.650 75.790,20.319 75.790,20.319 C75.790,20.319 76.540,22.293 76.540,22.293 C76.540,22.293 72.786,23.713 72.786,23.713 C72.786,23.713 73.492,25.572 73.492,25.572 C73.492,25.572 76.357,24.487 76.357,24.487 ZM70.480,147.463 C69.973,149.995 68.027,151.418 65.119,150.837 C65.119,150.837 62.409,150.296 62.409,150.296 C62.409,150.296 64.117,141.774 64.117,141.774 C64.117,141.774 66.827,142.315 66.827,142.315 C69.797,142.908 70.983,144.956 70.480,147.463 ZM66.545,143.659 C66.545,143.659 65.481,143.446 65.481,143.446 C65.481,143.446 64.312,149.276 64.312,149.276 C64.312,149.276 65.352,149.484 65.352,149.484 C67.146,149.842 68.406,149.143 68.807,147.142 C69.201,145.178 68.253,143.999 66.545,143.659 ZM57.221,28.497 C57.221,28.497 63.093,25.517 63.093,25.517 C63.093,25.517 64.051,27.398 64.051,27.398 C64.051,27.398 60.474,29.213 60.474,29.213 C60.474,29.213 61.377,30.985 61.377,30.985 C61.377,30.985 64.107,29.599 64.107,29.599 C64.107,29.599 65.359,31.313 65.359,31.313 C65.359,31.313 62.328,32.852 62.328,32.852 C62.328,32.852 63.342,34.841 63.342,34.841 C63.342,34.841 67.042,32.963 67.042,32.963 C67.042,32.963 68.007,34.858 68.007,34.858 C68.007,34.858 62.013,37.900 62.013,37.900 C62.013,37.900 57.221,28.497 57.221,28.497 ZM54.441,37.592 C54.441,37.592 53.150,36.109 53.150,36.109 C53.150,36.109 56.901,33.765 56.901,33.765 C56.901,33.765 59.632,38.118 59.632,38.118 C59.079,39.311 58.187,40.337 56.954,41.107 C54.111,42.884 51.371,42.000 49.640,39.240 C47.900,36.468 48.422,33.527 51.187,31.799 C52.291,31.110 53.375,30.793 54.341,30.749 C54.341,30.749 55.253,32.865 55.253,32.865 C54.310,32.860 53.307,33.018 52.385,33.593 C50.840,34.559 50.803,36.169 51.851,37.840 C52.908,39.525 54.426,40.217 55.970,39.251 C56.464,38.943 56.749,38.621 56.999,38.212 C56.999,38.212 55.999,36.619 55.999,36.619 C55.999,36.619 54.441,37.592 54.441,37.592 ZM47.189,47.690 C47.189,47.690 44.264,49.965 44.264,49.965 C44.264,49.965 37.765,41.642 37.765,41.642 C37.765,41.642 40.642,39.404 40.642,39.404 C43.542,37.148 46.362,37.650 48.294,40.123 C50.224,42.596 50.005,45.500 47.189,47.690 ZM46.224,41.752 C44.858,40.003 43.248,39.956 41.834,41.056 C41.834,41.056 41.084,41.639 41.084,41.639 C41.084,41.639 45.078,46.754 45.078,46.754 C45.078,46.754 45.828,46.170 45.828,46.170 C47.302,45.024 47.618,43.537 46.224,41.752 ZM40.629,53.376 C40.629,53.376 33.428,45.649 33.428,45.649 C33.428,45.649 35.346,43.867 35.346,43.867 C35.346,43.867 42.547,51.594 42.547,51.594 C42.547,51.594 40.629,53.376 40.629,53.376 ZM34.574,53.451 C34.574,53.451 39.198,54.137 39.198,54.137 C39.198,54.137 37.669,56.488 37.669,56.488 C37.669,56.488 33.343,55.701 33.343,55.701 C33.343,55.701 32.901,56.189 32.901,56.189 C32.901,56.189 35.596,58.618 35.596,58.618 C35.596,58.618 33.850,60.548 33.850,60.548 C33.850,60.548 26.004,53.474 26.004,53.474 C26.004,53.474 28.479,50.739 28.479,50.739 C30.195,48.844 32.066,48.511 33.680,49.966 C34.772,50.951 35.018,52.161 34.574,53.451 ZM32.068,51.976 C31.341,51.320 30.532,51.415 29.771,52.255 C29.771,52.255 29.206,52.879 29.206,52.879 C29.206,52.879 31.492,54.939 31.492,54.939 C31.492,54.939 32.037,54.338 32.037,54.338 C32.797,53.498 32.819,52.652 32.068,51.976 ZM27.122,60.181 C28.082,59.452 29.124,59.247 30.304,60.071 C31.974,61.237 31.924,63.069 30.483,65.124 C30.483,65.124 28.453,68.018 28.453,68.018 C28.453,68.018 19.791,61.967 19.791,61.967 C19.791,61.967 21.856,59.023 21.856,59.023 C23.235,57.056 24.761,56.666 26.168,57.648 C27.109,58.306 27.300,59.260 27.122,60.181 ZM25.062,59.732 C24.484,59.328 23.874,59.425 23.294,60.252 C23.294,60.252 22.758,61.016 22.758,61.016 C22.758,61.016 24.717,62.384 24.717,62.384 C24.717,62.384 25.218,61.670 25.218,61.670 C25.780,60.868 25.689,60.170 25.062,59.732 ZM28.333,64.910 C28.333,64.910 28.886,64.120 28.886,64.120 C29.492,63.256 29.480,62.500 28.739,61.983 C27.998,61.466 27.275,61.670 26.634,62.584 C26.634,62.584 26.098,63.349 26.098,63.349 C26.098,63.349 28.333,64.910 28.333,64.910 ZM26.354,71.600 C26.354,71.600 19.745,69.043 19.745,69.043 C19.745,69.043 25.337,73.825 25.337,73.825 C25.337,73.825 24.292,76.070 24.292,76.070 C24.292,76.070 17.023,74.892 17.023,74.892 C17.023,74.892 23.246,78.281 23.246,78.281 C23.246,78.281 22.285,80.346 22.285,80.346 C22.285,80.346 13.025,75.212 13.025,75.212 C13.025,75.212 14.450,72.149 14.450,72.149 C14.450,72.149 21.911,73.349 21.911,73.349 C21.911,73.349 16.185,68.420 16.185,68.420 C16.185,68.420 17.572,65.440 17.572,65.440 C17.572,65.440 27.477,69.188 27.477,69.188 C27.477,69.188 26.354,71.600 26.354,71.600 ZM21.773,83.353 C21.773,83.353 19.363,83.641 19.363,83.641 C19.363,83.641 18.607,87.201 18.607,87.201 C18.607,87.201 20.604,88.342 20.604,88.342 C20.604,88.342 20.070,90.855 20.070,90.855 C20.070,90.855 10.471,84.948 10.471,84.948 C10.471,84.948 11.069,82.136 11.069,82.136 C11.069,82.136 21.903,80.676 21.903,80.676 C21.903,80.676 21.773,83.353 21.773,83.353 ZM13.379,84.235 C13.379,84.235 16.728,86.163 16.728,86.163 C16.728,86.163 17.221,83.844 17.221,83.844 C17.221,83.844 13.379,84.235 13.379,84.235 ZM11.602,94.007 C11.617,95.657 12.882,96.701 14.904,96.683 C16.957,96.665 18.172,95.538 18.158,93.886 C18.150,93.030 17.821,92.269 17.324,91.494 C17.324,91.494 19.512,91.137 19.512,91.137 C20.009,91.974 20.340,92.949 20.351,94.188 C20.379,97.337 18.283,99.267 14.943,99.297 C11.665,99.327 9.441,97.344 9.413,94.164 C9.403,93.048 9.640,92.143 10.077,91.375 C10.077,91.375 12.439,91.721 12.439,91.721 C11.955,92.352 11.593,93.089 11.602,94.007 ZM28.409,120.672 C29.006,121.453 29.283,122.192 29.353,122.946 C29.353,122.946 27.952,123.710 27.952,123.710 C27.950,123.000 27.816,122.263 27.303,121.592 C26.348,120.339 24.831,120.305 23.335,121.442 C21.829,122.586 21.502,124.070 22.450,125.312 C22.947,125.963 23.624,126.352 24.390,126.608 C24.390,126.608 23.363,127.673 23.363,127.673 C22.600,127.399 21.816,126.871 21.212,126.079 C19.683,124.076 20.135,121.738 22.293,120.097 C24.441,118.464 26.873,118.658 28.409,120.672 ZM33.838,126.586 C33.838,126.586 30.340,134.978 30.340,134.978 C30.340,134.978 28.908,134.054 28.908,134.054 C28.908,134.054 29.869,131.813 29.869,131.813 C29.869,131.813 27.465,129.567 27.465,129.567 C27.465,129.567 25.403,130.661 25.403,130.661 C25.403,130.661 24.178,129.516 24.178,129.516 C24.178,129.516 32.539,125.372 32.539,125.372 C32.539,125.372 33.838,126.586 33.838,126.586 ZM28.727,128.885 C28.727,128.885 30.460,130.502 30.460,130.502 C30.460,130.502 31.905,127.247 31.905,127.247 C31.905,127.247 28.727,128.885 28.727,128.885 ZM38.978,130.776 C38.978,130.776 37.230,137.473 37.230,137.473 C37.230,137.473 42.664,133.180 42.664,133.180 C42.664,133.180 44.406,134.317 44.406,134.317 C44.406,134.317 40.203,141.954 40.203,141.954 C40.203,141.954 38.809,141.045 38.809,141.045 C38.809,141.045 41.932,135.425 41.932,135.425 C41.932,135.425 36.578,139.619 36.578,139.619 C36.578,139.619 35.332,138.806 35.332,138.806 C35.332,138.806 37.022,132.221 37.022,132.221 C37.022,132.221 33.138,137.345 33.138,137.345 C33.138,137.345 31.882,136.526 31.882,136.526 C31.882,136.526 37.204,129.618 37.204,129.618 C37.204,129.618 38.978,130.776 38.978,130.776 ZM48.675,136.341 C50.444,137.172 50.912,138.367 50.326,139.609 C49.940,140.429 49.230,140.750 48.411,140.713 C49.161,141.399 49.474,142.242 48.979,143.290 C48.248,144.839 46.780,145.054 44.931,144.185 C44.931,144.185 42.671,143.122 42.671,143.122 C42.671,143.122 46.381,135.263 46.381,135.263 C46.381,135.263 48.675,136.341 48.675,136.341 ZM44.664,142.653 C44.664,142.653 45.474,143.034 45.474,143.034 C46.433,143.485 47.181,143.349 47.552,142.563 C47.928,141.766 47.590,141.092 46.586,140.620 C46.586,140.620 45.799,140.250 45.799,140.250 C45.799,140.250 44.664,142.653 44.664,142.653 ZM47.000,139.506 C47.890,139.925 48.546,139.746 48.864,139.074 C49.159,138.448 48.965,137.883 48.052,137.454 C48.052,137.454 47.288,137.094 47.288,137.094 C47.288,137.094 46.304,139.179 46.304,139.179 C46.304,139.179 47.000,139.506 47.000,139.506 ZM55.573,139.174 C57.404,139.823 58.202,141.081 57.636,142.671 C57.210,143.871 56.302,144.391 55.152,144.385 C55.152,144.385 56.233,148.390 56.233,148.390 C56.233,148.390 54.462,148.097 54.462,148.097 C54.462,148.097 53.465,144.122 53.465,144.122 C53.465,144.122 52.799,143.885 52.799,143.885 C52.799,143.885 51.684,147.019 51.684,147.019 C51.684,147.019 50.114,146.463 50.114,146.463 C50.114,146.463 53.027,138.272 53.027,138.272 C53.027,138.272 55.573,139.174 55.573,139.174 ZM54.010,142.965 C54.986,143.310 55.757,143.062 56.061,142.208 C56.352,141.388 55.993,140.740 55.006,140.391 C55.006,140.391 54.138,140.082 54.138,140.082 C54.138,140.082 53.213,142.682 53.213,142.682 C53.213,142.682 54.010,142.965 54.010,142.965 ZM62.056,141.191 C62.056,141.191 59.731,149.562 59.731,149.562 C59.731,149.562 58.114,149.115 58.114,149.115 C58.114,149.115 60.439,140.744 60.439,140.744 C60.439,140.744 62.056,141.191 62.056,141.191 ZM76.898,143.705 C78.002,143.822 78.813,144.187 79.459,144.673 C79.459,144.673 79.056,146.187 79.056,146.187 C78.454,145.655 77.713,145.222 76.760,145.120 C75.067,144.941 74.084,146.077 73.888,147.917 C73.690,149.769 74.438,151.089 76.181,151.274 C76.782,151.338 77.222,151.258 77.673,151.078 C77.673,151.078 77.877,149.163 77.877,149.163 C77.877,149.163 76.121,148.977 76.121,148.977 C76.121,148.977 76.062,147.629 76.062,147.629 C76.062,147.629 79.536,147.998 79.536,147.998 C79.536,147.998 79.096,152.115 79.096,152.115 C78.225,152.554 77.122,152.791 75.968,152.669 C73.222,152.378 71.909,150.416 72.194,147.750 C72.479,145.071 74.265,143.425 76.898,143.705 ZM86.948,144.429 C86.948,144.429 86.905,145.839 86.905,145.839 C86.905,145.839 83.500,145.735 83.500,145.735 C83.500,145.735 83.436,147.811 83.436,147.811 C83.436,147.811 86.059,147.891 86.059,147.891 C86.059,147.891 86.243,149.295 86.243,149.295 C86.243,149.295 83.394,149.208 83.394,149.208 C83.394,149.208 83.321,151.599 83.321,151.599 C83.321,151.599 86.851,151.707 86.851,151.707 C86.851,151.707 86.808,153.116 86.808,153.116 C86.808,153.116 81.626,152.958 81.626,152.958 C81.626,152.958 81.891,144.275 81.891,144.275 C81.891,144.275 86.948,144.429 86.948,144.429 ZM95.635,143.947 C98.102,143.772 99.824,145.417 100.014,148.079 C100.157,150.088 99.325,151.549 97.946,152.252 C97.946,152.252 100.253,152.858 100.253,152.858 C100.253,152.858 100.040,154.312 100.040,154.312 C100.040,154.312 95.135,152.906 95.135,152.906 C93.135,152.341 92.027,150.993 91.868,148.745 C91.676,146.058 93.157,144.123 95.635,143.947 ZM93.566,148.625 C93.699,150.495 94.685,151.726 96.169,151.621 C97.666,151.514 98.467,150.157 98.334,148.287 C98.200,146.403 97.206,145.224 95.721,145.329 C94.224,145.436 93.432,146.742 93.566,148.625 ZM120.417,139.686 C120.417,139.686 122.431,146.602 122.431,146.602 C122.431,146.602 125.217,145.794 125.217,145.794 C125.217,145.794 125.850,147.157 125.850,147.157 C125.850,147.157 121.235,148.496 121.235,148.496 C121.235,148.496 118.806,140.153 118.806,140.153 C118.806,140.153 120.417,139.686 120.417,139.686 ZM126.630,137.734 C126.630,137.734 129.410,145.963 129.410,145.963 C129.410,145.963 127.821,146.497 127.821,146.497 C127.821,146.497 125.041,138.268 125.041,138.268 C125.041,138.268 126.630,137.734 126.630,137.734 ZM149.768,126.642 C150.715,126.063 151.580,125.857 152.390,125.849 C152.390,125.849 152.997,127.294 152.997,127.294 C152.193,127.240 151.342,127.348 150.525,127.848 C149.073,128.737 148.989,130.237 149.959,131.815 C150.936,133.403 152.335,133.994 153.830,133.078 C154.346,132.762 154.646,132.430 154.893,132.013 C154.893,132.013 153.883,130.372 153.883,130.372 C153.883,130.372 152.377,131.294 152.377,131.294 C152.377,131.294 151.506,130.262 151.506,130.262 C151.506,130.262 154.484,128.437 154.484,128.437 C154.484,128.437 156.656,131.967 156.656,131.967 C156.234,132.847 155.505,133.707 154.516,134.313 C152.161,135.756 149.920,135.000 148.514,132.715 C147.102,130.418 147.510,128.026 149.768,126.642 ZM155.318,123.191 C155.318,123.191 158.430,127.404 158.430,127.404 C159.216,128.467 160.196,128.777 161.181,128.054 C162.176,127.322 162.209,126.328 161.416,125.255 C161.416,125.255 158.282,121.011 158.282,121.011 C158.282,121.011 159.632,120.018 159.632,120.018 C159.632,120.018 162.773,124.272 162.773,124.272 C164.142,126.125 163.725,127.979 162.031,129.225 C160.336,130.473 158.490,130.284 157.144,128.460 C157.144,128.460 153.979,124.176 153.979,124.176 C153.979,124.176 155.318,123.191 155.318,123.191 ZM164.170,116.053 C164.170,116.053 172.211,120.316 172.211,120.316 C172.211,120.316 171.156,121.652 171.156,121.652 C171.156,121.652 169.010,120.486 169.010,120.486 C169.010,120.486 166.545,122.663 166.545,122.663 C166.545,122.663 167.441,124.814 167.441,124.814 C167.441,124.814 166.184,125.924 166.184,125.924 C166.184,125.924 162.837,117.229 162.837,117.229 C162.837,117.229 164.170,116.053 164.170,116.053 ZM165.982,121.345 C165.982,121.345 167.758,119.777 167.758,119.777 C167.758,119.777 164.647,118.036 164.647,118.036 C164.647,118.036 165.982,121.345 165.982,121.345 ZM169.340,111.042 C170.668,109.625 172.142,109.398 173.377,110.552 C174.307,111.420 174.422,112.459 173.958,113.508 C173.958,113.508 178.066,114.120 178.066,114.120 C178.066,114.120 177.090,115.623 177.090,115.623 C177.090,115.623 173.041,114.946 173.041,114.946 C173.041,114.946 172.558,115.461 172.558,115.461 C172.558,115.461 174.990,117.733 174.990,117.733 C174.990,117.733 173.852,118.946 173.852,118.946 C173.852,118.946 167.495,113.009 167.495,113.009 C167.495,113.009 169.340,111.042 169.340,111.042 ZM171.618,114.602 C171.618,114.602 172.197,113.985 172.197,113.985 C172.903,113.231 172.984,112.427 172.321,111.807 C171.684,111.213 170.946,111.282 170.231,112.046 C170.231,112.046 169.601,112.717 169.601,112.717 C169.601,112.717 171.618,114.602 171.618,114.602 ZM175.249,103.944 C175.249,103.944 183.976,106.554 183.976,106.554 C183.976,106.554 183.201,108.071 183.201,108.071 C183.201,108.071 180.869,107.347 180.869,107.347 C180.869,107.347 178.877,109.966 178.877,109.966 C178.877,109.966 180.178,111.901 180.178,111.901 C180.178,111.901 179.163,113.235 179.163,113.235 C179.163,113.235 174.174,105.358 174.174,105.358 C174.174,105.358 175.249,103.944 175.249,103.944 ZM178.066,108.782 C178.066,108.782 179.501,106.896 179.501,106.896 C179.501,106.896 176.108,105.795 176.108,105.795 C176.108,105.795 178.066,108.782 178.066,108.782 ZM178.624,99.085 C178.624,99.085 185.517,98.543 185.517,98.543 C185.517,98.543 180.575,95.703 180.575,95.703 C180.575,95.703 181.350,94.361 181.350,94.361 C181.350,94.361 188.893,98.698 188.893,98.698 C188.893,98.698 188.200,99.898 188.200,99.898 C188.200,99.898 180.961,100.458 180.961,100.458 C180.961,100.458 186.154,103.443 186.154,103.443 C186.154,103.443 185.379,104.785 185.379,104.785 C185.379,104.785 177.836,100.448 177.836,100.448 C177.836,100.448 178.624,99.085 178.624,99.085 ZM183.240,93.826 C183.240,93.826 181.898,93.278 181.898,93.278 C181.898,93.278 184.455,87.033 184.455,87.033 C184.455,87.033 185.889,87.359 185.889,87.359 C185.889,87.359 184.863,89.864 184.863,89.864 C184.863,89.864 191.576,92.602 191.576,92.602 C191.576,92.602 190.946,94.140 190.946,94.140 C190.946,94.140 184.233,91.402 184.233,91.402 C184.233,91.402 183.240,93.826 183.240,93.826 ZM186.103,80.826 C186.103,80.826 187.470,81.179 187.470,81.179 C187.470,81.179 186.616,84.470 186.616,84.470 C186.616,84.470 188.631,84.990 188.631,84.990 C188.631,84.990 189.289,82.456 189.289,82.456 C189.289,82.456 190.701,82.587 190.701,82.587 C190.701,82.587 189.986,85.341 189.986,85.341 C189.986,85.341 192.306,85.940 192.306,85.940 C192.306,85.940 193.192,82.528 193.192,82.528 C193.192,82.528 194.559,82.882 194.559,82.882 C194.559,82.882 193.259,87.890 193.259,87.890 C193.259,87.890 184.835,85.712 184.835,85.712 C184.835,85.712 186.103,80.826 186.103,80.826 Z"/><path fill-rule="evenodd"  fill="rgb( 255, 255, 255 )" d="M177.386,64.053 C169.969,36.316 130.626,22.775 89.518,33.810 C48.408,44.848 21.096,76.280 28.514,104.022 C35.933,131.760 75.273,145.300 116.381,134.263 C157.491,123.226 184.804,91.792 177.386,64.053 Z"/><path fill-rule="evenodd"  fill="rgb( 26, 23, 27 )" d="M116.381,134.263 C75.273,145.300 35.933,131.760 28.514,104.022 C21.096,76.280 48.408,44.848 89.518,33.810 C130.626,22.775 169.969,36.316 177.386,64.053 C184.804,91.792 157.491,123.226 116.381,134.263 ZM140.838,41.849 C125.345,27.875 95.828,35.418 74.905,58.700 C53.983,81.982 49.581,112.183 65.070,126.161 C80.562,140.134 110.080,132.591 131.004,109.308 C151.927,86.025 156.331,55.824 140.838,41.849 ZM107.737,101.910 C97.872,104.558 87.730,98.691 85.087,88.808 C82.443,78.922 88.299,68.762 98.165,66.115 C108.029,63.466 118.170,69.331 120.813,79.215 C123.457,89.101 117.603,99.260 107.737,101.910 Z"/></g></svg>