<?xml version="1.0" encoding="utf-8"?> <!-- Generated by Layerhero SVG Exporter: http://www.layerhero.com/photoshop-svg-exporter --><!DOCTYPE svg PUBLIC "-//W3C//DTD SVG 1.1//EN" "http://www.w3.org/Graphics/SVG/1.1/DTD/svg11.dtd"><svg version="1.1" baseProfile="full" xmlns="http://www.w3.org/2000/svg" xmlns:xlink="http://www.w3.org/1999/xlink" xmlns:ev="http://www.w3.org/2001/xml-events" width="185" height="54" viewBox="0 0 185 54"><g transform="scale(NaN)" ><path fill-rule="evenodd"  fill="rgb( 0, 38, 62 )" d="M-0.407,-0.012 C-0.407,-0.012 183.417,-0.012 183.417,-0.012 C183.417,-0.012 183.417,54.002 183.417,54.002 C183.417,54.002 -0.407,54.002 -0.407,54.002 C-0.407,54.002 -0.407,-0.012 -0.407,-0.012 Z"/><path fill-rule="evenodd"  fill="rgb( 255, 255, 255 )" d="M153.245,31.834 C153.245,31.834 153.615,31.834 153.615,31.834 C155.651,31.834 156.306,31.429 157.064,29.701 C157.094,29.632 157.139,29.530 157.200,29.394 C157.200,29.394 157.978,29.662 157.978,29.662 C157.978,29.662 156.831,32.897 156.831,32.897 C156.831,32.897 145.774,32.897 145.774,32.897 C145.774,32.897 145.774,32.256 145.774,32.256 C146.117,32.315 146.423,32.342 146.747,32.342 C148.165,32.342 148.475,31.808 148.475,29.375 C148.475,29.375 148.475,24.409 148.475,24.409 C148.475,21.935 148.184,21.451 146.694,21.451 C146.372,21.451 146.217,21.467 145.939,21.528 C145.939,21.528 145.939,20.887 145.939,20.887 C145.939,20.887 156.734,20.887 156.734,20.887 C156.734,20.887 157.200,23.480 157.200,23.480 C157.200,23.480 156.472,23.614 156.472,23.614 C156.150,22.066 155.410,21.652 152.969,21.652 C152.255,21.652 151.773,21.701 150.982,21.853 C150.982,21.853 150.982,26.054 150.982,26.054 C150.982,26.054 153.129,26.054 153.129,26.054 C154.327,26.054 154.666,25.796 154.666,24.882 C154.666,24.736 154.660,24.649 154.635,24.437 C154.635,24.437 155.364,24.437 155.364,24.437 C155.364,24.437 155.364,28.523 155.364,28.523 C155.364,28.523 154.635,28.523 154.635,28.523 C154.669,28.158 154.674,28.086 154.674,27.949 C154.674,27.156 154.273,26.878 153.129,26.878 C153.129,26.878 150.982,26.878 150.982,26.878 C150.982,26.878 150.982,31.834 150.982,31.834 C150.982,31.834 153.245,31.834 153.245,31.834 ZM144.686,27.337 C144.686,27.337 144.607,27.334 144.607,27.334 C143.506,27.334 143.275,27.645 143.275,29.132 C143.275,30.001 143.303,31.254 143.345,32.284 C142.622,32.416 141.848,32.570 141.227,32.705 C139.414,33.100 138.664,33.203 137.604,33.203 C133.737,33.203 131.108,30.688 131.108,26.988 C131.108,23.082 133.788,20.629 138.053,20.629 C138.773,20.629 139.587,20.695 140.401,20.820 C140.401,20.820 141.460,20.983 141.460,20.983 C141.460,20.983 142.412,21.107 142.412,21.107 C142.412,21.107 142.840,21.174 142.840,21.174 C142.840,21.174 143.452,24.236 143.452,24.236 C143.452,24.236 142.539,24.399 142.539,24.399 C141.763,22.244 140.521,21.279 138.520,21.279 C135.664,21.279 133.774,23.369 133.774,26.528 C133.774,29.889 135.879,32.275 138.843,32.275 C139.580,32.275 140.124,32.177 140.809,31.920 C140.809,31.920 140.809,28.963 140.809,28.963 C140.809,28.963 140.809,28.610 140.809,28.610 C140.809,27.680 140.493,27.337 139.638,27.337 C139.539,27.337 139.391,27.343 139.196,27.356 C139.196,27.356 139.051,27.366 139.051,27.366 C139.051,27.366 139.051,26.657 139.051,26.657 C139.051,26.657 145.133,26.657 145.133,26.657 C145.133,26.657 145.133,27.366 145.133,27.366 C145.133,27.366 144.939,27.356 144.939,27.356 C144.939,27.356 144.686,27.337 144.686,27.337 ZM121.416,32.935 C121.416,32.935 120.065,32.906 120.065,32.906 C120.065,32.906 119.181,32.897 119.181,32.897 C119.181,32.897 118.579,32.897 118.579,32.897 C118.579,32.897 114.644,32.897 114.644,32.897 C114.644,32.897 114.644,32.256 114.644,32.256 C114.993,32.313 115.328,32.342 115.634,32.342 C117.095,32.342 117.394,31.838 117.394,29.375 C117.394,29.375 117.394,24.409 117.394,24.409 C117.394,21.914 117.113,21.451 115.599,21.451 C115.250,21.451 115.111,21.465 114.780,21.528 C114.780,21.528 114.780,20.887 114.780,20.887 C114.780,20.887 118.579,20.887 118.579,20.887 C118.579,20.887 119.026,20.887 119.026,20.887 C119.026,20.887 119.900,20.858 119.900,20.858 C119.900,20.858 120.940,20.830 120.940,20.830 C121.659,20.810 122.152,20.800 122.421,20.800 C126.684,20.800 128.937,22.660 128.937,26.178 C128.937,30.284 125.986,32.935 121.416,32.935 ZM121.797,21.509 C121.160,21.509 120.637,21.594 119.920,21.816 C119.920,21.816 119.920,31.882 119.920,31.882 C120.725,32.138 121.184,32.218 121.840,32.218 C124.508,32.218 126.206,29.960 126.206,26.414 C126.206,23.306 124.592,21.509 121.797,21.509 ZM105.375,32.256 C105.755,32.317 106.028,32.342 106.328,32.342 C107.790,32.342 108.076,31.856 108.076,29.375 C108.076,29.375 108.076,24.409 108.076,24.409 C108.076,21.908 107.805,21.451 106.316,21.451 C105.979,21.451 105.853,21.464 105.540,21.528 C105.540,21.528 105.540,20.887 105.540,20.887 C105.540,20.887 113.322,20.887 113.322,20.887 C113.322,20.887 113.322,21.528 113.322,21.528 C112.953,21.465 112.792,21.451 112.415,21.451 C110.902,21.451 110.621,21.914 110.621,24.409 C110.621,24.409 110.621,29.375 110.621,29.375 C110.621,31.839 110.920,32.342 112.383,32.342 C112.697,32.342 113.047,32.312 113.391,32.256 C113.391,32.256 113.391,32.897 113.391,32.897 C113.391,32.897 105.375,32.897 105.375,32.897 C105.375,32.897 105.375,32.256 105.375,32.256 ZM103.063,32.897 C103.063,32.897 102.470,32.916 102.470,32.916 C102.470,32.916 101.948,32.928 101.948,32.928 C100.755,32.928 100.234,32.548 99.457,31.107 C99.457,31.107 98.962,30.189 98.962,30.189 C97.672,27.797 97.109,27.301 95.678,27.289 C95.678,27.289 95.678,29.375 95.678,29.375 C95.678,31.859 95.960,32.342 97.412,32.342 C97.688,32.342 97.920,32.318 98.243,32.256 C98.243,32.256 98.243,32.897 98.243,32.897 C98.243,32.897 90.597,32.897 90.597,32.897 C90.597,32.897 90.597,32.256 90.597,32.256 C90.960,32.314 91.262,32.342 91.549,32.342 C92.879,32.341 93.298,31.771 93.298,29.959 C93.298,29.959 93.298,29.375 93.298,29.375 C93.298,29.375 93.298,24.409 93.298,24.409 C93.298,24.409 93.298,23.825 93.298,23.825 C93.298,22.008 92.891,21.451 91.565,21.451 C91.266,21.451 91.070,21.470 90.791,21.528 C90.791,21.528 90.791,20.887 90.791,20.887 C90.791,20.887 94.385,20.887 94.385,20.887 C94.385,20.887 94.804,20.887 94.804,20.887 C94.804,20.887 95.717,20.858 95.717,20.858 C95.717,20.858 96.650,20.830 96.650,20.830 C97.444,20.805 97.716,20.799 97.920,20.799 C100.676,20.799 102.032,21.755 102.032,23.698 C102.032,25.477 100.952,26.519 98.865,26.753 C100.081,27.388 100.524,27.862 101.411,29.480 C102.594,31.641 103.254,32.304 104.222,32.304 C104.329,32.304 104.380,32.299 104.773,32.256 C104.773,32.256 104.773,32.897 104.773,32.897 C104.773,32.897 103.451,32.897 103.451,32.897 C103.451,32.897 103.063,32.897 103.063,32.897 ZM99.438,23.891 C99.438,22.405 98.472,21.413 97.026,21.413 C96.618,21.413 96.112,21.496 95.678,21.634 C95.678,21.634 95.678,26.609 95.678,26.609 C96.052,26.644 96.212,26.652 96.482,26.652 C98.404,26.652 99.438,25.686 99.438,23.891 ZM88.770,29.317 C88.770,31.661 86.898,32.936 83.454,32.936 C83.204,32.936 82.815,32.929 82.289,32.916 C82.289,32.916 81.104,32.897 81.104,32.897 C81.104,32.897 80.589,32.897 80.589,32.897 C80.589,32.897 76.877,32.897 76.877,32.897 C76.877,32.897 76.877,32.256 76.877,32.256 C77.231,32.316 77.516,32.342 77.840,32.342 C79.280,32.342 79.569,31.846 79.569,29.375 C79.569,29.375 79.569,24.409 79.569,24.409 C79.569,21.902 79.299,21.451 77.798,21.451 C77.488,21.451 77.389,21.462 77.062,21.528 C77.062,21.528 77.062,20.887 77.062,20.887 C77.062,20.887 80.881,20.887 80.881,20.887 C80.881,20.887 81.415,20.887 81.415,20.887 C81.807,20.887 82.456,20.869 83.533,20.830 C84.057,20.810 84.458,20.801 84.734,20.801 C86.959,20.801 88.285,21.754 88.285,23.354 C88.285,24.894 87.236,25.899 85.165,26.342 C87.615,26.517 88.770,27.470 88.770,29.317 ZM85.826,23.524 C85.826,22.331 84.781,21.442 83.378,21.442 C82.956,21.442 82.708,21.492 81.998,21.719 C81.998,21.719 81.998,26.093 81.998,26.093 C82.280,26.140 82.645,26.170 82.949,26.170 C84.603,26.170 85.826,25.046 85.826,23.524 ZM83.010,26.827 C82.681,26.827 82.509,26.845 81.998,26.935 C81.998,26.935 81.998,31.968 81.998,31.968 C82.548,32.090 82.979,32.141 83.461,32.141 C85.045,32.141 86.157,30.951 86.157,29.257 C86.157,27.706 85.019,26.827 83.010,26.827 ZM68.735,32.256 C68.944,32.314 69.124,32.342 69.291,32.342 C70.450,32.342 70.747,31.737 70.747,29.375 C70.747,29.375 70.747,23.260 70.747,23.260 C70.589,23.561 70.473,23.788 70.397,23.940 C70.339,24.056 70.050,24.668 69.532,25.777 C69.532,25.777 68.570,27.835 68.570,27.835 C68.570,27.835 67.511,30.189 67.511,30.189 C66.971,31.389 66.664,32.078 66.588,32.256 C66.538,32.374 66.463,32.553 66.365,32.791 C66.365,32.791 65.568,32.791 65.568,32.791 C65.568,32.791 65.296,32.198 65.296,32.198 C64.302,30.031 64.131,29.669 63.401,28.188 C63.401,28.188 62.420,26.198 62.420,26.198 C61.911,25.166 61.584,24.509 61.439,24.227 C61.339,24.033 61.187,23.742 60.982,23.356 C60.982,23.356 60.982,29.375 60.982,29.375 C60.982,29.375 60.982,29.959 60.982,29.959 C60.982,31.752 61.399,32.342 62.669,32.342 C62.875,32.342 62.993,32.322 63.187,32.256 C63.187,32.256 63.187,32.897 63.187,32.897 C63.187,32.897 57.854,32.897 57.854,32.897 C57.854,32.897 57.854,32.256 57.854,32.256 C58.059,32.309 58.297,32.345 58.440,32.345 C59.653,32.345 59.933,31.788 59.933,29.375 C59.933,29.375 59.933,24.409 59.933,24.409 C59.933,24.409 59.933,23.825 59.933,23.825 C59.933,21.909 59.654,21.451 58.485,21.451 C58.246,21.451 58.121,21.469 57.931,21.528 C57.931,21.528 57.931,20.887 57.931,20.887 C57.931,20.887 62.362,20.887 62.362,20.887 C62.856,21.934 63.040,22.311 63.654,23.528 C64.196,24.603 64.542,25.295 64.694,25.605 C64.694,25.605 65.548,27.356 65.548,27.356 C65.548,27.356 66.384,29.021 66.384,29.021 C66.384,29.021 66.675,29.614 66.675,29.614 C67.164,28.693 67.332,28.352 67.832,27.270 C67.832,27.270 68.755,25.270 68.755,25.270 C68.755,25.270 69.726,23.174 69.726,23.174 C69.726,23.174 70.523,21.394 70.523,21.394 C70.523,21.394 70.747,20.887 70.747,20.887 C70.747,20.887 75.576,20.887 75.576,20.887 C75.576,20.887 75.576,21.528 75.576,21.528 C75.224,21.462 75.129,21.451 74.928,21.451 C73.597,21.451 73.360,21.898 73.360,24.409 C73.360,24.409 73.360,29.375 73.360,29.375 C73.360,31.779 73.649,32.342 74.881,32.342 C75.079,32.342 75.329,32.314 75.653,32.256 C75.653,32.256 75.653,32.897 75.653,32.897 C75.653,32.897 68.735,32.897 68.735,32.897 C68.735,32.897 68.735,32.256 68.735,32.256 ZM50.635,32.256 C50.931,32.330 51.029,32.343 51.305,32.343 C51.992,32.343 52.326,32.099 52.326,31.599 C52.326,31.458 52.274,31.243 52.179,30.992 C52.179,30.992 51.451,29.069 51.451,29.069 C51.451,29.069 47.302,29.069 47.302,29.069 C47.302,29.069 46.728,30.533 46.728,30.533 C46.728,30.533 46.622,30.820 46.622,30.820 C46.622,30.820 46.495,31.155 46.495,31.155 C46.452,31.292 46.425,31.451 46.425,31.574 C46.425,32.063 46.849,32.351 47.567,32.351 C47.810,32.351 47.922,32.336 48.283,32.256 C48.283,32.256 48.283,32.897 48.283,32.897 C48.283,32.897 42.939,32.897 42.939,32.897 C42.939,32.897 42.939,32.256 42.939,32.256 C43.206,32.318 43.325,32.334 43.514,32.334 C44.488,32.334 44.957,31.829 45.767,29.911 C45.767,29.911 46.078,29.174 46.078,29.174 C46.078,29.174 46.262,28.743 46.262,28.743 C46.262,28.743 49.886,20.160 49.886,20.160 C49.886,20.160 50.440,20.160 50.440,20.160 C50.440,20.160 52.656,25.624 52.656,25.624 C52.656,25.624 52.782,25.940 52.782,25.940 C55.024,31.546 55.533,32.351 56.829,32.351 C56.991,32.351 57.190,32.317 57.378,32.256 C57.378,32.256 57.378,32.897 57.378,32.897 C57.378,32.897 50.635,32.897 50.635,32.897 C50.635,32.897 50.635,32.256 50.635,32.256 ZM49.420,23.911 C49.420,23.911 47.632,28.188 47.632,28.188 C47.632,28.188 51.120,28.188 51.120,28.188 C51.120,28.188 49.420,23.911 49.420,23.911 ZM35.729,33.739 C38.667,33.739 40.722,32.080 41.501,29.079 C41.501,29.079 42.561,29.212 42.561,29.212 C42.561,29.212 42.123,33.021 42.123,33.021 C39.413,34.415 37.448,34.964 35.170,34.964 C29.707,34.964 25.990,31.465 25.990,26.321 C25.990,21.365 29.586,18.064 34.983,18.064 C37.126,18.064 38.424,18.338 40.967,19.327 C41.066,19.366 41.215,19.423 41.414,19.499 C41.414,19.499 42.201,23.442 42.201,23.442 C42.201,23.442 41.142,23.653 41.142,23.653 C40.501,21.030 38.248,19.336 35.399,19.336 C31.909,19.336 29.308,22.378 29.308,26.461 C29.308,30.670 32.016,33.739 35.729,33.739 Z"/></g></svg>