<?xml version="1.0" encoding="utf-8"?> <!-- Generated by Layerhero SVG Exporter: http://www.layerhero.com/photoshop-svg-exporter --><!DOCTYPE svg PUBLIC "-//W3C//DTD SVG 1.1//EN" "http://www.w3.org/Graphics/SVG/1.1/DTD/svg11.dtd"><svg version="1.1" baseProfile="full" xmlns="http://www.w3.org/2000/svg" xmlns:xlink="http://www.w3.org/1999/xlink" xmlns:ev="http://www.w3.org/2001/xml-events" width="64" height="59" viewBox="0 0 64 59"><g transform="scale(NaN)" ><path fill-rule="evenodd"  fill="rgb( 234, 87, 91 )" d="M48.000,48.500 C48.000,48.500 32.000,54.500 32.000,54.500 C32.000,54.500 16.000,50.500 16.000,50.500 C16.000,50.500 -0.000,58.500 -0.000,58.500 C-0.000,58.500 -0.000,10.456 -0.000,10.456 C-0.000,10.456 16.000,2.500 16.000,2.500 C16.000,2.500 32.000,10.500 32.000,10.500 C32.000,10.500 48.000,0.500 48.000,0.500 C48.000,0.500 64.000,8.500 64.000,8.500 C64.000,8.500 64.000,54.500 64.000,54.500 C64.000,54.500 48.000,48.500 48.000,48.500 ZM60.000,10.500 C60.000,10.500 48.000,4.500 48.000,4.500 C48.000,4.500 32.000,14.500 32.000,14.500 C32.000,14.500 16.000,6.500 16.000,6.500 C16.000,6.500 4.000,12.500 4.000,12.500 C4.000,12.500 4.000,52.500 4.000,52.500 C4.000,52.500 16.000,46.500 16.000,46.500 C16.000,46.500 32.000,50.500 32.000,50.500 C32.000,50.500 48.000,44.500 48.000,44.500 C48.000,44.500 60.000,48.500 60.000,48.500 C60.000,48.500 60.000,10.500 60.000,10.500 ZM48.000,11.782 C48.000,11.087 48.448,10.524 49.000,10.524 C49.552,10.524 50.000,11.087 50.000,11.782 C50.000,11.782 50.000,39.240 50.000,39.240 C50.000,39.935 49.552,40.498 49.000,40.498 C48.448,40.498 48.000,39.935 48.000,39.240 C48.000,39.240 48.000,11.782 48.000,11.782 ZM33.000,44.498 C32.448,44.498 32.000,43.935 32.000,43.240 C32.000,43.240 32.000,19.782 32.000,19.782 C32.000,19.087 32.448,18.524 33.000,18.524 C33.552,18.524 34.000,19.087 34.000,19.782 C34.000,19.782 34.000,43.240 34.000,43.240 C34.000,43.935 33.552,44.498 33.000,44.498 ZM17.000,42.499 C16.448,42.499 16.000,41.935 16.000,41.240 C16.000,41.240 16.000,13.782 16.000,13.782 C16.000,13.087 16.448,12.524 17.000,12.524 C17.552,12.524 18.000,13.087 18.000,13.782 C18.000,13.782 18.000,41.240 18.000,41.240 C18.000,41.935 17.552,42.499 17.000,42.499 Z"/></g></svg>