<?xml version="1.0" encoding="utf-8"?>
<!-- Generator: Adobe Illustrator 17.1.0, SVG Export Plug-In . SVG Version: 6.00 Build 0)  -->
<!DOCTYPE svg PUBLIC "-//W3C//DTD SVG 1.1//EN" "http://www.w3.org/Graphics/SVG/1.1/DTD/svg11.dtd">
<svg version="1.1" id="Layer_1" xmlns:ev="http://www.w3.org/2001/xml-events"
	 xmlns="http://www.w3.org/2000/svg" xmlns:xlink="http://www.w3.org/1999/xlink" x="0px" y="0px" viewBox="0 0 38 38"
	 enable-background="new 0 0 38 38" xml:space="preserve">
<g transform="scale(NaN)">
	<path fill="#FFFFFF" d="M19,0L19,0c10.5,0,19,8.5,19,19v0c0,10.5-8.5,19-19,19h0C8.5,38,0,29.5,0,19v0C0,8.5,8.5,0,19,0z"/>
	<path fill="#FFF568" d="M19,2L19,2c9.4,0,17,7.6,17,17l0,0c0,9.4-7.6,17-17,17l0,0C9.6,36,2,28.4,2,19l0,0C2,9.6,9.6,2,19,2z"/>
	<g>
		<path fill="#EA575B" d="M11,22.5c-0.1,0-0.2,0-0.2-0.1c-0.2-0.1-0.3-0.3-0.3-0.5l0-0.1c0-0.1,0.1-0.2,0.1-0.3l8-7.9
			c0.2-0.2,0.5-0.2,0.7,0l8,7.9c0.1,0.1,0.1,0.2,0.1,0.3c0,0.1,0,0.1,0,0.2c0,0.3-0.2,0.5-0.5,0.5c0,0,0,0,0,0c-0.1,0-0.2,0-0.3-0.1
			L19,15.8l-7.7,6.6C11.2,22.5,11.1,22.5,11,22.5z"/>
	</g>
</g>
</svg>
